%TF.GenerationSoftware,KiCad,Pcbnew,10.0.0*%
%TF.CreationDate,2026-04-29T16:12:48-04:00*%
%TF.ProjectId,Flight_Computer_REV01,466c6967-6874-45f4-936f-6d7075746572,rev?*%
%TF.SameCoordinates,Original*%
%TF.FileFunction,Paste,Top*%
%TF.FilePolarity,Positive*%
%FSLAX46Y46*%
G04 Gerber Fmt 4.6, Leading zero omitted, Abs format (unit mm)*
G04 Created by KiCad (PCBNEW 10.0.0) date 2026-04-29 16:12:48*
%MOMM*%
%LPD*%
G01*
G04 APERTURE LIST*
G04 Aperture macros list*
%AMRoundRect*
0 Rectangle with rounded corners*
0 $1 Rounding radius*
0 $2 $3 $4 $5 $6 $7 $8 $9 X,Y pos of 4 corners*
0 Add a 4 corners polygon primitive as box body*
4,1,4,$2,$3,$4,$5,$6,$7,$8,$9,$2,$3,0*
0 Add four circle primitives for the rounded corners*
1,1,$1+$1,$2,$3*
1,1,$1+$1,$4,$5*
1,1,$1+$1,$6,$7*
1,1,$1+$1,$8,$9*
0 Add four rect primitives between the rounded corners*
20,1,$1+$1,$2,$3,$4,$5,0*
20,1,$1+$1,$4,$5,$6,$7,0*
20,1,$1+$1,$6,$7,$8,$9,0*
20,1,$1+$1,$8,$9,$2,$3,0*%
G04 Aperture macros list end*
%ADD10C,0.150000*%
%ADD11RoundRect,0.135000X-0.135000X-0.185000X0.135000X-0.185000X0.135000X0.185000X-0.135000X0.185000X0*%
%ADD12RoundRect,0.250000X0.250000X0.475000X-0.250000X0.475000X-0.250000X-0.475000X0.250000X-0.475000X0*%
%ADD13RoundRect,0.150000X-0.150000X0.512500X-0.150000X-0.512500X0.150000X-0.512500X0.150000X0.512500X0*%
%ADD14RoundRect,0.140000X-0.140000X-0.170000X0.140000X-0.170000X0.140000X0.170000X-0.140000X0.170000X0*%
%ADD15RoundRect,0.140000X-0.170000X0.140000X-0.170000X-0.140000X0.170000X-0.140000X0.170000X0.140000X0*%
%ADD16RoundRect,0.225000X-0.250000X0.225000X-0.250000X-0.225000X0.250000X-0.225000X0.250000X0.225000X0*%
%ADD17RoundRect,0.135000X-0.185000X0.135000X-0.185000X-0.135000X0.185000X-0.135000X0.185000X0.135000X0*%
%ADD18RoundRect,0.079500X-0.100500X0.079500X-0.100500X-0.079500X0.100500X-0.079500X0.100500X0.079500X0*%
%ADD19RoundRect,0.225000X0.225000X0.250000X-0.225000X0.250000X-0.225000X-0.250000X0.225000X-0.250000X0*%
%ADD20RoundRect,0.135000X0.135000X0.185000X-0.135000X0.185000X-0.135000X-0.185000X0.135000X-0.185000X0*%
%ADD21RoundRect,0.250000X-0.250000X-0.475000X0.250000X-0.475000X0.250000X0.475000X-0.250000X0.475000X0*%
%ADD22RoundRect,0.250000X0.325000X1.100000X-0.325000X1.100000X-0.325000X-1.100000X0.325000X-1.100000X0*%
%ADD23RoundRect,0.135000X0.185000X-0.135000X0.185000X0.135000X-0.185000X0.135000X-0.185000X-0.135000X0*%
%ADD24RoundRect,0.250000X-0.475000X0.250000X-0.475000X-0.250000X0.475000X-0.250000X0.475000X0.250000X0*%
%ADD25RoundRect,0.250000X-0.270000X-0.270000X0.270000X-0.270000X0.270000X0.270000X-0.270000X0.270000X0*%
%ADD26RoundRect,0.062500X-0.375000X-0.062500X0.375000X-0.062500X0.375000X0.062500X-0.375000X0.062500X0*%
%ADD27RoundRect,0.062500X-0.062500X-0.375000X0.062500X-0.375000X0.062500X0.375000X-0.062500X0.375000X0*%
%ADD28RoundRect,0.140000X0.140000X0.170000X-0.140000X0.170000X-0.140000X-0.170000X0.140000X-0.170000X0*%
%ADD29R,0.685800X0.584200*%
%ADD30RoundRect,0.140000X0.170000X-0.140000X0.170000X0.140000X-0.170000X0.140000X-0.170000X-0.140000X0*%
%ADD31C,0.400000*%
%ADD32RoundRect,0.250000X0.475000X-0.250000X0.475000X0.250000X-0.475000X0.250000X-0.475000X-0.250000X0*%
%ADD33RoundRect,0.225000X-0.225000X-0.250000X0.225000X-0.250000X0.225000X0.250000X-0.225000X0.250000X0*%
%ADD34RoundRect,0.225000X0.250000X-0.225000X0.250000X0.225000X-0.250000X0.225000X-0.250000X-0.225000X0*%
%ADD35R,0.900000X0.800000*%
%ADD36R,0.800000X1.500000*%
%ADD37RoundRect,0.362500X-0.362500X-0.637500X0.362500X-0.637500X0.362500X0.637500X-0.362500X0.637500X0*%
%ADD38C,0.420000*%
%ADD39RoundRect,0.237500X-0.237500X-0.292500X0.237500X-0.292500X0.237500X0.292500X-0.237500X0.292500X0*%
%ADD40R,0.850000X0.650000*%
%ADD41R,2.060000X1.080000*%
%ADD42RoundRect,0.250000X0.435000X0.615000X-0.435000X0.615000X-0.435000X-0.615000X0.435000X-0.615000X0*%
%ADD43RoundRect,0.125000X0.200000X0.125000X-0.200000X0.125000X-0.200000X-0.125000X0.200000X-0.125000X0*%
G04 APERTURE END LIST*
D10*
%TO.C,U12*%
X236730000Y-90355000D02*
X236580000Y-90355000D01*
X236580000Y-89275000D01*
X236730000Y-89275000D01*
X236730000Y-90355000D01*
G36*
X236730000Y-90355000D02*
G01*
X236580000Y-90355000D01*
X236580000Y-89275000D01*
X236730000Y-89275000D01*
X236730000Y-90355000D01*
G37*
X236730000Y-91985000D02*
X236580000Y-91985000D01*
X236580000Y-90905000D01*
X236730000Y-90905000D01*
X236730000Y-91985000D01*
G36*
X236730000Y-91985000D02*
G01*
X236580000Y-91985000D01*
X236580000Y-90905000D01*
X236730000Y-90905000D01*
X236730000Y-91985000D01*
G37*
X236730000Y-92725000D02*
X236580000Y-92725000D01*
X236580000Y-92575000D01*
X236730000Y-92575000D01*
X236730000Y-92725000D01*
G36*
X236730000Y-92725000D02*
G01*
X236580000Y-92725000D01*
X236580000Y-92575000D01*
X236730000Y-92575000D01*
X236730000Y-92725000D01*
G37*
X237370000Y-90355000D02*
X237220000Y-90355000D01*
X237220000Y-89275000D01*
X237370000Y-89275000D01*
X237370000Y-90355000D01*
G36*
X237370000Y-90355000D02*
G01*
X237220000Y-90355000D01*
X237220000Y-89275000D01*
X237370000Y-89275000D01*
X237370000Y-90355000D01*
G37*
X237370000Y-91985000D02*
X237220000Y-91985000D01*
X237220000Y-90905000D01*
X237370000Y-90905000D01*
X237370000Y-91985000D01*
G36*
X237370000Y-91985000D02*
G01*
X237220000Y-91985000D01*
X237220000Y-90905000D01*
X237370000Y-90905000D01*
X237370000Y-91985000D01*
G37*
X237370000Y-92725000D02*
X237220000Y-92725000D01*
X237220000Y-92575000D01*
X237370000Y-92575000D01*
X237370000Y-92725000D01*
G36*
X237370000Y-92725000D02*
G01*
X237220000Y-92725000D01*
X237220000Y-92575000D01*
X237370000Y-92575000D01*
X237370000Y-92725000D01*
G37*
X238010000Y-90355000D02*
X237860000Y-90355000D01*
X237860000Y-89275000D01*
X238010000Y-89275000D01*
X238010000Y-90355000D01*
G36*
X238010000Y-90355000D02*
G01*
X237860000Y-90355000D01*
X237860000Y-89275000D01*
X238010000Y-89275000D01*
X238010000Y-90355000D01*
G37*
X238010000Y-91985000D02*
X237860000Y-91985000D01*
X237860000Y-90905000D01*
X238010000Y-90905000D01*
X238010000Y-91985000D01*
G36*
X238010000Y-91985000D02*
G01*
X237860000Y-91985000D01*
X237860000Y-90905000D01*
X238010000Y-90905000D01*
X238010000Y-91985000D01*
G37*
X238010000Y-92725000D02*
X237860000Y-92725000D01*
X237860000Y-92575000D01*
X238010000Y-92575000D01*
X238010000Y-92725000D01*
G36*
X238010000Y-92725000D02*
G01*
X237860000Y-92725000D01*
X237860000Y-92575000D01*
X238010000Y-92575000D01*
X238010000Y-92725000D01*
G37*
X238650000Y-90355000D02*
X238500000Y-90355000D01*
X238500000Y-89275000D01*
X238650000Y-89275000D01*
X238650000Y-90355000D01*
G36*
X238650000Y-90355000D02*
G01*
X238500000Y-90355000D01*
X238500000Y-89275000D01*
X238650000Y-89275000D01*
X238650000Y-90355000D01*
G37*
X238650000Y-91985000D02*
X238500000Y-91985000D01*
X238500000Y-90905000D01*
X238650000Y-90905000D01*
X238650000Y-91985000D01*
G36*
X238650000Y-91985000D02*
G01*
X238500000Y-91985000D01*
X238500000Y-90905000D01*
X238650000Y-90905000D01*
X238650000Y-91985000D01*
G37*
X238650000Y-92725000D02*
X238500000Y-92725000D01*
X238500000Y-92575000D01*
X238650000Y-92575000D01*
X238650000Y-92725000D01*
G36*
X238650000Y-92725000D02*
G01*
X238500000Y-92725000D01*
X238500000Y-92575000D01*
X238650000Y-92575000D01*
X238650000Y-92725000D01*
G37*
%TO.C,U14*%
X242130000Y-105540000D02*
X241980000Y-105540000D01*
X241980000Y-105390000D01*
X242130000Y-105390000D01*
X242130000Y-105540000D01*
G36*
X242130000Y-105540000D02*
G01*
X241980000Y-105540000D01*
X241980000Y-105390000D01*
X242130000Y-105390000D01*
X242130000Y-105540000D01*
G37*
X242130000Y-107210000D02*
X241980000Y-107210000D01*
X241980000Y-106130000D01*
X242130000Y-106130000D01*
X242130000Y-107210000D01*
G36*
X242130000Y-107210000D02*
G01*
X241980000Y-107210000D01*
X241980000Y-106130000D01*
X242130000Y-106130000D01*
X242130000Y-107210000D01*
G37*
X242130000Y-108840000D02*
X241980000Y-108840000D01*
X241980000Y-107760000D01*
X242130000Y-107760000D01*
X242130000Y-108840000D01*
G36*
X242130000Y-108840000D02*
G01*
X241980000Y-108840000D01*
X241980000Y-107760000D01*
X242130000Y-107760000D01*
X242130000Y-108840000D01*
G37*
X242770000Y-105540000D02*
X242620000Y-105540000D01*
X242620000Y-105390000D01*
X242770000Y-105390000D01*
X242770000Y-105540000D01*
G36*
X242770000Y-105540000D02*
G01*
X242620000Y-105540000D01*
X242620000Y-105390000D01*
X242770000Y-105390000D01*
X242770000Y-105540000D01*
G37*
X242770000Y-107210000D02*
X242620000Y-107210000D01*
X242620000Y-106130000D01*
X242770000Y-106130000D01*
X242770000Y-107210000D01*
G36*
X242770000Y-107210000D02*
G01*
X242620000Y-107210000D01*
X242620000Y-106130000D01*
X242770000Y-106130000D01*
X242770000Y-107210000D01*
G37*
X242770000Y-108840000D02*
X242620000Y-108840000D01*
X242620000Y-107760000D01*
X242770000Y-107760000D01*
X242770000Y-108840000D01*
G36*
X242770000Y-108840000D02*
G01*
X242620000Y-108840000D01*
X242620000Y-107760000D01*
X242770000Y-107760000D01*
X242770000Y-108840000D01*
G37*
X243410000Y-105540000D02*
X243260000Y-105540000D01*
X243260000Y-105390000D01*
X243410000Y-105390000D01*
X243410000Y-105540000D01*
G36*
X243410000Y-105540000D02*
G01*
X243260000Y-105540000D01*
X243260000Y-105390000D01*
X243410000Y-105390000D01*
X243410000Y-105540000D01*
G37*
X243410000Y-107210000D02*
X243260000Y-107210000D01*
X243260000Y-106130000D01*
X243410000Y-106130000D01*
X243410000Y-107210000D01*
G36*
X243410000Y-107210000D02*
G01*
X243260000Y-107210000D01*
X243260000Y-106130000D01*
X243410000Y-106130000D01*
X243410000Y-107210000D01*
G37*
X243410000Y-108840000D02*
X243260000Y-108840000D01*
X243260000Y-107760000D01*
X243410000Y-107760000D01*
X243410000Y-108840000D01*
G36*
X243410000Y-108840000D02*
G01*
X243260000Y-108840000D01*
X243260000Y-107760000D01*
X243410000Y-107760000D01*
X243410000Y-108840000D01*
G37*
X244050000Y-105540000D02*
X243900000Y-105540000D01*
X243900000Y-105390000D01*
X244050000Y-105390000D01*
X244050000Y-105540000D01*
G36*
X244050000Y-105540000D02*
G01*
X243900000Y-105540000D01*
X243900000Y-105390000D01*
X244050000Y-105390000D01*
X244050000Y-105540000D01*
G37*
X244050000Y-107210000D02*
X243900000Y-107210000D01*
X243900000Y-106130000D01*
X244050000Y-106130000D01*
X244050000Y-107210000D01*
G36*
X244050000Y-107210000D02*
G01*
X243900000Y-107210000D01*
X243900000Y-106130000D01*
X244050000Y-106130000D01*
X244050000Y-107210000D01*
G37*
X244050000Y-108840000D02*
X243900000Y-108840000D01*
X243900000Y-107760000D01*
X244050000Y-107760000D01*
X244050000Y-108840000D01*
G36*
X244050000Y-108840000D02*
G01*
X243900000Y-108840000D01*
X243900000Y-107760000D01*
X244050000Y-107760000D01*
X244050000Y-108840000D01*
G37*
%TO.C,U11*%
X232132500Y-83745000D02*
X231982500Y-83745000D01*
X231982500Y-83595000D01*
X232132500Y-83595000D01*
X232132500Y-83745000D01*
G36*
X232132500Y-83745000D02*
G01*
X231982500Y-83745000D01*
X231982500Y-83595000D01*
X232132500Y-83595000D01*
X232132500Y-83745000D01*
G37*
X232132500Y-84385000D02*
X231982500Y-84385000D01*
X231982500Y-84235000D01*
X232132500Y-84235000D01*
X232132500Y-84385000D01*
G36*
X232132500Y-84385000D02*
G01*
X231982500Y-84385000D01*
X231982500Y-84235000D01*
X232132500Y-84235000D01*
X232132500Y-84385000D01*
G37*
X232132500Y-85025000D02*
X231982500Y-85025000D01*
X231982500Y-84875000D01*
X232132500Y-84875000D01*
X232132500Y-85025000D01*
G36*
X232132500Y-85025000D02*
G01*
X231982500Y-85025000D01*
X231982500Y-84875000D01*
X232132500Y-84875000D01*
X232132500Y-85025000D01*
G37*
X232132500Y-85665000D02*
X231982500Y-85665000D01*
X231982500Y-85515000D01*
X232132500Y-85515000D01*
X232132500Y-85665000D01*
G36*
X232132500Y-85665000D02*
G01*
X231982500Y-85665000D01*
X231982500Y-85515000D01*
X232132500Y-85515000D01*
X232132500Y-85665000D01*
G37*
X233802500Y-83745000D02*
X232722500Y-83745000D01*
X232722500Y-83595000D01*
X233802500Y-83595000D01*
X233802500Y-83745000D01*
G36*
X233802500Y-83745000D02*
G01*
X232722500Y-83745000D01*
X232722500Y-83595000D01*
X233802500Y-83595000D01*
X233802500Y-83745000D01*
G37*
X233802500Y-84385000D02*
X232722500Y-84385000D01*
X232722500Y-84235000D01*
X233802500Y-84235000D01*
X233802500Y-84385000D01*
G36*
X233802500Y-84385000D02*
G01*
X232722500Y-84385000D01*
X232722500Y-84235000D01*
X233802500Y-84235000D01*
X233802500Y-84385000D01*
G37*
X233802500Y-85025000D02*
X232722500Y-85025000D01*
X232722500Y-84875000D01*
X233802500Y-84875000D01*
X233802500Y-85025000D01*
G36*
X233802500Y-85025000D02*
G01*
X232722500Y-85025000D01*
X232722500Y-84875000D01*
X233802500Y-84875000D01*
X233802500Y-85025000D01*
G37*
X233802500Y-85665000D02*
X232722500Y-85665000D01*
X232722500Y-85515000D01*
X233802500Y-85515000D01*
X233802500Y-85665000D01*
G36*
X233802500Y-85665000D02*
G01*
X232722500Y-85665000D01*
X232722500Y-85515000D01*
X233802500Y-85515000D01*
X233802500Y-85665000D01*
G37*
X235432500Y-83745000D02*
X234352500Y-83745000D01*
X234352500Y-83595000D01*
X235432500Y-83595000D01*
X235432500Y-83745000D01*
G36*
X235432500Y-83745000D02*
G01*
X234352500Y-83745000D01*
X234352500Y-83595000D01*
X235432500Y-83595000D01*
X235432500Y-83745000D01*
G37*
X235432500Y-84385000D02*
X234352500Y-84385000D01*
X234352500Y-84235000D01*
X235432500Y-84235000D01*
X235432500Y-84385000D01*
G36*
X235432500Y-84385000D02*
G01*
X234352500Y-84385000D01*
X234352500Y-84235000D01*
X235432500Y-84235000D01*
X235432500Y-84385000D01*
G37*
X235432500Y-85025000D02*
X234352500Y-85025000D01*
X234352500Y-84875000D01*
X235432500Y-84875000D01*
X235432500Y-85025000D01*
G36*
X235432500Y-85025000D02*
G01*
X234352500Y-85025000D01*
X234352500Y-84875000D01*
X235432500Y-84875000D01*
X235432500Y-85025000D01*
G37*
X235432500Y-85665000D02*
X234352500Y-85665000D01*
X234352500Y-85515000D01*
X235432500Y-85515000D01*
X235432500Y-85665000D01*
G36*
X235432500Y-85665000D02*
G01*
X234352500Y-85665000D01*
X234352500Y-85515000D01*
X235432500Y-85515000D01*
X235432500Y-85665000D01*
G37*
%TO.C,U18*%
X231265000Y-113425000D02*
X231115000Y-113425000D01*
X231115000Y-113275000D01*
X231265000Y-113275000D01*
X231265000Y-113425000D01*
G36*
X231265000Y-113425000D02*
G01*
X231115000Y-113425000D01*
X231115000Y-113275000D01*
X231265000Y-113275000D01*
X231265000Y-113425000D01*
G37*
X231265000Y-114065000D02*
X231115000Y-114065000D01*
X231115000Y-113915000D01*
X231265000Y-113915000D01*
X231265000Y-114065000D01*
G36*
X231265000Y-114065000D02*
G01*
X231115000Y-114065000D01*
X231115000Y-113915000D01*
X231265000Y-113915000D01*
X231265000Y-114065000D01*
G37*
X231265000Y-114705000D02*
X231115000Y-114705000D01*
X231115000Y-114555000D01*
X231265000Y-114555000D01*
X231265000Y-114705000D01*
G36*
X231265000Y-114705000D02*
G01*
X231115000Y-114705000D01*
X231115000Y-114555000D01*
X231265000Y-114555000D01*
X231265000Y-114705000D01*
G37*
X231265000Y-115345000D02*
X231115000Y-115345000D01*
X231115000Y-115195000D01*
X231265000Y-115195000D01*
X231265000Y-115345000D01*
G36*
X231265000Y-115345000D02*
G01*
X231115000Y-115345000D01*
X231115000Y-115195000D01*
X231265000Y-115195000D01*
X231265000Y-115345000D01*
G37*
X232935000Y-113425000D02*
X231855000Y-113425000D01*
X231855000Y-113275000D01*
X232935000Y-113275000D01*
X232935000Y-113425000D01*
G36*
X232935000Y-113425000D02*
G01*
X231855000Y-113425000D01*
X231855000Y-113275000D01*
X232935000Y-113275000D01*
X232935000Y-113425000D01*
G37*
X232935000Y-114065000D02*
X231855000Y-114065000D01*
X231855000Y-113915000D01*
X232935000Y-113915000D01*
X232935000Y-114065000D01*
G36*
X232935000Y-114065000D02*
G01*
X231855000Y-114065000D01*
X231855000Y-113915000D01*
X232935000Y-113915000D01*
X232935000Y-114065000D01*
G37*
X232935000Y-114705000D02*
X231855000Y-114705000D01*
X231855000Y-114555000D01*
X232935000Y-114555000D01*
X232935000Y-114705000D01*
G36*
X232935000Y-114705000D02*
G01*
X231855000Y-114705000D01*
X231855000Y-114555000D01*
X232935000Y-114555000D01*
X232935000Y-114705000D01*
G37*
X232935000Y-115345000D02*
X231855000Y-115345000D01*
X231855000Y-115195000D01*
X232935000Y-115195000D01*
X232935000Y-115345000D01*
G36*
X232935000Y-115345000D02*
G01*
X231855000Y-115345000D01*
X231855000Y-115195000D01*
X232935000Y-115195000D01*
X232935000Y-115345000D01*
G37*
X234565000Y-113425000D02*
X233485000Y-113425000D01*
X233485000Y-113275000D01*
X234565000Y-113275000D01*
X234565000Y-113425000D01*
G36*
X234565000Y-113425000D02*
G01*
X233485000Y-113425000D01*
X233485000Y-113275000D01*
X234565000Y-113275000D01*
X234565000Y-113425000D01*
G37*
X234565000Y-114065000D02*
X233485000Y-114065000D01*
X233485000Y-113915000D01*
X234565000Y-113915000D01*
X234565000Y-114065000D01*
G36*
X234565000Y-114065000D02*
G01*
X233485000Y-114065000D01*
X233485000Y-113915000D01*
X234565000Y-113915000D01*
X234565000Y-114065000D01*
G37*
X234565000Y-114705000D02*
X233485000Y-114705000D01*
X233485000Y-114555000D01*
X234565000Y-114555000D01*
X234565000Y-114705000D01*
G36*
X234565000Y-114705000D02*
G01*
X233485000Y-114705000D01*
X233485000Y-114555000D01*
X234565000Y-114555000D01*
X234565000Y-114705000D01*
G37*
X234565000Y-115345000D02*
X233485000Y-115345000D01*
X233485000Y-115195000D01*
X234565000Y-115195000D01*
X234565000Y-115345000D01*
G36*
X234565000Y-115345000D02*
G01*
X233485000Y-115345000D01*
X233485000Y-115195000D01*
X234565000Y-115195000D01*
X234565000Y-115345000D01*
G37*
%TO.C,U15*%
X243110000Y-90510000D02*
X242960000Y-90510000D01*
X242960000Y-89430000D01*
X243110000Y-89430000D01*
X243110000Y-90510000D01*
G36*
X243110000Y-90510000D02*
G01*
X242960000Y-90510000D01*
X242960000Y-89430000D01*
X243110000Y-89430000D01*
X243110000Y-90510000D01*
G37*
X243110000Y-92140000D02*
X242960000Y-92140000D01*
X242960000Y-91060000D01*
X243110000Y-91060000D01*
X243110000Y-92140000D01*
G36*
X243110000Y-92140000D02*
G01*
X242960000Y-92140000D01*
X242960000Y-91060000D01*
X243110000Y-91060000D01*
X243110000Y-92140000D01*
G37*
X243110000Y-92880000D02*
X242960000Y-92880000D01*
X242960000Y-92730000D01*
X243110000Y-92730000D01*
X243110000Y-92880000D01*
G36*
X243110000Y-92880000D02*
G01*
X242960000Y-92880000D01*
X242960000Y-92730000D01*
X243110000Y-92730000D01*
X243110000Y-92880000D01*
G37*
X243750000Y-90510000D02*
X243600000Y-90510000D01*
X243600000Y-89430000D01*
X243750000Y-89430000D01*
X243750000Y-90510000D01*
G36*
X243750000Y-90510000D02*
G01*
X243600000Y-90510000D01*
X243600000Y-89430000D01*
X243750000Y-89430000D01*
X243750000Y-90510000D01*
G37*
X243750000Y-92140000D02*
X243600000Y-92140000D01*
X243600000Y-91060000D01*
X243750000Y-91060000D01*
X243750000Y-92140000D01*
G36*
X243750000Y-92140000D02*
G01*
X243600000Y-92140000D01*
X243600000Y-91060000D01*
X243750000Y-91060000D01*
X243750000Y-92140000D01*
G37*
X243750000Y-92880000D02*
X243600000Y-92880000D01*
X243600000Y-92730000D01*
X243750000Y-92730000D01*
X243750000Y-92880000D01*
G36*
X243750000Y-92880000D02*
G01*
X243600000Y-92880000D01*
X243600000Y-92730000D01*
X243750000Y-92730000D01*
X243750000Y-92880000D01*
G37*
X244390000Y-90510000D02*
X244240000Y-90510000D01*
X244240000Y-89430000D01*
X244390000Y-89430000D01*
X244390000Y-90510000D01*
G36*
X244390000Y-90510000D02*
G01*
X244240000Y-90510000D01*
X244240000Y-89430000D01*
X244390000Y-89430000D01*
X244390000Y-90510000D01*
G37*
X244390000Y-92140000D02*
X244240000Y-92140000D01*
X244240000Y-91060000D01*
X244390000Y-91060000D01*
X244390000Y-92140000D01*
G36*
X244390000Y-92140000D02*
G01*
X244240000Y-92140000D01*
X244240000Y-91060000D01*
X244390000Y-91060000D01*
X244390000Y-92140000D01*
G37*
X244390000Y-92880000D02*
X244240000Y-92880000D01*
X244240000Y-92730000D01*
X244390000Y-92730000D01*
X244390000Y-92880000D01*
G36*
X244390000Y-92880000D02*
G01*
X244240000Y-92880000D01*
X244240000Y-92730000D01*
X244390000Y-92730000D01*
X244390000Y-92880000D01*
G37*
X245030000Y-90510000D02*
X244880000Y-90510000D01*
X244880000Y-89430000D01*
X245030000Y-89430000D01*
X245030000Y-90510000D01*
G36*
X245030000Y-90510000D02*
G01*
X244880000Y-90510000D01*
X244880000Y-89430000D01*
X245030000Y-89430000D01*
X245030000Y-90510000D01*
G37*
X245030000Y-92140000D02*
X244880000Y-92140000D01*
X244880000Y-91060000D01*
X245030000Y-91060000D01*
X245030000Y-92140000D01*
G36*
X245030000Y-92140000D02*
G01*
X244880000Y-92140000D01*
X244880000Y-91060000D01*
X245030000Y-91060000D01*
X245030000Y-92140000D01*
G37*
X245030000Y-92880000D02*
X244880000Y-92880000D01*
X244880000Y-92730000D01*
X245030000Y-92730000D01*
X245030000Y-92880000D01*
G36*
X245030000Y-92880000D02*
G01*
X244880000Y-92880000D01*
X244880000Y-92730000D01*
X245030000Y-92730000D01*
X245030000Y-92880000D01*
G37*
%TO.C,U13*%
X245765000Y-113455000D02*
X244685000Y-113455000D01*
X244685000Y-113305000D01*
X245765000Y-113305000D01*
X245765000Y-113455000D01*
G36*
X245765000Y-113455000D02*
G01*
X244685000Y-113455000D01*
X244685000Y-113305000D01*
X245765000Y-113305000D01*
X245765000Y-113455000D01*
G37*
X245765000Y-114095000D02*
X244685000Y-114095000D01*
X244685000Y-113945000D01*
X245765000Y-113945000D01*
X245765000Y-114095000D01*
G36*
X245765000Y-114095000D02*
G01*
X244685000Y-114095000D01*
X244685000Y-113945000D01*
X245765000Y-113945000D01*
X245765000Y-114095000D01*
G37*
X245765000Y-114735000D02*
X244685000Y-114735000D01*
X244685000Y-114585000D01*
X245765000Y-114585000D01*
X245765000Y-114735000D01*
G36*
X245765000Y-114735000D02*
G01*
X244685000Y-114735000D01*
X244685000Y-114585000D01*
X245765000Y-114585000D01*
X245765000Y-114735000D01*
G37*
X245765000Y-115375000D02*
X244685000Y-115375000D01*
X244685000Y-115225000D01*
X245765000Y-115225000D01*
X245765000Y-115375000D01*
G36*
X245765000Y-115375000D02*
G01*
X244685000Y-115375000D01*
X244685000Y-115225000D01*
X245765000Y-115225000D01*
X245765000Y-115375000D01*
G37*
X247395000Y-113455000D02*
X246315000Y-113455000D01*
X246315000Y-113305000D01*
X247395000Y-113305000D01*
X247395000Y-113455000D01*
G36*
X247395000Y-113455000D02*
G01*
X246315000Y-113455000D01*
X246315000Y-113305000D01*
X247395000Y-113305000D01*
X247395000Y-113455000D01*
G37*
X247395000Y-114095000D02*
X246315000Y-114095000D01*
X246315000Y-113945000D01*
X247395000Y-113945000D01*
X247395000Y-114095000D01*
G36*
X247395000Y-114095000D02*
G01*
X246315000Y-114095000D01*
X246315000Y-113945000D01*
X247395000Y-113945000D01*
X247395000Y-114095000D01*
G37*
X247395000Y-114735000D02*
X246315000Y-114735000D01*
X246315000Y-114585000D01*
X247395000Y-114585000D01*
X247395000Y-114735000D01*
G36*
X247395000Y-114735000D02*
G01*
X246315000Y-114735000D01*
X246315000Y-114585000D01*
X247395000Y-114585000D01*
X247395000Y-114735000D01*
G37*
X247395000Y-115375000D02*
X246315000Y-115375000D01*
X246315000Y-115225000D01*
X247395000Y-115225000D01*
X247395000Y-115375000D01*
G36*
X247395000Y-115375000D02*
G01*
X246315000Y-115375000D01*
X246315000Y-115225000D01*
X247395000Y-115225000D01*
X247395000Y-115375000D01*
G37*
X248135000Y-113455000D02*
X247985000Y-113455000D01*
X247985000Y-113305000D01*
X248135000Y-113305000D01*
X248135000Y-113455000D01*
G36*
X248135000Y-113455000D02*
G01*
X247985000Y-113455000D01*
X247985000Y-113305000D01*
X248135000Y-113305000D01*
X248135000Y-113455000D01*
G37*
X248135000Y-114095000D02*
X247985000Y-114095000D01*
X247985000Y-113945000D01*
X248135000Y-113945000D01*
X248135000Y-114095000D01*
G36*
X248135000Y-114095000D02*
G01*
X247985000Y-114095000D01*
X247985000Y-113945000D01*
X248135000Y-113945000D01*
X248135000Y-114095000D01*
G37*
X248135000Y-114735000D02*
X247985000Y-114735000D01*
X247985000Y-114585000D01*
X248135000Y-114585000D01*
X248135000Y-114735000D01*
G36*
X248135000Y-114735000D02*
G01*
X247985000Y-114735000D01*
X247985000Y-114585000D01*
X248135000Y-114585000D01*
X248135000Y-114735000D01*
G37*
X248135000Y-115375000D02*
X247985000Y-115375000D01*
X247985000Y-115225000D01*
X248135000Y-115225000D01*
X248135000Y-115375000D01*
G36*
X248135000Y-115375000D02*
G01*
X247985000Y-115375000D01*
X247985000Y-115225000D01*
X248135000Y-115225000D01*
X248135000Y-115375000D01*
G37*
%TO.C,U17*%
X235450000Y-105540000D02*
X235300000Y-105540000D01*
X235300000Y-105390000D01*
X235450000Y-105390000D01*
X235450000Y-105540000D01*
G36*
X235450000Y-105540000D02*
G01*
X235300000Y-105540000D01*
X235300000Y-105390000D01*
X235450000Y-105390000D01*
X235450000Y-105540000D01*
G37*
X235450000Y-107210000D02*
X235300000Y-107210000D01*
X235300000Y-106130000D01*
X235450000Y-106130000D01*
X235450000Y-107210000D01*
G36*
X235450000Y-107210000D02*
G01*
X235300000Y-107210000D01*
X235300000Y-106130000D01*
X235450000Y-106130000D01*
X235450000Y-107210000D01*
G37*
X235450000Y-108840000D02*
X235300000Y-108840000D01*
X235300000Y-107760000D01*
X235450000Y-107760000D01*
X235450000Y-108840000D01*
G36*
X235450000Y-108840000D02*
G01*
X235300000Y-108840000D01*
X235300000Y-107760000D01*
X235450000Y-107760000D01*
X235450000Y-108840000D01*
G37*
X236090000Y-105540000D02*
X235940000Y-105540000D01*
X235940000Y-105390000D01*
X236090000Y-105390000D01*
X236090000Y-105540000D01*
G36*
X236090000Y-105540000D02*
G01*
X235940000Y-105540000D01*
X235940000Y-105390000D01*
X236090000Y-105390000D01*
X236090000Y-105540000D01*
G37*
X236090000Y-107210000D02*
X235940000Y-107210000D01*
X235940000Y-106130000D01*
X236090000Y-106130000D01*
X236090000Y-107210000D01*
G36*
X236090000Y-107210000D02*
G01*
X235940000Y-107210000D01*
X235940000Y-106130000D01*
X236090000Y-106130000D01*
X236090000Y-107210000D01*
G37*
X236090000Y-108840000D02*
X235940000Y-108840000D01*
X235940000Y-107760000D01*
X236090000Y-107760000D01*
X236090000Y-108840000D01*
G36*
X236090000Y-108840000D02*
G01*
X235940000Y-108840000D01*
X235940000Y-107760000D01*
X236090000Y-107760000D01*
X236090000Y-108840000D01*
G37*
X236730000Y-105540000D02*
X236580000Y-105540000D01*
X236580000Y-105390000D01*
X236730000Y-105390000D01*
X236730000Y-105540000D01*
G36*
X236730000Y-105540000D02*
G01*
X236580000Y-105540000D01*
X236580000Y-105390000D01*
X236730000Y-105390000D01*
X236730000Y-105540000D01*
G37*
X236730000Y-107210000D02*
X236580000Y-107210000D01*
X236580000Y-106130000D01*
X236730000Y-106130000D01*
X236730000Y-107210000D01*
G36*
X236730000Y-107210000D02*
G01*
X236580000Y-107210000D01*
X236580000Y-106130000D01*
X236730000Y-106130000D01*
X236730000Y-107210000D01*
G37*
X236730000Y-108840000D02*
X236580000Y-108840000D01*
X236580000Y-107760000D01*
X236730000Y-107760000D01*
X236730000Y-108840000D01*
G36*
X236730000Y-108840000D02*
G01*
X236580000Y-108840000D01*
X236580000Y-107760000D01*
X236730000Y-107760000D01*
X236730000Y-108840000D01*
G37*
X237370000Y-105540000D02*
X237220000Y-105540000D01*
X237220000Y-105390000D01*
X237370000Y-105390000D01*
X237370000Y-105540000D01*
G36*
X237370000Y-105540000D02*
G01*
X237220000Y-105540000D01*
X237220000Y-105390000D01*
X237370000Y-105390000D01*
X237370000Y-105540000D01*
G37*
X237370000Y-107210000D02*
X237220000Y-107210000D01*
X237220000Y-106130000D01*
X237370000Y-106130000D01*
X237370000Y-107210000D01*
G36*
X237370000Y-107210000D02*
G01*
X237220000Y-107210000D01*
X237220000Y-106130000D01*
X237370000Y-106130000D01*
X237370000Y-107210000D01*
G37*
X237370000Y-108840000D02*
X237220000Y-108840000D01*
X237220000Y-107760000D01*
X237370000Y-107760000D01*
X237370000Y-108840000D01*
G36*
X237370000Y-108840000D02*
G01*
X237220000Y-108840000D01*
X237220000Y-107760000D01*
X237370000Y-107760000D01*
X237370000Y-108840000D01*
G37*
%TO.C,U16*%
X246329500Y-83105000D02*
X245249500Y-83105000D01*
X245249500Y-82955000D01*
X246329500Y-82955000D01*
X246329500Y-83105000D01*
G36*
X246329500Y-83105000D02*
G01*
X245249500Y-83105000D01*
X245249500Y-82955000D01*
X246329500Y-82955000D01*
X246329500Y-83105000D01*
G37*
X246329500Y-83745000D02*
X245249500Y-83745000D01*
X245249500Y-83595000D01*
X246329500Y-83595000D01*
X246329500Y-83745000D01*
G36*
X246329500Y-83745000D02*
G01*
X245249500Y-83745000D01*
X245249500Y-83595000D01*
X246329500Y-83595000D01*
X246329500Y-83745000D01*
G37*
X246329500Y-84385000D02*
X245249500Y-84385000D01*
X245249500Y-84235000D01*
X246329500Y-84235000D01*
X246329500Y-84385000D01*
G36*
X246329500Y-84385000D02*
G01*
X245249500Y-84385000D01*
X245249500Y-84235000D01*
X246329500Y-84235000D01*
X246329500Y-84385000D01*
G37*
X246329500Y-85025000D02*
X245249500Y-85025000D01*
X245249500Y-84875000D01*
X246329500Y-84875000D01*
X246329500Y-85025000D01*
G36*
X246329500Y-85025000D02*
G01*
X245249500Y-85025000D01*
X245249500Y-84875000D01*
X246329500Y-84875000D01*
X246329500Y-85025000D01*
G37*
X247959500Y-83105000D02*
X246879500Y-83105000D01*
X246879500Y-82955000D01*
X247959500Y-82955000D01*
X247959500Y-83105000D01*
G36*
X247959500Y-83105000D02*
G01*
X246879500Y-83105000D01*
X246879500Y-82955000D01*
X247959500Y-82955000D01*
X247959500Y-83105000D01*
G37*
X247959500Y-83745000D02*
X246879500Y-83745000D01*
X246879500Y-83595000D01*
X247959500Y-83595000D01*
X247959500Y-83745000D01*
G36*
X247959500Y-83745000D02*
G01*
X246879500Y-83745000D01*
X246879500Y-83595000D01*
X247959500Y-83595000D01*
X247959500Y-83745000D01*
G37*
X247959500Y-84385000D02*
X246879500Y-84385000D01*
X246879500Y-84235000D01*
X247959500Y-84235000D01*
X247959500Y-84385000D01*
G36*
X247959500Y-84385000D02*
G01*
X246879500Y-84385000D01*
X246879500Y-84235000D01*
X247959500Y-84235000D01*
X247959500Y-84385000D01*
G37*
X247959500Y-85025000D02*
X246879500Y-85025000D01*
X246879500Y-84875000D01*
X247959500Y-84875000D01*
X247959500Y-85025000D01*
G36*
X247959500Y-85025000D02*
G01*
X246879500Y-85025000D01*
X246879500Y-84875000D01*
X247959500Y-84875000D01*
X247959500Y-85025000D01*
G37*
X248699500Y-83105000D02*
X248549500Y-83105000D01*
X248549500Y-82955000D01*
X248699500Y-82955000D01*
X248699500Y-83105000D01*
G36*
X248699500Y-83105000D02*
G01*
X248549500Y-83105000D01*
X248549500Y-82955000D01*
X248699500Y-82955000D01*
X248699500Y-83105000D01*
G37*
X248699500Y-83745000D02*
X248549500Y-83745000D01*
X248549500Y-83595000D01*
X248699500Y-83595000D01*
X248699500Y-83745000D01*
G36*
X248699500Y-83745000D02*
G01*
X248549500Y-83745000D01*
X248549500Y-83595000D01*
X248699500Y-83595000D01*
X248699500Y-83745000D01*
G37*
X248699500Y-84385000D02*
X248549500Y-84385000D01*
X248549500Y-84235000D01*
X248699500Y-84235000D01*
X248699500Y-84385000D01*
G36*
X248699500Y-84385000D02*
G01*
X248549500Y-84385000D01*
X248549500Y-84235000D01*
X248699500Y-84235000D01*
X248699500Y-84385000D01*
G37*
X248699500Y-85025000D02*
X248549500Y-85025000D01*
X248549500Y-84875000D01*
X248699500Y-84875000D01*
X248699500Y-85025000D01*
G36*
X248699500Y-85025000D02*
G01*
X248549500Y-85025000D01*
X248549500Y-84875000D01*
X248699500Y-84875000D01*
X248699500Y-85025000D01*
G37*
%TD*%
D11*
%TO.C,R42*%
X150590000Y-118975000D03*
X151610000Y-118975000D03*
%TD*%
%TO.C,R85*%
X228540000Y-115800000D03*
X229560000Y-115800000D03*
%TD*%
D12*
%TO.C,C113*%
X241710735Y-92049265D03*
X239810735Y-92049265D03*
%TD*%
D13*
%TO.C,U20*%
X182125000Y-93187500D03*
X181175000Y-93187500D03*
X180225000Y-93187500D03*
X180225000Y-95462500D03*
X181175000Y-95462500D03*
X182125000Y-95462500D03*
%TD*%
D14*
%TO.C,C40*%
X182715000Y-102000000D03*
X183675000Y-102000000D03*
%TD*%
D11*
%TO.C,R52*%
X156390000Y-108700000D03*
X157410000Y-108700000D03*
%TD*%
%TO.C,R67*%
X179180000Y-86500000D03*
X180200000Y-86500000D03*
%TD*%
D15*
%TO.C,C155*%
X142600000Y-105620000D03*
X142600000Y-106580000D03*
%TD*%
D16*
%TO.C,C102*%
X234975000Y-94175000D03*
X234975000Y-95725000D03*
%TD*%
D17*
%TO.C,R76*%
X249500000Y-111540000D03*
X249500000Y-112560000D03*
%TD*%
D12*
%TO.C,C95*%
X235425000Y-92050000D03*
X233525000Y-92050000D03*
%TD*%
D18*
%TO.C,C74*%
X113906250Y-91662500D03*
X113906250Y-92352500D03*
%TD*%
D19*
%TO.C,C43*%
X181425000Y-101200000D03*
X179875000Y-101200000D03*
%TD*%
%TO.C,C126*%
X229525000Y-111870000D03*
X227975000Y-111870000D03*
%TD*%
D18*
%TO.C,C76*%
X116400000Y-104875000D03*
X116400000Y-105565000D03*
%TD*%
D11*
%TO.C,R10*%
X169440000Y-84050000D03*
X170460000Y-84050000D03*
%TD*%
D20*
%TO.C,R93*%
X151360000Y-110550000D03*
X150340000Y-110550000D03*
%TD*%
D21*
%TO.C,C122*%
X238765000Y-108268030D03*
X240665000Y-108268030D03*
%TD*%
D22*
%TO.C,C52*%
X158925000Y-85450000D03*
X155975000Y-85450000D03*
%TD*%
D11*
%TO.C,R4*%
X182705000Y-100940000D03*
X183725000Y-100940000D03*
%TD*%
D20*
%TO.C,R41*%
X139460000Y-119050000D03*
X138440000Y-119050000D03*
%TD*%
D23*
%TO.C,R74*%
X237950000Y-95460000D03*
X237950000Y-94440000D03*
%TD*%
D17*
%TO.C,R78*%
X242350000Y-103040000D03*
X242350000Y-104060000D03*
%TD*%
D14*
%TO.C,C41*%
X184755000Y-101980000D03*
X185715000Y-101980000D03*
%TD*%
D24*
%TO.C,C112*%
X245825000Y-86224265D03*
X245825000Y-88124265D03*
%TD*%
D25*
%TO.C,U6*%
X116471250Y-98090000D03*
X116471250Y-99380000D03*
X116471250Y-100670000D03*
X116471250Y-101960000D03*
X117761250Y-98090000D03*
X117761250Y-99380000D03*
X117761250Y-100670000D03*
X117761250Y-101960000D03*
X119051250Y-98090000D03*
X119051250Y-99380000D03*
X119051250Y-100670000D03*
X119051250Y-101960000D03*
X120341250Y-98090000D03*
X120341250Y-99380000D03*
X120341250Y-100670000D03*
X120341250Y-101960000D03*
D26*
X114968750Y-97275000D03*
X114968750Y-97775000D03*
X114968750Y-98275000D03*
X114968750Y-98775000D03*
X114968750Y-99275000D03*
X114968750Y-99775000D03*
X114968750Y-100275000D03*
X114968750Y-100775000D03*
X114968750Y-101275000D03*
X114968750Y-101775000D03*
X114968750Y-102275000D03*
X114968750Y-102775000D03*
D27*
X115656250Y-103462500D03*
X116156250Y-103462500D03*
X116656250Y-103462500D03*
X117156250Y-103462500D03*
X117656250Y-103462500D03*
X118156250Y-103462500D03*
X118656250Y-103462500D03*
X119156250Y-103462500D03*
X119656250Y-103462500D03*
X120156250Y-103462500D03*
X120656250Y-103462500D03*
X121156250Y-103462500D03*
D26*
X121843750Y-102775000D03*
X121843750Y-102275000D03*
X121843750Y-101775000D03*
X121843750Y-101275000D03*
X121843750Y-100775000D03*
X121843750Y-100275000D03*
X121843750Y-99775000D03*
X121843750Y-99275000D03*
X121843750Y-98775000D03*
X121843750Y-98275000D03*
X121843750Y-97775000D03*
X121843750Y-97275000D03*
D27*
X121156250Y-96587500D03*
X120656250Y-96587500D03*
X120156250Y-96587500D03*
X119656250Y-96587500D03*
X119156250Y-96587500D03*
X118656250Y-96587500D03*
X118156250Y-96587500D03*
X117656250Y-96587500D03*
X117156250Y-96587500D03*
X116656250Y-96587500D03*
X116156250Y-96587500D03*
X115656250Y-96587500D03*
%TD*%
D28*
%TO.C,C14*%
X132130000Y-90925000D03*
X131170000Y-90925000D03*
%TD*%
D11*
%TO.C,R43*%
X150590000Y-117750000D03*
X151610000Y-117750000D03*
%TD*%
D29*
%TO.C,D2*%
X118706250Y-94692500D03*
X118706250Y-92582500D03*
%TD*%
D30*
%TO.C,C75*%
X117431250Y-94405000D03*
X117431250Y-93445000D03*
%TD*%
D12*
%TO.C,C96*%
X235425000Y-89950000D03*
X233525000Y-89950000D03*
%TD*%
D31*
%TO.C,U1*%
X151040000Y-104090000D03*
X150240000Y-104090000D03*
X149440000Y-104090000D03*
X148640000Y-104090000D03*
X147840000Y-104090000D03*
X147040000Y-104090000D03*
X146240000Y-104090000D03*
X145440000Y-104090000D03*
X144640000Y-104090000D03*
X143840000Y-104090000D03*
X143040000Y-104090000D03*
X142240000Y-104090000D03*
X141440000Y-104090000D03*
X140640000Y-104090000D03*
X139840000Y-104090000D03*
X139040000Y-104090000D03*
X138240000Y-104090000D03*
X137440000Y-104090000D03*
X136640000Y-104090000D03*
X135840000Y-104090000D03*
X135040000Y-104090000D03*
X134240000Y-104090000D03*
X151040000Y-88090000D03*
X150240000Y-88090000D03*
X149440000Y-88090000D03*
X148640000Y-88090000D03*
X147840000Y-88090000D03*
X147040000Y-88090000D03*
X146240000Y-88090000D03*
X145440000Y-88090000D03*
X144640000Y-88090000D03*
X143840000Y-88090000D03*
X143040000Y-88090000D03*
X142240000Y-88090000D03*
X141440000Y-88090000D03*
X140640000Y-88090000D03*
X139840000Y-88090000D03*
X139040000Y-88090000D03*
X138240000Y-88090000D03*
X137440000Y-88090000D03*
X136640000Y-88090000D03*
X135840000Y-88090000D03*
X135040000Y-88090000D03*
X134240000Y-88090000D03*
X151040000Y-87290000D03*
X150240000Y-87290000D03*
X149440000Y-87290000D03*
X148640000Y-87290000D03*
X147840000Y-87290000D03*
X147040000Y-87290000D03*
X146240000Y-87290000D03*
X145440000Y-87290000D03*
X144640000Y-87290000D03*
X143840000Y-87290000D03*
X143040000Y-87290000D03*
X142240000Y-87290000D03*
X141440000Y-87290000D03*
X140640000Y-87290000D03*
X139840000Y-87290000D03*
X139040000Y-87290000D03*
X138240000Y-87290000D03*
X137440000Y-87290000D03*
X136640000Y-87290000D03*
X135840000Y-87290000D03*
X135040000Y-87290000D03*
X134240000Y-87290000D03*
X151040000Y-103290000D03*
X150240000Y-103290000D03*
X149440000Y-103290000D03*
X148640000Y-103290000D03*
X147840000Y-103290000D03*
X147040000Y-103290000D03*
X146240000Y-103290000D03*
X145440000Y-103290000D03*
X144640000Y-103290000D03*
X143840000Y-103290000D03*
X143040000Y-103290000D03*
X142240000Y-103290000D03*
X141440000Y-103290000D03*
X140640000Y-103290000D03*
X139840000Y-103290000D03*
X139040000Y-103290000D03*
X138240000Y-103290000D03*
X137440000Y-103290000D03*
X136640000Y-103290000D03*
X135840000Y-103290000D03*
X135040000Y-103290000D03*
X134240000Y-103290000D03*
X151040000Y-102490000D03*
X150240000Y-102490000D03*
X149440000Y-102490000D03*
X148640000Y-102490000D03*
X147840000Y-102490000D03*
X147040000Y-102490000D03*
X146240000Y-102490000D03*
X145440000Y-102490000D03*
X144640000Y-102490000D03*
X143840000Y-102490000D03*
X143040000Y-102490000D03*
X142240000Y-102490000D03*
X141440000Y-102490000D03*
X140640000Y-102490000D03*
X139840000Y-102490000D03*
X139040000Y-102490000D03*
X138240000Y-102490000D03*
X137440000Y-102490000D03*
X136640000Y-102490000D03*
X135840000Y-102490000D03*
X135040000Y-102490000D03*
X134240000Y-102490000D03*
X151040000Y-101690000D03*
X150240000Y-101690000D03*
X149440000Y-101690000D03*
X148640000Y-101690000D03*
X147840000Y-101690000D03*
X147040000Y-101690000D03*
X146240000Y-101690000D03*
X145440000Y-101690000D03*
X144640000Y-101690000D03*
X143840000Y-101690000D03*
X143040000Y-101690000D03*
X142240000Y-101690000D03*
X141440000Y-101690000D03*
X140640000Y-101690000D03*
X139840000Y-101690000D03*
X139040000Y-101690000D03*
X138240000Y-101690000D03*
X137440000Y-101690000D03*
X136640000Y-101690000D03*
X135840000Y-101690000D03*
X135040000Y-101690000D03*
X134240000Y-101690000D03*
X151040000Y-100890000D03*
X150240000Y-100890000D03*
X149440000Y-100890000D03*
X148640000Y-100890000D03*
X147840000Y-100890000D03*
X147040000Y-100890000D03*
X146240000Y-100890000D03*
X145440000Y-100890000D03*
X144640000Y-100890000D03*
X143840000Y-100890000D03*
X143040000Y-100890000D03*
X142240000Y-100890000D03*
X141440000Y-100890000D03*
X140640000Y-100890000D03*
X139840000Y-100890000D03*
X139040000Y-100890000D03*
X138240000Y-100890000D03*
X137440000Y-100890000D03*
X136640000Y-100890000D03*
X135840000Y-100890000D03*
X135040000Y-100890000D03*
X134240000Y-100890000D03*
X151040000Y-100090000D03*
X150240000Y-100090000D03*
X149440000Y-100090000D03*
X148640000Y-100090000D03*
X147840000Y-100090000D03*
X147040000Y-100090000D03*
X146240000Y-100090000D03*
X145440000Y-100090000D03*
X144640000Y-100090000D03*
X143840000Y-100090000D03*
X143040000Y-100090000D03*
X142240000Y-100090000D03*
X141440000Y-100090000D03*
X140640000Y-100090000D03*
X139840000Y-100090000D03*
X139040000Y-100090000D03*
X138240000Y-100090000D03*
X137440000Y-100090000D03*
X136640000Y-100090000D03*
X135840000Y-100090000D03*
X135040000Y-100090000D03*
X134240000Y-100090000D03*
X151040000Y-99290000D03*
X150240000Y-99290000D03*
X149440000Y-99290000D03*
X148640000Y-99290000D03*
X147840000Y-99290000D03*
X147040000Y-99290000D03*
X146240000Y-99290000D03*
X145440000Y-99290000D03*
X144640000Y-99290000D03*
X143840000Y-99290000D03*
X143040000Y-99290000D03*
X142240000Y-99290000D03*
X141440000Y-99290000D03*
X140640000Y-99290000D03*
X139840000Y-99290000D03*
X139040000Y-99290000D03*
X138240000Y-99290000D03*
X137440000Y-99290000D03*
X136640000Y-99290000D03*
X135840000Y-99290000D03*
X135040000Y-99290000D03*
X134240000Y-99290000D03*
X151040000Y-98490000D03*
X150240000Y-98490000D03*
X149440000Y-98490000D03*
X148640000Y-98490000D03*
X147840000Y-98490000D03*
X147040000Y-98490000D03*
X146240000Y-98490000D03*
X145440000Y-98490000D03*
X144640000Y-98490000D03*
X143840000Y-98490000D03*
X143040000Y-98490000D03*
X142240000Y-98490000D03*
X141440000Y-98490000D03*
X140640000Y-98490000D03*
X139840000Y-98490000D03*
X139040000Y-98490000D03*
X138240000Y-98490000D03*
X137440000Y-98490000D03*
X136640000Y-98490000D03*
X135840000Y-98490000D03*
X135040000Y-98490000D03*
X134240000Y-98490000D03*
X151040000Y-97690000D03*
X150240000Y-97690000D03*
X149440000Y-97690000D03*
X148640000Y-97690000D03*
X147840000Y-97690000D03*
X147040000Y-97690000D03*
X146240000Y-97690000D03*
X145440000Y-97690000D03*
X144640000Y-97690000D03*
X143840000Y-97690000D03*
X143040000Y-97690000D03*
X142240000Y-97690000D03*
X141440000Y-97690000D03*
X140640000Y-97690000D03*
X139840000Y-97690000D03*
X139040000Y-97690000D03*
X138240000Y-97690000D03*
X137440000Y-97690000D03*
X136640000Y-97690000D03*
X135840000Y-97690000D03*
X135040000Y-97690000D03*
X134240000Y-97690000D03*
X151040000Y-96890000D03*
X150240000Y-96890000D03*
X149440000Y-96890000D03*
X148640000Y-96890000D03*
X147840000Y-96890000D03*
X147040000Y-96890000D03*
X146240000Y-96890000D03*
X145440000Y-96890000D03*
X144640000Y-96890000D03*
X143840000Y-96890000D03*
X143040000Y-96890000D03*
X142240000Y-96890000D03*
X141440000Y-96890000D03*
X140640000Y-96890000D03*
X139840000Y-96890000D03*
X139040000Y-96890000D03*
X138240000Y-96890000D03*
X137440000Y-96890000D03*
X136640000Y-96890000D03*
X135840000Y-96890000D03*
X135040000Y-96890000D03*
X134240000Y-96890000D03*
X151040000Y-96090000D03*
X150240000Y-96090000D03*
X149440000Y-96090000D03*
X148640000Y-96090000D03*
X147840000Y-96090000D03*
X147040000Y-96090000D03*
X146240000Y-96090000D03*
X145440000Y-96090000D03*
X144640000Y-96090000D03*
X143840000Y-96090000D03*
X143040000Y-96090000D03*
X142240000Y-96090000D03*
X141440000Y-96090000D03*
X140640000Y-96090000D03*
X139840000Y-96090000D03*
X139040000Y-96090000D03*
X138240000Y-96090000D03*
X137440000Y-96090000D03*
X136640000Y-96090000D03*
X135840000Y-96090000D03*
X135040000Y-96090000D03*
X134240000Y-96090000D03*
X151040000Y-95290000D03*
X150240000Y-95290000D03*
X149440000Y-95290000D03*
X148640000Y-95290000D03*
X147840000Y-95290000D03*
X147040000Y-95290000D03*
X146240000Y-95290000D03*
X145440000Y-95290000D03*
X144640000Y-95290000D03*
X143840000Y-95290000D03*
X143040000Y-95290000D03*
X142240000Y-95290000D03*
X141440000Y-95290000D03*
X140640000Y-95290000D03*
X139840000Y-95290000D03*
X139040000Y-95290000D03*
X138240000Y-95290000D03*
X137440000Y-95290000D03*
X136640000Y-95290000D03*
X135840000Y-95290000D03*
X135040000Y-95290000D03*
X134240000Y-95290000D03*
X151040000Y-94490000D03*
X150240000Y-94490000D03*
X149440000Y-94490000D03*
X148640000Y-94490000D03*
X147840000Y-94490000D03*
X147040000Y-94490000D03*
X146240000Y-94490000D03*
X145440000Y-94490000D03*
X144640000Y-94490000D03*
X143840000Y-94490000D03*
X143040000Y-94490000D03*
X142240000Y-94490000D03*
X141440000Y-94490000D03*
X140640000Y-94490000D03*
X139840000Y-94490000D03*
X139040000Y-94490000D03*
X138240000Y-94490000D03*
X137440000Y-94490000D03*
X136640000Y-94490000D03*
X135840000Y-94490000D03*
X135040000Y-94490000D03*
X134240000Y-94490000D03*
X151040000Y-93690000D03*
X150240000Y-93690000D03*
X149440000Y-93690000D03*
X148640000Y-93690000D03*
X147840000Y-93690000D03*
X147040000Y-93690000D03*
X146240000Y-93690000D03*
X145440000Y-93690000D03*
X144640000Y-93690000D03*
X143840000Y-93690000D03*
X143040000Y-93690000D03*
X142240000Y-93690000D03*
X141440000Y-93690000D03*
X140640000Y-93690000D03*
X139840000Y-93690000D03*
X139040000Y-93690000D03*
X138240000Y-93690000D03*
X137440000Y-93690000D03*
X136640000Y-93690000D03*
X135840000Y-93690000D03*
X135040000Y-93690000D03*
X134240000Y-93690000D03*
X151040000Y-92890000D03*
X150240000Y-92890000D03*
X149440000Y-92890000D03*
X148640000Y-92890000D03*
X147840000Y-92890000D03*
X147040000Y-92890000D03*
X146240000Y-92890000D03*
X145440000Y-92890000D03*
X144640000Y-92890000D03*
X143840000Y-92890000D03*
X143040000Y-92890000D03*
X142240000Y-92890000D03*
X141440000Y-92890000D03*
X140640000Y-92890000D03*
X139840000Y-92890000D03*
X139040000Y-92890000D03*
X138240000Y-92890000D03*
X137440000Y-92890000D03*
X136640000Y-92890000D03*
X135840000Y-92890000D03*
X135040000Y-92890000D03*
X134240000Y-92890000D03*
X151040000Y-92090000D03*
X150240000Y-92090000D03*
X149440000Y-92090000D03*
X148640000Y-92090000D03*
X147840000Y-92090000D03*
X147040000Y-92090000D03*
X146240000Y-92090000D03*
X145440000Y-92090000D03*
X144640000Y-92090000D03*
X143840000Y-92090000D03*
X143040000Y-92090000D03*
X142240000Y-92090000D03*
X141440000Y-92090000D03*
X140640000Y-92090000D03*
X139840000Y-92090000D03*
X139040000Y-92090000D03*
X138240000Y-92090000D03*
X137440000Y-92090000D03*
X136640000Y-92090000D03*
X135840000Y-92090000D03*
X135040000Y-92090000D03*
X134240000Y-92090000D03*
X151040000Y-91290000D03*
X150240000Y-91290000D03*
X149440000Y-91290000D03*
X148640000Y-91290000D03*
X147840000Y-91290000D03*
X147040000Y-91290000D03*
X146240000Y-91290000D03*
X145440000Y-91290000D03*
X144640000Y-91290000D03*
X143840000Y-91290000D03*
X143040000Y-91290000D03*
X142240000Y-91290000D03*
X141440000Y-91290000D03*
X140640000Y-91290000D03*
X139840000Y-91290000D03*
X139040000Y-91290000D03*
X138240000Y-91290000D03*
X137440000Y-91290000D03*
X136640000Y-91290000D03*
X135840000Y-91290000D03*
X135040000Y-91290000D03*
X134240000Y-91290000D03*
X151040000Y-90490000D03*
X150240000Y-90490000D03*
X149440000Y-90490000D03*
X148640000Y-90490000D03*
X147840000Y-90490000D03*
X147040000Y-90490000D03*
X146240000Y-90490000D03*
X145440000Y-90490000D03*
X144640000Y-90490000D03*
X143840000Y-90490000D03*
X143040000Y-90490000D03*
X142240000Y-90490000D03*
X141440000Y-90490000D03*
X140640000Y-90490000D03*
X139840000Y-90490000D03*
X139040000Y-90490000D03*
X138240000Y-90490000D03*
X137440000Y-90490000D03*
X136640000Y-90490000D03*
X135840000Y-90490000D03*
X135040000Y-90490000D03*
X134240000Y-90490000D03*
X151040000Y-89690000D03*
X150240000Y-89690000D03*
X149440000Y-89690000D03*
X148640000Y-89690000D03*
X147840000Y-89690000D03*
X147040000Y-89690000D03*
X146240000Y-89690000D03*
X145440000Y-89690000D03*
X144640000Y-89690000D03*
X143840000Y-89690000D03*
X143040000Y-89690000D03*
X142240000Y-89690000D03*
X141440000Y-89690000D03*
X140640000Y-89690000D03*
X139840000Y-89690000D03*
X139040000Y-89690000D03*
X138240000Y-89690000D03*
X137440000Y-89690000D03*
X136640000Y-89690000D03*
X135840000Y-89690000D03*
X135040000Y-89690000D03*
X134240000Y-89690000D03*
X151040000Y-88890000D03*
X150240000Y-88890000D03*
X149440000Y-88890000D03*
X148640000Y-88890000D03*
X147840000Y-88890000D03*
X147040000Y-88890000D03*
X146240000Y-88890000D03*
X145440000Y-88890000D03*
X144640000Y-88890000D03*
X143840000Y-88890000D03*
X143040000Y-88890000D03*
X142240000Y-88890000D03*
X141440000Y-88890000D03*
X140640000Y-88890000D03*
X139840000Y-88890000D03*
X139040000Y-88890000D03*
X138240000Y-88890000D03*
X137440000Y-88890000D03*
X136640000Y-88890000D03*
X135840000Y-88890000D03*
X135040000Y-88890000D03*
X134240000Y-88890000D03*
%TD*%
D20*
%TO.C,R44*%
X139460000Y-116450000D03*
X138440000Y-116450000D03*
%TD*%
D19*
%TO.C,D1*%
X180190000Y-108940000D03*
X178640000Y-108940000D03*
%TD*%
D32*
%TO.C,C97*%
X232775000Y-82080000D03*
X232775000Y-80180000D03*
%TD*%
D30*
%TO.C,C129*%
X179150000Y-88480000D03*
X179150000Y-87520000D03*
%TD*%
D20*
%TO.C,R81*%
X251460000Y-82450000D03*
X250440000Y-82450000D03*
%TD*%
%TO.C,R45*%
X139460000Y-117750000D03*
X138440000Y-117750000D03*
%TD*%
D33*
%TO.C,C109*%
X249785000Y-116780000D03*
X251335000Y-116780000D03*
%TD*%
D19*
%TO.C,C99*%
X230550000Y-83430000D03*
X229000000Y-83430000D03*
%TD*%
D28*
%TO.C,C9*%
X216530000Y-90100000D03*
X215570000Y-90100000D03*
%TD*%
D11*
%TO.C,R86*%
X228540000Y-114750000D03*
X229560000Y-114750000D03*
%TD*%
D30*
%TO.C,C154*%
X141100000Y-86030000D03*
X141100000Y-85070000D03*
%TD*%
D34*
%TO.C,C123*%
X236819265Y-103800735D03*
X236819265Y-102250735D03*
%TD*%
%TO.C,C108*%
X243655000Y-103770000D03*
X243655000Y-102220000D03*
%TD*%
D12*
%TO.C,C114*%
X241710735Y-89899265D03*
X239810735Y-89899265D03*
%TD*%
D17*
%TO.C,R77*%
X241300000Y-103040000D03*
X241300000Y-104060000D03*
%TD*%
D23*
%TO.C,R79*%
X245650000Y-95560000D03*
X245650000Y-94540000D03*
%TD*%
D35*
%TO.C,U5*%
X155057500Y-106625000D03*
X156707500Y-106625000D03*
X156707500Y-105375000D03*
X155057500Y-105375000D03*
%TD*%
D33*
%TO.C,C118*%
X250575000Y-86350000D03*
X252125000Y-86350000D03*
%TD*%
D11*
%TO.C,R46*%
X150590000Y-120200000D03*
X151610000Y-120200000D03*
%TD*%
D19*
%TO.C,C124*%
X229525000Y-113470000D03*
X227975000Y-113470000D03*
%TD*%
%TO.C,C101*%
X230550000Y-81830000D03*
X229000000Y-81830000D03*
%TD*%
D17*
%TO.C,R38*%
X178475000Y-105790000D03*
X178475000Y-106810000D03*
%TD*%
D16*
%TO.C,C100*%
X236675000Y-94175000D03*
X236675000Y-95725000D03*
%TD*%
D28*
%TO.C,C56*%
X171080000Y-107300000D03*
X170120000Y-107300000D03*
%TD*%
D14*
%TO.C,C51*%
X172670000Y-95350000D03*
X173630000Y-95350000D03*
%TD*%
%TO.C,C42*%
X161570000Y-107300000D03*
X162530000Y-107300000D03*
%TD*%
D17*
%TO.C,R72*%
X227475000Y-83220000D03*
X227475000Y-84240000D03*
%TD*%
D24*
%TO.C,C106*%
X245425000Y-116670000D03*
X245425000Y-118570000D03*
%TD*%
D17*
%TO.C,R75*%
X248500000Y-111540000D03*
X248500000Y-112560000D03*
%TD*%
%TO.C,R83*%
X234450000Y-102890000D03*
X234450000Y-103910000D03*
%TD*%
D23*
%TO.C,R11*%
X177000000Y-90510000D03*
X177000000Y-89490000D03*
%TD*%
D34*
%TO.C,C110*%
X245255000Y-103770000D03*
X245255000Y-102220000D03*
%TD*%
D11*
%TO.C,R5*%
X184745000Y-103040000D03*
X185765000Y-103040000D03*
%TD*%
D24*
%TO.C,C111*%
X247925000Y-86224265D03*
X247925000Y-88124265D03*
%TD*%
D30*
%TO.C,C54*%
X165050000Y-108080000D03*
X165050000Y-107120000D03*
%TD*%
D17*
%TO.C,R84*%
X235500000Y-102890000D03*
X235500000Y-103910000D03*
%TD*%
D14*
%TO.C,C39*%
X184755000Y-100930000D03*
X185715000Y-100930000D03*
%TD*%
D36*
%TO.C,J12*%
X122145000Y-118275000D03*
X123245000Y-118275000D03*
X124345000Y-118275000D03*
X125445000Y-118275000D03*
X126545000Y-118275000D03*
X127645000Y-118275000D03*
X128745000Y-118275000D03*
X129845000Y-118275000D03*
D37*
X118475000Y-115675000D03*
X118475000Y-123975000D03*
X132225000Y-115675000D03*
X132225000Y-123975000D03*
%TD*%
D22*
%TO.C,C164*%
X132825000Y-100950000D03*
X129875000Y-100950000D03*
%TD*%
D38*
%TO.C,U4*%
X162136252Y-92886632D03*
X162136252Y-92086632D03*
X162136252Y-91286632D03*
X162136252Y-88086632D03*
X162136252Y-87286632D03*
X162136252Y-86486632D03*
X162936252Y-92886632D03*
X162936252Y-92086632D03*
X162936252Y-91286632D03*
X162936252Y-88086632D03*
X162936252Y-87286632D03*
X162936252Y-86486632D03*
X163736252Y-92886632D03*
X163736252Y-92086632D03*
X163736252Y-91286632D03*
X163736252Y-88086632D03*
X163736252Y-87286632D03*
X163736252Y-86486632D03*
X164536252Y-92886632D03*
X164536252Y-92086632D03*
X164536252Y-91286632D03*
X164536252Y-88086632D03*
X164536252Y-87286632D03*
X164536252Y-86486632D03*
X165336252Y-92886632D03*
X165336252Y-92086632D03*
X165336252Y-91286632D03*
X165336252Y-88086632D03*
X165336252Y-87286632D03*
X165336252Y-86486632D03*
X166136252Y-92886632D03*
X166136252Y-92086632D03*
X166136252Y-91286632D03*
X166136252Y-88086632D03*
X166136252Y-87286632D03*
X166136252Y-86486632D03*
X166936252Y-92886632D03*
X166936252Y-92086632D03*
X166936252Y-91286632D03*
X166936252Y-88086632D03*
X166936252Y-87286632D03*
X166936252Y-86486632D03*
X167736252Y-92886632D03*
X167736252Y-92086632D03*
X167736252Y-91286632D03*
X167736252Y-88086632D03*
X167736252Y-87286632D03*
X167736252Y-86486632D03*
X168536252Y-92886632D03*
X168536252Y-92086632D03*
X168536252Y-91286632D03*
X168536252Y-88086632D03*
X168536252Y-87286632D03*
X168536252Y-86486632D03*
X169336252Y-92886632D03*
X169336252Y-92086632D03*
X169336252Y-91286632D03*
X169336252Y-88086632D03*
X169336252Y-87286632D03*
X169336252Y-86486632D03*
X170136252Y-92886632D03*
X170136252Y-92086632D03*
X170136252Y-91286632D03*
X170136252Y-88086632D03*
X170136252Y-87286632D03*
X170136252Y-86486632D03*
X170936252Y-92886632D03*
X170936252Y-92086632D03*
X170936252Y-91286632D03*
X170936252Y-88086632D03*
X170936252Y-87286632D03*
X170936252Y-86486632D03*
X171736252Y-92886632D03*
X171736252Y-92086632D03*
X171736252Y-91286632D03*
X171736252Y-88086632D03*
X171736252Y-87286632D03*
X171736252Y-86486632D03*
X172536252Y-92886632D03*
X172536252Y-92086632D03*
X172536252Y-91286632D03*
X172536252Y-88086632D03*
X172536252Y-87286632D03*
X172536252Y-86486632D03*
X173336252Y-92886632D03*
X173336252Y-92086632D03*
X173336252Y-91286632D03*
X173336252Y-88086632D03*
X173336252Y-87286632D03*
X173336252Y-86486632D03*
X174136252Y-92886632D03*
X174136252Y-92086632D03*
X174136252Y-91286632D03*
X174136252Y-88086632D03*
X174136252Y-87286632D03*
X174136252Y-86486632D03*
%TD*%
D11*
%TO.C,R61*%
X113746250Y-95687500D03*
X114766250Y-95687500D03*
%TD*%
D33*
%TO.C,C107*%
X249785000Y-115230000D03*
X251335000Y-115230000D03*
%TD*%
D23*
%TO.C,R71*%
X227475000Y-87240000D03*
X227475000Y-86220000D03*
%TD*%
D14*
%TO.C,C58*%
X173820000Y-84200000D03*
X174780000Y-84200000D03*
%TD*%
D15*
%TO.C,C55*%
X158950000Y-91670000D03*
X158950000Y-92630000D03*
%TD*%
D28*
%TO.C,C159*%
X131705000Y-92850000D03*
X130745000Y-92850000D03*
%TD*%
D32*
%TO.C,C120*%
X233825000Y-111970000D03*
X233825000Y-110070000D03*
%TD*%
D23*
%TO.C,R60*%
X116306250Y-95297500D03*
X116306250Y-94277500D03*
%TD*%
D39*
%TO.C,REF\u002A\u002A*%
X113005000Y-57332500D03*
X113005000Y-58642500D03*
X114175000Y-57332500D03*
X114175000Y-58642500D03*
X115345000Y-57332500D03*
X115345000Y-58642500D03*
D26*
X111237500Y-55737500D03*
X111237500Y-56237500D03*
X111237500Y-56737500D03*
X111237500Y-57237500D03*
X111237500Y-57737500D03*
X111237500Y-58237500D03*
X111237500Y-58737500D03*
X111237500Y-59237500D03*
X111237500Y-59737500D03*
X111237500Y-60237500D03*
D27*
X111925000Y-60925000D03*
X112425000Y-60925000D03*
X112925000Y-60925000D03*
X113425000Y-60925000D03*
X113925000Y-60925000D03*
X114425000Y-60925000D03*
X114925000Y-60925000D03*
X115425000Y-60925000D03*
X115925000Y-60925000D03*
X116425000Y-60925000D03*
D26*
X117112500Y-60237500D03*
X117112500Y-59737500D03*
X117112500Y-59237500D03*
X117112500Y-58737500D03*
X117112500Y-58237500D03*
X117112500Y-57737500D03*
X117112500Y-57237500D03*
X117112500Y-56737500D03*
X117112500Y-56237500D03*
X117112500Y-55737500D03*
D27*
X116425000Y-55050000D03*
X115925000Y-55050000D03*
X115425000Y-55050000D03*
X114925000Y-55050000D03*
X114425000Y-55050000D03*
X113925000Y-55050000D03*
X113425000Y-55050000D03*
X112925000Y-55050000D03*
X112425000Y-55050000D03*
X111925000Y-55050000D03*
%TD*%
D38*
%TO.C,U2*%
X162136252Y-104886632D03*
X162136252Y-104086632D03*
X162136252Y-103286632D03*
X162136252Y-100086632D03*
X162136252Y-99286632D03*
X162136252Y-98486632D03*
X162936252Y-104886632D03*
X162936252Y-104086632D03*
X162936252Y-103286632D03*
X162936252Y-100086632D03*
X162936252Y-99286632D03*
X162936252Y-98486632D03*
X163736252Y-104886632D03*
X163736252Y-104086632D03*
X163736252Y-103286632D03*
X163736252Y-100086632D03*
X163736252Y-99286632D03*
X163736252Y-98486632D03*
X164536252Y-104886632D03*
X164536252Y-104086632D03*
X164536252Y-103286632D03*
X164536252Y-100086632D03*
X164536252Y-99286632D03*
X164536252Y-98486632D03*
X165336252Y-104886632D03*
X165336252Y-104086632D03*
X165336252Y-103286632D03*
X165336252Y-100086632D03*
X165336252Y-99286632D03*
X165336252Y-98486632D03*
X166136252Y-104886632D03*
X166136252Y-104086632D03*
X166136252Y-103286632D03*
X166136252Y-100086632D03*
X166136252Y-99286632D03*
X166136252Y-98486632D03*
X166936252Y-104886632D03*
X166936252Y-104086632D03*
X166936252Y-103286632D03*
X166936252Y-100086632D03*
X166936252Y-99286632D03*
X166936252Y-98486632D03*
X167736252Y-104886632D03*
X167736252Y-104086632D03*
X167736252Y-103286632D03*
X167736252Y-100086632D03*
X167736252Y-99286632D03*
X167736252Y-98486632D03*
X168536252Y-104886632D03*
X168536252Y-104086632D03*
X168536252Y-103286632D03*
X168536252Y-100086632D03*
X168536252Y-99286632D03*
X168536252Y-98486632D03*
X169336252Y-104886632D03*
X169336252Y-104086632D03*
X169336252Y-103286632D03*
X169336252Y-100086632D03*
X169336252Y-99286632D03*
X169336252Y-98486632D03*
X170136252Y-104886632D03*
X170136252Y-104086632D03*
X170136252Y-103286632D03*
X170136252Y-100086632D03*
X170136252Y-99286632D03*
X170136252Y-98486632D03*
X170936252Y-104886632D03*
X170936252Y-104086632D03*
X170936252Y-103286632D03*
X170936252Y-100086632D03*
X170936252Y-99286632D03*
X170936252Y-98486632D03*
X171736252Y-104886632D03*
X171736252Y-104086632D03*
X171736252Y-103286632D03*
X171736252Y-100086632D03*
X171736252Y-99286632D03*
X171736252Y-98486632D03*
X172536252Y-104886632D03*
X172536252Y-104086632D03*
X172536252Y-103286632D03*
X172536252Y-100086632D03*
X172536252Y-99286632D03*
X172536252Y-98486632D03*
X173336252Y-104886632D03*
X173336252Y-104086632D03*
X173336252Y-103286632D03*
X173336252Y-100086632D03*
X173336252Y-99286632D03*
X173336252Y-98486632D03*
X174136252Y-104886632D03*
X174136252Y-104086632D03*
X174136252Y-103286632D03*
X174136252Y-100086632D03*
X174136252Y-99286632D03*
X174136252Y-98486632D03*
%TD*%
D32*
%TO.C,C98*%
X234825000Y-82080000D03*
X234825000Y-80180000D03*
%TD*%
D24*
%TO.C,C105*%
X247575000Y-116670000D03*
X247575000Y-118570000D03*
%TD*%
D23*
%TO.C,R8*%
X179600000Y-107510000D03*
X179600000Y-106490000D03*
%TD*%
D28*
%TO.C,C27*%
X135817210Y-105284441D03*
X134857210Y-105284441D03*
%TD*%
D14*
%TO.C,C61*%
X154902500Y-104000000D03*
X155862500Y-104000000D03*
%TD*%
D23*
%TO.C,R80*%
X244600000Y-95560000D03*
X244600000Y-94540000D03*
%TD*%
D21*
%TO.C,C121*%
X238765000Y-106170000D03*
X240665000Y-106170000D03*
%TD*%
D40*
%TO.C,U7*%
X114831250Y-91662500D03*
X114831250Y-93312500D03*
X116281250Y-93312500D03*
X116281250Y-91662500D03*
%TD*%
D21*
%TO.C,C104*%
X245255000Y-109020000D03*
X247155000Y-109020000D03*
%TD*%
D16*
%TO.C,C117*%
X241625000Y-94175000D03*
X241625000Y-95725000D03*
%TD*%
D34*
%TO.C,C125*%
X238419265Y-103800735D03*
X238419265Y-102250735D03*
%TD*%
D23*
%TO.C,R68*%
X117400000Y-106120000D03*
X117400000Y-105100000D03*
%TD*%
D41*
%TO.C,J11*%
X87951250Y-91976000D03*
X87951250Y-110126000D03*
%TD*%
D11*
%TO.C,R3*%
X92990000Y-98000000D03*
X94010000Y-98000000D03*
%TD*%
D14*
%TO.C,C57*%
X174120000Y-107300000D03*
X175080000Y-107300000D03*
%TD*%
D20*
%TO.C,R82*%
X251460000Y-83500000D03*
X250440000Y-83500000D03*
%TD*%
D13*
%TO.C,U19*%
X182100000Y-88950000D03*
X181150000Y-88950000D03*
X180200000Y-88950000D03*
X180200000Y-91225000D03*
X181150000Y-91225000D03*
X182100000Y-91225000D03*
%TD*%
D21*
%TO.C,C103*%
X245255000Y-106920000D03*
X247155000Y-106920000D03*
%TD*%
D16*
%TO.C,C115*%
X243275000Y-94175000D03*
X243275000Y-95725000D03*
%TD*%
D33*
%TO.C,C116*%
X250575000Y-84800000D03*
X252125000Y-84800000D03*
%TD*%
D23*
%TO.C,R69*%
X115300000Y-106120000D03*
X115300000Y-105100000D03*
%TD*%
%TO.C,R40*%
X153382500Y-106510000D03*
X153382500Y-105490000D03*
%TD*%
%TO.C,R73*%
X239000000Y-95460000D03*
X239000000Y-94440000D03*
%TD*%
D14*
%TO.C,C38*%
X182715000Y-103050000D03*
X183675000Y-103050000D03*
%TD*%
D32*
%TO.C,C119*%
X231725000Y-111970000D03*
X231725000Y-110070000D03*
%TD*%
D42*
%TO.C,U8*%
X145850000Y-119500000D03*
X145850000Y-117350000D03*
X144150000Y-119500000D03*
X144150000Y-117350000D03*
D43*
X148750000Y-120330000D03*
X148750000Y-119060000D03*
X148750000Y-117790000D03*
X148750000Y-116520000D03*
X141250000Y-116520000D03*
X141250000Y-117790000D03*
X141250000Y-119060000D03*
X141250000Y-120330000D03*
%TD*%
M02*
