%TF.GenerationSoftware,KiCad,Pcbnew,10.0.0*%
%TF.CreationDate,2026-04-24T12:09:46-04:00*%
%TF.ProjectId,Flight_Computer_REV01,466c6967-6874-45f4-936f-6d7075746572,rev?*%
%TF.SameCoordinates,Original*%
%TF.FileFunction,Copper,L12,Bot*%
%TF.FilePolarity,Positive*%
%FSLAX46Y46*%
G04 Gerber Fmt 4.6, Leading zero omitted, Abs format (unit mm)*
G04 Created by KiCad (PCBNEW 10.0.0) date 2026-04-24 12:09:46*
%MOMM*%
%LPD*%
G01*
G04 APERTURE LIST*
G04 Aperture macros list*
%AMRoundRect*
0 Rectangle with rounded corners*
0 $1 Rounding radius*
0 $2 $3 $4 $5 $6 $7 $8 $9 X,Y pos of 4 corners*
0 Add a 4 corners polygon primitive as box body*
4,1,4,$2,$3,$4,$5,$6,$7,$8,$9,$2,$3,0*
0 Add four circle primitives for the rounded corners*
1,1,$1+$1,$2,$3*
1,1,$1+$1,$4,$5*
1,1,$1+$1,$6,$7*
1,1,$1+$1,$8,$9*
0 Add four rect primitives between the rounded corners*
20,1,$1+$1,$2,$3,$4,$5,0*
20,1,$1+$1,$4,$5,$6,$7,0*
20,1,$1+$1,$6,$7,$8,$9,0*
20,1,$1+$1,$8,$9,$2,$3,0*%
G04 Aperture macros list end*
%TA.AperFunction,ComponentPad*%
%ADD10R,1.000000X1.000000*%
%TD*%
%TA.AperFunction,ComponentPad*%
%ADD11C,1.000000*%
%TD*%
%TA.AperFunction,ComponentPad*%
%ADD12R,1.700000X1.700000*%
%TD*%
%TA.AperFunction,ComponentPad*%
%ADD13C,1.700000*%
%TD*%
%TA.AperFunction,ComponentPad*%
%ADD14RoundRect,0.250000X0.600000X-0.600000X0.600000X0.600000X-0.600000X0.600000X-0.600000X-0.600000X0*%
%TD*%
%TA.AperFunction,ComponentPad*%
%ADD15C,1.200000*%
%TD*%
%TA.AperFunction,ComponentPad*%
%ADD16O,1.800000X1.200000*%
%TD*%
%TA.AperFunction,SMDPad,CuDef*%
%ADD17RoundRect,0.140000X0.140000X0.170000X-0.140000X0.170000X-0.140000X-0.170000X0.140000X-0.170000X0*%
%TD*%
%TA.AperFunction,SMDPad,CuDef*%
%ADD18RoundRect,0.100000X-0.217500X-0.100000X0.217500X-0.100000X0.217500X0.100000X-0.217500X0.100000X0*%
%TD*%
%TA.AperFunction,SMDPad,CuDef*%
%ADD19RoundRect,0.100000X-0.100000X0.217500X-0.100000X-0.217500X0.100000X-0.217500X0.100000X0.217500X0*%
%TD*%
%TA.AperFunction,SMDPad,CuDef*%
%ADD20RoundRect,0.140000X-0.140000X-0.170000X0.140000X-0.170000X0.140000X0.170000X-0.140000X0.170000X0*%
%TD*%
%TA.AperFunction,SMDPad,CuDef*%
%ADD21RoundRect,0.250000X-0.325000X-1.100000X0.325000X-1.100000X0.325000X1.100000X-0.325000X1.100000X0*%
%TD*%
%TA.AperFunction,SMDPad,CuDef*%
%ADD22RoundRect,0.225000X0.250000X-0.225000X0.250000X0.225000X-0.250000X0.225000X-0.250000X-0.225000X0*%
%TD*%
%TA.AperFunction,SMDPad,CuDef*%
%ADD23RoundRect,0.135000X-0.185000X0.135000X-0.185000X-0.135000X0.185000X-0.135000X0.185000X0.135000X0*%
%TD*%
%TA.AperFunction,SMDPad,CuDef*%
%ADD24RoundRect,0.150000X0.150000X-0.512500X0.150000X0.512500X-0.150000X0.512500X-0.150000X-0.512500X0*%
%TD*%
%TA.AperFunction,SMDPad,CuDef*%
%ADD25RoundRect,0.225000X0.225000X0.250000X-0.225000X0.250000X-0.225000X-0.250000X0.225000X-0.250000X0*%
%TD*%
%TA.AperFunction,SMDPad,CuDef*%
%ADD26RoundRect,0.100000X-0.100000X0.130000X-0.100000X-0.130000X0.100000X-0.130000X0.100000X0.130000X0*%
%TD*%
%TA.AperFunction,SMDPad,CuDef*%
%ADD27RoundRect,0.237500X-0.237500X0.250000X-0.237500X-0.250000X0.237500X-0.250000X0.237500X0.250000X0*%
%TD*%
%TA.AperFunction,SMDPad,CuDef*%
%ADD28RoundRect,0.135000X0.135000X0.185000X-0.135000X0.185000X-0.135000X-0.185000X0.135000X-0.185000X0*%
%TD*%
%TA.AperFunction,SMDPad,CuDef*%
%ADD29RoundRect,0.140000X0.170000X-0.140000X0.170000X0.140000X-0.170000X0.140000X-0.170000X-0.140000X0*%
%TD*%
%TA.AperFunction,SMDPad,CuDef*%
%ADD30RoundRect,0.225000X-0.250000X0.225000X-0.250000X-0.225000X0.250000X-0.225000X0.250000X0.225000X0*%
%TD*%
%TA.AperFunction,SMDPad,CuDef*%
%ADD31RoundRect,0.140000X-0.170000X0.140000X-0.170000X-0.140000X0.170000X-0.140000X0.170000X0.140000X0*%
%TD*%
%TA.AperFunction,SMDPad,CuDef*%
%ADD32RoundRect,0.250000X0.325000X1.100000X-0.325000X1.100000X-0.325000X-1.100000X0.325000X-1.100000X0*%
%TD*%
%TA.AperFunction,SMDPad,CuDef*%
%ADD33RoundRect,0.225000X-0.225000X-0.250000X0.225000X-0.250000X0.225000X0.250000X-0.225000X0.250000X0*%
%TD*%
%TA.AperFunction,SMDPad,CuDef*%
%ADD34RoundRect,0.135000X0.185000X-0.135000X0.185000X0.135000X-0.185000X0.135000X-0.185000X-0.135000X0*%
%TD*%
%TA.AperFunction,SMDPad,CuDef*%
%ADD35RoundRect,0.100000X0.100000X-0.217500X0.100000X0.217500X-0.100000X0.217500X-0.100000X-0.217500X0*%
%TD*%
%TA.AperFunction,SMDPad,CuDef*%
%ADD36RoundRect,0.135000X-0.135000X-0.185000X0.135000X-0.185000X0.135000X0.185000X-0.135000X0.185000X0*%
%TD*%
%TA.AperFunction,SMDPad,CuDef*%
%ADD37RoundRect,0.250000X-0.250000X-0.475000X0.250000X-0.475000X0.250000X0.475000X-0.250000X0.475000X0*%
%TD*%
%TA.AperFunction,SMDPad,CuDef*%
%ADD38RoundRect,0.100000X0.130000X0.100000X-0.130000X0.100000X-0.130000X-0.100000X0.130000X-0.100000X0*%
%TD*%
%TA.AperFunction,SMDPad,CuDef*%
%ADD39RoundRect,0.249999X0.450001X1.450001X-0.450001X1.450001X-0.450001X-1.450001X0.450001X-1.450001X0*%
%TD*%
%TA.AperFunction,SMDPad,CuDef*%
%ADD40RoundRect,0.100000X0.100000X-0.130000X0.100000X0.130000X-0.100000X0.130000X-0.100000X-0.130000X0*%
%TD*%
%TA.AperFunction,SMDPad,CuDef*%
%ADD41RoundRect,0.100000X0.217500X0.100000X-0.217500X0.100000X-0.217500X-0.100000X0.217500X-0.100000X0*%
%TD*%
%TA.AperFunction,SMDPad,CuDef*%
%ADD42RoundRect,0.062500X0.187500X0.062500X-0.187500X0.062500X-0.187500X-0.062500X0.187500X-0.062500X0*%
%TD*%
%TA.AperFunction,SMDPad,CuDef*%
%ADD43R,0.900000X1.600000*%
%TD*%
%TA.AperFunction,SMDPad,CuDef*%
%ADD44RoundRect,0.249999X1.450001X-0.450001X1.450001X0.450001X-1.450001X0.450001X-1.450001X-0.450001X0*%
%TD*%
%TA.AperFunction,SMDPad,CuDef*%
%ADD45RoundRect,0.070000X0.355000X0.070000X-0.355000X0.070000X-0.355000X-0.070000X0.355000X-0.070000X0*%
%TD*%
%TA.AperFunction,ComponentPad*%
%ADD46C,0.600000*%
%TD*%
%TA.AperFunction,SMDPad,CuDef*%
%ADD47R,0.280000X0.700000*%
%TD*%
%TA.AperFunction,SMDPad,CuDef*%
%ADD48R,1.650000X2.400000*%
%TD*%
%TA.AperFunction,SMDPad,CuDef*%
%ADD49RoundRect,0.100000X-0.130000X-0.100000X0.130000X-0.100000X0.130000X0.100000X-0.130000X0.100000X0*%
%TD*%
%TA.AperFunction,SMDPad,CuDef*%
%ADD50RoundRect,0.250000X0.475000X-0.250000X0.475000X0.250000X-0.475000X0.250000X-0.475000X-0.250000X0*%
%TD*%
%TA.AperFunction,SMDPad,CuDef*%
%ADD51RoundRect,0.250000X0.650000X-0.325000X0.650000X0.325000X-0.650000X0.325000X-0.650000X-0.325000X0*%
%TD*%
%TA.AperFunction,SMDPad,CuDef*%
%ADD52RoundRect,0.237500X0.237500X-0.250000X0.237500X0.250000X-0.237500X0.250000X-0.237500X-0.250000X0*%
%TD*%
%TA.AperFunction,SMDPad,CuDef*%
%ADD53RoundRect,0.250000X1.100000X-0.325000X1.100000X0.325000X-1.100000X0.325000X-1.100000X-0.325000X0*%
%TD*%
%TA.AperFunction,SMDPad,CuDef*%
%ADD54RoundRect,0.249999X-1.450001X0.450001X-1.450001X-0.450001X1.450001X-0.450001X1.450001X0.450001X0*%
%TD*%
%TA.AperFunction,SMDPad,CuDef*%
%ADD55RoundRect,0.250000X-1.100000X0.325000X-1.100000X-0.325000X1.100000X-0.325000X1.100000X0.325000X0*%
%TD*%
%TA.AperFunction,SMDPad,CuDef*%
%ADD56RoundRect,0.150000X0.512500X0.150000X-0.512500X0.150000X-0.512500X-0.150000X0.512500X-0.150000X0*%
%TD*%
%TA.AperFunction,SMDPad,CuDef*%
%ADD57RoundRect,0.250000X1.425000X-0.362500X1.425000X0.362500X-1.425000X0.362500X-1.425000X-0.362500X0*%
%TD*%
%TA.AperFunction,SMDPad,CuDef*%
%ADD58RoundRect,0.250000X0.362500X1.425000X-0.362500X1.425000X-0.362500X-1.425000X0.362500X-1.425000X0*%
%TD*%
%TA.AperFunction,SMDPad,CuDef*%
%ADD59RoundRect,0.250000X-1.425000X0.362500X-1.425000X-0.362500X1.425000X-0.362500X1.425000X0.362500X0*%
%TD*%
%TA.AperFunction,ViaPad*%
%ADD60C,0.310000*%
%TD*%
%TA.AperFunction,ViaPad*%
%ADD61C,0.480000*%
%TD*%
%TA.AperFunction,ViaPad*%
%ADD62C,0.450000*%
%TD*%
%TA.AperFunction,ViaPad*%
%ADD63C,0.080000*%
%TD*%
%TA.AperFunction,ViaPad*%
%ADD64C,0.400000*%
%TD*%
%TA.AperFunction,Conductor*%
%ADD65C,0.600000*%
%TD*%
%TA.AperFunction,Conductor*%
%ADD66C,0.250000*%
%TD*%
%TA.AperFunction,Conductor*%
%ADD67C,0.400000*%
%TD*%
%TA.AperFunction,Conductor*%
%ADD68C,0.300000*%
%TD*%
%TA.AperFunction,Conductor*%
%ADD69C,0.172000*%
%TD*%
%TA.AperFunction,Conductor*%
%ADD70C,0.102000*%
%TD*%
%TA.AperFunction,Conductor*%
%ADD71C,1.000000*%
%TD*%
%TA.AperFunction,Conductor*%
%ADD72C,0.090000*%
%TD*%
%TA.AperFunction,Conductor*%
%ADD73C,0.500000*%
%TD*%
%TA.AperFunction,Conductor*%
%ADD74C,0.100000*%
%TD*%
%TA.AperFunction,Conductor*%
%ADD75C,2.000000*%
%TD*%
%TA.AperFunction,Conductor*%
%ADD76C,1.500000*%
%TD*%
%TA.AperFunction,Conductor*%
%ADD77C,0.700000*%
%TD*%
%TA.AperFunction,Conductor*%
%ADD78C,0.200000*%
%TD*%
%TA.AperFunction,Conductor*%
%ADD79C,0.180000*%
%TD*%
%TA.AperFunction,Conductor*%
%ADD80C,0.381000*%
%TD*%
%TA.AperFunction,Conductor*%
%ADD81C,0.254000*%
%TD*%
%TA.AperFunction,Conductor*%
%ADD82C,0.120000*%
%TD*%
%TA.AperFunction,Conductor*%
%ADD83C,0.170000*%
%TD*%
%TA.AperFunction,Conductor*%
%ADD84C,0.130000*%
%TD*%
%TA.AperFunction,Conductor*%
%ADD85C,0.150000*%
%TD*%
G04 APERTURE END LIST*
D10*
%TO.P,J9,1,Pin_1_1*%
%TO.N,RTR_WHB_UPP_LATCH*%
X218105000Y-104595000D03*
D11*
%TO.P,J9,2,Pin_2_2*%
%TO.N,RTR_WHB_UPP_CSEL*%
X219375000Y-104595000D03*
%TO.P,J9,3,Pin_3_3*%
%TO.N,RTR_WHB_UPP_UPDN*%
X218105000Y-105865000D03*
%TO.P,J9,4,Pin_4_4*%
%TO.N,RTR_WHB_UPP_AD0*%
X219375000Y-105865000D03*
%TO.P,J9,5,Pin_5_5*%
%TO.N,RTR_WHB_UPP_INC*%
X218105000Y-107135000D03*
%TO.P,J9,6,Pin_6_6*%
%TO.N,RTR_WHB_UPP_AD1*%
X219375000Y-107135000D03*
%TO.P,J9,7,Pin_7_7*%
%TO.N,RTR_WHB_UPP_AD2*%
X218105000Y-108405000D03*
%TO.P,J9,8,Pin_8_8*%
%TO.N,RTR_WHB_UPP_OFF*%
X219375000Y-108405000D03*
%TO.P,J9,9,Pin_9_9*%
%TO.N,RTR_WHB_LOW_ADC0_OUT_C*%
X218105000Y-109675000D03*
%TO.P,J9,10,Pin_10_10*%
%TO.N,RTR_WHB_LOW_ADC1_OUT_B*%
X219375000Y-109675000D03*
%TO.P,J9,11,Pin_11_11*%
%TO.N,RTR_WHB_LOW_ADC1_OUT_A*%
X218105000Y-110945000D03*
%TO.P,J9,12,Pin_12_12*%
%TO.N,RTR_WHB_LOW_ADC1_OUT_C*%
X219375000Y-110945000D03*
%TO.P,J9,13,Pin_13_13*%
%TO.N,RTR_WHB_LOW_ADC1_OUT_D*%
X218105000Y-112215000D03*
%TO.P,J9,14,Pin_14_14*%
%TO.N,RTR_WHB_LOW_ADC0_OUT_D*%
X219375000Y-112215000D03*
%TO.P,J9,15,Pin_15_15*%
%TO.N,RTR_WHB_LOW_ADC0_OUT_A*%
X218105000Y-113485000D03*
%TO.P,J9,16,Pin_16_16*%
%TO.N,RTR_WHB_LOW_ADC0_OUT_B*%
X219375000Y-113485000D03*
%TO.P,J9,17,Pin_17_17*%
%TO.N,P5V*%
X218105000Y-114755000D03*
%TO.P,J9,18,Pin_18_18*%
%TO.N,N5V*%
X219375000Y-114755000D03*
%TO.P,J9,19,Pin_19_19*%
%TO.N,GND*%
X218105000Y-116025000D03*
%TO.P,J9,20,Pin_20_20*%
%TO.N,RTR_WHB_LOW_ADC0_CS*%
X219375000Y-116025000D03*
%TO.P,J9,21,Pin_21_21*%
%TO.N,RTR_WHB_LOW_INC*%
X218105000Y-117295000D03*
%TO.P,J9,22,Pin_22_22*%
%TO.N,RTR_WHB_LOW_OFF*%
X219375000Y-117295000D03*
%TO.P,J9,23,Pin_23_23*%
%TO.N,RTR_WHB_LOW_AD2*%
X218105000Y-118565000D03*
%TO.P,J9,24,Pin_24_24*%
%TO.N,RTR_WHB_LOW_UPDN*%
X219375000Y-118565000D03*
%TO.P,J9,25,Pin_25_25*%
%TO.N,RTR_WHB_LOW_AD1*%
X218105000Y-119835000D03*
%TO.P,J9,26,Pin_26_26*%
%TO.N,RTR_WHB_LOW_AD0*%
X219375000Y-119835000D03*
%TO.P,J9,27,Pin_27_27*%
%TO.N,RTR_WHB_LOW_CSEL*%
X218105000Y-121105000D03*
%TO.P,J9,28,Pin_28_28*%
%TO.N,RTR_WHB_LOW_ADC_FRSTDATA*%
X219375000Y-121105000D03*
%TO.P,J9,29,Pin_29_29*%
%TO.N,RTR_WHB_LOW_LATCH*%
X218105000Y-122375000D03*
%TO.P,J9,30,Pin_30_30*%
%TO.N,RTR_WHB_LOW_ADC_BUSY*%
X219375000Y-122375000D03*
%TO.P,J9,31,Pin_31_31*%
%TO.N,RTR_WHB_LOW_ADC1_CS*%
X218105000Y-123645000D03*
%TO.P,J9,32,Pin_32_32*%
%TO.N,RTR_WHB_LOW_ADC_CONVST*%
X219375000Y-123645000D03*
%TD*%
D12*
%TO.P,J7,1,Pin_1_1*%
%TO.N,VAMB*%
X254540000Y-89010000D03*
D13*
%TO.P,J7,2,Pin_2_2*%
X252000000Y-89010000D03*
%TO.P,J7,3,Pin_3_3*%
X254540000Y-91550000D03*
%TO.P,J7,4,Pin_4_4*%
X252000000Y-91550000D03*
%TO.P,J7,5,Pin_5_5*%
%TO.N,GND*%
X254540000Y-94090000D03*
%TO.P,J7,6,Pin_6_6*%
%TO.N,P12V*%
X252000000Y-94090000D03*
%TO.P,J7,7,Pin_7_7*%
%TO.N,GND*%
X254540000Y-96630000D03*
%TO.P,J7,8,Pin_8_8*%
X252000000Y-96630000D03*
%TO.P,J7,9,Pin_9_9*%
X254540000Y-99170000D03*
%TO.P,J7,10,Pin_10_10*%
X252000000Y-99170000D03*
%TO.P,J7,11,Pin_11_11*%
%TO.N,P4V5*%
X254540000Y-101710000D03*
%TO.P,J7,12,Pin_12_12*%
X252000000Y-101710000D03*
%TO.P,J7,13,Pin_13_13*%
X254540000Y-104250000D03*
%TO.P,J7,14,Pin_14_14*%
X252000000Y-104250000D03*
%TO.P,J7,15,Pin_15_15*%
%TO.N,GND*%
X254540000Y-106790000D03*
%TO.P,J7,16,Pin_16_16*%
X252000000Y-106790000D03*
%TO.P,J7,17,Pin_17_17*%
X254540000Y-109330000D03*
%TO.P,J7,18,Pin_18_18*%
X252000000Y-109330000D03*
%TO.P,J7,19,Pin_19_19*%
%TO.N,P5V*%
X254540000Y-111870000D03*
%TO.P,J7,20,Pin_20_20*%
%TO.N,N5V*%
X252000000Y-111870000D03*
%TD*%
D14*
%TO.P,CON1,1*%
%TO.N,AX_TCLK*%
X93220000Y-83840000D03*
D13*
%TO.P,CON1,2*%
%TO.N,GND*%
X93220000Y-81300000D03*
%TO.P,CON1,3*%
%TO.N,AX_TDO*%
X95760000Y-83840000D03*
%TO.P,CON1,4*%
%TO.N,P1.8V*%
X95760000Y-81300000D03*
%TO.P,CON1,5*%
%TO.N,AX_TMS*%
X98300000Y-83840000D03*
%TO.P,CON1,6*%
%TO.N,unconnected-(CON1-Pad6)*%
X98300000Y-81300000D03*
%TO.P,CON1,7*%
%TO.N,unconnected-(CON1-Pad7)*%
X100840000Y-83840000D03*
%TO.P,CON1,8*%
%TO.N,unconnected-(CON1-Pad8)*%
X100840000Y-81300000D03*
%TO.P,CON1,9*%
%TO.N,AX_TDI*%
X103380000Y-83840000D03*
%TO.P,CON1,10*%
%TO.N,GND*%
X103380000Y-81300000D03*
%TD*%
D10*
%TO.P,J5,1,Pin_1_1*%
%TO.N,SNS_AUX6_P*%
X210695000Y-123500000D03*
D11*
%TO.P,J5,2,Pin_2_2*%
%TO.N,SNS_AUX6_N*%
X209425000Y-123500000D03*
%TO.P,J5,3,Pin_3_3*%
%TO.N,SNS_AUX5_N*%
X210695000Y-122230000D03*
%TO.P,J5,4,Pin_4_4*%
%TO.N,SNS_AUX5_P*%
X209425000Y-122230000D03*
%TO.P,J5,5,Pin_5_5*%
%TO.N,SNS_AUX4_N*%
X210695000Y-120960000D03*
%TO.P,J5,6,Pin_6_6*%
%TO.N,SNS_AUX4_P*%
X209425000Y-120960000D03*
%TO.P,J5,7,Pin_7_7*%
%TO.N,SNS_AUX0_N*%
X210695000Y-119690000D03*
%TO.P,J5,8,Pin_8_8*%
%TO.N,SNS_AUX0_P*%
X209425000Y-119690000D03*
%TO.P,J5,9,Pin_9_9*%
%TO.N,SNS_AUX3_P*%
X210695000Y-118420000D03*
%TO.P,J5,10,Pin_10_10*%
%TO.N,SNS_AUX3_N*%
X209425000Y-118420000D03*
%TO.P,J5,11,Pin_11_11*%
%TO.N,SNS_AUX2_P*%
X210695000Y-117150000D03*
%TO.P,J5,12,Pin_12_12*%
%TO.N,SNS_AUX2_N*%
X209425000Y-117150000D03*
%TO.P,J5,13,Pin_13_13*%
%TO.N,SNS_AUX1_P*%
X210695000Y-115880000D03*
%TO.P,J5,14,Pin_14_14*%
%TO.N,SNS_AUX1_N*%
X209425000Y-115880000D03*
%TO.P,J5,15,Pin_15_15*%
%TO.N,GND*%
X210695000Y-114610000D03*
%TO.P,J5,16,Pin_16_16*%
%TO.N,RTR_WHA_LOW_ADC_FRSTDATA*%
X209425000Y-114610000D03*
%TO.P,J5,17,Pin_17_17*%
%TO.N,RTR_WHA_LOW_ADC1_CS*%
X210695000Y-113340000D03*
%TO.P,J5,18,Pin_18_18*%
%TO.N,RTR_WHA_LOW_ADC1_OUT_D*%
X209425000Y-113340000D03*
%TO.P,J5,19,Pin_19_19*%
%TO.N,RTR_WHA_LOW_ADC0_CS*%
X210695000Y-112070000D03*
%TO.P,J5,20,Pin_20_20*%
%TO.N,RTR_WHA_LOW_ADC1_OUT_C*%
X209425000Y-112070000D03*
%TO.P,J5,21,Pin_21_21*%
%TO.N,RTR_WHA_LOW_ADC0_OUT_B*%
X210695000Y-110800000D03*
%TO.P,J5,22,Pin_22_22*%
%TO.N,RTR_WHA_LOW_ADC0_OUT_A*%
X209425000Y-110800000D03*
%TO.P,J5,23,Pin_23_23*%
%TO.N,RTR_WHA_LOW_ADC1_OUT_A*%
X210695000Y-109530000D03*
%TO.P,J5,24,Pin_24_24*%
%TO.N,RTR_WHA_LOW_ADC1_OUT_B*%
X209425000Y-109530000D03*
%TO.P,J5,25,Pin_25_25*%
%TO.N,RTR_WHA_LOW_ADC0_OUT_C*%
X210695000Y-108260000D03*
%TO.P,J5,26,Pin_26_26*%
%TO.N,RTR_WHA_LOW_ADC0_OUT_D*%
X209425000Y-108260000D03*
%TO.P,J5,27,Pin_27_27*%
%TO.N,RTR_WHA_LOW_ADC_CONVST*%
X210695000Y-106990000D03*
%TO.P,J5,28,Pin_28_28*%
%TO.N,RTR_WHA_LOW_ADC_BUSY*%
X209425000Y-106990000D03*
%TO.P,J5,29,Pin_29_29*%
%TO.N,RTR_WHA_SCK*%
X210695000Y-105720000D03*
%TO.P,J5,30,Pin_30_30*%
%TO.N,RTR_WHA_SDI*%
X209425000Y-105720000D03*
%TO.P,J5,31,Pin_31_31*%
%TO.N,RTR_WHA_SDO*%
X210695000Y-104450000D03*
%TO.P,J5,32,Pin_32_32*%
%TO.N,RTR_WHA_ADC_RST*%
X209425000Y-104450000D03*
%TD*%
D12*
%TO.P,J3,1,Pin_1_1*%
%TO.N,AMB_WHA_LOW_N*%
X242065000Y-111520000D03*
D13*
%TO.P,J3,2,Pin_2_2*%
%TO.N,AMB_WHA_LOW_P*%
X242065000Y-114060000D03*
%TO.P,J3,3,Pin_3_3*%
%TO.N,GND*%
X239525000Y-111520000D03*
%TO.P,J3,4,Pin_4_4*%
X239525000Y-114060000D03*
%TO.P,J3,5,Pin_5_5*%
%TO.N,AMB_WHB_LOW_P*%
X236985000Y-111520000D03*
%TO.P,J3,6,Pin_6_6*%
%TO.N,AMB_WHB_LOW_N*%
X236985000Y-114060000D03*
%TD*%
D12*
%TO.P,J10,1,Pin_1_1*%
%TO.N,MTR_WHA_SCS*%
X103130000Y-75775000D03*
D13*
%TO.P,J10,2,Pin_2_2*%
%TO.N,MTR_WHB_WAKE*%
X103130000Y-73235000D03*
%TO.P,J10,3,Pin_3_3*%
%TO.N,MTR_SDO*%
X105670000Y-75775000D03*
%TO.P,J10,4,Pin_4_4*%
%TO.N,_MTR_WHB_nFAULT*%
X105670000Y-73235000D03*
%TO.P,J10,5,Pin_5_5*%
%TO.N,MTR_WHA_EN*%
X108210000Y-75775000D03*
%TO.P,J10,6,Pin_6_6*%
%TO.N,MTR_WHA_INA_L*%
X108210000Y-73235000D03*
%TO.P,J10,7,Pin_7_7*%
%TO.N,MTR_WHB_INC_L*%
X110750000Y-75775000D03*
%TO.P,J10,8,Pin_8_8*%
%TO.N,MTR_WHB_INA_H*%
X110750000Y-73235000D03*
%TO.P,J10,9,Pin_9_9*%
%TO.N,MTR_WHB_INB_H*%
X113290000Y-75775000D03*
%TO.P,J10,10,Pin_10_10*%
%TO.N,MTR_WHB_INA_L*%
X113290000Y-73235000D03*
%TO.P,J10,11,Pin_11_11*%
%TO.N,MTR_WHB_INB_L*%
X115830000Y-75775000D03*
%TO.P,J10,12,Pin_12_12*%
%TO.N,MTR_WHB_SCS*%
X115830000Y-73235000D03*
%TO.P,J10,13,Pin_13_13*%
%TO.N,MTR_WHB_EN*%
X118370000Y-75775000D03*
%TO.P,J10,14,Pin_14_14*%
%TO.N,MTR_SDI*%
X118370000Y-73235000D03*
%TO.P,J10,15,Pin_15_15*%
%TO.N,MTR_WHA_INB_H*%
X120910000Y-75775000D03*
%TO.P,J10,16,Pin_16_16*%
%TO.N,_MTR_WHA_nFAULT*%
X120910000Y-73235000D03*
%TO.P,J10,17,Pin_17_17*%
%TO.N,MTR_WHA_INB_L*%
X123450000Y-75775000D03*
%TO.P,J10,18,Pin_18_18*%
%TO.N,MTR_WHA_INC_L*%
X123450000Y-73235000D03*
%TO.P,J10,19,Pin_19_19*%
%TO.N,MTR_WHA_INA_H*%
X125990000Y-75775000D03*
%TO.P,J10,20,Pin_20_20*%
%TO.N,MTR_WHA_INC_H*%
X125990000Y-73235000D03*
%TO.P,J10,21,Pin_21_21*%
%TO.N,MTR_WHB_INC_H*%
X128530000Y-75775000D03*
%TO.P,J10,22,Pin_22_22*%
%TO.N,MTR_SCLK*%
X128530000Y-73235000D03*
%TO.P,J10,23,Pin_23_23*%
%TO.N,P3V3*%
X131070000Y-75775000D03*
%TO.P,J10,24,Pin_24_24*%
%TO.N,GND*%
X131070000Y-73235000D03*
%TD*%
D12*
%TO.P,J2,1,Pin_1_1*%
%TO.N,AMB_WHA_UPP_N*%
X237735000Y-87010000D03*
D13*
%TO.P,J2,2,Pin_2_2*%
%TO.N,AMB_WHA_UPP_P*%
X237735000Y-84470000D03*
%TO.P,J2,3,Pin_3_3*%
%TO.N,GND*%
X240275000Y-87010000D03*
%TO.P,J2,4,Pin_4_4*%
X240275000Y-84470000D03*
%TO.P,J2,5,Pin_5_5*%
%TO.N,AMB_WHB_UPP_P*%
X242815000Y-87010000D03*
%TO.P,J2,6,Pin_6_6*%
%TO.N,AMB_WHB_UPP_N*%
X242815000Y-84470000D03*
%TD*%
D15*
%TO.P,J11,1,MD1+_1*%
%TO.N,/COMM_ETH/MDI1_P*%
X106481250Y-96479000D03*
%TO.P,J11,2,MD1-_2*%
%TO.N,/COMM_ETH/MDI1_N*%
X107751250Y-97495000D03*
%TO.P,J11,3,MD2+_3*%
%TO.N,/COMM_ETH/MDI2_P*%
X106481250Y-98511000D03*
%TO.P,J11,4,MD2-_4*%
%TO.N,/COMM_ETH/MDI2_N*%
X107751250Y-99527000D03*
%TO.P,J11,5,MD3+_5*%
%TO.N,/COMM_ETH/MDI3_P*%
X106481250Y-100543000D03*
%TO.P,J11,6,MD3-_6*%
%TO.N,/COMM_ETH/MDI3_N*%
X107751250Y-101559000D03*
%TO.P,J11,7,MD4+_7*%
%TO.N,/COMM_ETH/MDI4_P*%
X106481250Y-102575000D03*
%TO.P,J11,8,MD4-_8*%
%TO.N,/COMM_ETH/MDI4_N*%
X107751250Y-103591000D03*
%TO.P,J11,9,VCC_9*%
%TO.N,unconnected-(J11-VCC-Pad9)*%
X106481250Y-104607000D03*
%TO.P,J11,10,GND_10*%
%TO.N,GND*%
X107751250Y-105623000D03*
%TO.P,J11,11,LEDG_K_11*%
%TO.N,unconnected-(J11-LEDG_K-Pad11)*%
X98731250Y-94541000D03*
%TO.P,J11,12,LEDOG_A_12*%
%TO.N,P3V3*%
X99751250Y-95811000D03*
%TO.P,J11,13,LEDO_K_13*%
%TO.N,unconnected-(J11-LEDO_K-Pad13)*%
X98731250Y-97081000D03*
%TO.P,J11,14,LEDY_A_14*%
%TO.N,unconnected-(J11-LEDY_A-Pad14)*%
X98731250Y-105021000D03*
%TO.P,J11,15,LEDY_K_15*%
%TO.N,unconnected-(J11-LEDY_K-Pad15)*%
X98731250Y-107561000D03*
%TO.P,J11,16*%
%TO.N,N/C*%
X99751250Y-106291000D03*
D16*
%TO.P,J11,17,CHS_17*%
%TO.N,GND*%
X90921250Y-90966000D03*
X90921250Y-111136000D03*
%TD*%
D10*
%TO.P,J6,1,Pin_1_1*%
%TO.N,RTR_WHA_LOW_OFF*%
X210695000Y-96225000D03*
D11*
%TO.P,J6,2,Pin_2_2*%
%TO.N,RTR_WHA_LOW_LATCH*%
X209425000Y-96225000D03*
%TO.P,J6,3,Pin_3_3*%
%TO.N,RTR_WHA_LOW_AD2*%
X210695000Y-94955000D03*
%TO.P,J6,4,Pin_4_4*%
%TO.N,RTR_WHA_LOW_AD1*%
X209425000Y-94955000D03*
%TO.P,J6,5,Pin_5_5*%
%TO.N,RTR_WHA_LOW_UPDN*%
X210695000Y-93685000D03*
%TO.P,J6,6,Pin_6_6*%
%TO.N,RTR_WHA_LOW_CSEL*%
X209425000Y-93685000D03*
%TO.P,J6,7,Pin_7_7*%
%TO.N,RTR_WHA_LOW_INC*%
X210695000Y-92415000D03*
%TO.P,J6,8,Pin_8_8*%
%TO.N,RTR_WHA_LOW_AD0*%
X209425000Y-92415000D03*
%TO.P,J6,9,Pin_9_9*%
%TO.N,N5V*%
X210695000Y-91145000D03*
%TO.P,J6,10,Pin_10_10*%
%TO.N,P5V*%
X209425000Y-91145000D03*
%TO.P,J6,11,Pin_11_11*%
%TO.N,RTR_WHA_UPP_AD2*%
X210695000Y-89875000D03*
%TO.P,J6,12,Pin_12_12*%
%TO.N,RTR_WHA_UPP_OFF*%
X209425000Y-89875000D03*
%TO.P,J6,13,Pin_13_13*%
%TO.N,RTR_WHA_UPP_LATCH*%
X210695000Y-88605000D03*
%TO.P,J6,14,Pin_14_14*%
%TO.N,RTR_WHA_UPP_INC*%
X209425000Y-88605000D03*
%TO.P,J6,15,Pin_15_15*%
%TO.N,RTR_WHA_UPP_CSEL*%
X210695000Y-87335000D03*
%TO.P,J6,16,Pin_16_16*%
%TO.N,RTR_WHA_UPP_UPDN*%
X209425000Y-87335000D03*
%TO.P,J6,17,Pin_17_17*%
%TO.N,RTR_WHA_UPP_AD0*%
X210695000Y-86065000D03*
%TO.P,J6,18,Pin_18_18*%
%TO.N,RTR_WHA_UPP_AD1*%
X209425000Y-86065000D03*
%TO.P,J6,19,Pin_19_19*%
%TO.N,GND*%
X210695000Y-84795000D03*
%TO.P,J6,20,Pin_20_20*%
%TO.N,RTR_WHA_UPP_ADC1_OUT_B*%
X209425000Y-84795000D03*
%TO.P,J6,21,Pin_21_21*%
%TO.N,RTR_WHA_UPP_ADC1_OUT_A*%
X210695000Y-83525000D03*
%TO.P,J6,22,Pin_22_22*%
%TO.N,RTR_WHA_UPP_ADC1_OUT_D*%
X209425000Y-83525000D03*
%TO.P,J6,23,Pin_23_23*%
%TO.N,RTR_WHA_UPP_ADC0_OUT_C*%
X210695000Y-82255000D03*
%TO.P,J6,24,Pin_24_24*%
%TO.N,RTR_WHA_UPP_ADC1_OUT_C*%
X209425000Y-82255000D03*
%TO.P,J6,25,Pin_25_25*%
%TO.N,RTR_WHA_UPP_ADC_BUSY*%
X210695000Y-80985000D03*
%TO.P,J6,26,Pin_26_26*%
%TO.N,RTR_WHA_UPP_ADC0_OUT_D*%
X209425000Y-80985000D03*
%TO.P,J6,27,Pin_27_27*%
%TO.N,RTR_WHA_UPP_ADC_CONVST*%
X210695000Y-79715000D03*
%TO.P,J6,28,Pin_28_28*%
%TO.N,RTR_WHA_UPP_ADC0_OUT_A*%
X209425000Y-79715000D03*
%TO.P,J6,29,Pin_29_29*%
%TO.N,RTR_WHA_UPP_ADC0_OUT_B*%
X210695000Y-78445000D03*
%TO.P,J6,30,Pin_30_30*%
%TO.N,RTR_WHA_UPP_ADC1_CS*%
X209425000Y-78445000D03*
%TO.P,J6,31,Pin_31_31*%
%TO.N,RTR_WHA_UPP_ADC_FRSTDATA*%
X210695000Y-77175000D03*
%TO.P,J6,32,Pin_32_32*%
%TO.N,RTR_WHA_UPP_ADC0_CS*%
X209425000Y-77175000D03*
%TD*%
D10*
%TO.P,J8,1,Pin_1_1*%
%TO.N,RTR_WHB_UPP_ADC0_OUT_B*%
X218105000Y-77320000D03*
D11*
%TO.P,J8,2,Pin_2_2*%
%TO.N,RTR_WHB_UPP_ADC0_OUT_C*%
X219375000Y-77320000D03*
%TO.P,J8,3,Pin_3_3*%
%TO.N,RTR_WHB_UPP_ADC0_OUT_D*%
X218105000Y-78590000D03*
%TO.P,J8,4,Pin_4_4*%
%TO.N,RTR_WHB_UPP_ADC1_OUT_A*%
X219375000Y-78590000D03*
%TO.P,J8,5,Pin_5_5*%
%TO.N,RTR_WHB_UPP_ADC_BUSY*%
X218105000Y-79860000D03*
%TO.P,J8,6,Pin_6_6*%
%TO.N,RTR_WHB_UPP_ADC0_OUT_A*%
X219375000Y-79860000D03*
%TO.P,J8,7,Pin_7_7*%
%TO.N,RTR_WHB_UPP_ADC_CONVST*%
X218105000Y-81130000D03*
%TO.P,J8,8,Pin_8_8*%
%TO.N,RTR_WHB_UPP_ADC1_OUT_B*%
X219375000Y-81130000D03*
%TO.P,J8,9,Pin_9_9*%
%TO.N,RTR_WHB_UPP_ADC1_OUT_C*%
X218105000Y-82400000D03*
%TO.P,J8,10,Pin_10_10*%
%TO.N,RTR_WHB_UPP_ADC1_OUT_D*%
X219375000Y-82400000D03*
%TO.P,J8,11,Pin_11_11*%
%TO.N,RTR_WHB_UPP_ADC0_CS*%
X218105000Y-83670000D03*
%TO.P,J8,12,Pin_12_12*%
%TO.N,RTR_WHB_UPP_ADC1_CS*%
X219375000Y-83670000D03*
%TO.P,J8,13,Pin_13_13*%
%TO.N,RTR_WHB_UPP_ADC_FRSTDATA*%
X218105000Y-84940000D03*
%TO.P,J8,14,Pin_14_14*%
%TO.N,GND*%
X219375000Y-84940000D03*
%TO.P,J8,15,Pin_15_15*%
X218105000Y-86210000D03*
%TO.P,J8,16,Pin_16_16*%
X219375000Y-86210000D03*
%TO.P,J8,17,Pin_17_17*%
%TO.N,unconnected-(J8-Pin_17-Pad17)*%
X218105000Y-87480000D03*
%TO.P,J8,18,Pin_18_18*%
%TO.N,unconnected-(J8-Pin_18-Pad18)*%
X219375000Y-87480000D03*
%TO.P,J8,19,Pin_19_19*%
%TO.N,unconnected-(J8-Pin_19-Pad19)*%
X218105000Y-88750000D03*
%TO.P,J8,20,Pin_20_20*%
%TO.N,unconnected-(J8-Pin_20-Pad20)*%
X219375000Y-88750000D03*
%TO.P,J8,21,Pin_21_21*%
%TO.N,P3V3*%
X218105000Y-90020000D03*
%TO.P,J8,22,Pin_22_22*%
X219375000Y-90020000D03*
%TO.P,J8,23,Pin_23_23*%
X218105000Y-91290000D03*
%TO.P,J8,24,Pin_24_24*%
X219375000Y-91290000D03*
%TO.P,J8,25,Pin_25_25*%
%TO.N,GND*%
X218105000Y-92560000D03*
%TO.P,J8,26,Pin_26_26*%
%TO.N,P5V*%
X219375000Y-92560000D03*
%TO.P,J8,27,Pin_27_27*%
%TO.N,GND*%
X218105000Y-93830000D03*
%TO.P,J8,28,Pin_28_28*%
%TO.N,N5V*%
X219375000Y-93830000D03*
%TO.P,J8,29,Pin_29_29*%
%TO.N,RTR_WHA_SDI*%
X218105000Y-95100000D03*
%TO.P,J8,30,Pin_30_30*%
%TO.N,RTR_WHA_SCK*%
X219375000Y-95100000D03*
%TO.P,J8,31,Pin_31_31*%
%TO.N,RTR_WHA_SDO*%
X218105000Y-96370000D03*
%TO.P,J8,32,Pin_32_32*%
%TO.N,RTR_WHB_ADC_RST*%
X219375000Y-96370000D03*
%TD*%
D17*
%TO.P,C28,1*%
%TO.N,P3V3*%
X134630000Y-103700000D03*
%TO.P,C28,2*%
%TO.N,GND*%
X133670000Y-103700000D03*
%TD*%
D18*
%TO.P,R25,1*%
%TO.N,DDR3_A13*%
X174992500Y-91100000D03*
%TO.P,R25,2*%
%TO.N,DDR3_VTT*%
X175807500Y-91100000D03*
%TD*%
D19*
%TO.P,R30,1*%
%TO.N,DDR3_RAS#*%
X170000000Y-94092500D03*
%TO.P,R30,2*%
%TO.N,DDR3_VTT*%
X170000000Y-94907500D03*
%TD*%
%TO.P,R34,1*%
%TO.N,DDR3_CS#*%
X170100000Y-104092500D03*
%TO.P,R34,2*%
%TO.N,DDR3_VTT*%
X170100000Y-104907500D03*
%TD*%
D20*
%TO.P,C152,1*%
%TO.N,P1.0V*%
X145070000Y-126000000D03*
%TO.P,C152,2*%
%TO.N,GND*%
X146030000Y-126000000D03*
%TD*%
%TO.P,C84,1*%
%TO.N,P3V3*%
X101920000Y-95305000D03*
%TO.P,C84,2*%
%TO.N,GND*%
X102880000Y-95305000D03*
%TD*%
D21*
%TO.P,C31,1*%
%TO.N,P3V3*%
X176775000Y-111050000D03*
%TO.P,C31,2*%
%TO.N,GND*%
X179725000Y-111050000D03*
%TD*%
D22*
%TO.P,FB5,1*%
%TO.N,/Power/VCCAUX*%
X131025000Y-80410000D03*
%TO.P,FB5,2*%
%TO.N,P1.8V*%
X131025000Y-78860000D03*
%TD*%
D23*
%TO.P,R57,1*%
%TO.N,P1.8V*%
X121900000Y-94090000D03*
%TO.P,R57,2*%
%TO.N,ETH_MDIO*%
X121900000Y-95110000D03*
%TD*%
D24*
%TO.P,U24,1,VIN_1*%
%TO.N,/Power/1V8_CS*%
X162400000Y-80112500D03*
%TO.P,U24,2,GND_2*%
%TO.N,GND*%
X161450000Y-80112500D03*
%TO.P,U24,3,EN_3*%
%TO.N,1v8en*%
X160500000Y-80112500D03*
%TO.P,U24,4,VOUT_4*%
%TO.N,P1.8V*%
X160500000Y-77837500D03*
%TO.P,U24,5,LX_5*%
%TO.N,/Power/1V8TOLX*%
X162400000Y-77837500D03*
%TD*%
D25*
%TO.P,C133,1*%
%TO.N,P1.0V*%
X148875000Y-126200000D03*
%TO.P,C133,2*%
%TO.N,GND*%
X147325000Y-126200000D03*
%TD*%
D19*
%TO.P,R20,1*%
%TO.N,DDR3_A8*%
X175500000Y-99092500D03*
%TO.P,R20,2*%
%TO.N,DDR3_VTT*%
X175500000Y-99907500D03*
%TD*%
D17*
%TO.P,C36,1*%
%TO.N,P3V3*%
X137030000Y-102100000D03*
%TO.P,C36,2*%
%TO.N,GND*%
X136070000Y-102100000D03*
%TD*%
D23*
%TO.P,R50,1*%
%TO.N,ZYNQ_PL_DONE*%
X142650000Y-91840000D03*
%TO.P,R50,2*%
%TO.N,P1.8V*%
X142650000Y-92860000D03*
%TD*%
D21*
%TO.P,C10,1*%
%TO.N,P3V3*%
X152625000Y-86850000D03*
%TO.P,C10,2*%
%TO.N,GND*%
X155575000Y-86850000D03*
%TD*%
D26*
%TO.P,C70,1*%
%TO.N,P1.2V*%
X120406250Y-95637500D03*
%TO.P,C70,2*%
%TO.N,GND*%
X120406250Y-96277500D03*
%TD*%
D19*
%TO.P,R18,1*%
%TO.N,DDR3_A6*%
X173300000Y-99092500D03*
%TO.P,R18,2*%
%TO.N,DDR3_VTT*%
X173300000Y-99907500D03*
%TD*%
D27*
%TO.P,FB3,1*%
%TO.N,P1.2V*%
X117706250Y-92275000D03*
%TO.P,FB3,2*%
%TO.N,/COMM_ETH/AVDDL_PLL*%
X117706250Y-94100000D03*
%TD*%
D28*
%TO.P,R65,1*%
%TO.N,SD0_D3*%
X131260000Y-113600000D03*
%TO.P,R65,2*%
%TO.N,P3V3*%
X130240000Y-113600000D03*
%TD*%
D17*
%TO.P,C136,1*%
%TO.N,P1.0V*%
X129330000Y-96050000D03*
%TO.P,C136,2*%
%TO.N,GND*%
X128370000Y-96050000D03*
%TD*%
D29*
%TO.P,C13,1*%
%TO.N,P3V3*%
X144250000Y-85380000D03*
%TO.P,C13,2*%
%TO.N,GND*%
X144250000Y-84420000D03*
%TD*%
D30*
%TO.P,C47,1*%
%TO.N,DDR3_VTT*%
X187688368Y-108011252D03*
%TO.P,C47,2*%
%TO.N,GND*%
X187688368Y-109561252D03*
%TD*%
%TO.P,C48,1*%
%TO.N,DDR3_VTT*%
X186138368Y-108011252D03*
%TO.P,C48,2*%
%TO.N,GND*%
X186138368Y-109561252D03*
%TD*%
D31*
%TO.P,C53,1*%
%TO.N,/DDR/VREF*%
X168150000Y-94020000D03*
%TO.P,C53,2*%
%TO.N,GND*%
X168150000Y-94980000D03*
%TD*%
%TO.P,C19,1*%
%TO.N,P3V3*%
X146000000Y-105420000D03*
%TO.P,C19,2*%
%TO.N,GND*%
X146000000Y-106380000D03*
%TD*%
D29*
%TO.P,C137,1*%
%TO.N,P1.8V*%
X149889000Y-84620000D03*
%TO.P,C137,2*%
%TO.N,GND*%
X149889000Y-83660000D03*
%TD*%
D20*
%TO.P,C7,1*%
%TO.N,P5V*%
X220620000Y-92650000D03*
%TO.P,C7,2*%
%TO.N,GND*%
X221580000Y-92650000D03*
%TD*%
%TO.P,C12,1*%
%TO.N,P3V3*%
X152320000Y-89650000D03*
%TO.P,C12,2*%
%TO.N,GND*%
X153280000Y-89650000D03*
%TD*%
D28*
%TO.P,R64,1*%
%TO.N,SD0_CMD*%
X131260000Y-114700000D03*
%TO.P,R64,2*%
%TO.N,P3V3*%
X130240000Y-114700000D03*
%TD*%
D32*
%TO.P,C162,1*%
%TO.N,P1.0V*%
X129225000Y-88400000D03*
%TO.P,C162,2*%
%TO.N,GND*%
X126275000Y-88400000D03*
%TD*%
D33*
%TO.P,C132,1*%
%TO.N,P3V3*%
X110995000Y-114675000D03*
%TO.P,C132,2*%
%TO.N,GND*%
X112545000Y-114675000D03*
%TD*%
D34*
%TO.P,R96,1*%
%TO.N,Net-(R95-Pad2)*%
X187275000Y-96075000D03*
%TO.P,R96,2*%
%TO.N,GND*%
X187275000Y-95055000D03*
%TD*%
D35*
%TO.P,R28,1*%
%TO.N,DDR3_BA1*%
X172000000Y-98307500D03*
%TO.P,R28,2*%
%TO.N,DDR3_VTT*%
X172000000Y-97492500D03*
%TD*%
D17*
%TO.P,C156,1*%
%TO.N,P1.0V*%
X129620000Y-91660000D03*
%TO.P,C156,2*%
%TO.N,GND*%
X128660000Y-91660000D03*
%TD*%
D34*
%TO.P,R6,1*%
%TO.N,Net-(U2-ZQ)*%
X169800000Y-98010000D03*
%TO.P,R6,2*%
%TO.N,GND*%
X169800000Y-96990000D03*
%TD*%
D20*
%TO.P,C62,1*%
%TO.N,P3V3*%
X115141250Y-97517500D03*
%TO.P,C62,2*%
%TO.N,GND*%
X116101250Y-97517500D03*
%TD*%
%TO.P,C37,1*%
%TO.N,P3V3*%
X140970000Y-103650000D03*
%TO.P,C37,2*%
%TO.N,GND*%
X141930000Y-103650000D03*
%TD*%
D30*
%TO.P,C127,1*%
%TO.N,P4V5*%
X153300000Y-122350000D03*
%TO.P,C127,2*%
%TO.N,GND*%
X153300000Y-123900000D03*
%TD*%
D36*
%TO.P,R47,1*%
%TO.N,PROGRAM_B*%
X142515000Y-88375000D03*
%TO.P,R47,2*%
%TO.N,P1.8V*%
X143535000Y-88375000D03*
%TD*%
D37*
%TO.P,C161,1*%
%TO.N,P1.8V*%
X152700000Y-91850000D03*
%TO.P,C161,2*%
%TO.N,GND*%
X154600000Y-91850000D03*
%TD*%
D31*
%TO.P,C160,1*%
%TO.N,P3V3*%
X140300000Y-106820000D03*
%TO.P,C160,2*%
%TO.N,GND*%
X140300000Y-107780000D03*
%TD*%
D29*
%TO.P,C26,1*%
%TO.N,P3V3*%
X149850000Y-86880000D03*
%TO.P,C26,2*%
%TO.N,GND*%
X149850000Y-85920000D03*
%TD*%
D20*
%TO.P,C143,1*%
%TO.N,P1.8V*%
X152370000Y-93350000D03*
%TO.P,C143,2*%
%TO.N,GND*%
X153330000Y-93350000D03*
%TD*%
%TO.P,C83,1*%
%TO.N,P3V3*%
X101920000Y-96360000D03*
%TO.P,C83,2*%
%TO.N,GND*%
X102880000Y-96360000D03*
%TD*%
D38*
%TO.P,C69,1*%
%TO.N,P1.2V*%
X122876250Y-100287500D03*
%TO.P,C69,2*%
%TO.N,GND*%
X122236250Y-100287500D03*
%TD*%
D39*
%TO.P,L4,1,1_1*%
%TO.N,/Power/1V8TOLX*%
X162250000Y-74237500D03*
%TO.P,L4,2,2_2*%
%TO.N,P1.8V*%
X158150000Y-74237500D03*
%TD*%
D40*
%TO.P,C67,1*%
%TO.N,/COMM_ETH/AVDDH*%
X113206250Y-97045000D03*
%TO.P,C67,2*%
%TO.N,GND*%
X113206250Y-96405000D03*
%TD*%
D17*
%TO.P,C151,1*%
%TO.N,P1.0V*%
X129620000Y-90600000D03*
%TO.P,C151,2*%
%TO.N,GND*%
X128660000Y-90600000D03*
%TD*%
%TO.P,C34,1*%
%TO.N,P3V3*%
X134230000Y-90100000D03*
%TO.P,C34,2*%
%TO.N,GND*%
X133270000Y-90100000D03*
%TD*%
D27*
%TO.P,FB1,1*%
%TO.N,P3V3*%
X112050000Y-94875000D03*
%TO.P,FB1,2*%
%TO.N,/COMM_ETH/AVDDH*%
X112050000Y-96700000D03*
%TD*%
D41*
%TO.P,R16,1*%
%TO.N,DDR3_A4*%
X171407500Y-100000000D03*
%TO.P,R16,2*%
%TO.N,DDR3_VTT*%
X170592500Y-100000000D03*
%TD*%
D17*
%TO.P,C32,1*%
%TO.N,P3V3*%
X133730000Y-100100000D03*
%TO.P,C32,2*%
%TO.N,GND*%
X132770000Y-100100000D03*
%TD*%
D29*
%TO.P,C18,1*%
%TO.N,P3V3*%
X143250000Y-85400000D03*
%TO.P,C18,2*%
%TO.N,GND*%
X143250000Y-84440000D03*
%TD*%
D18*
%TO.P,R23,1*%
%TO.N,DDR3_A11*%
X174600000Y-100800000D03*
%TO.P,R23,2*%
%TO.N,DDR3_VTT*%
X175415000Y-100800000D03*
%TD*%
D17*
%TO.P,C68,1*%
%TO.N,P1.2V*%
X122986250Y-102337500D03*
%TO.P,C68,2*%
%TO.N,GND*%
X122026250Y-102337500D03*
%TD*%
D28*
%TO.P,R48,1*%
%TO.N,INIT_B*%
X122907202Y-92907317D03*
%TO.P,R48,2*%
%TO.N,P1.8V*%
X121887202Y-92907317D03*
%TD*%
D17*
%TO.P,C130,1*%
%TO.N,/Power/1V35_CS*%
X182517500Y-93085000D03*
%TO.P,C130,2*%
%TO.N,GND*%
X181557500Y-93085000D03*
%TD*%
D29*
%TO.P,C11,1*%
%TO.N,P3V3*%
X141850000Y-101280000D03*
%TO.P,C11,2*%
%TO.N,GND*%
X141850000Y-100320000D03*
%TD*%
D20*
%TO.P,C3,1*%
%TO.N,N5V*%
X220590000Y-114750000D03*
%TO.P,C3,2*%
%TO.N,GND*%
X221550000Y-114750000D03*
%TD*%
D36*
%TO.P,R54,1*%
%TO.N,ETH_RX2*%
X125290000Y-102183333D03*
%TO.P,R54,2*%
%TO.N,P1.8V*%
X126310000Y-102183333D03*
%TD*%
D25*
%TO.P,C128,1*%
%TO.N,/Power/3V3_CS*%
X112495000Y-121725000D03*
%TO.P,C128,2*%
%TO.N,GND*%
X110945000Y-121725000D03*
%TD*%
D32*
%TO.P,C139,1*%
%TO.N,P1.0V*%
X129350000Y-93954757D03*
%TO.P,C139,2*%
%TO.N,GND*%
X126400000Y-93954757D03*
%TD*%
D31*
%TO.P,C22,1*%
%TO.N,P3V3*%
X136900000Y-103720000D03*
%TO.P,C22,2*%
%TO.N,GND*%
X136900000Y-104680000D03*
%TD*%
D23*
%TO.P,R49,1*%
%TO.N,ZYNQ_PS_RST*%
X144975000Y-104440000D03*
%TO.P,R49,2*%
%TO.N,P1.8V*%
X144975000Y-105460000D03*
%TD*%
D34*
%TO.P,R91,1*%
%TO.N,P4V5*%
X112595000Y-124735000D03*
%TO.P,R91,2*%
%TO.N,3v3en*%
X112595000Y-123715000D03*
%TD*%
D25*
%TO.P,C134,1*%
%TO.N,/Power/1V8_CS*%
X162400000Y-82137500D03*
%TO.P,C134,2*%
%TO.N,GND*%
X160850000Y-82137500D03*
%TD*%
D35*
%TO.P,R21,1*%
%TO.N,DDR3_A9*%
X176500000Y-104907500D03*
%TO.P,R21,2*%
%TO.N,DDR3_VTT*%
X176500000Y-104092500D03*
%TD*%
D40*
%TO.P,C66,1*%
%TO.N,/COMM_ETH/AVDDH*%
X114006250Y-97045000D03*
%TO.P,C66,2*%
%TO.N,GND*%
X114006250Y-96405000D03*
%TD*%
D18*
%TO.P,R13,1*%
%TO.N,DDR3_A1*%
X173592500Y-96000000D03*
%TO.P,R13,2*%
%TO.N,DDR3_VTT*%
X174407500Y-96000000D03*
%TD*%
D41*
%TO.P,R31,1*%
%TO.N,DDR3_CAS#*%
X167907500Y-102000000D03*
%TO.P,R31,2*%
%TO.N,DDR3_VTT*%
X167092500Y-102000000D03*
%TD*%
D29*
%TO.P,C21,1*%
%TO.N,P3V3*%
X138800000Y-82630000D03*
%TO.P,C21,2*%
%TO.N,GND*%
X138800000Y-81670000D03*
%TD*%
D20*
%TO.P,C50,1*%
%TO.N,Net-(U3-REFOUT)*%
X181820000Y-109750000D03*
%TO.P,C50,2*%
%TO.N,GND*%
X182780000Y-109750000D03*
%TD*%
D19*
%TO.P,R19,1*%
%TO.N,DDR3_A7*%
X172500000Y-104892500D03*
%TO.P,R19,2*%
%TO.N,DDR3_VTT*%
X172500000Y-105707500D03*
%TD*%
D29*
%TO.P,C80,1*%
%TO.N,P3V3*%
X101430000Y-93070000D03*
%TO.P,C80,2*%
%TO.N,GND*%
X101430000Y-92110000D03*
%TD*%
D42*
%TO.P,U23,1,EN_1*%
%TO.N,1v35en*%
X186000000Y-94500000D03*
%TO.P,U23,2,GND_2*%
%TO.N,GND*%
X186000000Y-95000000D03*
%TO.P,U23,3,GND_3*%
X186000000Y-95500000D03*
%TO.P,U23,4,FB_4*%
%TO.N,Net-(U23-FB)*%
X186000000Y-96000000D03*
%TO.P,U23,5,VOS_5*%
%TO.N,P1V35*%
X184100000Y-96000000D03*
%TO.P,U23,6,PG_6*%
%TO.N,1v35PG*%
X184100000Y-95500000D03*
%TO.P,U23,7,SW_7*%
%TO.N,Net-(U23-SW)*%
X184100000Y-95000000D03*
%TO.P,U23,8,VIN_8*%
%TO.N,/Power/1V35_CS*%
X184100000Y-94500000D03*
D43*
%TO.P,U23,9,GND_9*%
%TO.N,GND*%
X185050000Y-95250000D03*
%TD*%
D18*
%TO.P,R26,1*%
%TO.N,DDR3_A14*%
X174885000Y-87400000D03*
%TO.P,R26,2*%
%TO.N,DDR3_VTT*%
X175700000Y-87400000D03*
%TD*%
D29*
%TO.P,C146,1*%
%TO.N,P1.8V*%
X148856000Y-84620000D03*
%TO.P,C146,2*%
%TO.N,GND*%
X148856000Y-83660000D03*
%TD*%
D17*
%TO.P,C20,1*%
%TO.N,P3V3*%
X135430000Y-87700000D03*
%TO.P,C20,2*%
%TO.N,GND*%
X134470000Y-87700000D03*
%TD*%
D19*
%TO.P,R15,1*%
%TO.N,DDR3_A3*%
X171700000Y-104792500D03*
%TO.P,R15,2*%
%TO.N,DDR3_VTT*%
X171700000Y-105607500D03*
%TD*%
D44*
%TO.P,L2,1,1_1*%
%TO.N,/Power/3V3TOLX*%
X115500000Y-117000000D03*
%TO.P,L2,2,2_2*%
%TO.N,P3V3*%
X115500000Y-112900000D03*
%TD*%
D31*
%TO.P,C29,1*%
%TO.N,P3V3*%
X139450000Y-99670000D03*
%TO.P,C29,2*%
%TO.N,GND*%
X139450000Y-100630000D03*
%TD*%
D25*
%TO.P,C45,1*%
%TO.N,P1V35*%
X181425000Y-101200000D03*
%TO.P,C45,2*%
%TO.N,GND*%
X179875000Y-101200000D03*
%TD*%
D45*
%TO.P,U3,1,REFIN_1*%
%TO.N,/DDR/VREF*%
X184700000Y-106000000D03*
%TO.P,U3,2,VLDOIN_2*%
%TO.N,P1V35*%
X184700000Y-106500000D03*
%TO.P,U3,3,VO_3*%
%TO.N,DDR3_VTT*%
X184700000Y-107000000D03*
%TO.P,U3,4,PGND_4*%
%TO.N,GND*%
X184700000Y-107500000D03*
%TO.P,U3,5,VOSNS_5*%
%TO.N,DDR3_VTT*%
X184700000Y-108000000D03*
%TO.P,U3,6,REFOUT_6*%
%TO.N,Net-(U3-REFOUT)*%
X181750000Y-108000000D03*
%TO.P,U3,7,EN_7*%
%TO.N,DDR3_VTT_EN*%
X181750000Y-107500000D03*
%TO.P,U3,8,GND_8*%
%TO.N,GND*%
X181750000Y-107000000D03*
%TO.P,U3,9,PGOOD_9*%
%TO.N,Net-(D1-K)*%
X181750000Y-106500000D03*
%TO.P,U3,10,VIN_10*%
%TO.N,P3V3*%
X181750000Y-106000000D03*
D46*
%TO.P,U3,11*%
%TO.N,GND*%
X183705000Y-107860000D03*
X183705000Y-106140000D03*
D47*
X183475000Y-108550000D03*
X183475000Y-105450000D03*
D46*
X183225000Y-107000000D03*
D48*
X183225000Y-107000000D03*
D47*
X182975000Y-108550000D03*
X182975000Y-105450000D03*
D46*
X182745000Y-107860000D03*
X182745000Y-106140000D03*
%TD*%
D20*
%TO.P,C85,1*%
%TO.N,P3V3*%
X101920000Y-94250000D03*
%TO.P,C85,2*%
%TO.N,GND*%
X102880000Y-94250000D03*
%TD*%
D28*
%TO.P,R62,1*%
%TO.N,SD0_D1*%
X131260000Y-120200000D03*
%TO.P,R62,2*%
%TO.N,P3V3*%
X130240000Y-120200000D03*
%TD*%
D20*
%TO.P,C82,1*%
%TO.N,P3V3*%
X101920000Y-97415000D03*
%TO.P,C82,2*%
%TO.N,GND*%
X102880000Y-97415000D03*
%TD*%
D41*
%TO.P,R12,1*%
%TO.N,DDR3_A0*%
X169907500Y-102000000D03*
%TO.P,R12,2*%
%TO.N,DDR3_VTT*%
X169092500Y-102000000D03*
%TD*%
D49*
%TO.P,C77,1*%
%TO.N,P3V3*%
X115086250Y-96625000D03*
%TO.P,C77,2*%
%TO.N,GND*%
X115726250Y-96625000D03*
%TD*%
D50*
%TO.P,C86,1*%
%TO.N,P3V3*%
X98800000Y-92750000D03*
%TO.P,C86,2*%
%TO.N,GND*%
X98800000Y-90850000D03*
%TD*%
D51*
%TO.P,C149,1*%
%TO.N,P1.8V*%
X146100000Y-84225000D03*
%TO.P,C149,2*%
%TO.N,GND*%
X146100000Y-81275000D03*
%TD*%
D32*
%TO.P,C24,1*%
%TO.N,P3V3*%
X135325000Y-85550000D03*
%TO.P,C24,2*%
%TO.N,GND*%
X132375000Y-85550000D03*
%TD*%
D18*
%TO.P,R14,1*%
%TO.N,DDR3_A2*%
X173525000Y-102900000D03*
%TO.P,R14,2*%
%TO.N,DDR3_VTT*%
X174340000Y-102900000D03*
%TD*%
D31*
%TO.P,C144,1*%
%TO.N,P1.0V*%
X143450000Y-98820000D03*
%TO.P,C144,2*%
%TO.N,GND*%
X143450000Y-99780000D03*
%TD*%
D36*
%TO.P,R95,1*%
%TO.N,Net-(U23-FB)*%
X186065000Y-97115000D03*
%TO.P,R95,2*%
%TO.N,Net-(R95-Pad2)*%
X187085000Y-97115000D03*
%TD*%
D31*
%TO.P,C23,1*%
%TO.N,P3V3*%
X135950000Y-106820000D03*
%TO.P,C23,2*%
%TO.N,GND*%
X135950000Y-107780000D03*
%TD*%
D30*
%TO.P,C150,1*%
%TO.N,P1.8V*%
X158900000Y-77762500D03*
%TO.P,C150,2*%
%TO.N,GND*%
X158900000Y-79312500D03*
%TD*%
D23*
%TO.P,R58,1*%
%TO.N,GND*%
X124500000Y-96740000D03*
%TO.P,R58,2*%
%TO.N,ETH_RX_CLK*%
X124500000Y-97760000D03*
%TD*%
D17*
%TO.P,C59,1*%
%TO.N,/DDR/VREF*%
X167430000Y-106300000D03*
%TO.P,C59,2*%
%TO.N,GND*%
X166470000Y-106300000D03*
%TD*%
D31*
%TO.P,C30,1*%
%TO.N,P3V3*%
X137850000Y-99670000D03*
%TO.P,C30,2*%
%TO.N,GND*%
X137850000Y-100630000D03*
%TD*%
D17*
%TO.P,C157,1*%
%TO.N,P1.0V*%
X143980000Y-126000000D03*
%TO.P,C157,2*%
%TO.N,GND*%
X143020000Y-126000000D03*
%TD*%
D31*
%TO.P,C16,1*%
%TO.N,P3V3*%
X133700000Y-97070000D03*
%TO.P,C16,2*%
%TO.N,GND*%
X133700000Y-98030000D03*
%TD*%
D19*
%TO.P,R32,1*%
%TO.N,DDR3_WE#*%
X170100000Y-91192500D03*
%TO.P,R32,2*%
%TO.N,DDR3_VTT*%
X170100000Y-92007500D03*
%TD*%
D41*
%TO.P,R27,1*%
%TO.N,DDR3_BA0*%
X171407500Y-92900000D03*
%TO.P,R27,2*%
%TO.N,DDR3_VTT*%
X170592500Y-92900000D03*
%TD*%
D23*
%TO.P,R89,1*%
%TO.N,P4V5*%
X154700000Y-122290000D03*
%TO.P,R89,2*%
%TO.N,1v0en*%
X154700000Y-123310000D03*
%TD*%
D20*
%TO.P,C46,1*%
%TO.N,GND*%
X179600000Y-106050000D03*
%TO.P,C46,2*%
%TO.N,P3V3*%
X180560000Y-106050000D03*
%TD*%
D28*
%TO.P,R94,1*%
%TO.N,Net-(U23-FB)*%
X185095000Y-97115000D03*
%TO.P,R94,2*%
%TO.N,P1V35*%
X184075000Y-97115000D03*
%TD*%
D26*
%TO.P,C65,1*%
%TO.N,P1.8V*%
X119656250Y-95637500D03*
%TO.P,C65,2*%
%TO.N,GND*%
X119656250Y-96277500D03*
%TD*%
D17*
%TO.P,C4,1*%
%TO.N,P5V*%
X208230000Y-91150000D03*
%TO.P,C4,2*%
%TO.N,GND*%
X207270000Y-91150000D03*
%TD*%
D52*
%TO.P,FB2,1*%
%TO.N,P1.2V*%
X113450000Y-104262500D03*
%TO.P,FB2,2*%
%TO.N,/COMM_ETH/AVDDL*%
X113450000Y-102437500D03*
%TD*%
D53*
%TO.P,C17,1*%
%TO.N,P3V3*%
X141150000Y-84575000D03*
%TO.P,C17,2*%
%TO.N,GND*%
X141150000Y-81625000D03*
%TD*%
D33*
%TO.P,C153,1*%
%TO.N,/Power/VCCAUX*%
X132550000Y-80400000D03*
%TO.P,C153,2*%
%TO.N,GND*%
X134100000Y-80400000D03*
%TD*%
D19*
%TO.P,R17,1*%
%TO.N,DDR3_A5*%
X173300000Y-104892500D03*
%TO.P,R17,2*%
%TO.N,DDR3_VTT*%
X173300000Y-105707500D03*
%TD*%
D54*
%TO.P,L1,1,1_1*%
%TO.N,Net-(U23-SW)*%
X181387500Y-94965000D03*
%TO.P,L1,2,2_2*%
%TO.N,P1V35*%
X181387500Y-99065000D03*
%TD*%
D28*
%TO.P,R63,1*%
%TO.N,SD0_D0*%
X131260000Y-119100000D03*
%TO.P,R63,2*%
%TO.N,P3V3*%
X130240000Y-119100000D03*
%TD*%
D36*
%TO.P,R39,1*%
%TO.N,MTR_SDO*%
X105680000Y-77850000D03*
%TO.P,R39,2*%
%TO.N,P3V3*%
X106700000Y-77850000D03*
%TD*%
D40*
%TO.P,C71,1*%
%TO.N,P1.2V*%
X118156250Y-104557500D03*
%TO.P,C71,2*%
%TO.N,GND*%
X118156250Y-103917500D03*
%TD*%
D55*
%TO.P,C148,1*%
%TO.N,P1.8V*%
X158550000Y-100150000D03*
%TO.P,C148,2*%
%TO.N,GND*%
X158550000Y-103100000D03*
%TD*%
D24*
%TO.P,U22,1,VIN_1*%
%TO.N,/Power/3V3_CS*%
X112570000Y-119100000D03*
%TO.P,U22,2,GND_2*%
%TO.N,GND*%
X111620000Y-119100000D03*
%TO.P,U22,3,EN_3*%
%TO.N,3v3en*%
X110670000Y-119100000D03*
%TO.P,U22,4,VOUT_4*%
%TO.N,P3V3*%
X110670000Y-116825000D03*
%TO.P,U22,5,LX_5*%
%TO.N,/Power/3V3TOLX*%
X112570000Y-116825000D03*
%TD*%
D34*
%TO.P,R9,1*%
%TO.N,/DDR/PGOOD_LED*%
X178600000Y-108910000D03*
%TO.P,R9,2*%
%TO.N,P3V3*%
X178600000Y-107890000D03*
%TD*%
D31*
%TO.P,C142,1*%
%TO.N,P1.8V*%
X155350000Y-99755000D03*
%TO.P,C142,2*%
%TO.N,GND*%
X155350000Y-100715000D03*
%TD*%
D19*
%TO.P,R29,1*%
%TO.N,DDR3_BA2*%
X171500000Y-95092500D03*
%TO.P,R29,2*%
%TO.N,DDR3_VTT*%
X171500000Y-95907500D03*
%TD*%
D20*
%TO.P,C5,1*%
%TO.N,N5V*%
X220620000Y-93850000D03*
%TO.P,C5,2*%
%TO.N,GND*%
X221580000Y-93850000D03*
%TD*%
D31*
%TO.P,C145,1*%
%TO.N,P1.8V*%
X156350000Y-99755000D03*
%TO.P,C145,2*%
%TO.N,GND*%
X156350000Y-100715000D03*
%TD*%
D29*
%TO.P,C138,1*%
%TO.N,P1.8V*%
X147823000Y-84620000D03*
%TO.P,C138,2*%
%TO.N,GND*%
X147823000Y-83660000D03*
%TD*%
D28*
%TO.P,R66,1*%
%TO.N,SD0_D2*%
X131260000Y-112500000D03*
%TO.P,R66,2*%
%TO.N,P3V3*%
X130240000Y-112500000D03*
%TD*%
D36*
%TO.P,R55,1*%
%TO.N,ETH_RX1*%
X125290000Y-100150000D03*
%TO.P,R55,2*%
%TO.N,P1.8V*%
X126310000Y-100150000D03*
%TD*%
D55*
%TO.P,C165,1*%
%TO.N,P3V3*%
X138100000Y-106825000D03*
%TO.P,C165,2*%
%TO.N,GND*%
X138100000Y-109775000D03*
%TD*%
D22*
%TO.P,C49,1*%
%TO.N,DDR3_VTT*%
X186150000Y-106575000D03*
%TO.P,C49,2*%
%TO.N,GND*%
X186150000Y-105025000D03*
%TD*%
D49*
%TO.P,C72,1*%
%TO.N,/COMM_ETH/AVDDL*%
X113986250Y-98787500D03*
%TO.P,C72,2*%
%TO.N,GND*%
X114626250Y-98787500D03*
%TD*%
D20*
%TO.P,C60,1*%
%TO.N,/DDR/VREF*%
X171470000Y-89750000D03*
%TO.P,C60,2*%
%TO.N,GND*%
X172430000Y-89750000D03*
%TD*%
D17*
%TO.P,C35,1*%
%TO.N,P3V3*%
X134630000Y-101300000D03*
%TO.P,C35,2*%
%TO.N,GND*%
X133670000Y-101300000D03*
%TD*%
D23*
%TO.P,R90,1*%
%TO.N,P4V5*%
X168050000Y-74515000D03*
%TO.P,R90,2*%
%TO.N,1v8en*%
X168050000Y-75535000D03*
%TD*%
D41*
%TO.P,R22,1*%
%TO.N,DDR3_A10*%
X171907500Y-103500000D03*
%TO.P,R22,2*%
%TO.N,DDR3_VTT*%
X171092500Y-103500000D03*
%TD*%
D31*
%TO.P,C33,1*%
%TO.N,P3V3*%
X144200000Y-102120000D03*
%TO.P,C33,2*%
%TO.N,GND*%
X144200000Y-103080000D03*
%TD*%
D29*
%TO.P,C81,1*%
%TO.N,P3V3*%
X100375000Y-93070000D03*
%TO.P,C81,2*%
%TO.N,GND*%
X100375000Y-92110000D03*
%TD*%
D36*
%TO.P,R35,1*%
%TO.N,DDR3_DRST#*%
X175340000Y-93200000D03*
%TO.P,R35,2*%
%TO.N,GND*%
X176360000Y-93200000D03*
%TD*%
D54*
%TO.P,L3,1,1_1*%
%TO.N,/Power/1V0TOLX*%
X145850000Y-120150000D03*
%TO.P,L3,2,2_2*%
%TO.N,P1.0V*%
X145850000Y-124250000D03*
%TD*%
D38*
%TO.P,C64,1*%
%TO.N,P1.8V*%
X122826250Y-98287500D03*
%TO.P,C64,2*%
%TO.N,GND*%
X122186250Y-98287500D03*
%TD*%
D36*
%TO.P,R36,1*%
%TO.N,Net-(U1_B-PS_DDR_VRN_502)*%
X152515000Y-96925000D03*
%TO.P,R36,2*%
%TO.N,P1V35*%
X153535000Y-96925000D03*
%TD*%
D18*
%TO.P,R33,1*%
%TO.N,DDR3_ODT*%
X169992500Y-105800000D03*
%TO.P,R33,2*%
%TO.N,DDR3_VTT*%
X170807500Y-105800000D03*
%TD*%
D17*
%TO.P,C141,1*%
%TO.N,P1.0V*%
X129330000Y-98080000D03*
%TO.P,C141,2*%
%TO.N,GND*%
X128370000Y-98080000D03*
%TD*%
D26*
%TO.P,C79,1*%
%TO.N,/COMM_ETH/AVDDL_PLL*%
X118256250Y-95457500D03*
%TO.P,C79,2*%
%TO.N,GND*%
X118256250Y-96097500D03*
%TD*%
D28*
%TO.P,R92,1*%
%TO.N,P4V5*%
X190260000Y-94150000D03*
%TO.P,R92,2*%
%TO.N,1v35en*%
X189240000Y-94150000D03*
%TD*%
D36*
%TO.P,R7,1*%
%TO.N,P3V3*%
X179598368Y-107500000D03*
%TO.P,R7,2*%
%TO.N,DDR3_VTT_EN*%
X180618368Y-107500000D03*
%TD*%
D31*
%TO.P,C78,1*%
%TO.N,/COMM_ETH/AVDDL_PLL*%
X117356250Y-95507500D03*
%TO.P,C78,2*%
%TO.N,GND*%
X117356250Y-96467500D03*
%TD*%
D33*
%TO.P,FB4,1*%
%TO.N,Net-(U1_H-VCCPLL)*%
X155025000Y-98550000D03*
%TO.P,FB4,2*%
%TO.N,P1.8V*%
X156575000Y-98550000D03*
%TD*%
D49*
%TO.P,C73,1*%
%TO.N,/COMM_ETH/AVDDL*%
X113986250Y-101287500D03*
%TO.P,C73,2*%
%TO.N,GND*%
X114626250Y-101287500D03*
%TD*%
D17*
%TO.P,C147,1*%
%TO.N,P1.0V*%
X129330000Y-97065000D03*
%TO.P,C147,2*%
%TO.N,GND*%
X128370000Y-97065000D03*
%TD*%
D31*
%TO.P,C25,1*%
%TO.N,P3V3*%
X143800000Y-104970000D03*
%TO.P,C25,2*%
%TO.N,GND*%
X143800000Y-105930000D03*
%TD*%
D56*
%TO.P,U21,1,VIN_1*%
%TO.N,P4V5*%
X151237500Y-122700000D03*
%TO.P,U21,2,GND_2*%
%TO.N,GND*%
X151237500Y-123650000D03*
%TO.P,U21,3,EN_3*%
%TO.N,1v0en*%
X151237500Y-124600000D03*
%TO.P,U21,4,VOUT_4*%
%TO.N,P1.0V*%
X148962500Y-124600000D03*
%TO.P,U21,5,LX_5*%
%TO.N,/Power/1V0TOLX*%
X148962500Y-122700000D03*
%TD*%
D20*
%TO.P,C135,1*%
%TO.N,P1.8V*%
X144970000Y-94900000D03*
%TO.P,C135,2*%
%TO.N,GND*%
X145930000Y-94900000D03*
%TD*%
%TO.P,C6,1*%
%TO.N,N5V*%
X212070000Y-91150000D03*
%TO.P,C6,2*%
%TO.N,GND*%
X213030000Y-91150000D03*
%TD*%
D57*
%TO.P,R87,1*%
%TO.N,P4V5*%
X115520000Y-125000000D03*
%TO.P,R87,2*%
%TO.N,/Power/3V3_CS*%
X115520000Y-119075000D03*
%TD*%
D36*
%TO.P,R56,1*%
%TO.N,ETH_RX0*%
X125290000Y-101166667D03*
%TO.P,R56,2*%
%TO.N,P1.8V*%
X126310000Y-101166667D03*
%TD*%
D17*
%TO.P,C15,1*%
%TO.N,P3V3*%
X134230000Y-91250000D03*
%TO.P,C15,2*%
%TO.N,GND*%
X133270000Y-91250000D03*
%TD*%
D20*
%TO.P,C44,1*%
%TO.N,/DDR/VREF*%
X171520000Y-101725000D03*
%TO.P,C44,2*%
%TO.N,GND*%
X172480000Y-101725000D03*
%TD*%
%TO.P,C158,1*%
%TO.N,/Power/VCCAUX*%
X132275000Y-79085000D03*
%TO.P,C158,2*%
%TO.N,GND*%
X133235000Y-79085000D03*
%TD*%
D58*
%TO.P,R88,1*%
%TO.N,P4V5*%
X189900000Y-91615000D03*
%TO.P,R88,2*%
%TO.N,/Power/1V35_CS*%
X183975000Y-91615000D03*
%TD*%
D31*
%TO.P,C140,1*%
%TO.N,P1.8V*%
X142650000Y-93970000D03*
%TO.P,C140,2*%
%TO.N,GND*%
X142650000Y-94930000D03*
%TD*%
D36*
%TO.P,R37,1*%
%TO.N,Net-(U1_B-PS_DDR_VRP_502)*%
X152440000Y-94550000D03*
%TO.P,R37,2*%
%TO.N,GND*%
X153460000Y-94550000D03*
%TD*%
D17*
%TO.P,C8,1*%
%TO.N,P5V*%
X216980000Y-114750000D03*
%TO.P,C8,2*%
%TO.N,GND*%
X216020000Y-114750000D03*
%TD*%
D32*
%TO.P,C163,1*%
%TO.N,P1.0V*%
X142900000Y-123500000D03*
%TO.P,C163,2*%
%TO.N,GND*%
X139950000Y-123500000D03*
%TD*%
D28*
%TO.P,R59,1*%
%TO.N,GND*%
X124816250Y-99037500D03*
%TO.P,R59,2*%
%TO.N,ETH_RX_CTL*%
X123796250Y-99037500D03*
%TD*%
D59*
%TO.P,R97,1*%
%TO.N,P4V5*%
X165500000Y-74875000D03*
%TO.P,R97,2*%
%TO.N,/Power/1V8_CS*%
X165500000Y-80800000D03*
%TD*%
D18*
%TO.P,R24,1*%
%TO.N,DDR3_A12*%
X172725000Y-100900000D03*
%TO.P,R24,2*%
%TO.N,DDR3_VTT*%
X173540000Y-100900000D03*
%TD*%
D28*
%TO.P,R51,1*%
%TO.N,Net-(U1_A-PS_MIO12_500)*%
X132160000Y-116850000D03*
%TO.P,R51,2*%
%TO.N,SD0_CLK*%
X131140000Y-116850000D03*
%TD*%
D29*
%TO.P,C63,1*%
%TO.N,P1.8V*%
X117156250Y-104637500D03*
%TO.P,C63,2*%
%TO.N,GND*%
X117156250Y-103677500D03*
%TD*%
D37*
%TO.P,C131,1*%
%TO.N,P1V35*%
X184437500Y-98665000D03*
%TO.P,C131,2*%
%TO.N,GND*%
X186337500Y-98665000D03*
%TD*%
D36*
%TO.P,R53,1*%
%TO.N,ETH_RX3*%
X125290000Y-103200000D03*
%TO.P,R53,2*%
%TO.N,P1.8V*%
X126310000Y-103200000D03*
%TD*%
D60*
%TO.N,RTR_WHB_UPP_LATCH*%
X146636252Y-87686632D03*
%TO.N,RTR_WHB_UPP_CSEL*%
X147436252Y-87686632D03*
%TO.N,RTR_WHB_UPP_UPDN*%
X147436252Y-88486632D03*
%TO.N,RTR_WHB_UPP_AD0*%
X148236252Y-86886632D03*
%TO.N,RTR_WHB_UPP_INC*%
X148236252Y-88486632D03*
%TO.N,RTR_WHB_UPP_AD1*%
X149036252Y-86886632D03*
%TO.N,RTR_WHB_UPP_AD2*%
X150636252Y-86886632D03*
%TO.N,RTR_WHB_UPP_OFF*%
X151036252Y-86386632D03*
%TO.N,RTR_WHB_LOW_ADC0_OUT_C*%
X141850000Y-90900000D03*
%TO.N,RTR_WHB_LOW_ADC1_OUT_B*%
X141836252Y-90086632D03*
%TO.N,RTR_WHB_LOW_ADC1_OUT_A*%
X142636252Y-90086632D03*
%TO.N,RTR_WHB_LOW_ADC1_OUT_C*%
X142633325Y-89286791D03*
%TO.N,RTR_WHB_LOW_ADC1_OUT_D*%
X143436252Y-90086632D03*
%TO.N,RTR_WHB_LOW_ADC0_OUT_D*%
X142636252Y-90886632D03*
%TO.N,RTR_WHB_LOW_ADC0_OUT_A*%
X144236252Y-90886632D03*
%TO.N,RTR_WHB_LOW_ADC0_OUT_B*%
X145036252Y-90886632D03*
D61*
%TO.N,GND*%
X243353147Y-121725000D03*
X228615734Y-72550000D03*
X191725000Y-88100000D03*
D60*
X148236252Y-96486632D03*
X164936252Y-93286632D03*
D61*
X247493880Y-76700000D03*
D60*
X141836252Y-95686632D03*
X149836252Y-90886632D03*
D61*
X143850000Y-116800000D03*
X109125000Y-89200000D03*
X232840559Y-76700000D03*
X236846853Y-75700000D03*
X185068880Y-72475000D03*
X229565559Y-123450000D03*
X213500000Y-85250000D03*
X178350000Y-89450000D03*
X243650000Y-101150000D03*
X237673725Y-71700000D03*
D60*
X162536252Y-90886632D03*
D61*
X239301871Y-71700000D03*
X124750000Y-110000000D03*
X192368706Y-106700000D03*
X232250000Y-91500000D03*
X116500000Y-98841667D03*
X238384615Y-72550000D03*
X118000000Y-100125000D03*
X100034266Y-116500000D03*
X255103147Y-79625000D03*
D60*
X162536252Y-98086632D03*
D61*
X178800000Y-100950000D03*
X100762413Y-117875000D03*
X242300000Y-102300000D03*
X220475000Y-72550000D03*
X244186312Y-71700000D03*
D60*
X164936252Y-105286632D03*
D61*
X221353147Y-73550000D03*
X246850000Y-119700000D03*
X231193706Y-123450000D03*
X247850000Y-82400000D03*
X196465908Y-72475000D03*
D60*
X172936252Y-98093631D03*
D61*
X192428147Y-108825000D03*
X188325174Y-72475000D03*
X246650000Y-112650000D03*
D60*
X164136252Y-98886632D03*
X136236252Y-98086632D03*
D61*
X227475000Y-87240000D03*
D60*
X161736252Y-98086632D03*
D61*
X244250000Y-112650000D03*
X243250000Y-96850000D03*
X116500000Y-100125000D03*
X189121854Y-104425000D03*
X236006468Y-73550000D03*
X231161138Y-71700000D03*
X246615733Y-75700000D03*
X146250000Y-116800000D03*
X120400000Y-98200000D03*
D60*
X140236252Y-98086632D03*
D61*
X241020403Y-74850000D03*
X224648551Y-71700000D03*
X223550000Y-80256294D03*
X239850000Y-91400000D03*
X144700000Y-118450000D03*
D60*
X138636252Y-90086632D03*
D61*
X231872028Y-72550000D03*
D62*
X214825000Y-90325000D03*
D61*
X246046854Y-77550000D03*
D60*
X174536252Y-105286632D03*
D61*
X223731294Y-72550000D03*
X247271854Y-79625000D03*
X234450000Y-121775000D03*
X224850000Y-76225000D03*
X227700000Y-115850000D03*
X252350000Y-83550000D03*
D60*
X144236252Y-99686632D03*
D61*
X240103146Y-75700000D03*
X247200000Y-109100000D03*
X227937413Y-121775000D03*
X118000000Y-98200000D03*
X232250000Y-90700000D03*
X116500000Y-100766667D03*
X227450000Y-82450000D03*
X242648550Y-74850000D03*
D60*
X164136252Y-86886632D03*
D61*
X193925000Y-90225000D03*
X117200000Y-98841667D03*
X224850000Y-79481294D03*
X229584266Y-76700000D03*
X156325000Y-117575000D03*
D60*
X166536252Y-105286632D03*
D61*
X235450000Y-102050000D03*
D60*
X140236252Y-93286632D03*
D61*
X117280000Y-102050000D03*
X224850000Y-82737587D03*
X234450000Y-102050000D03*
X118800000Y-98841667D03*
X240981293Y-76700000D03*
X113300000Y-92350000D03*
X118840000Y-101408333D03*
X105646853Y-117875000D03*
X231251523Y-74850000D03*
X228815559Y-122625000D03*
X118060000Y-100766667D03*
D60*
X141836252Y-94086632D03*
D61*
X238475000Y-75700000D03*
D60*
X173736252Y-98086632D03*
D61*
X118800000Y-99483333D03*
X131900000Y-108300000D03*
D60*
X145036252Y-98086632D03*
D61*
X240650000Y-108500000D03*
X116500000Y-102050000D03*
X239850000Y-90600000D03*
X104018706Y-115200000D03*
X98300000Y-87520000D03*
X232850000Y-86200000D03*
X242912761Y-126750000D03*
X244147202Y-73550000D03*
D60*
X164136252Y-105286632D03*
X145036252Y-95686632D03*
X170536252Y-105286632D03*
D61*
X227350000Y-88621853D03*
X238150000Y-96400000D03*
D60*
X145836252Y-97286632D03*
X142636252Y-102086632D03*
X139436252Y-96486632D03*
D61*
X99134266Y-115200000D03*
D60*
X141811252Y-96486632D03*
D61*
X222981294Y-73550000D03*
X119600000Y-98200000D03*
X245865733Y-76700000D03*
X248500000Y-110750000D03*
X117200000Y-98200000D03*
X247532990Y-74850000D03*
X116500000Y-101408333D03*
D60*
X144236252Y-97286632D03*
D61*
X178350000Y-91950000D03*
X219725000Y-73550000D03*
X116500000Y-99483333D03*
D60*
X172136252Y-86086632D03*
D61*
X118060000Y-101408333D03*
D60*
X168136252Y-98886632D03*
D61*
X241725000Y-121725000D03*
D60*
X171336252Y-98086632D03*
D61*
X233100000Y-108950000D03*
X136900000Y-116550000D03*
D60*
X142636252Y-97286632D03*
D61*
X243478147Y-123975000D03*
X218846854Y-72550000D03*
X120400000Y-100125000D03*
D60*
X147436252Y-90086632D03*
D61*
X242558165Y-71700000D03*
D62*
X214825000Y-89700000D03*
D61*
X186697027Y-72475000D03*
X233900000Y-108950000D03*
X157368638Y-86196298D03*
X236096853Y-76700000D03*
X232821853Y-121775000D03*
X231193706Y-121775000D03*
X233700000Y-122625000D03*
X190800000Y-108825000D03*
X247650000Y-119700000D03*
D60*
X145036252Y-92486632D03*
D61*
X232750174Y-73550000D03*
X231515734Y-126750000D03*
X178556293Y-72475000D03*
X248153495Y-72550000D03*
X117200000Y-99483333D03*
X223550000Y-77000000D03*
D60*
X165736252Y-86086632D03*
X141036252Y-96486632D03*
D61*
X206550000Y-91150000D03*
D60*
X142636252Y-98886632D03*
X147436252Y-103686632D03*
D61*
X227150000Y-102946853D03*
D60*
X141036252Y-92486632D03*
D61*
X117125000Y-88350000D03*
X235121853Y-119150000D03*
D60*
X145436252Y-86486632D03*
D61*
X249425348Y-126750000D03*
X235250000Y-86200000D03*
X134050000Y-123900000D03*
X231900000Y-116050000D03*
D60*
X141836252Y-93286632D03*
D61*
X227350000Y-91878146D03*
D60*
X142636252Y-96486632D03*
D61*
X234468706Y-76700000D03*
X216468707Y-73550000D03*
X245450000Y-82400000D03*
X232700000Y-116050000D03*
D60*
X145036252Y-96486632D03*
D61*
X247797202Y-126750000D03*
X232821853Y-123450000D03*
X125700000Y-110000000D03*
X228259441Y-126750000D03*
D60*
X173736252Y-86086632D03*
D61*
X234450000Y-86200000D03*
X183440734Y-72475000D03*
X106546853Y-116500000D03*
D60*
X147436252Y-98886632D03*
D61*
X125750000Y-123900000D03*
X236045578Y-71700000D03*
D60*
X139436252Y-104486632D03*
D61*
X125250000Y-94700000D03*
X249303147Y-77550000D03*
X253475000Y-79625000D03*
X157941645Y-93886240D03*
X186550000Y-101362500D03*
X241284615Y-126750000D03*
X120400000Y-100766667D03*
X233600000Y-78900000D03*
X109125000Y-94050000D03*
X244276697Y-74850000D03*
D60*
X137836252Y-101286632D03*
X150636252Y-97286632D03*
D61*
X247200000Y-106700000D03*
D60*
X138636252Y-98886632D03*
D61*
X222375000Y-82687587D03*
X118000000Y-98841667D03*
X234417431Y-71700000D03*
X213800000Y-91150000D03*
X245850000Y-112650000D03*
X236135963Y-74850000D03*
D60*
X145036252Y-103686632D03*
D61*
X226631294Y-126750000D03*
X217218707Y-72550000D03*
X246300000Y-88150000D03*
X93450000Y-87520000D03*
D60*
X144236252Y-94886632D03*
D61*
X227904844Y-71700000D03*
X135600000Y-112250000D03*
X133100000Y-123900000D03*
D60*
X151436252Y-94086632D03*
X137799149Y-86538894D03*
D61*
X223550000Y-81884441D03*
D60*
X141036252Y-94086632D03*
D61*
X146300000Y-118450000D03*
D60*
X172937295Y-93286632D03*
D61*
X105646853Y-115200000D03*
D60*
X146636252Y-92486632D03*
D61*
X189112413Y-106700000D03*
X100762413Y-115200000D03*
X244525000Y-96850000D03*
X221392257Y-71700000D03*
X243269055Y-72550000D03*
X227325000Y-94750000D03*
X214875000Y-84850000D03*
X238850000Y-96400000D03*
X226237587Y-73550000D03*
X101687413Y-113775000D03*
X155729040Y-120205659D03*
X153300000Y-123900000D03*
X240890908Y-73550000D03*
X239353146Y-76700000D03*
X230443706Y-122625000D03*
X103315559Y-113775000D03*
X117280000Y-100766667D03*
D60*
X162536252Y-93286632D03*
D61*
X178800000Y-101550000D03*
X227150000Y-106203146D03*
X230237413Y-119150000D03*
D60*
X165741762Y-98086632D03*
D61*
X247100000Y-88150000D03*
X240012761Y-72550000D03*
D60*
X174536252Y-93286632D03*
D61*
X118800000Y-100125000D03*
X240650000Y-106900000D03*
X233493706Y-119150000D03*
D60*
X140236252Y-97286632D03*
D61*
X247050000Y-82400000D03*
X227865734Y-73550000D03*
X143836914Y-117606253D03*
X226309266Y-121775000D03*
X175300000Y-72475000D03*
X189171854Y-108825000D03*
X236750000Y-119150000D03*
X239656468Y-126750000D03*
X253250000Y-84850000D03*
X236756468Y-72550000D03*
D60*
X141036252Y-90886632D03*
D61*
X147325000Y-126200000D03*
X247900000Y-88150000D03*
X112275000Y-88350000D03*
X118800000Y-98200000D03*
X114700000Y-88350000D03*
X237725000Y-76700000D03*
X231212413Y-76700000D03*
X245814458Y-71700000D03*
X118000000Y-99483333D03*
X222375000Y-81059441D03*
X239262761Y-73550000D03*
X231962413Y-75700000D03*
X222375000Y-77803147D03*
X187650000Y-109250000D03*
X223375000Y-126750000D03*
X237634615Y-73550000D03*
X233650000Y-86200000D03*
X245050000Y-112650000D03*
X245800000Y-96850000D03*
X244540908Y-126750000D03*
X245775348Y-73550000D03*
X189953321Y-72475000D03*
X227150000Y-104575000D03*
X234450000Y-123450000D03*
X187484266Y-106700000D03*
D60*
X166540265Y-98093622D03*
D61*
X247675000Y-77550000D03*
D60*
X149836252Y-99686632D03*
X144236252Y-100486632D03*
X146636252Y-99686632D03*
D61*
X229887587Y-126750000D03*
D60*
X164936252Y-86886632D03*
X138636252Y-97286632D03*
D61*
X246050000Y-119700000D03*
X218096854Y-73550000D03*
D60*
X151438327Y-102868622D03*
D61*
X113100000Y-95650000D03*
X146236914Y-117606253D03*
X227350000Y-90250000D03*
X119620000Y-100766667D03*
X176600000Y-92350000D03*
X230243881Y-72550000D03*
X234507816Y-74850000D03*
X223550000Y-83512587D03*
X232300000Y-108950000D03*
X145500000Y-118450000D03*
X221746854Y-126750000D03*
X119600000Y-98841667D03*
X99134266Y-117875000D03*
X244897202Y-72550000D03*
D60*
X136236252Y-89286632D03*
D61*
X224850000Y-81109441D03*
X227700000Y-114800000D03*
X222375000Y-84315734D03*
X200375000Y-85475000D03*
X226850000Y-113500000D03*
X224609441Y-73550000D03*
X240221854Y-123975000D03*
X103290559Y-116500000D03*
X186325000Y-109250000D03*
X225359441Y-72550000D03*
X245250000Y-119700000D03*
D60*
X171343242Y-93286370D03*
D61*
X234400000Y-78900000D03*
X136900000Y-117700000D03*
D60*
X141836252Y-89286632D03*
D61*
X186550000Y-103350000D03*
X119600000Y-99483333D03*
X227325000Y-93121853D03*
X240096854Y-121725000D03*
X230334266Y-75700000D03*
X158786252Y-94001632D03*
X124700000Y-123900000D03*
X232250000Y-92300000D03*
X186550000Y-102687500D03*
D60*
X143436252Y-96486632D03*
D61*
X118840000Y-100766667D03*
X118840000Y-102050000D03*
X193209614Y-72475000D03*
X235218706Y-75700000D03*
X118060000Y-102050000D03*
X248243880Y-75700000D03*
X236400174Y-126750000D03*
X227937413Y-123450000D03*
D60*
X172136252Y-105286632D03*
D61*
X232879669Y-74850000D03*
X225003147Y-126750000D03*
X245904843Y-74850000D03*
D60*
X150636252Y-88486632D03*
D61*
X247403495Y-73550000D03*
X233500000Y-116050000D03*
D60*
X162536252Y-86086632D03*
D61*
X120400000Y-102050000D03*
X120400000Y-101408333D03*
X101662413Y-116500000D03*
X186987500Y-109250000D03*
X241640908Y-72550000D03*
D60*
X167136252Y-93386632D03*
D61*
X231865559Y-119150000D03*
X251846854Y-79625000D03*
D60*
X141836252Y-94886632D03*
X166536252Y-98886632D03*
D61*
X153436252Y-88586632D03*
X232071853Y-122625000D03*
X244987587Y-75700000D03*
X229532991Y-71700000D03*
X107275000Y-115200000D03*
X226987587Y-72550000D03*
X244237587Y-76700000D03*
X95875000Y-87520000D03*
X106571853Y-113775000D03*
X250528147Y-79625000D03*
X176928147Y-72475000D03*
X102390559Y-117875000D03*
X104918706Y-116500000D03*
D60*
X138636252Y-93286632D03*
D61*
X119620000Y-101408333D03*
X108200000Y-113775000D03*
X247200000Y-108300000D03*
X191581467Y-72475000D03*
X246250000Y-82400000D03*
X246525348Y-72550000D03*
X178350000Y-92600000D03*
X144650000Y-116800000D03*
X239392256Y-74850000D03*
X116500000Y-98200000D03*
X193996853Y-106700000D03*
X240650000Y-107700000D03*
X157712868Y-120274661D03*
X237764110Y-74850000D03*
X216507817Y-71700000D03*
X240650000Y-106100000D03*
X222103147Y-72550000D03*
X203925000Y-78550000D03*
X223550000Y-78628147D03*
D60*
X168943242Y-92485578D03*
D61*
X198094054Y-72475000D03*
X120400000Y-98841667D03*
X249450000Y-110750000D03*
X104943706Y-113775000D03*
X145450000Y-116800000D03*
X225559266Y-122625000D03*
D60*
X168136252Y-104486632D03*
X145036252Y-94086632D03*
D61*
X222375000Y-76175000D03*
X239850000Y-89800000D03*
X246169055Y-126750000D03*
X232789284Y-71700000D03*
X182810000Y-104200000D03*
D60*
X145836252Y-98886632D03*
D61*
X229623376Y-74850000D03*
X242609440Y-76700000D03*
X219764110Y-71700000D03*
X241850000Y-123975000D03*
X119620000Y-102050000D03*
X229493881Y-73550000D03*
X247442605Y-71700000D03*
X235128321Y-72550000D03*
X252450000Y-115200000D03*
D60*
X135436252Y-100486632D03*
X168136252Y-86886632D03*
D61*
X144636914Y-117606253D03*
X231500000Y-108950000D03*
X239850000Y-92200000D03*
D60*
X162536252Y-102886632D03*
D61*
X234300000Y-116050000D03*
X223550000Y-85140734D03*
X120400000Y-99483333D03*
D60*
X135436252Y-92486632D03*
D61*
X186550000Y-102025000D03*
D60*
X134636252Y-104486632D03*
D61*
X232250000Y-89900000D03*
D60*
X145836252Y-93286632D03*
X166536252Y-86886632D03*
D61*
X228706119Y-75700000D03*
X145436914Y-117606253D03*
X241731293Y-75700000D03*
X125250000Y-93200000D03*
X227325000Y-96378146D03*
X226276697Y-71700000D03*
X181812587Y-72475000D03*
D60*
X170536252Y-86886632D03*
X139436252Y-87686632D03*
D61*
X228609266Y-119150000D03*
X107275000Y-117875000D03*
X117200000Y-100125000D03*
X241300000Y-102300000D03*
X206800000Y-78600000D03*
X117150000Y-106800000D03*
X240930018Y-71700000D03*
X129550000Y-117950000D03*
D60*
X149036252Y-93286632D03*
D61*
X245500000Y-88150000D03*
X125250000Y-93950000D03*
D60*
X143436252Y-94886632D03*
X143436252Y-94086632D03*
D61*
X109125000Y-91625000D03*
D60*
X162536252Y-105286632D03*
X146636252Y-101286632D03*
D61*
X232800000Y-78900000D03*
X242519055Y-73550000D03*
X231122028Y-73550000D03*
D60*
X140236252Y-94886632D03*
D61*
X238028321Y-126750000D03*
X194837761Y-72475000D03*
X224850000Y-84365734D03*
D60*
X134636252Y-102086632D03*
D61*
X235200000Y-78900000D03*
X220118707Y-126750000D03*
X190740559Y-106700000D03*
X234378321Y-73550000D03*
X223020404Y-71700000D03*
X114850000Y-94000000D03*
D60*
X166536252Y-86086632D03*
D61*
X236650000Y-101200000D03*
X224850000Y-77853147D03*
X100059266Y-113775000D03*
X104018706Y-117875000D03*
X180184440Y-72475000D03*
X243359440Y-75700000D03*
D60*
X141036252Y-91686632D03*
D61*
X226309266Y-123450000D03*
X229565559Y-121775000D03*
X102390559Y-115200000D03*
D60*
X144236252Y-93286632D03*
D61*
X186550000Y-100700000D03*
X201850000Y-90225000D03*
X119600000Y-100125000D03*
X222375000Y-79431294D03*
D60*
X164936252Y-104486632D03*
D61*
X199225000Y-87475000D03*
X215375000Y-86875000D03*
D60*
X141836252Y-97286632D03*
D61*
X227187413Y-122625000D03*
X143900000Y-118450000D03*
X247200000Y-107500000D03*
X233500174Y-72550000D03*
X108175000Y-116500000D03*
X196950000Y-85475000D03*
D60*
X145036252Y-99686632D03*
D61*
X212875000Y-83000000D03*
X117280000Y-101408333D03*
X156910065Y-94027926D03*
D60*
X164936252Y-98886632D03*
D61*
X248900000Y-79625000D03*
X233590559Y-75700000D03*
D60*
X161714470Y-86171780D03*
X148236252Y-87686632D03*
D61*
X234772028Y-126750000D03*
D60*
X164110385Y-93279874D03*
D61*
X233143881Y-126750000D03*
D60*
X143436252Y-92486632D03*
D61*
X252350000Y-82500000D03*
X218135964Y-71700000D03*
D60*
%TO.N,RTR_WHB_LOW_ADC0_CS*%
X146250000Y-85750000D03*
%TO.N,RTR_WHB_LOW_INC*%
X145600000Y-85750000D03*
%TO.N,RTR_WHB_LOW_OFF*%
X145836252Y-87686632D03*
%TO.N,RTR_WHB_LOW_AD2*%
X145036252Y-87686632D03*
%TO.N,RTR_WHB_LOW_UPDN*%
X144259792Y-86461200D03*
%TO.N,RTR_WHB_LOW_AD1*%
X145836252Y-88486632D03*
%TO.N,RTR_WHB_LOW_AD0*%
X145036252Y-88486632D03*
%TO.N,RTR_WHB_LOW_CSEL*%
X144236252Y-88486632D03*
%TO.N,RTR_WHB_LOW_ADC_FRSTDATA*%
X145850000Y-90100000D03*
%TO.N,RTR_WHB_LOW_LATCH*%
X143436252Y-89286632D03*
%TO.N,RTR_WHB_LOW_ADC_BUSY*%
X141836252Y-88486632D03*
%TO.N,RTR_WHB_LOW_ADC1_CS*%
X141036252Y-87686632D03*
%TO.N,RTR_WHB_LOW_ADC_CONVST*%
X140236252Y-87686632D03*
D61*
%TO.N,P12V*%
X236819265Y-103800735D03*
X243100000Y-94000000D03*
X229525000Y-113470000D03*
X243655000Y-103770000D03*
X236675000Y-94250000D03*
X230550000Y-83430000D03*
X249785000Y-115230000D03*
X250575000Y-84800000D03*
%TO.N,AMB_WHA_UPP_N_PWMH*%
X237935000Y-93600000D03*
D60*
X146650000Y-89300000D03*
D61*
%TO.N,AMB_WHA_UPP_N_PWML*%
X238575000Y-93600000D03*
D60*
X148236252Y-89286632D03*
D61*
%TO.N,VAMB*%
X235400000Y-92075000D03*
X246200000Y-116750000D03*
X241750000Y-92100000D03*
X238800000Y-106850000D03*
X246550000Y-86200000D03*
X245250000Y-107350000D03*
X231525000Y-111750000D03*
X238800000Y-108450000D03*
X235400000Y-90475000D03*
X245750000Y-86200000D03*
X235400000Y-89675000D03*
X241750000Y-90500000D03*
X235000000Y-82100000D03*
X247000000Y-116750000D03*
X247350000Y-86200000D03*
X233925000Y-111750000D03*
X248150000Y-86200000D03*
X247800000Y-116750000D03*
X233125000Y-111750000D03*
X233400000Y-82100000D03*
X245400000Y-116750000D03*
X245250000Y-108150000D03*
X232600000Y-82100000D03*
X235400000Y-91275000D03*
X238800000Y-107650000D03*
X241750000Y-91300000D03*
X232325000Y-111750000D03*
X241750000Y-89700000D03*
X234200000Y-82100000D03*
X245250000Y-108950000D03*
X245250000Y-106550000D03*
X238800000Y-106050000D03*
%TO.N,AMB_WHA_UPP_N*%
X234950000Y-96800000D03*
D62*
%TO.N,BOOTSPI_DQ1_BMODE1*%
X149700000Y-119050000D03*
D60*
X147436252Y-100486632D03*
%TO.N,AMB_WHB_LOW_N_PWML*%
X147458226Y-90902252D03*
D61*
X230550000Y-115250000D03*
D62*
%TO.N,P4V5*%
X188425000Y-99800000D03*
X187925000Y-99800000D03*
D61*
%TO.N,ZYNQ_POR*%
X149536252Y-110486632D03*
D62*
X177125000Y-97350000D03*
%TO.N,1v35en*%
X187150000Y-100050000D03*
%TO.N,3v3en*%
X177650000Y-97650000D03*
D61*
X134575000Y-118525000D03*
D62*
X111975000Y-123715000D03*
%TO.N,P1.8V*%
X121900000Y-94090000D03*
D60*
X141836252Y-92486632D03*
D61*
X156150000Y-72900000D03*
X157675000Y-76550000D03*
X157808333Y-73600000D03*
X156966667Y-72900000D03*
X160125000Y-76550000D03*
X158600000Y-72900000D03*
X157783333Y-72900000D03*
X156991667Y-73600000D03*
D62*
X117174021Y-104284500D03*
D61*
X159308333Y-76550000D03*
D60*
X145036252Y-91686632D03*
X146636252Y-91686632D03*
X145836252Y-91686632D03*
D61*
X156175000Y-73600000D03*
D60*
X143436252Y-97286632D03*
X145036252Y-93286632D03*
X144236252Y-91686632D03*
D61*
X158491667Y-76550000D03*
D62*
X119656250Y-95637500D03*
D60*
X145036252Y-97286632D03*
D62*
X122826250Y-98287500D03*
D60*
X144236252Y-95686632D03*
D61*
X158625000Y-73600000D03*
%TO.N,P1V35*%
X181325000Y-99400000D03*
D60*
X161736252Y-98886632D03*
X169736252Y-87686632D03*
D61*
X181800000Y-102400000D03*
X180662500Y-99400000D03*
D60*
X164940273Y-98086632D03*
X167336252Y-86086632D03*
D61*
X180000000Y-99400000D03*
D60*
X150636252Y-92486632D03*
X161736252Y-93286632D03*
X152036252Y-90486632D03*
X168936252Y-103686632D03*
X164182956Y-86088906D03*
X164936252Y-86086632D03*
X149836252Y-94886632D03*
X164154262Y-98086632D03*
X171336252Y-105286632D03*
X147436252Y-94086632D03*
X164123520Y-104479642D03*
X164129455Y-91679642D03*
X167336252Y-104486632D03*
X149036252Y-98086632D03*
X146636252Y-97286632D03*
X166536252Y-87686632D03*
X165736252Y-105286632D03*
D63*
X176325000Y-97450000D03*
D60*
X162536252Y-87686632D03*
D61*
X181987500Y-99400000D03*
D60*
X163336252Y-105286632D03*
X162536252Y-91686632D03*
X166536252Y-93486632D03*
D63*
X175650000Y-90625000D03*
D60*
X162529262Y-103681719D03*
D63*
X176550000Y-97675000D03*
D60*
X149836252Y-101286632D03*
X168936252Y-98886632D03*
X169743242Y-92486632D03*
X173736252Y-105286632D03*
X147436252Y-99686632D03*
D61*
X184700000Y-106500000D03*
X182650000Y-99400000D03*
X181800000Y-102950000D03*
D60*
X161736252Y-105286632D03*
X166536252Y-99686632D03*
D63*
X175650000Y-91625000D03*
X176800000Y-97925000D03*
D60*
X163342780Y-86093622D03*
X163336252Y-98086632D03*
X167336252Y-98086632D03*
X151436252Y-98086632D03*
%TO.N,/DDR/VREF*%
X146636252Y-94086632D03*
X170536252Y-87686632D03*
D61*
X184125000Y-104300000D03*
D60*
X171336252Y-100686632D03*
X168143242Y-93284489D03*
X146636252Y-98886632D03*
X167336252Y-105286632D03*
X148236252Y-95686632D03*
D61*
%TO.N,Net-(U1_A-PS_CLK_500)*%
X155436252Y-108686632D03*
D60*
X145836252Y-100486632D03*
%TO.N,P3V3*%
X137050000Y-102100000D03*
X138650000Y-102100000D03*
X135419706Y-103669685D03*
D61*
X114575000Y-90875000D03*
X114475000Y-113075000D03*
D60*
X134650000Y-101300000D03*
D61*
X116675000Y-111325000D03*
X131000000Y-115750000D03*
D60*
X137050000Y-93300000D03*
X149036252Y-89286632D03*
D61*
X116700000Y-111875000D03*
X178600000Y-107890000D03*
D60*
X139450000Y-99700000D03*
D61*
X114987500Y-111325000D03*
X116112500Y-111325000D03*
X140250000Y-120350000D03*
D60*
X138636252Y-94086632D03*
X147436252Y-102886632D03*
X139450000Y-91700000D03*
D61*
X151625000Y-120975000D03*
X116137500Y-112525000D03*
D60*
X136250000Y-96500000D03*
D61*
X115575000Y-111875000D03*
X115012500Y-112525000D03*
D60*
X141036252Y-86886632D03*
X137850000Y-96500000D03*
X141036252Y-103686632D03*
D61*
X115575000Y-112525000D03*
X115550000Y-111325000D03*
D60*
X141836252Y-101286632D03*
D61*
X115037500Y-113075000D03*
X114450000Y-111875000D03*
D60*
X149836252Y-103686632D03*
D61*
X115012500Y-111875000D03*
X116725000Y-113075000D03*
X115125000Y-90875000D03*
D60*
X144236252Y-87686632D03*
D61*
X115600000Y-113075000D03*
X114450000Y-112525000D03*
D60*
X135436252Y-87686632D03*
X137036252Y-90886632D03*
X143811252Y-104961632D03*
X144236252Y-102086632D03*
X135436252Y-98086632D03*
X140236252Y-89286632D03*
X149836252Y-86886632D03*
D61*
X116137500Y-111875000D03*
D60*
X146636252Y-88486632D03*
D61*
X151325000Y-110425000D03*
X116162500Y-113075000D03*
D60*
X145836252Y-90886632D03*
D61*
X114425000Y-111325000D03*
X179600000Y-107510000D03*
D60*
X137843252Y-99691874D03*
X137836252Y-88486632D03*
D61*
X116700000Y-112525000D03*
D60*
%TO.N,AMB_WHA_LOW_P_PWMH*%
X147436252Y-92486632D03*
D61*
X248700000Y-114020000D03*
%TO.N,AMB_WHB_LOW_N*%
X226950000Y-111870000D03*
D62*
%TO.N,BOOTSPI_DQ3_BMODE0*%
X140400000Y-119100000D03*
D60*
X149036252Y-104486632D03*
%TO.N,AMB_WHA_LOW_N_PWMH*%
X148236252Y-90086632D03*
D61*
X242695000Y-104850000D03*
%TO.N,/COMM_ETH/AVDDH*%
X114000000Y-97045000D03*
X114675000Y-103475000D03*
D62*
%TO.N,/COMM_ETH/AVDDL*%
X113986250Y-101287500D03*
X113986250Y-98787500D03*
%TO.N,P1.2V*%
X118156250Y-104557500D03*
X120406250Y-95637500D03*
X122876250Y-100287500D03*
X120675000Y-104500000D03*
X113450000Y-104262500D03*
X117706250Y-92275000D03*
X122986250Y-102337500D03*
D60*
%TO.N,ETH_TX0*%
X145036252Y-101286632D03*
D61*
X118656250Y-105625000D03*
D60*
%TO.N,ETH_TX1*%
X146636252Y-104486632D03*
D61*
X119200000Y-106350000D03*
%TO.N,ETH_TX2*%
X119650000Y-105050000D03*
D60*
X143436252Y-101286632D03*
%TO.N,ETH_TX3*%
X145836252Y-104486632D03*
D61*
X120150000Y-106150000D03*
D60*
%TO.N,ETH_TX_CLK*%
X146636252Y-102086632D03*
D62*
X121150000Y-106800000D03*
%TO.N,ETH_TX_CTL*%
X123781250Y-102775000D03*
D60*
X143436252Y-100486632D03*
D62*
%TO.N,ETH_RX3*%
X123781250Y-101779427D03*
D60*
X141036252Y-104486632D03*
%TO.N,ETH_RX2*%
X142637308Y-100483261D03*
D62*
X122981250Y-101275000D03*
%TO.N,ETH_RX1*%
X123781250Y-99775000D03*
D60*
X145836252Y-103686632D03*
D62*
%TO.N,ETH_RX0*%
X122981250Y-99275000D03*
D60*
X142636252Y-101286632D03*
%TO.N,ETH_RX_CTL*%
X145836252Y-102086632D03*
D62*
X123796250Y-99037500D03*
%TO.N,ETH_RX_CLK*%
X124500000Y-97775000D03*
D60*
X139450000Y-105300000D03*
%TO.N,ETH_MDC*%
X144236252Y-101286632D03*
D62*
X123081250Y-96625000D03*
%TO.N,ETH_MDIO*%
X121881250Y-95125000D03*
D60*
X141836252Y-102886632D03*
D62*
%TO.N,/COMM_ETH/AVDDL_PLL*%
X117356250Y-95507500D03*
D60*
%TO.N,BOOTSPI_DQ2_BMODE2*%
X148236252Y-101286632D03*
D62*
X149650000Y-117750000D03*
D60*
%TO.N,ETH_RST*%
X147443252Y-101286631D03*
D62*
X118650000Y-92550000D03*
D61*
%TO.N,AMB_WHA_LOW_N_PWML*%
X242055000Y-104850000D03*
D60*
X149036252Y-90086632D03*
D61*
%TO.N,AMB_WHA_LOW_N*%
X246350000Y-102250000D03*
%TO.N,BOOTSPI_CS*%
X151050000Y-108700000D03*
D62*
X149750000Y-120250000D03*
%TO.N,BOOTSPI_DQ0_BMODE3*%
X140400000Y-116400000D03*
D60*
X149836252Y-104486632D03*
D62*
%TO.N,BOOTSPI_SCK_BMODE4*%
X140400000Y-117750000D03*
D60*
X148236252Y-105186632D03*
D64*
%TO.N,SD0_D1*%
X148005639Y-109193632D03*
D61*
X132200000Y-120150000D03*
D60*
%TO.N,unconnected-(U1_A-PS_MIO30_501-PadA11)*%
X142636252Y-104486632D03*
%TO.N,unconnected-(U1_A-PS_MIO28_501-PadA12)*%
X141836252Y-104486632D03*
%TO.N,SNS_AUX3_P*%
X138650061Y-103697149D03*
%TO.N,SNS_AUX3_N*%
X137850000Y-103700000D03*
%TO.N,DDR3_DQ28*%
X151436252Y-87686632D03*
X161736252Y-87686632D03*
%TO.N,DDR3_DM3*%
X150636252Y-87686632D03*
X164136252Y-90886632D03*
%TO.N,DDR3_DQ24*%
X164136252Y-87686632D03*
X149836252Y-87686632D03*
%TO.N,AMB_WHB_UPP_P_PWML*%
X149036252Y-87686632D03*
D61*
X244965000Y-93670000D03*
D60*
%TO.N,unconnected-(U1_G-IO_L12N_T1_MRCC_33-PadAA18)*%
X137036252Y-87652372D03*
%TO.N,unconnected-(U1_G-IO_L11N_T1_SRCC_33-PadAA19)*%
X136236252Y-87686632D03*
%TO.N,DDR3_DM0*%
X165455164Y-100685600D03*
X151438795Y-103703676D03*
%TO.N,DDR3_DQ2*%
X150636252Y-103686632D03*
X165736252Y-104486632D03*
D61*
%TO.N,SD0_CMD*%
X132200000Y-114650000D03*
D60*
X149036252Y-103686632D03*
D61*
%TO.N,SD0_D2*%
X132200000Y-112450000D03*
D60*
X146636251Y-103669885D03*
%TO.N,RTR_WHA_SDI*%
X134636252Y-97286632D03*
D61*
X145625000Y-114925000D03*
%TO.N,MTR_SDO*%
X123725000Y-104025000D03*
X116950000Y-82250000D03*
D62*
%TO.N,USBH_FAULT*%
X181025000Y-109450000D03*
D60*
X142636252Y-102886632D03*
D62*
%TO.N,unconnected-(U1_A-PS_MIO34_501-PadB12)*%
X153386252Y-112936632D03*
D60*
X142636252Y-103686632D03*
%TO.N,unconnected-(U1_A-PS_MIO37_501-PadB14)*%
X140236252Y-103686632D03*
%TO.N,SNS_AUX2_N*%
X139450000Y-102900000D03*
%TO.N,DDR3_DQS0_P*%
X150636252Y-102886632D03*
X166536252Y-103686632D03*
%TO.N,DDR3_DQ0*%
X149036252Y-102886632D03*
X165736252Y-102886632D03*
%TO.N,PS_GPIO_MIO09*%
X148236252Y-102086632D03*
D61*
%TO.N,Net-(U1_A-PS_MIO12_500)*%
X132160000Y-116850000D03*
D60*
X148236252Y-102886632D03*
%TO.N,unconnected-(U1_A-PS_MIO32_501-PadC7)*%
X146636252Y-102888821D03*
D61*
X161400000Y-111493632D03*
D60*
%TO.N,RTR_WHA_SDO*%
X145836252Y-102886632D03*
X134639010Y-96484483D03*
D61*
X178475000Y-105790000D03*
D60*
%TO.N,ZYNQ_PS_RST*%
X145036252Y-102886632D03*
%TO.N,DDR3_VTT_EN*%
X143436252Y-102886632D03*
D61*
X180618368Y-107500000D03*
D60*
%TO.N,unconnected-(U1_A-PS_MIO39_501-PadC13)*%
X141036252Y-102886632D03*
%TO.N,SNS_AUX2_P*%
X139436252Y-102086632D03*
%TO.N,SNS_AUX4_N*%
X136250000Y-102900000D03*
%TO.N,DDR3_DQ7*%
X151436252Y-102082611D03*
X167336252Y-100486632D03*
%TO.N,DDR3_DQS0_N*%
X166536252Y-102886632D03*
X150636252Y-102086632D03*
%TO.N,DDR3_DQ6*%
X149836252Y-102086632D03*
X166536252Y-104486632D03*
%TO.N,unconnected-(U1_A-PS_MIO7_500-PadD5)*%
X147436252Y-102086632D03*
%TO.N,MTR_SCLK*%
X143436252Y-102086632D03*
X137050000Y-89300000D03*
%TO.N,MTR_SDI*%
X141836252Y-102086632D03*
X134636252Y-92486632D03*
%TO.N,SNS_AUX1_N*%
X140236252Y-102086632D03*
%TO.N,SNS_AUX4_P*%
X136250000Y-101300000D03*
%TO.N,DDR3_DQ5*%
X167336252Y-98886632D03*
X151436252Y-101286632D03*
%TO.N,DDR3_DQ4*%
X149036252Y-101286632D03*
X168136252Y-103686632D03*
D61*
%TO.N,SD0_D3*%
X132200000Y-113550000D03*
D60*
X146636252Y-100486632D03*
%TO.N,unconnected-(U1_A-PS_MIO29_501-PadE8)*%
X145836252Y-101286632D03*
%TO.N,ZYNQ_PL_DONE*%
X141036252Y-101286632D03*
X141850000Y-91700000D03*
%TO.N,RTR_WHA_SCK*%
X137036252Y-95686632D03*
X140236252Y-101286632D03*
X135436252Y-94886632D03*
%TO.N,SNS_AUX1_P*%
X139446078Y-101298887D03*
%TO.N,SNS_AUX0_N*%
X138650000Y-101300000D03*
%TO.N,DDR3_DQ3*%
X151436252Y-100486632D03*
X165736252Y-98886632D03*
%TO.N,DDR3_DQ1*%
X150636252Y-100486632D03*
X165736252Y-99686632D03*
%TO.N,DDR3_DRST#*%
X173736252Y-104486632D03*
X174536252Y-92486632D03*
X149836252Y-100486632D03*
%TO.N,DDR3_A13*%
X173736252Y-103686632D03*
X174536252Y-91686632D03*
X149041066Y-100497866D03*
%TO.N,unconnected-(U1_A-PS_MIO31_501-PadF9)*%
X145036252Y-100486632D03*
%TO.N,unconnected-(U1_A-PS_MIO38_501-PadF13)*%
X141036252Y-99686631D03*
%TO.N,unconnected-(U1_A-PS_MIO35_501-PadF14)*%
X141036252Y-100486633D03*
%TO.N,SNS_AUX0_P*%
X138636205Y-99670550D03*
%TO.N,SNS_AUX5_N*%
X136239322Y-100492964D03*
%TO.N,DDR3_DQ15*%
X161736252Y-102886632D03*
X151436252Y-99686632D03*
%TO.N,DDR3_DQ13*%
X161736252Y-103686632D03*
X150636252Y-99686632D03*
%TO.N,DDR3_A14*%
X149036252Y-99681729D03*
X173736252Y-87686632D03*
X173736252Y-99686632D03*
%TO.N,DDR3_A11*%
X172936252Y-88486632D03*
X173736252Y-100486632D03*
X148236777Y-99675264D03*
%TO.N,SD0_D0*%
X145836252Y-99686632D03*
D61*
X132200000Y-119050000D03*
D60*
%TO.N,P1.0V*%
X145836252Y-98086632D03*
X141836252Y-98086632D03*
X140236252Y-96486632D03*
X145836252Y-92486632D03*
X145036252Y-98886632D03*
X145836252Y-96486632D03*
X144236252Y-98886632D03*
X141036252Y-97286632D03*
X140236252Y-92486632D03*
X141036252Y-94886632D03*
X141036252Y-98086632D03*
X140236252Y-94086632D03*
X142636252Y-98086632D03*
X145836252Y-94086632D03*
X144236252Y-98086632D03*
X141036252Y-93286632D03*
%TO.N,AX_TCLK*%
X142636252Y-99686632D03*
%TO.N,AX_TMS*%
X141836252Y-99686632D03*
%TO.N,unconnected-(U1_A-PS_MIO33_501-PadG13)*%
X141036252Y-98886632D03*
%TO.N,AX_TDO*%
X140250000Y-98900000D03*
%TO.N,SNS_AUX5_P*%
X136250000Y-98900000D03*
%TO.N,SNS_AUX6_P*%
X135438987Y-98886234D03*
%TO.N,SNS_AUX6_N*%
X134643382Y-98880005D03*
%TO.N,DDR3_DQS1_P*%
X163336252Y-99686632D03*
X150636252Y-98886632D03*
%TO.N,DDR3_DM1*%
X163336252Y-102086632D03*
X149836252Y-98886632D03*
%TO.N,DDR3_A12*%
X149036252Y-98886632D03*
X172136252Y-100486632D03*
X171336252Y-88486632D03*
%TO.N,DDR3_A9*%
X148236252Y-98886632D03*
X173736252Y-91686632D03*
X172936252Y-103686632D03*
%TO.N,Net-(U1_H-VCCPLL)*%
X143436252Y-98086632D03*
%TO.N,AX_TDI*%
X141836252Y-98886632D03*
%TO.N,RTR_WHA_LOW_UPDN*%
X138644146Y-96485553D03*
%TO.N,RTR_WHB_UPP_ADC_BUSY*%
X134630417Y-98065572D03*
%TO.N,DDR3_DQ11*%
X163336252Y-102886632D03*
X152336252Y-98086632D03*
%TO.N,DDR3_DQS1_N*%
X150636252Y-98086632D03*
X162536252Y-99686632D03*
%TO.N,DDR3_A10*%
X170049740Y-88613378D03*
X149836252Y-98086632D03*
D61*
X170136252Y-101286632D03*
D60*
%TO.N,DDR3_A8*%
X148236252Y-98086632D03*
X173736252Y-86886632D03*
X173736252Y-98886632D03*
%TO.N,DDR3_A7*%
X173736252Y-92486632D03*
X172936252Y-104486632D03*
X147436252Y-98086632D03*
%TO.N,DDR3_A6*%
X146636252Y-98086632D03*
X172936252Y-98886632D03*
X172936252Y-86886632D03*
D61*
X192378147Y-104425000D03*
D60*
%TO.N,RTR_WHA_LOW_AD2*%
X139436123Y-98095216D03*
%TO.N,RTR_WHA_LOW_LATCH*%
X138639849Y-98083759D03*
%TO.N,RTR_WHA_LOW_OFF*%
X137832119Y-98086623D03*
%TO.N,RTR_WHA_UPP_UPDN*%
X137840712Y-97296078D03*
D62*
%TO.N,RTR_WHA_UPP_INC*%
X133511845Y-96262762D03*
D60*
%TO.N,DDR3_DQ12*%
X161736252Y-99686632D03*
X151436252Y-97286632D03*
%TO.N,DDR3_DQ14*%
X149836252Y-97286632D03*
X162536252Y-98886632D03*
%TO.N,DDR3_A2*%
X149036252Y-97286632D03*
X172936252Y-91686632D03*
X172936252Y-102886632D03*
%TO.N,DDR3_A5*%
X172136252Y-104486632D03*
X148236252Y-97286632D03*
X172937295Y-92486632D03*
%TO.N,DDR3_A4*%
X172136252Y-98886632D03*
X147436252Y-97286632D03*
X172136252Y-86886632D03*
%TO.N,RTR_WHA_LOW_AD1*%
X139436123Y-97293214D03*
%TO.N,RTR_WHA_UPP_CSEL*%
X137047237Y-97294975D03*
%TO.N,RTR_WHA_LOW_ADC_FRSTDATA*%
X136236252Y-97286632D03*
%TO.N,RTR_WHA_UPP_ADC_FRSTDATA*%
X135436252Y-97286632D03*
%TO.N,DDR3_DQ9*%
X164136252Y-102086632D03*
X151436252Y-96486632D03*
%TO.N,DDR3_DQ10*%
X150636252Y-96486632D03*
X163336252Y-98886632D03*
%TO.N,DDR3_DQ8*%
X164136252Y-99686632D03*
X149836252Y-96486632D03*
%TO.N,DDR3_A3*%
X149036252Y-96486632D03*
X172143242Y-92487251D03*
X171336252Y-104486632D03*
%TO.N,DDR3_BA1*%
X171336252Y-98886632D03*
X147436252Y-96486632D03*
X171336252Y-86886632D03*
%TO.N,DDR3_BA0*%
X146636252Y-96486632D03*
X170536252Y-104486632D03*
X171343242Y-92486632D03*
D61*
%TO.N,/Power/VCCAUX*%
X131150000Y-81400000D03*
X130600000Y-81400000D03*
D60*
X144236252Y-92486632D03*
D61*
X131450000Y-81850000D03*
X130850000Y-81850000D03*
D60*
X144236252Y-96486632D03*
D61*
X131700000Y-81400000D03*
D60*
X144236252Y-94086632D03*
X143436252Y-93286632D03*
%TO.N,RTR_WHA_LOW_CSEL*%
X139447580Y-95686415D03*
%TO.N,RTR_WHA_UPP_AD0*%
X138636943Y-95689530D03*
%TO.N,RTR_WHA_UPP_ADC0_CS*%
X137038667Y-96484371D03*
%TO.N,RTR_WHA_ADC_RST*%
X134641305Y-95686485D03*
%TO.N,DDR3_DQ18*%
X165811252Y-93611632D03*
X151436252Y-94886632D03*
%TO.N,DDR3_DQ20*%
X150636252Y-94886632D03*
X167329262Y-90923318D03*
%TO.N,DDR3_A0*%
X149029262Y-94891965D03*
X171336252Y-102886632D03*
X171336252Y-90886632D03*
%TO.N,DDR3_A1*%
X172137850Y-88479642D03*
X172136252Y-99686632D03*
X148236252Y-94886632D03*
%TO.N,DDR3_BA2*%
X171336252Y-91686632D03*
X170536252Y-103686632D03*
X147436252Y-95686632D03*
%TO.N,Net-(U1_B-PS_DDR_VRN_502)*%
X145836252Y-95686632D03*
%TO.N,RTR_WHA_UPP_LATCH*%
X140251014Y-95677822D03*
%TO.N,RTR_WHA_UPP_OFF*%
X138632646Y-94890392D03*
%TO.N,RTR_WHA_LOW_INC*%
X137850694Y-95680937D03*
%TO.N,RTR_WHA_UPP_ADC1_CS*%
X136243399Y-95697942D03*
%TO.N,RTR_WHA_UPP_ADC0_OUT_B*%
X135447125Y-95690304D03*
D62*
%TO.N,RTR_WHA_UPP_ADC0_OUT_A*%
X132750000Y-95290000D03*
D60*
%TO.N,DDR3_DQS2_P*%
X150636252Y-94086632D03*
X166536252Y-91686632D03*
%TO.N,DDR3_DQ22*%
X166586252Y-92486632D03*
X149836252Y-94086632D03*
D61*
%TO.N,DDR3_CK_P*%
X177000000Y-91500000D03*
D60*
X149036252Y-94086632D03*
X168136252Y-87686632D03*
X168136252Y-99686632D03*
D61*
X174529252Y-89027893D03*
D60*
%TO.N,DDR3_CK_N*%
X168936252Y-87686632D03*
X148236252Y-94086632D03*
D61*
X175000000Y-88000000D03*
X177014569Y-88526668D03*
D60*
X168936252Y-99686632D03*
%TO.N,Net-(U1_B-PS_DDR_VRP_502)*%
X146636252Y-94886632D03*
%TO.N,RTR_WHA_LOW_ADC1_CS*%
X139438987Y-94887278D03*
%TO.N,RTR_WHA_UPP_AD2*%
X137833509Y-94881799D03*
%TO.N,RTR_WHA_UPP_AD1*%
X137035853Y-94080571D03*
%TO.N,RTR_WHA_UPP_ADC_CONVST*%
X137036252Y-94886632D03*
%TO.N,RTR_WHA_UPP_ADC_BUSY*%
X136241489Y-94890211D03*
D62*
%TO.N,RTR_WHA_UPP_ADC0_OUT_D*%
X132150000Y-94490000D03*
D60*
%TO.N,DDR3_DM2*%
X151436252Y-93286632D03*
X165736252Y-88536632D03*
%TO.N,DDR3_DQS2_N*%
X166536252Y-90886632D03*
X150636252Y-93286632D03*
%TO.N,DDR3_CAS#*%
X169736252Y-102886632D03*
X149836252Y-93286632D03*
X169711252Y-91686632D03*
%TO.N,DDR3_ODT*%
X168936252Y-105286632D03*
X168936252Y-93286632D03*
X148236252Y-93286632D03*
%TO.N,DDR3_CS#*%
X147436252Y-93286632D03*
X169736252Y-104486632D03*
X170548569Y-92493625D03*
%TO.N,RTR_WHA_LOW_ADC0_CS*%
X139451876Y-93289003D03*
%TO.N,RTR_WHA_LOW_ADC1_OUT_D*%
X139451876Y-94092437D03*
%TO.N,RTR_WHA_LOW_ADC_CONVST*%
X137840712Y-93280410D03*
%TO.N,RTR_WHA_LOW_ADC_BUSY*%
X137840712Y-94096733D03*
%TO.N,RTR_WHA_UPP_ADC1_OUT_D*%
X136258675Y-94080571D03*
%TO.N,RTR_WHA_UPP_ADC1_OUT_C*%
X135443306Y-94084390D03*
D62*
%TO.N,RTR_WHA_UPP_ADC0_OUT_C*%
X132750000Y-93690000D03*
D60*
%TO.N,DDR3_DQ21*%
X151436252Y-92486632D03*
X167336252Y-87686632D03*
%TO.N,DDR3_DQ23*%
X149836252Y-92486632D03*
X167343242Y-88493622D03*
%TO.N,DDR3_WE#*%
X170536252Y-102886632D03*
X170543242Y-91660999D03*
X149036252Y-92486632D03*
%TO.N,DDR3_RAS#*%
X148236252Y-92486632D03*
X168936252Y-102886632D03*
X168943242Y-91691120D03*
%TO.N,RTR_WHB_UPP_ADC_FRSTDATA*%
X146629985Y-93283356D03*
%TO.N,RTR_WHA_LOW_AD0*%
X139447580Y-92489865D03*
%TO.N,RTR_WHA_LOW_ADC1_OUT_C*%
X138644146Y-92481272D03*
%TO.N,RTR_WHA_LOW_ADC1_OUT_B*%
X137041574Y-92494162D03*
%TO.N,RTR_WHA_LOW_ADC0_OUT_D*%
X136246733Y-92485569D03*
%TO.N,RTR_WHA_UPP_ADC1_OUT_B*%
X136239730Y-93275935D03*
%TO.N,RTR_WHA_UPP_ADC1_OUT_A*%
X135450000Y-93300000D03*
%TO.N,DDR3_DQ17*%
X151436252Y-91686632D03*
X165736252Y-87686632D03*
%TO.N,DDR3_DQ19*%
X150636252Y-91686632D03*
X165736252Y-86886632D03*
%TO.N,DDR3_DQ16*%
X164936252Y-91686632D03*
X149836252Y-91686632D03*
D61*
%TO.N,AMB_WHB_LOW_P_PWMH*%
X236015000Y-104850000D03*
D60*
X148236252Y-91686632D03*
D61*
%TO.N,AMB_WHA_LOW_P_PWML*%
X248700000Y-113380000D03*
D60*
X147436252Y-91686632D03*
%TO.N,PROGRAM_B*%
X143436252Y-91686632D03*
%TO.N,INIT_B*%
X140236252Y-91686632D03*
D61*
X123650000Y-92950000D03*
D60*
%TO.N,RTR_WHA_LOW_ADC0_OUT_B*%
X138636252Y-91686632D03*
%TO.N,RTR_WHA_LOW_ADC0_OUT_A*%
X137853601Y-91682135D03*
%TO.N,RTR_WHA_LOW_ADC1_OUT_A*%
X137845008Y-92498458D03*
%TO.N,RTR_WHA_LOW_ADC0_OUT_C*%
X136236252Y-91686632D03*
%TO.N,DDR3_DQ29*%
X161736252Y-91686632D03*
X151436252Y-90886632D03*
%TO.N,DDR3_DQ31*%
X161736252Y-90886632D03*
X150636252Y-90886632D03*
D61*
%TO.N,AMB_WHB_LOW_P_PWML*%
X235375000Y-104850000D03*
D60*
X148248770Y-90906548D03*
%TO.N,AMB_WHB_LOW_N_PWMH*%
X146646199Y-90885066D03*
D61*
X230550000Y-114610000D03*
D60*
%TO.N,_MTR_WHA_nFAULT*%
X140236252Y-90886632D03*
%TO.N,unconnected-(U1_G-IO_L15P_T2_DQS_33-PadU15)*%
X139450000Y-90900000D03*
%TO.N,unconnected-(U1_G-IO_L15N_T2_DQS_33-PadU16)*%
X138636252Y-90886632D03*
%TO.N,RTR_WHB_UPP_ADC0_OUT_A*%
X137860042Y-90883569D03*
%TO.N,MTR_WHA_INB_H*%
X135436252Y-91686632D03*
%TO.N,DDR3_DQS3_P*%
X150636252Y-90086632D03*
X163336252Y-88486632D03*
%TO.N,DDR3_CKE*%
X168936252Y-86886632D03*
X168936252Y-98086632D03*
X149836252Y-90086632D03*
%TO.N,AMB_WHB_UPP_N_PWMH*%
X146636252Y-90086632D03*
D61*
X249375000Y-83670000D03*
D60*
%TO.N,RTR_WHB_UPP_ADC1_CS*%
X145047924Y-90094521D03*
%TO.N,RTR_WHB_UPP_ADC0_CS*%
X143450000Y-90900000D03*
%TO.N,MTR_WHA_WAKE*%
X141050000Y-90100000D03*
%TO.N,RTR_WHB_UPP_ADC1_OUT_C*%
X140233286Y-90079985D03*
%TO.N,RTR_WHB_UPP_ADC1_OUT_B*%
X139436252Y-89286632D03*
%TO.N,RTR_WHB_UPP_ADC_CONVST*%
X137850000Y-90100000D03*
%TO.N,MTR_WHA_INC_H*%
X137050000Y-90100000D03*
%TO.N,MTR_WHA_INC_L*%
X136250000Y-90100000D03*
%TO.N,MTR_WHA_INB_L*%
X136232312Y-90874820D03*
%TO.N,DDR3_DQ27*%
X163268242Y-91679642D03*
X151436252Y-90086632D03*
%TO.N,DDR3_DQS3_N*%
X162536252Y-88486632D03*
X150636252Y-89286632D03*
%TO.N,DDR3_DQ30*%
X162536252Y-86886632D03*
X149836252Y-89286632D03*
D61*
%TO.N,AMB_WHB_UPP_N_PWML*%
X249375000Y-83030000D03*
D60*
X145842765Y-89273901D03*
%TO.N,RTR_WHB_ADC_RST*%
X145036252Y-89286632D03*
%TO.N,RTR_WHB_UPP_ADC1_OUT_D*%
X141011252Y-89286632D03*
%TO.N,unconnected-(U1_G-IO_L14P_T2_SRCC_33-PadW16)*%
X138650000Y-89300000D03*
%TO.N,MTR_WHA_INA_H*%
X135436252Y-90086632D03*
%TO.N,DDR3_DQ25*%
X163336252Y-90686632D03*
X151436252Y-89286632D03*
%TO.N,DDR3_DQ26*%
X149836252Y-88486632D03*
X163336252Y-86886632D03*
D61*
%TO.N,AMB_WHB_UPP_P_PWMH*%
X244325000Y-93650000D03*
D60*
X149036252Y-88486632D03*
%TO.N,unconnected-(U1_G-IO_L14N_T2_SRCC_33-PadY16)*%
X138611252Y-88486632D03*
%TO.N,unconnected-(U1_G-IO_L12P_T1_MRCC_33-PadY18)*%
X137036252Y-88486632D03*
%TO.N,unconnected-(U1_G-IO_L11P_T1_SRCC_33-PadY19)*%
X136236252Y-88486632D03*
%TO.N,MTR_WHB_INC_H*%
X135436252Y-89286632D03*
D61*
%TO.N,Net-(D1-K)*%
X181750000Y-106500000D03*
%TO.N,/DDR/PGOOD_LED*%
X178640000Y-108940000D03*
%TO.N,AMB_WHA_LOW_P*%
X252350000Y-116750000D03*
%TO.N,AMB_WHB_UPP_N*%
X253000000Y-86350000D03*
%TO.N,AMB_WHA_UPP_P*%
X228950000Y-80750000D03*
%TO.N,SD0_CLK*%
X129850000Y-116850000D03*
%TO.N,AMB_WHB_LOW_P*%
X237650000Y-101150000D03*
D60*
%TO.N,Net-(U2-ZQ)*%
X169736252Y-98886632D03*
D61*
%TO.N,AMB_WHB_UPP_P*%
X240700000Y-95750000D03*
D62*
%TO.N,1v8en*%
X178975000Y-90850000D03*
%TO.N,1v0en*%
X178325000Y-90825000D03*
X154725000Y-123300000D03*
D61*
%TO.N,DDR3_VTT*%
X176503926Y-98944590D03*
X171336252Y-97086632D03*
X190750000Y-104425000D03*
X186127116Y-108000000D03*
X175600000Y-103500000D03*
X186150000Y-106575000D03*
D62*
%TO.N,unconnected-(U1_A-PS_MIO31_501-PadF9)*%
X170500000Y-112150000D03*
%TO.N,unconnected-(U1_A-PS_MIO29_501-PadE8)*%
X170100000Y-112550000D03*
%TD*%
%TO.N,P5V*%
D65*
X216980000Y-114750000D02*
X218100000Y-114750000D01*
X219465000Y-92650000D02*
X219375000Y-92560000D01*
X208230000Y-91150000D02*
X209420000Y-91150000D01*
X220620000Y-92650000D02*
X219465000Y-92650000D01*
X218100000Y-114750000D02*
X218105000Y-114755000D01*
X209420000Y-91150000D02*
X209425000Y-91145000D01*
%TO.N,N5V*%
X212065000Y-91145000D02*
X212070000Y-91150000D01*
X210695000Y-91145000D02*
X212065000Y-91145000D01*
X219375000Y-114755000D02*
X220585000Y-114755000D01*
X219375000Y-93830000D02*
X220600000Y-93830000D01*
X220600000Y-93830000D02*
X220620000Y-93850000D01*
X220585000Y-114755000D02*
X220590000Y-114750000D01*
%TO.N,GND*%
D66*
X124500000Y-96740000D02*
X124144000Y-97096000D01*
D67*
X144230000Y-84440000D02*
X144250000Y-84420000D01*
D68*
X154300000Y-89650000D02*
X153280000Y-89650000D01*
D66*
X122186250Y-98287500D02*
X122186250Y-100237500D01*
D68*
X138100000Y-109775000D02*
X137945000Y-109775000D01*
D66*
X113206250Y-96405000D02*
X114006250Y-96405000D01*
D65*
X221580000Y-92650000D02*
X221580000Y-87707894D01*
D66*
X116101250Y-97801250D02*
X116500000Y-98200000D01*
D67*
X146030000Y-126000000D02*
X147125000Y-126000000D01*
D65*
X221580000Y-87707894D02*
X220082106Y-86210000D01*
D68*
X153330000Y-93350000D02*
X153330000Y-94420000D01*
X186337500Y-98665000D02*
X186337500Y-100487500D01*
D66*
X247200000Y-106700000D02*
X247200000Y-109100000D01*
D69*
X178800000Y-100950000D02*
X179625000Y-100950000D01*
D68*
X182915000Y-105460000D02*
X182915000Y-104305000D01*
X125250000Y-93950000D02*
X126395243Y-93950000D01*
X184640000Y-107510000D02*
X184005000Y-107510000D01*
D66*
X182780000Y-108745000D02*
X182975000Y-108550000D01*
D70*
X156910065Y-94027926D02*
X157051751Y-93886240D01*
D68*
X178350000Y-91950000D02*
X178350000Y-92600000D01*
X158900000Y-79312500D02*
X158900000Y-81112500D01*
D71*
X239525000Y-111520000D02*
X239525000Y-114060000D01*
D70*
X183165000Y-107010000D02*
X183165000Y-107390000D01*
D69*
X178800000Y-101550000D02*
X179525000Y-101550000D01*
D71*
X252000000Y-109330000D02*
X254540000Y-109330000D01*
D66*
X114626250Y-98787500D02*
X115804167Y-98787500D01*
D67*
X126275000Y-91075000D02*
X126675000Y-91475000D01*
D66*
X116500000Y-98200000D02*
X120400000Y-98200000D01*
D68*
X176600000Y-92350000D02*
X176600000Y-92960000D01*
D65*
X99115000Y-90850000D02*
X100375000Y-92110000D01*
D66*
X118060000Y-102050000D02*
X118060000Y-98260000D01*
D70*
X183415000Y-108100000D02*
X183645000Y-107870000D01*
D66*
X122186250Y-100237500D02*
X122236250Y-100287500D01*
D68*
X145036252Y-95686632D02*
X145036252Y-96486632D01*
X139242884Y-104680000D02*
X139436252Y-104486632D01*
D65*
X213030000Y-86422894D02*
X211402106Y-84795000D01*
D69*
X232800000Y-78900000D02*
X235200000Y-78900000D01*
D68*
X134470000Y-87645000D02*
X134470000Y-87700000D01*
D66*
X120562500Y-100287500D02*
X120400000Y-100125000D01*
D70*
X171336252Y-98171632D02*
X171336252Y-98086632D01*
D68*
X135625000Y-112250000D02*
X138100000Y-109775000D01*
D69*
X126400000Y-91550000D02*
X126400000Y-93954757D01*
D65*
X98800000Y-90850000D02*
X99115000Y-90850000D01*
D68*
X172850000Y-122350000D02*
X172900000Y-122400000D01*
D66*
X185050000Y-95250000D02*
X185750000Y-95250000D01*
D68*
X178100000Y-117750000D02*
X178100000Y-116500000D01*
X138100000Y-109775000D02*
X140095000Y-107780000D01*
D66*
X119656250Y-96277500D02*
X120406250Y-96277500D01*
D65*
X186138368Y-109561252D02*
X184486252Y-109561252D01*
D68*
X140236252Y-97286632D02*
X140236252Y-98086632D01*
X183683558Y-107831442D02*
X183645000Y-107870000D01*
D71*
X132375000Y-85550000D02*
X127000000Y-85550000D01*
D66*
X117156250Y-102173750D02*
X117280000Y-102050000D01*
D69*
X178350000Y-92600000D02*
X178835000Y-93085000D01*
D68*
X134456632Y-104486632D02*
X134636252Y-104486632D01*
D66*
X120487500Y-98287500D02*
X120400000Y-98200000D01*
D67*
X147823000Y-83660000D02*
X149889000Y-83660000D01*
D66*
X117356250Y-96467500D02*
X117356250Y-98043750D01*
D68*
X137850000Y-101272884D02*
X137836252Y-101286632D01*
D66*
X115726250Y-96625000D02*
X115726250Y-97142500D01*
D68*
X144236252Y-99686632D02*
X144236252Y-100486632D01*
D70*
X157799959Y-94027926D02*
X157941645Y-93886240D01*
D65*
X211402106Y-84795000D02*
X210695000Y-84795000D01*
D66*
X122026250Y-102337500D02*
X120687500Y-102337500D01*
D69*
X187050000Y-116250000D02*
X184800000Y-116250000D01*
D67*
X126860000Y-91660000D02*
X128660000Y-91660000D01*
D69*
X179525000Y-101550000D02*
X179875000Y-101200000D01*
X232250000Y-89900000D02*
X232250000Y-92300000D01*
D66*
X121504000Y-97096000D02*
X120400000Y-98200000D01*
D68*
X145036252Y-99686632D02*
X144236252Y-99686632D01*
D65*
X102880000Y-92830000D02*
X102880000Y-97415000D01*
D66*
X120687500Y-102337500D02*
X120400000Y-102050000D01*
X117916250Y-103677500D02*
X118156250Y-103917500D01*
X115726250Y-97142500D02*
X116101250Y-97517500D01*
D69*
X179625000Y-100950000D02*
X179875000Y-101200000D01*
D67*
X139950000Y-123500000D02*
X139950000Y-125200000D01*
D72*
X143392884Y-94930000D02*
X143436252Y-94886632D01*
D66*
X117200000Y-101970000D02*
X117280000Y-102050000D01*
X128370000Y-96050000D02*
X128370000Y-98080000D01*
D69*
X231900000Y-116050000D02*
X234300000Y-116050000D01*
D65*
X186138368Y-109561252D02*
X187688368Y-109561252D01*
D66*
X115804167Y-98787500D02*
X116500000Y-99483333D01*
D65*
X220082106Y-86210000D02*
X219375000Y-86210000D01*
D68*
X137945000Y-109775000D02*
X135950000Y-107780000D01*
D73*
X134100000Y-79825000D02*
X134100000Y-80400000D01*
D69*
X113100000Y-95650000D02*
X113100000Y-96298750D01*
D68*
X151237500Y-123650000D02*
X153050000Y-123650000D01*
D66*
X122026250Y-102337500D02*
X122026250Y-100497500D01*
X126400000Y-93954757D02*
X126400000Y-95450000D01*
X119656250Y-96277500D02*
X119656250Y-98143750D01*
X122186250Y-98287500D02*
X120487500Y-98287500D01*
D68*
X155575000Y-86850000D02*
X155575000Y-88375000D01*
D67*
X140750000Y-126000000D02*
X143020000Y-126000000D01*
D66*
X182780000Y-109750000D02*
X182780000Y-108745000D01*
D68*
X153330000Y-93350000D02*
X153330000Y-93120000D01*
D73*
X133235000Y-79085000D02*
X133360000Y-79085000D01*
D69*
X156228702Y-86196298D02*
X155575000Y-86850000D01*
D67*
X139950000Y-125200000D02*
X140750000Y-126000000D01*
D68*
X153050000Y-123650000D02*
X153300000Y-123900000D01*
D66*
X117356250Y-98043750D02*
X117200000Y-98200000D01*
X114626250Y-101287500D02*
X116379167Y-101287500D01*
D69*
X127650000Y-90300000D02*
X126400000Y-91550000D01*
D68*
X206550000Y-91150000D02*
X207270000Y-91150000D01*
D66*
X120400000Y-98200000D02*
X120400000Y-102050000D01*
D71*
X240275000Y-84470000D02*
X240275000Y-87010000D01*
D67*
X146100000Y-81275000D02*
X146100000Y-81937000D01*
D68*
X155575000Y-88375000D02*
X154300000Y-89650000D01*
X182915000Y-106010000D02*
X182788558Y-106136442D01*
X182915000Y-104305000D02*
X182810000Y-104200000D01*
D66*
X118256250Y-96097500D02*
X117726250Y-96097500D01*
D68*
X186325000Y-109250000D02*
X187650000Y-109250000D01*
D69*
X247650000Y-119700000D02*
X245250000Y-119700000D01*
X113100000Y-96298750D02*
X113206250Y-96405000D01*
D68*
X153436252Y-89493748D02*
X153280000Y-89650000D01*
D71*
X252000000Y-106790000D02*
X252000000Y-109330000D01*
D68*
X178430000Y-122500000D02*
X179100000Y-122500000D01*
X136900000Y-104680000D02*
X139242884Y-104680000D01*
D65*
X101430000Y-92110000D02*
X102160000Y-92110000D01*
D71*
X254540000Y-106790000D02*
X252000000Y-106790000D01*
D70*
X158670860Y-93886240D02*
X158786252Y-94001632D01*
D67*
X110945000Y-121725000D02*
X111620000Y-121050000D01*
D68*
X141036252Y-90886632D02*
X141036252Y-92486632D01*
D66*
X126400000Y-95450000D02*
X127000000Y-96050000D01*
D68*
X187220000Y-95000000D02*
X187275000Y-95055000D01*
X176600000Y-92960000D02*
X176360000Y-93200000D01*
D66*
X117726250Y-96097500D02*
X117356250Y-96467500D01*
X122236250Y-100287500D02*
X120562500Y-100287500D01*
X117156250Y-103677500D02*
X117916250Y-103677500D01*
D65*
X213030000Y-91150000D02*
X213030000Y-86422894D01*
D69*
X157368638Y-86196298D02*
X156228702Y-86196298D01*
D72*
X170239620Y-96990000D02*
X171336252Y-98086632D01*
D67*
X111620000Y-121050000D02*
X111620000Y-119100000D01*
D66*
X117156250Y-103677500D02*
X117156250Y-102173750D01*
D68*
X182915000Y-105460000D02*
X182915000Y-106010000D01*
D66*
X118800000Y-98200000D02*
X118800000Y-102010000D01*
D68*
X184005000Y-107510000D02*
X183683558Y-107831442D01*
D69*
X178835000Y-93085000D02*
X181557500Y-93085000D01*
D66*
X185750000Y-95250000D02*
X186000000Y-95000000D01*
D68*
X182788558Y-106136442D02*
X182725000Y-106200000D01*
X133270000Y-90100000D02*
X133270000Y-91250000D01*
D69*
X128360000Y-90300000D02*
X128660000Y-90600000D01*
D68*
X139450000Y-100630000D02*
X137850000Y-100630000D01*
X186337500Y-100487500D02*
X186550000Y-100700000D01*
X153330000Y-94420000D02*
X153460000Y-94550000D01*
D66*
X124500000Y-96740000D02*
X124500000Y-95450000D01*
D68*
X153436252Y-88586632D02*
X153436252Y-89493748D01*
D66*
X186150000Y-103750000D02*
X186550000Y-103350000D01*
D68*
X143436252Y-94086632D02*
X143436252Y-94886632D01*
D70*
X183415000Y-108560000D02*
X183415000Y-108100000D01*
D68*
X162150000Y-122350000D02*
X162920000Y-122350000D01*
X157941645Y-93886240D02*
X158670860Y-93886240D01*
X135600000Y-112250000D02*
X135625000Y-112250000D01*
D65*
X100375000Y-92110000D02*
X101430000Y-92110000D01*
D68*
X158900000Y-81112500D02*
X159925000Y-82137500D01*
X143436252Y-94886632D02*
X144236252Y-94886632D01*
D66*
X245500000Y-88150000D02*
X247900000Y-88150000D01*
X124144000Y-97096000D02*
X121504000Y-97096000D01*
X116101250Y-97517500D02*
X116101250Y-97801250D01*
D65*
X102160000Y-92110000D02*
X102880000Y-92830000D01*
D68*
X183415000Y-108560000D02*
X182915000Y-108560000D01*
D69*
X192150000Y-116200000D02*
X194400000Y-116200000D01*
D68*
X125250000Y-93200000D02*
X125250000Y-94700000D01*
D65*
X213030000Y-91150000D02*
X213800000Y-91150000D01*
D67*
X143250000Y-84440000D02*
X144230000Y-84440000D01*
D66*
X114626250Y-101287500D02*
X114626250Y-98787500D01*
D74*
X133700000Y-98030000D02*
X133892884Y-98030000D01*
D66*
X119656250Y-98143750D02*
X119600000Y-98200000D01*
D67*
X146100000Y-81937000D02*
X147823000Y-83660000D01*
D65*
X184486252Y-109561252D02*
X183475000Y-108550000D01*
D66*
X118060000Y-98260000D02*
X118000000Y-98200000D01*
D68*
X181690000Y-107010000D02*
X183165000Y-107010000D01*
X126395243Y-93950000D02*
X126400000Y-93954757D01*
D66*
X117200000Y-98200000D02*
X117200000Y-101970000D01*
D68*
X186000000Y-95000000D02*
X187220000Y-95000000D01*
D67*
X126275000Y-88400000D02*
X126275000Y-91075000D01*
D68*
X133670000Y-103700000D02*
X134456632Y-104486632D01*
D69*
X127650000Y-90300000D02*
X128360000Y-90300000D01*
D68*
X132375000Y-85550000D02*
X134470000Y-87645000D01*
D65*
X216225000Y-116025000D02*
X218105000Y-116025000D01*
D66*
X118800000Y-102010000D02*
X118840000Y-102050000D01*
D68*
X186000000Y-95500000D02*
X186000000Y-95000000D01*
D66*
X186550000Y-103350000D02*
X186550000Y-100700000D01*
D72*
X142650000Y-94930000D02*
X143392884Y-94930000D01*
D67*
X126675000Y-91475000D02*
X126860000Y-91660000D01*
D66*
X186150000Y-105025000D02*
X186150000Y-103750000D01*
D68*
X161450000Y-80112500D02*
X161450000Y-81537500D01*
X146536252Y-92606632D02*
X146636252Y-92506632D01*
D69*
X126400000Y-91750000D02*
X126675000Y-91475000D01*
D68*
X141811252Y-93311632D02*
X141836252Y-93286632D01*
D71*
X254540000Y-109330000D02*
X254540000Y-106790000D01*
D69*
X245450000Y-82400000D02*
X247850000Y-82400000D01*
D66*
X116500000Y-102050000D02*
X116500000Y-98200000D01*
D68*
X137850000Y-100630000D02*
X137850000Y-101272884D01*
X161450000Y-81537500D02*
X160850000Y-82137500D01*
D65*
X216020000Y-114750000D02*
X216020000Y-115820000D01*
D66*
X124500000Y-95450000D02*
X125250000Y-94700000D01*
D68*
X159925000Y-82137500D02*
X160850000Y-82137500D01*
D66*
X119620000Y-102050000D02*
X119620000Y-98220000D01*
X119620000Y-98220000D02*
X119600000Y-98200000D01*
D71*
X126275000Y-86275000D02*
X126275000Y-88400000D01*
D68*
X153330000Y-93120000D02*
X154600000Y-91850000D01*
D66*
X240650000Y-106100000D02*
X240650000Y-108500000D01*
D67*
X147125000Y-126000000D02*
X147325000Y-126200000D01*
D73*
X133360000Y-79085000D02*
X134100000Y-79825000D01*
D65*
X216020000Y-115820000D02*
X216225000Y-116025000D01*
D66*
X239850000Y-89800000D02*
X239850000Y-92200000D01*
D65*
X221580000Y-93850000D02*
X221580000Y-92650000D01*
D66*
X116379167Y-101287500D02*
X116500000Y-101408333D01*
D72*
X169800000Y-96990000D02*
X170239620Y-96990000D01*
D69*
X126400000Y-93954757D02*
X126400000Y-91750000D01*
D66*
X127000000Y-96050000D02*
X128370000Y-96050000D01*
D69*
X248500000Y-110750000D02*
X249450000Y-110750000D01*
D68*
X172080000Y-122350000D02*
X172850000Y-122350000D01*
D69*
X178800000Y-100950000D02*
X178800000Y-101550000D01*
D66*
X122026250Y-100497500D02*
X122236250Y-100287500D01*
D69*
X244250000Y-112650000D02*
X246650000Y-112650000D01*
D71*
X127000000Y-85550000D02*
X126275000Y-86275000D01*
D68*
X183415000Y-105460000D02*
X182915000Y-105460000D01*
X140095000Y-107780000D02*
X140300000Y-107780000D01*
X156910065Y-94027926D02*
X157799959Y-94027926D01*
%TO.N,VAMB*%
D66*
X245750000Y-86200000D02*
X248150000Y-86200000D01*
X231525000Y-111750000D02*
X233925000Y-111750000D01*
D69*
X232600000Y-82100000D02*
X235000000Y-82100000D01*
D66*
X235400000Y-89675000D02*
X235400000Y-92075000D01*
X245400000Y-116750000D02*
X247800000Y-116750000D01*
X241750000Y-89700000D02*
X241750000Y-92100000D01*
X238800000Y-106050000D02*
X238800000Y-108450000D01*
X245250000Y-108950000D02*
X245250000Y-106550000D01*
%TO.N,BOOTSPI_DQ1_BMODE1*%
D69*
X148743251Y-100893631D02*
X149224893Y-100893631D01*
X149443251Y-101111989D02*
X149443251Y-101475273D01*
X151100000Y-117300000D02*
X149700000Y-118700000D01*
X150114253Y-110064443D02*
X151100000Y-111050190D01*
X150817894Y-101686632D02*
X151029253Y-101897991D01*
X151029253Y-105570747D02*
X150114253Y-106485747D01*
X151029253Y-101897991D02*
X151029253Y-105570747D01*
X149224893Y-100893631D02*
X149443251Y-101111989D01*
X151100000Y-111050190D02*
X151100000Y-117300000D01*
X148336252Y-100486632D02*
X148743251Y-100893631D01*
X149443251Y-101475273D02*
X149654610Y-101686632D01*
X150114253Y-106485747D02*
X150114253Y-110064443D01*
X149700000Y-118700000D02*
X149700000Y-119050000D01*
X147436252Y-100486632D02*
X148336252Y-100486632D01*
X149654610Y-101686632D02*
X150817894Y-101686632D01*
%TO.N,P4V5*%
D75*
X204550000Y-99807000D02*
X204707000Y-99650000D01*
D67*
X115255000Y-124735000D02*
X115520000Y-125000000D01*
D68*
X177470000Y-122500000D02*
X177470000Y-120745000D01*
D75*
X184150000Y-114350000D02*
X181350000Y-117150000D01*
D65*
X119900000Y-127350000D02*
X157800000Y-127350000D01*
D66*
X188425000Y-99800000D02*
X188425000Y-99700000D01*
D75*
X205100000Y-100200000D02*
X190950000Y-114350000D01*
X189900000Y-91615000D02*
X198092000Y-99807000D01*
D71*
X153300000Y-122350000D02*
X153300000Y-122100000D01*
D75*
X198092000Y-99807000D02*
X208050000Y-99807000D01*
X181350000Y-117150000D02*
X181350000Y-122100000D01*
D71*
X166112500Y-74262500D02*
X172547500Y-74262500D01*
D76*
X178900000Y-125450000D02*
X181350000Y-123000000D01*
D68*
X153300000Y-122350000D02*
X154640000Y-122350000D01*
D76*
X156350000Y-122100000D02*
X159700000Y-125450000D01*
D68*
X154640000Y-122350000D02*
X154700000Y-122290000D01*
D71*
X250090000Y-99800000D02*
X252000000Y-101710000D01*
D65*
X157800000Y-127350000D02*
X159700000Y-125450000D01*
D77*
X151237500Y-122700000D02*
X152000000Y-122700000D01*
D75*
X248450000Y-99650000D02*
X248600000Y-99800000D01*
D68*
X177470000Y-120745000D02*
X177450000Y-120725000D01*
D71*
X248600000Y-99800000D02*
X250090000Y-99800000D01*
D77*
X152000000Y-122700000D02*
X152350000Y-122350000D01*
D71*
X204943000Y-100200000D02*
X204550000Y-99807000D01*
D76*
X159700000Y-125450000D02*
X177500000Y-125450000D01*
D68*
X189900000Y-92395000D02*
X190260000Y-92755000D01*
D77*
X151029031Y-122700000D02*
X151237500Y-122700000D01*
D68*
X177450000Y-125400000D02*
X177500000Y-125450000D01*
D66*
X188425000Y-99700000D02*
X190260000Y-97865000D01*
D76*
X177500000Y-125450000D02*
X178900000Y-125450000D01*
D77*
X152350000Y-122350000D02*
X153300000Y-122350000D01*
D76*
X181350000Y-123000000D02*
X181350000Y-122100000D01*
D65*
X117550000Y-125000000D02*
X119900000Y-127350000D01*
D68*
X189900000Y-91615000D02*
X189900000Y-92395000D01*
D66*
X190260000Y-97865000D02*
X190260000Y-94150000D01*
D67*
X112595000Y-124735000D02*
X115255000Y-124735000D01*
D75*
X204707000Y-99650000D02*
X248450000Y-99650000D01*
D71*
X153300000Y-122100000D02*
X156350000Y-122100000D01*
D68*
X177450000Y-120725000D02*
X177450000Y-125400000D01*
X167297500Y-74515000D02*
X168050000Y-74515000D01*
D71*
X165500000Y-74875000D02*
X166112500Y-74262500D01*
D75*
X190950000Y-114350000D02*
X184150000Y-114350000D01*
D71*
X205100000Y-100200000D02*
X204943000Y-100200000D01*
D68*
X166937500Y-74875000D02*
X167297500Y-74515000D01*
X190260000Y-92755000D02*
X190260000Y-94150000D01*
D66*
X187925000Y-99800000D02*
X188425000Y-99800000D01*
D65*
X115520000Y-125000000D02*
X117550000Y-125000000D01*
D68*
X165500000Y-74875000D02*
X166937500Y-74875000D01*
D75*
X172547500Y-74262500D02*
X189900000Y-91615000D01*
%TO.N,1v35en*%
D74*
X187500000Y-99700000D02*
X187500000Y-98200000D01*
X189240000Y-96460000D02*
X189240000Y-94150000D01*
X187500000Y-98200000D02*
X189240000Y-96460000D01*
D70*
X186000000Y-94500000D02*
X188890000Y-94500000D01*
D74*
X187150000Y-100050000D02*
X187500000Y-99700000D01*
D70*
X188890000Y-94500000D02*
X189240000Y-94150000D01*
%TO.N,3v3en*%
D67*
X109545000Y-120225000D02*
X110670000Y-119100000D01*
X112595000Y-123715000D02*
X111975000Y-123715000D01*
X111975000Y-123715000D02*
X110885000Y-123715000D01*
X110885000Y-123715000D02*
X109545000Y-122375000D01*
X109545000Y-122375000D02*
X109545000Y-120225000D01*
%TO.N,P1.8V*%
D68*
X146655000Y-84620000D02*
X149889000Y-84620000D01*
D78*
X125687500Y-98287500D02*
X126310000Y-98910000D01*
D74*
X148810000Y-84666000D02*
X148856000Y-84620000D01*
D72*
X150819401Y-90497066D02*
X151048252Y-90725917D01*
D78*
X122826250Y-98287500D02*
X125687500Y-98287500D01*
D68*
X158550000Y-100150000D02*
X159279252Y-99420748D01*
X155350000Y-99755000D02*
X156350000Y-99755000D01*
D74*
X143535000Y-88375000D02*
X144135000Y-88975000D01*
D68*
X160425000Y-77762500D02*
X160500000Y-77837500D01*
D74*
X146229252Y-100323846D02*
X146473466Y-100079632D01*
D68*
X152700000Y-91850000D02*
X153950000Y-90600000D01*
D74*
X143829252Y-96893632D02*
X144643252Y-96893632D01*
D68*
X156350000Y-99755000D02*
X156350000Y-98775000D01*
D74*
X144643252Y-93679632D02*
X144643252Y-94573252D01*
D73*
X160600000Y-106950000D02*
X160600000Y-102200000D01*
D68*
X144236252Y-95686632D02*
X144236252Y-95633748D01*
D74*
X143436252Y-97286632D02*
X143436632Y-97286632D01*
D72*
X145448252Y-91274632D02*
X145448252Y-90651748D01*
D67*
X126310000Y-100150000D02*
X126310000Y-103200000D01*
D68*
X156575000Y-95075000D02*
X155875000Y-94375000D01*
X158407268Y-79976996D02*
X157675000Y-79244728D01*
X144236252Y-95633748D02*
X144970000Y-94900000D01*
D67*
X157675000Y-76550000D02*
X157450000Y-76550000D01*
D72*
X145836252Y-91686632D02*
X146224252Y-91298632D01*
D68*
X158407268Y-88442732D02*
X158407268Y-79976996D01*
X157675000Y-79244728D02*
X157675000Y-76550000D01*
D67*
X157450000Y-76550000D02*
X153050000Y-80950000D01*
D68*
X155875000Y-90600000D02*
X156250000Y-90600000D01*
X156250000Y-90600000D02*
X158407268Y-88442732D01*
D67*
X153050000Y-83950000D02*
X152400000Y-84600000D01*
D73*
X166850000Y-113200000D02*
X160600000Y-106950000D01*
D79*
X146100000Y-84225000D02*
X146495000Y-84620000D01*
D73*
X160600000Y-102200000D02*
X158550000Y-100150000D01*
D68*
X159279252Y-89314716D02*
X158407268Y-88442732D01*
X158155000Y-99755000D02*
X158550000Y-100150000D01*
D67*
X153050000Y-80950000D02*
X153050000Y-83950000D01*
D74*
X144643252Y-94573252D02*
X144970000Y-94900000D01*
X144629252Y-91293632D02*
X144236252Y-91686632D01*
D68*
X142276632Y-92486632D02*
X142650000Y-92860000D01*
D74*
X142650000Y-92860000D02*
X142669632Y-92879632D01*
D67*
X152400000Y-84600000D02*
X149909000Y-84600000D01*
D68*
X131025000Y-78425000D02*
X131900000Y-77550000D01*
D72*
X151048252Y-90725917D02*
X151048252Y-91047347D01*
D74*
X144629252Y-89179252D02*
X144629252Y-91293632D01*
X155704632Y-97679632D02*
X156575000Y-98550000D01*
D68*
X152370000Y-92180000D02*
X152700000Y-91850000D01*
D74*
X145429252Y-97679632D02*
X155704632Y-97679632D01*
D68*
X139425000Y-77550000D02*
X146100000Y-84225000D01*
D74*
X146229252Y-104649418D02*
X146229252Y-100323846D01*
D68*
X156575000Y-98550000D02*
X156575000Y-95075000D01*
X156350000Y-98775000D02*
X156575000Y-98550000D01*
D67*
X157675000Y-76550000D02*
X160125000Y-76550000D01*
D72*
X151048252Y-91047347D02*
X151275537Y-91274632D01*
D74*
X143843252Y-92649418D02*
X143843252Y-92079632D01*
X142669632Y-92879632D02*
X143613038Y-92879632D01*
D78*
X119656250Y-94693750D02*
X120260000Y-94090000D01*
X119656250Y-95637500D02*
X119656250Y-94693750D01*
D72*
X152148632Y-91298632D02*
X147024252Y-91298632D01*
D68*
X131025000Y-78860000D02*
X131025000Y-78425000D01*
D72*
X146224252Y-91298632D02*
X152148632Y-91298632D01*
D74*
X144643252Y-96093632D02*
X144236252Y-95686632D01*
D72*
X152148632Y-91298632D02*
X152700000Y-91850000D01*
D78*
X142650000Y-93970000D02*
X142650000Y-92860000D01*
D74*
X145036252Y-97286632D02*
X144643252Y-96893632D01*
D78*
X126310000Y-98910000D02*
X126310000Y-100150000D01*
D74*
X145999038Y-104879632D02*
X146229252Y-104649418D01*
D67*
X156175000Y-73600000D02*
X158625000Y-73600000D01*
D68*
X158900000Y-77762500D02*
X160425000Y-77762500D01*
X121887202Y-94077202D02*
X121900000Y-94090000D01*
X153950000Y-90600000D02*
X155875000Y-90600000D01*
X131900000Y-77550000D02*
X139425000Y-77550000D01*
X156350000Y-99755000D02*
X158155000Y-99755000D01*
D67*
X156150000Y-72900000D02*
X158600000Y-72900000D01*
D74*
X144425000Y-88975000D02*
X144629252Y-89179252D01*
D68*
X159279252Y-99420748D02*
X159279252Y-89314716D01*
X121887202Y-92907317D02*
X121887202Y-94077202D01*
D74*
X144975000Y-105460000D02*
X145555368Y-104879632D01*
D68*
X146575000Y-84700000D02*
X146655000Y-84620000D01*
D72*
X145036252Y-91686632D02*
X145448252Y-91274632D01*
D68*
X155875000Y-94375000D02*
X155875000Y-90600000D01*
X158150000Y-74237500D02*
X158150000Y-77012500D01*
D74*
X142650000Y-93970000D02*
X142926368Y-93693632D01*
D68*
X146100000Y-84225000D02*
X146575000Y-84700000D01*
D73*
X166850000Y-114525000D02*
X166850000Y-113200000D01*
D78*
X120260000Y-94090000D02*
X121900000Y-94090000D01*
D72*
X152124632Y-91274632D02*
X152700000Y-91850000D01*
D74*
X143613038Y-92879632D02*
X143843252Y-92649418D01*
X145555368Y-104879632D02*
X145999038Y-104879632D01*
X143843252Y-92079632D02*
X144236252Y-91686632D01*
D72*
X147024252Y-91298632D02*
X146636252Y-91686632D01*
D74*
X155025368Y-100079632D02*
X155350000Y-99755000D01*
X142926368Y-93693632D02*
X144629252Y-93693632D01*
X145036252Y-93286632D02*
X144643252Y-93679632D01*
X143436252Y-97286632D02*
X143829252Y-96893632D01*
D68*
X158150000Y-77012500D02*
X158900000Y-77762500D01*
D74*
X144629252Y-93693632D02*
X145036252Y-93286632D01*
X144643252Y-96893632D02*
X144643252Y-96093632D01*
X145036252Y-97286632D02*
X145429252Y-97679632D01*
D72*
X151275537Y-91274632D02*
X152124632Y-91274632D01*
D67*
X149909000Y-84600000D02*
X149889000Y-84620000D01*
D74*
X146473466Y-100079632D02*
X155025368Y-100079632D01*
X144135000Y-88975000D02*
X144425000Y-88975000D01*
D68*
X141836252Y-92486632D02*
X142276632Y-92486632D01*
X152370000Y-93350000D02*
X152370000Y-92180000D01*
D72*
X145448252Y-90651748D02*
X145602934Y-90497066D01*
D68*
X144236252Y-91686632D02*
X146636252Y-91686632D01*
D72*
X145602934Y-90497066D02*
X150819401Y-90497066D01*
%TO.N,P1V35*%
D74*
X147488368Y-94086632D02*
X147881368Y-93693632D01*
D69*
X181800000Y-102400000D02*
X181800000Y-102950000D01*
X181800000Y-102400000D02*
X181800000Y-101575000D01*
D66*
X181987500Y-99400000D02*
X181987500Y-102212500D01*
D78*
X181387500Y-99065000D02*
X181537500Y-98915000D01*
D66*
X150574620Y-95625000D02*
X149836252Y-94886632D01*
D74*
X147881368Y-93693632D02*
X149985038Y-93693632D01*
D78*
X184137500Y-98365000D02*
X184137500Y-97177500D01*
D66*
X153535000Y-96925000D02*
X152235000Y-95625000D01*
D78*
X184137500Y-97177500D02*
X184075000Y-97115000D01*
D74*
X150243252Y-92879632D02*
X150636252Y-92486632D01*
D69*
X147436252Y-94086632D02*
X147488368Y-94086632D01*
D66*
X152235000Y-95625000D02*
X150574620Y-95625000D01*
D69*
X181800000Y-101575000D02*
X181425000Y-101200000D01*
D74*
X149985038Y-93693632D02*
X150243252Y-93435418D01*
D78*
X184437500Y-98665000D02*
X184137500Y-98365000D01*
X184187500Y-98915000D02*
X184437500Y-98665000D01*
X184075000Y-96025000D02*
X184100000Y-96000000D01*
X184075000Y-97115000D02*
X184075000Y-96025000D01*
D80*
X181537500Y-98915000D02*
X184187500Y-98915000D01*
D66*
X181987500Y-102212500D02*
X181800000Y-102400000D01*
D74*
X150243252Y-93435418D02*
X150243252Y-92879632D01*
%TO.N,/DDR/VREF*%
D68*
X184640000Y-104815000D02*
X184125000Y-104300000D01*
D78*
X171336252Y-100686632D02*
X171325000Y-100697884D01*
X168150000Y-93291247D02*
X168143242Y-93284489D01*
D68*
X176500000Y-102732000D02*
X177525000Y-103757000D01*
X180019736Y-103757000D02*
X183582000Y-103757000D01*
D67*
X171325000Y-101530000D02*
X171520000Y-101725000D01*
D68*
X176500000Y-102443632D02*
X176500000Y-102732000D01*
D78*
X167430000Y-106300000D02*
X167430000Y-105380380D01*
D68*
X184640000Y-106010000D02*
X184640000Y-104815000D01*
X170536252Y-88986252D02*
X170536252Y-87686632D01*
D78*
X168200000Y-94020000D02*
X168150000Y-93970000D01*
D68*
X176700000Y-106300000D02*
X177525000Y-105475000D01*
X167430000Y-106300000D02*
X176700000Y-106300000D01*
D78*
X172238632Y-102443632D02*
X176500000Y-102443632D01*
D67*
X168150000Y-93970000D02*
X168150000Y-93291247D01*
D68*
X177525000Y-103757000D02*
X180019736Y-103757000D01*
X177525000Y-105475000D02*
X177525000Y-103757000D01*
X171300000Y-89750000D02*
X170536252Y-88986252D01*
D78*
X183582000Y-103757000D02*
X184125000Y-104300000D01*
X167430000Y-105380380D02*
X167336252Y-105286632D01*
D67*
X171325000Y-100697884D02*
X171325000Y-101530000D01*
D78*
X171520000Y-101725000D02*
X172238632Y-102443632D01*
X171470000Y-89750000D02*
X171300000Y-89750000D01*
%TO.N,P3V3*%
D74*
X133876368Y-96893632D02*
X135856368Y-96893632D01*
D67*
X123895000Y-82950000D02*
X132250000Y-82950000D01*
D73*
X115500000Y-112900000D02*
X110600000Y-108000000D01*
D74*
X143826368Y-102493632D02*
X143273466Y-102493632D01*
D78*
X179598368Y-107251632D02*
X180568368Y-106281632D01*
D68*
X141150000Y-84575000D02*
X141150000Y-86772884D01*
D66*
X115086250Y-97462500D02*
X115141250Y-97517500D01*
X130240000Y-119100000D02*
X130240000Y-120200000D01*
X133730000Y-100400000D02*
X134630000Y-101300000D01*
D67*
X110600000Y-82950000D02*
X110600000Y-80250000D01*
X138100000Y-106825000D02*
X141125000Y-106825000D01*
D68*
X141150000Y-84575000D02*
X141975000Y-85400000D01*
D66*
X115086250Y-95836250D02*
X115086250Y-96625000D01*
D68*
X101920000Y-94250000D02*
X101920000Y-97415000D01*
D74*
X141429252Y-103190748D02*
X140970000Y-103650000D01*
D67*
X129840000Y-112900000D02*
X130240000Y-112500000D01*
D68*
X99180000Y-93070000D02*
X101430000Y-93070000D01*
X146000000Y-105420000D02*
X146400092Y-105420000D01*
D72*
X149036252Y-89286632D02*
X149424252Y-88898632D01*
D66*
X132325000Y-98450000D02*
X133730000Y-99855000D01*
D68*
X152625000Y-89345000D02*
X152320000Y-89650000D01*
D67*
X132250000Y-82950000D02*
X132725000Y-82950000D01*
D65*
X101312250Y-94250000D02*
X99751250Y-95811000D01*
D68*
X136372792Y-103720000D02*
X135129252Y-102476460D01*
X136900000Y-102250000D02*
X137050000Y-102100000D01*
X138800000Y-83000000D02*
X138800000Y-84680000D01*
D67*
X115500000Y-112900000D02*
X114650000Y-112050000D01*
D68*
X176775000Y-111050000D02*
X176775000Y-109715000D01*
D67*
X143250000Y-86700380D02*
X144236252Y-87686632D01*
D68*
X135129252Y-102476460D02*
X135129252Y-101779252D01*
D81*
X134660315Y-103669685D02*
X134630000Y-103700000D01*
D68*
X101430000Y-93070000D02*
X101430000Y-93760000D01*
D74*
X140300000Y-104422884D02*
X140300000Y-106820000D01*
D81*
X135419706Y-103669685D02*
X134660315Y-103669685D01*
D68*
X136900000Y-103720000D02*
X136900000Y-102250000D01*
X140745000Y-84980000D02*
X141150000Y-84575000D01*
D67*
X132250000Y-82950000D02*
X133000000Y-82950000D01*
D66*
X132325000Y-97900000D02*
X132325000Y-98450000D01*
D68*
X136900000Y-103720000D02*
X136372792Y-103720000D01*
D66*
X134230000Y-90100000D02*
X134230000Y-89645000D01*
D67*
X115500000Y-112900000D02*
X128850000Y-112900000D01*
D68*
X136087591Y-85550000D02*
X135325000Y-85550000D01*
D66*
X114125000Y-94875000D02*
X115086250Y-95836250D01*
D67*
X128850000Y-112900000D02*
X128850000Y-113300000D01*
D74*
X137843252Y-99691874D02*
X134138126Y-99691874D01*
D78*
X178600000Y-107750000D02*
X178850000Y-107500000D01*
D74*
X135064312Y-98458572D02*
X134509029Y-98458572D01*
X133700000Y-97070000D02*
X133876368Y-96893632D01*
D68*
X181700000Y-105950000D02*
X181739000Y-105989000D01*
D74*
X135436252Y-98086632D02*
X135064312Y-98458572D01*
X138800000Y-82630000D02*
X138800000Y-83000000D01*
D68*
X138800000Y-84680000D02*
X139100000Y-84980000D01*
D74*
X134509029Y-98458572D02*
X133730000Y-99237601D01*
D67*
X142980000Y-104970000D02*
X143800000Y-104970000D01*
X132725000Y-82950000D02*
X132862500Y-83087500D01*
D66*
X133155000Y-97070000D02*
X132325000Y-97900000D01*
D67*
X131000000Y-115450000D02*
X131000000Y-115750000D01*
X143250000Y-85400000D02*
X143250000Y-86700380D01*
D66*
X133730000Y-99855000D02*
X133730000Y-100100000D01*
D72*
X152320000Y-89340001D02*
X152320000Y-89650000D01*
X149424252Y-88898632D02*
X151878631Y-88898632D01*
D66*
X135430000Y-88445000D02*
X135430000Y-87700000D01*
D74*
X133700000Y-97070000D02*
X133155000Y-97070000D01*
D66*
X112050000Y-94875000D02*
X114125000Y-94875000D01*
D67*
X108200000Y-77850000D02*
X106700000Y-77850000D01*
D68*
X146400092Y-105420000D02*
X147929252Y-103890840D01*
D67*
X110995000Y-114675000D02*
X110995000Y-116500000D01*
X128850000Y-113300000D02*
X131000000Y-115450000D01*
D68*
X135950000Y-106820000D02*
X135950000Y-104199979D01*
X176775000Y-113137500D02*
X177090000Y-113452500D01*
D67*
X120900000Y-112900000D02*
X127100000Y-119100000D01*
D72*
X146224252Y-87525917D02*
X145996967Y-87298632D01*
D74*
X147829252Y-103279632D02*
X149429252Y-103279632D01*
D67*
X110900000Y-87550000D02*
X115500000Y-82950000D01*
D69*
X99150000Y-93100000D02*
X99180000Y-93070000D01*
D67*
X110995000Y-114675000D02*
X112770000Y-112900000D01*
D78*
X179598368Y-107508368D02*
X179598368Y-107500000D01*
X180618368Y-106000000D02*
X181750000Y-106000000D01*
D68*
X137836252Y-87298661D02*
X136087591Y-85550000D01*
D67*
X94150000Y-99650000D02*
X97989000Y-95811000D01*
X127100000Y-119100000D02*
X130240000Y-119100000D01*
D78*
X179600000Y-107510000D02*
X179598368Y-107508368D01*
D73*
X114650000Y-112050000D02*
X96550000Y-112050000D01*
D68*
X140300000Y-106820000D02*
X135950000Y-106820000D01*
X147929252Y-103379632D02*
X147624810Y-103075190D01*
D74*
X134138126Y-99691874D02*
X133730000Y-100100000D01*
X143043252Y-104193632D02*
X143811252Y-104961632D01*
D68*
X135436252Y-85661252D02*
X135325000Y-85550000D01*
D74*
X141036252Y-103686632D02*
X140300000Y-104422884D01*
D68*
X141975000Y-85400000D02*
X143250000Y-85400000D01*
D82*
X136642064Y-91280820D02*
X137036252Y-90886632D01*
D74*
X147624810Y-103075190D02*
X147829252Y-103279632D01*
D68*
X147929252Y-103890840D02*
X147929252Y-103379632D01*
D67*
X144595000Y-106825000D02*
X146000000Y-105420000D01*
D68*
X147624810Y-103075190D02*
X147436252Y-102886632D01*
D72*
X146636252Y-88486632D02*
X146224252Y-88074632D01*
D68*
X135950000Y-104199979D02*
X135419706Y-103669685D01*
X139100000Y-84980000D02*
X140745000Y-84980000D01*
D78*
X180568368Y-106281632D02*
X180568368Y-106050000D01*
D74*
X141850000Y-101280000D02*
X141429252Y-101700748D01*
D67*
X115500000Y-82950000D02*
X123895000Y-82950000D01*
D73*
X110600000Y-108000000D02*
X110600000Y-96325000D01*
D68*
X176775000Y-109715000D02*
X178600000Y-107890000D01*
D67*
X123895000Y-82950000D02*
X131070000Y-75775000D01*
X110600000Y-96325000D02*
X110600000Y-82950000D01*
D78*
X178850000Y-107500000D02*
X179598368Y-107500000D01*
D68*
X135436252Y-87686632D02*
X135436252Y-85661252D01*
X137836252Y-88486632D02*
X137836252Y-87298661D01*
D74*
X140920000Y-103700000D02*
X141022884Y-103700000D01*
D66*
X133730000Y-100100000D02*
X133730000Y-100400000D01*
D67*
X132250000Y-82950000D02*
X138750000Y-82950000D01*
D74*
X133730000Y-99237601D02*
X133730000Y-100100000D01*
D68*
X181739000Y-105989000D02*
X181750000Y-105989000D01*
D73*
X94150000Y-109650000D02*
X96550000Y-112050000D01*
D68*
X152625000Y-86850000D02*
X152625000Y-89345000D01*
D74*
X143273466Y-102493632D02*
X143043252Y-102723846D01*
X135856368Y-96893632D02*
X136250000Y-96500000D01*
D78*
X178600000Y-107890000D02*
X178600000Y-107750000D01*
D74*
X141022884Y-103700000D02*
X141036252Y-103686632D01*
D72*
X134230000Y-91150000D02*
X134360820Y-91280820D01*
D68*
X101430000Y-93760000D02*
X101920000Y-94250000D01*
D67*
X97989000Y-95811000D02*
X99751250Y-95811000D01*
D74*
X143043252Y-102723846D02*
X143043252Y-104193632D01*
D67*
X144230000Y-85400000D02*
X144250000Y-85380000D01*
D72*
X146224252Y-88074632D02*
X146224252Y-87525917D01*
D67*
X115500000Y-112900000D02*
X120900000Y-112900000D01*
D68*
X141150000Y-86772884D02*
X141036252Y-86886632D01*
D67*
X138750000Y-82950000D02*
X138800000Y-83000000D01*
X132862500Y-83087500D02*
X133000000Y-82950000D01*
D68*
X135129252Y-101779252D02*
X134650000Y-101300000D01*
D67*
X141125000Y-106825000D02*
X144595000Y-106825000D01*
X132862500Y-83087500D02*
X135325000Y-85550000D01*
D66*
X115086250Y-96625000D02*
X115086250Y-97462500D01*
D74*
X134230000Y-90100000D02*
X134230000Y-91250000D01*
D78*
X179598368Y-107500000D02*
X179598368Y-107251632D01*
D68*
X176775000Y-111050000D02*
X176775000Y-113137500D01*
D81*
X135419706Y-103669685D02*
X136849685Y-103669685D01*
D67*
X110600000Y-96325000D02*
X112050000Y-94875000D01*
D74*
X144200000Y-102120000D02*
X143826368Y-102493632D01*
X141429252Y-101700748D02*
X141429252Y-103190748D01*
X149429252Y-103279632D02*
X149836252Y-103686632D01*
D67*
X128850000Y-112900000D02*
X129840000Y-112900000D01*
D72*
X145675537Y-87298632D02*
X144250000Y-85873095D01*
D67*
X112770000Y-112900000D02*
X115500000Y-112900000D01*
D82*
X134360820Y-91280820D02*
X136642064Y-91280820D01*
D78*
X180568368Y-106050000D02*
X180618368Y-106000000D01*
D67*
X110995000Y-116500000D02*
X110670000Y-116825000D01*
D73*
X94150000Y-109650000D02*
X94150000Y-99650000D01*
D67*
X110600000Y-80250000D02*
X108200000Y-77850000D01*
D65*
X101920000Y-94250000D02*
X101312250Y-94250000D01*
D72*
X151878631Y-88898632D02*
X152320000Y-89340001D01*
D66*
X130240000Y-112500000D02*
X130240000Y-114700000D01*
D67*
X143250000Y-85400000D02*
X144230000Y-85400000D01*
X141125000Y-106825000D02*
X142980000Y-104970000D01*
D66*
X134230000Y-89645000D02*
X135430000Y-88445000D01*
D81*
X136849685Y-103669685D02*
X136900000Y-103720000D01*
D72*
X144250000Y-85873095D02*
X144250000Y-85380000D01*
X145996967Y-87298632D02*
X145675537Y-87298632D01*
D69*
X98800000Y-92750000D02*
X99150000Y-93100000D01*
%TO.N,BOOTSPI_DQ3_BMODE0*%
X146450000Y-107093574D02*
X147273242Y-106270332D01*
X143625000Y-110925000D02*
X146450000Y-108100000D01*
X142175000Y-110925000D02*
X143625000Y-110925000D01*
X147273242Y-105489656D02*
X148276266Y-104486632D01*
X140150000Y-119100000D02*
X138700000Y-119100000D01*
X148276266Y-104486632D02*
X149036252Y-104486632D01*
X147273242Y-106270332D02*
X147273242Y-105489656D01*
X146450000Y-108100000D02*
X146450000Y-107093574D01*
X137350000Y-115750000D02*
X142175000Y-110925000D01*
X137350000Y-117750000D02*
X137350000Y-115750000D01*
X138700000Y-119100000D02*
X137350000Y-117750000D01*
%TO.N,/COMM_ETH/AVDDH*%
D66*
X112395000Y-97045000D02*
X114000000Y-97045000D01*
X114000000Y-97045000D02*
X114006250Y-97045000D01*
X112050000Y-96700000D02*
X112395000Y-97045000D01*
%TO.N,/COMM_ETH/AVDDL*%
X113450000Y-101823750D02*
X113986250Y-101287500D01*
X113450000Y-102437500D02*
X113450000Y-101823750D01*
%TO.N,ETH_RX3*%
D83*
X123781250Y-101779427D02*
X123869427Y-101779427D01*
X123869427Y-101779427D02*
X125290000Y-103200000D01*
%TO.N,ETH_RX2*%
X124288920Y-101275000D02*
X125197253Y-102183333D01*
X125197253Y-102183333D02*
X125290000Y-102183333D01*
X122981250Y-101275000D02*
X124288920Y-101275000D01*
%TO.N,ETH_RX1*%
X124915000Y-99775000D02*
X125290000Y-100150000D01*
X123781250Y-99775000D02*
X124915000Y-99775000D01*
%TO.N,ETH_RX0*%
X122981250Y-99275000D02*
X122981250Y-99581250D01*
X122981250Y-99581250D02*
X124566667Y-101166667D01*
X124566667Y-101166667D02*
X125290000Y-101166667D01*
%TO.N,/COMM_ETH/AVDDL_PLL*%
D66*
X117706250Y-94907500D02*
X118256250Y-95457500D01*
X117706250Y-94100000D02*
X117706250Y-94907500D01*
X117706250Y-95157500D02*
X117356250Y-95507500D01*
X117706250Y-94100000D02*
X117706250Y-95157500D01*
%TO.N,BOOTSPI_DQ2_BMODE2*%
D69*
X149436252Y-102268274D02*
X149436252Y-101886632D01*
X148750000Y-109650000D02*
X149300000Y-109650000D01*
X149736252Y-102486632D02*
X150036252Y-102486632D01*
X148636252Y-101686632D02*
X148476251Y-101526631D01*
X149436252Y-101886632D02*
X149236252Y-101686632D01*
X149650000Y-115000000D02*
X149650000Y-115250000D01*
X149700000Y-111950000D02*
X149700000Y-112400000D01*
X150700000Y-113950000D02*
X149650000Y-115000000D01*
X148300000Y-107400000D02*
X149050000Y-108150000D01*
X148400000Y-109300000D02*
X148750000Y-109650000D01*
X150036252Y-102486632D02*
X150229253Y-102679633D01*
X148300000Y-106800000D02*
X148300000Y-107400000D01*
X149700000Y-112400000D02*
X150700000Y-113400000D01*
X149650000Y-115250000D02*
X150600000Y-116200000D01*
X150600000Y-116200000D02*
X150600000Y-116800000D01*
X150229253Y-105693631D02*
X149966245Y-105956639D01*
X149556318Y-109900000D02*
X150450000Y-110793682D01*
X149647611Y-102479633D02*
X149436252Y-102268274D01*
X149236252Y-101686632D02*
X148636252Y-101686632D01*
X150600000Y-116800000D02*
X149650000Y-117750000D01*
X150450000Y-110793682D02*
X150450000Y-111200000D01*
X149143361Y-105956639D02*
X148300000Y-106800000D01*
X150229253Y-102679633D02*
X150229253Y-105693631D01*
X149550000Y-109900000D02*
X149556318Y-109900000D01*
X149300000Y-109650000D02*
X149550000Y-109900000D01*
X149736252Y-102486632D02*
X149729253Y-102479633D01*
X150700000Y-113400000D02*
X150700000Y-113950000D01*
X150450000Y-111200000D02*
X149700000Y-111950000D01*
X149966245Y-105956639D02*
X149143361Y-105956639D01*
X149050000Y-108150000D02*
X149050000Y-108400000D01*
X148476251Y-101526631D02*
X148236252Y-101286632D01*
X148400000Y-109050000D02*
X148400000Y-109300000D01*
X149729253Y-102479633D02*
X149647611Y-102479633D01*
X149050000Y-108400000D02*
X148400000Y-109050000D01*
%TO.N,BOOTSPI_CS*%
X149850000Y-120150000D02*
X149750000Y-120250000D01*
X151450000Y-109100000D02*
X151450000Y-109750000D01*
X154050000Y-114950000D02*
X154250000Y-115150000D01*
X153800000Y-117650000D02*
X154450000Y-118300000D01*
X153900000Y-120150000D02*
X149850000Y-120150000D01*
X153350000Y-114950000D02*
X154050000Y-114950000D01*
X154250000Y-115150000D02*
X154250000Y-116450000D01*
X154450000Y-118300000D02*
X154450000Y-119600000D01*
X151450000Y-109750000D02*
X151850000Y-110150000D01*
X151050000Y-108700000D02*
X151000000Y-108650000D01*
X154250000Y-116450000D02*
X153800000Y-116900000D01*
X151050000Y-108700000D02*
X151450000Y-109100000D01*
X154450000Y-119600000D02*
X153900000Y-120150000D01*
X151850000Y-110150000D02*
X151850000Y-113450000D01*
X153800000Y-116900000D02*
X153800000Y-117650000D01*
X151850000Y-113450000D02*
X153350000Y-114950000D01*
%TO.N,BOOTSPI_DQ0_BMODE3*%
X144250000Y-111450000D02*
X144250000Y-112000000D01*
X145300000Y-113500000D02*
X144750000Y-114050000D01*
X145300000Y-113050000D02*
X145300000Y-113500000D01*
X146850000Y-108800000D02*
X146850000Y-110900000D01*
X140850000Y-115950000D02*
X140400000Y-116400000D01*
X143700000Y-114050000D02*
X143000000Y-113350000D01*
X142000000Y-113350000D02*
X141800000Y-113550000D01*
X147436252Y-108213748D02*
X146850000Y-108800000D01*
X146850000Y-110900000D02*
X146350000Y-111400000D01*
X149836252Y-105486632D02*
X149697884Y-105625000D01*
X142100000Y-115950000D02*
X140850000Y-115950000D01*
X148744252Y-105686632D02*
X147690252Y-106740632D01*
X144600000Y-111100000D02*
X144250000Y-111450000D01*
X143000000Y-113350000D02*
X142000000Y-113350000D01*
X142500000Y-114900000D02*
X142500000Y-115550000D01*
X145300000Y-111100000D02*
X144600000Y-111100000D01*
X149836252Y-104486632D02*
X149836252Y-105486632D01*
X147690252Y-106740632D02*
X147436252Y-106994632D01*
X141800000Y-114200000D02*
X142500000Y-114900000D01*
X145600000Y-111400000D02*
X145300000Y-111100000D01*
X147436252Y-106994632D02*
X147436252Y-108213748D01*
X142500000Y-115550000D02*
X142100000Y-115950000D01*
X144750000Y-114050000D02*
X143700000Y-114050000D01*
X149697884Y-105625000D02*
X148805884Y-105625000D01*
X144250000Y-112000000D02*
X145300000Y-113050000D01*
X141800000Y-113550000D02*
X141800000Y-114200000D01*
X146350000Y-111400000D02*
X145600000Y-111400000D01*
X148805884Y-105625000D02*
X148744252Y-105686632D01*
%TO.N,BOOTSPI_SCK_BMODE4*%
X140450000Y-118050000D02*
X140450000Y-117800000D01*
X147686252Y-106246230D02*
X146958251Y-106974231D01*
X139300000Y-114500000D02*
X139300000Y-115700000D01*
X138900000Y-116100000D02*
X138200000Y-116100000D01*
X140850000Y-112950000D02*
X140600000Y-113200000D01*
X140600000Y-113200000D02*
X140600000Y-114250000D01*
X147686252Y-106246230D02*
X148236252Y-105696230D01*
X146958251Y-106974231D02*
X146958251Y-108091749D01*
X143650000Y-111400000D02*
X142300000Y-111400000D01*
X148236252Y-105526043D02*
X148236252Y-105186632D01*
X139300000Y-115700000D02*
X138900000Y-116100000D01*
X138200000Y-116100000D02*
X137850000Y-116450000D01*
X148236252Y-105696230D02*
X148236252Y-105526043D01*
X142300000Y-111400000D02*
X142150000Y-111550000D01*
X137850000Y-116450000D02*
X137850000Y-117750000D01*
X140600000Y-114250000D02*
X140500000Y-114350000D01*
X140250000Y-118250000D02*
X140450000Y-118050000D01*
X146958251Y-108091749D02*
X143650000Y-111400000D01*
X140500000Y-114350000D02*
X139450000Y-114350000D01*
X138350000Y-118250000D02*
X140250000Y-118250000D01*
X142150000Y-112850000D02*
X142050000Y-112950000D01*
X142150000Y-111550000D02*
X142150000Y-112850000D01*
X140450000Y-117800000D02*
X140400000Y-117750000D01*
X137850000Y-117750000D02*
X138350000Y-118250000D01*
X139450000Y-114350000D02*
X139300000Y-114500000D01*
X142050000Y-112950000D02*
X140850000Y-112950000D01*
%TO.N,SD0_D1*%
D83*
X132200000Y-120150000D02*
X131310000Y-120150000D01*
X131310000Y-120150000D02*
X131260000Y-120200000D01*
%TO.N,SD0_CMD*%
X131310000Y-114650000D02*
X131260000Y-114700000D01*
X132200000Y-114650000D02*
X131310000Y-114650000D01*
%TO.N,SD0_D2*%
X131310000Y-112450000D02*
X131260000Y-112500000D01*
X132200000Y-112450000D02*
X131310000Y-112450000D01*
%TO.N,MTR_SDO*%
D78*
X105680000Y-77850000D02*
X105680000Y-75785000D01*
X105680000Y-75785000D02*
X105670000Y-75775000D01*
%TO.N,USBH_FAULT*%
D74*
X179650000Y-114950000D02*
X180875000Y-113725000D01*
D83*
X180875000Y-109600000D02*
X180875000Y-113725000D01*
D74*
X177450000Y-116500000D02*
X177450000Y-115650000D01*
D83*
X181025000Y-109450000D02*
X180875000Y-109600000D01*
D74*
X178150000Y-114950000D02*
X179650000Y-114950000D01*
X177450000Y-115650000D02*
X178150000Y-114950000D01*
%TO.N,ZYNQ_PS_RST*%
D72*
X145036252Y-102886632D02*
X145036252Y-103137917D01*
X144648252Y-104113252D02*
X144975000Y-104440000D01*
D74*
X144975000Y-104440000D02*
X144975000Y-104250000D01*
D72*
X144648252Y-103525917D02*
X144648252Y-104113252D01*
X145036252Y-103137917D02*
X144648252Y-103525917D01*
%TO.N,DDR3_VTT_EN*%
D78*
X180618368Y-107500000D02*
X181750000Y-107500000D01*
%TO.N,SD0_D3*%
D83*
X131310000Y-113550000D02*
X131260000Y-113600000D01*
X132200000Y-113550000D02*
X131310000Y-113550000D01*
%TO.N,ZYNQ_PL_DONE*%
D72*
X140875537Y-93674632D02*
X141196967Y-93674632D01*
X141196967Y-93674632D02*
X141448252Y-93423347D01*
X141448252Y-93423347D02*
X141448252Y-92101748D01*
X140648252Y-100898632D02*
X140648252Y-93901917D01*
X141850000Y-91700000D02*
X142510000Y-91700000D01*
X142510000Y-91700000D02*
X142650000Y-91840000D01*
X141036252Y-101286632D02*
X140648252Y-100898632D01*
X140648252Y-93901917D02*
X140875537Y-93674632D01*
X141448252Y-92101748D02*
X141850000Y-91700000D01*
%TO.N,DDR3_DRST#*%
D70*
X175286252Y-93201632D02*
X174571252Y-92486632D01*
X174571252Y-92486632D02*
X174536252Y-92486632D01*
%TO.N,DDR3_A13*%
X174992500Y-91100000D02*
X174992500Y-91230384D01*
X174992500Y-91230384D02*
X174536252Y-91686632D01*
%TO.N,DDR3_A14*%
X173871252Y-87551632D02*
X173736252Y-87686632D01*
X174237884Y-87400000D02*
X174086252Y-87551632D01*
X174086252Y-87551632D02*
X173871252Y-87551632D01*
X174885000Y-87400000D02*
X174237884Y-87400000D01*
%TO.N,DDR3_A11*%
X172936252Y-88486632D02*
X173001252Y-88486632D01*
X173136252Y-88521632D02*
X172971252Y-88521632D01*
X172971252Y-88521632D02*
X172936252Y-88486632D01*
X174600000Y-100800000D02*
X174049620Y-100800000D01*
X174049620Y-100800000D02*
X173736252Y-100486632D01*
%TO.N,SD0_D0*%
D83*
X132200000Y-119050000D02*
X131310000Y-119050000D01*
X131310000Y-119050000D02*
X131260000Y-119100000D01*
%TO.N,P1.0V*%
D66*
X146800000Y-124250000D02*
X147150000Y-124600000D01*
D67*
X145070000Y-125030000D02*
X145850000Y-124250000D01*
D72*
X144236252Y-98886632D02*
X145036252Y-98886632D01*
D67*
X143980000Y-126000000D02*
X145070000Y-126000000D01*
D72*
X129350000Y-93954757D02*
X132374118Y-93954757D01*
X134110201Y-94917000D02*
X134486138Y-95292937D01*
D84*
X142636252Y-98086632D02*
X142716632Y-98086632D01*
D72*
X130882590Y-92892410D02*
X139830474Y-92892410D01*
X139830474Y-92892410D02*
X140236252Y-92486632D01*
D65*
X133850000Y-116775000D02*
X133850000Y-106950000D01*
D66*
X129350000Y-93954757D02*
X129350000Y-98060000D01*
D72*
X144169620Y-98820000D02*
X144236252Y-98886632D01*
X130367000Y-94917000D02*
X134110201Y-94917000D01*
X139848252Y-93698632D02*
X139848252Y-95325000D01*
X145448252Y-92874632D02*
X145836252Y-92486632D01*
X139259632Y-92074632D02*
X139286865Y-92101865D01*
X141429558Y-95279938D02*
X141036252Y-94886632D01*
X129350000Y-93954757D02*
X130312243Y-94917000D01*
D66*
X143650000Y-124250000D02*
X142900000Y-123500000D01*
D72*
X139816189Y-95292937D02*
X139848252Y-95325000D01*
D65*
X140593000Y-121193000D02*
X138268000Y-121193000D01*
D72*
X140236252Y-92486632D02*
X139848252Y-92874632D01*
X141424252Y-96898632D02*
X141424252Y-95865326D01*
D67*
X129225000Y-88400000D02*
X129620000Y-88795000D01*
X129620000Y-93684757D02*
X129350000Y-93954757D01*
D84*
X141036252Y-97286632D02*
X141036252Y-98086632D01*
X142716632Y-98086632D02*
X143450000Y-98820000D01*
D72*
X143450000Y-98820000D02*
X144169620Y-98820000D01*
X139829085Y-94493799D02*
X140236252Y-94086632D01*
X134486138Y-95292937D02*
X139816189Y-95292937D01*
X139848252Y-92874632D02*
X139848252Y-93698632D01*
X132562361Y-94143000D02*
X134835981Y-94143000D01*
X141036252Y-97286632D02*
X141424252Y-96898632D01*
X139835562Y-96085942D02*
X140236252Y-96486632D01*
X130312243Y-94917000D02*
X134583000Y-94917000D01*
X129820243Y-93954757D02*
X130882590Y-92892410D01*
X135286410Y-93692571D02*
X139842191Y-93692571D01*
X141429558Y-95860020D02*
X141429558Y-95279938D01*
D66*
X145850000Y-124250000D02*
X143650000Y-124250000D01*
D72*
X135006201Y-94493799D02*
X139829085Y-94493799D01*
X134285942Y-96085942D02*
X139835562Y-96085942D01*
D66*
X129350000Y-98060000D02*
X129330000Y-98080000D01*
D65*
X133850000Y-106950000D02*
X129350000Y-102450000D01*
D72*
X129404757Y-93954757D02*
X130367000Y-94917000D01*
X144236252Y-98086632D02*
X144183368Y-98086632D01*
X134583000Y-94917000D02*
X135006201Y-94493799D01*
D66*
X148875000Y-126200000D02*
X148875000Y-124687500D01*
D72*
X144183368Y-98086632D02*
X143450000Y-98820000D01*
X129620000Y-91660000D02*
X130034632Y-92074632D01*
X141424252Y-95865326D02*
X141429558Y-95860020D01*
D66*
X147150000Y-124600000D02*
X148962500Y-124600000D01*
D65*
X129350000Y-102450000D02*
X129350000Y-93954757D01*
X142900000Y-123500000D02*
X140593000Y-121193000D01*
D66*
X129350000Y-93954757D02*
X129820243Y-93954757D01*
D72*
X129350000Y-93954757D02*
X129404757Y-93954757D01*
X129350000Y-93954757D02*
X132154757Y-93954757D01*
X139848252Y-93698632D02*
X140236252Y-94086632D01*
D67*
X129620000Y-90600000D02*
X129620000Y-93684757D01*
D72*
X139842191Y-93692571D02*
X140236252Y-94086632D01*
X134835981Y-94143000D02*
X135286410Y-93692571D01*
D66*
X148875000Y-124687500D02*
X148962500Y-124600000D01*
X145850000Y-124250000D02*
X146800000Y-124250000D01*
D67*
X145070000Y-126000000D02*
X145070000Y-125030000D01*
D65*
X138268000Y-121193000D02*
X133850000Y-116775000D01*
D72*
X139848252Y-96098632D02*
X140236252Y-96486632D01*
D67*
X129620000Y-88795000D02*
X129620000Y-90600000D01*
D72*
X145836252Y-94086632D02*
X145448252Y-93698632D01*
D68*
X140236252Y-92486632D02*
X141036252Y-93286632D01*
D72*
X145448252Y-93698632D02*
X145448252Y-92874632D01*
X139286865Y-92101865D02*
X139851485Y-92101865D01*
D84*
X141036252Y-98086632D02*
X142636252Y-98086632D01*
D72*
X139848252Y-95325000D02*
X139848252Y-96098632D01*
X132374118Y-93954757D02*
X132562361Y-94143000D01*
X130034632Y-92074632D02*
X139259632Y-92074632D01*
X139851485Y-92101865D02*
X140236252Y-92486632D01*
X132154757Y-93954757D02*
X134285942Y-96085942D01*
%TO.N,DDR3_A12*%
D70*
X172725000Y-100900000D02*
X172549620Y-100900000D01*
X172549620Y-100900000D02*
X172136252Y-100486632D01*
%TO.N,DDR3_A9*%
X175668632Y-104178632D02*
X176500000Y-105010000D01*
X172936252Y-103686632D02*
X173428252Y-104178632D01*
X173428252Y-104178632D02*
X175668632Y-104178632D01*
%TO.N,Net-(U1_H-VCCPLL)*%
D74*
X154968632Y-98493632D02*
X155025000Y-98550000D01*
X144629252Y-98422884D02*
X144700000Y-98493632D01*
D72*
X143436252Y-98086632D02*
X143450632Y-98086632D01*
D74*
X143843632Y-97693632D02*
X144399038Y-97693632D01*
X144629252Y-97923846D02*
X144629252Y-98422884D01*
D85*
X144700000Y-98493632D02*
X154968632Y-98493632D01*
D72*
X143450632Y-98086632D02*
X143843632Y-97693632D01*
D74*
X144399038Y-97693632D02*
X144629252Y-97923846D01*
%TO.N,DDR3_A10*%
D70*
X172010000Y-103124802D02*
X170171830Y-101286632D01*
X170086252Y-88649890D02*
X170049740Y-88613378D01*
X170171830Y-101286632D02*
X170136252Y-101286632D01*
X172010000Y-103500000D02*
X172010000Y-103124802D01*
%TO.N,DDR3_A8*%
X173839620Y-98990000D02*
X173736252Y-98886632D01*
X175500000Y-98990000D02*
X173839620Y-98990000D01*
%TO.N,DDR3_A7*%
X172500000Y-104892500D02*
X172530384Y-104892500D01*
X172530384Y-104892500D02*
X172936252Y-104486632D01*
%TO.N,DDR3_A6*%
X173300000Y-99092500D02*
X173142120Y-99092500D01*
X173142120Y-99092500D02*
X172936252Y-98886632D01*
%TO.N,DDR3_A2*%
X173525000Y-102900000D02*
X172949620Y-102900000D01*
X172949620Y-102900000D02*
X172936252Y-102886632D01*
%TO.N,DDR3_A5*%
X173300000Y-104892500D02*
X173300000Y-104414802D01*
X172444252Y-104178632D02*
X172136252Y-104486632D01*
X173300000Y-104414802D02*
X173063830Y-104178632D01*
X173063830Y-104178632D02*
X172444252Y-104178632D01*
X172851252Y-92486632D02*
X172937295Y-92486632D01*
%TO.N,DDR3_A4*%
X172051252Y-86886632D02*
X172136252Y-86886632D01*
X172101252Y-86886632D02*
X172136252Y-86886632D01*
X171510000Y-99512884D02*
X172136252Y-98886632D01*
X171510000Y-100000000D02*
X171510000Y-99512884D01*
%TO.N,DDR3_A3*%
X171800000Y-104950380D02*
X171336252Y-104486632D01*
X171800000Y-104992500D02*
X171800000Y-104950380D01*
%TO.N,DDR3_BA1*%
X172000000Y-98307500D02*
X171915384Y-98307500D01*
X171915384Y-98307500D02*
X171336252Y-98886632D01*
%TO.N,DDR3_BA0*%
X171343242Y-92486632D02*
X171343242Y-92835742D01*
X171343242Y-92835742D02*
X171407500Y-92900000D01*
%TO.N,/Power/VCCAUX*%
D67*
X131450000Y-81650000D02*
X131700000Y-81400000D01*
X131150000Y-81550000D02*
X130850000Y-81850000D01*
X131100000Y-80800000D02*
X131700000Y-81400000D01*
X131025000Y-80410000D02*
X131025000Y-80725000D01*
X131150000Y-80535000D02*
X131025000Y-80410000D01*
X131150000Y-81400000D02*
X131150000Y-80535000D01*
X130600000Y-81400000D02*
X131700000Y-81400000D01*
X131450000Y-81850000D02*
X131450000Y-81650000D01*
X130600000Y-81600000D02*
X130850000Y-81850000D01*
X130600000Y-81300000D02*
X131100000Y-80800000D01*
X132275000Y-80125000D02*
X132550000Y-80400000D01*
X130850000Y-81850000D02*
X131450000Y-81850000D01*
X131025000Y-80410000D02*
X132540000Y-80410000D01*
X131150000Y-81550000D02*
X131450000Y-81850000D01*
X132275000Y-79085000D02*
X132275000Y-80125000D01*
X130600000Y-81400000D02*
X130600000Y-81600000D01*
X130600000Y-81400000D02*
X130600000Y-81300000D01*
X131150000Y-81400000D02*
X131150000Y-81550000D01*
X131025000Y-80725000D02*
X131100000Y-80800000D01*
X130600000Y-80835000D02*
X131025000Y-80410000D01*
X132540000Y-80410000D02*
X132550000Y-80400000D01*
X130600000Y-81400000D02*
X130600000Y-80835000D01*
%TO.N,DDR3_A0*%
D70*
X170010000Y-102000000D02*
X170449620Y-102000000D01*
X170449620Y-102000000D02*
X171336252Y-102886632D01*
X171421252Y-90971632D02*
X171336252Y-90886632D01*
%TO.N,DDR3_A1*%
X172444252Y-97545748D02*
X172444252Y-99378632D01*
X173490000Y-96500000D02*
X172444252Y-97545748D01*
X172444252Y-99378632D02*
X172136252Y-99686632D01*
X173490000Y-96000000D02*
X173490000Y-96500000D01*
%TO.N,Net-(U1_B-PS_DDR_VRN_502)*%
D72*
X146224252Y-96824253D02*
X146224252Y-96074632D01*
X152202582Y-96898632D02*
X146298631Y-96898632D01*
X146298631Y-96898632D02*
X146224252Y-96824253D01*
X152503950Y-97200000D02*
X152202582Y-96898632D01*
X146224252Y-96074632D02*
X145836252Y-95686632D01*
%TO.N,Net-(U1_B-PS_DDR_VRP_502)*%
X151851368Y-94550000D02*
X152440000Y-94550000D01*
X147024252Y-94498632D02*
X151800000Y-94498632D01*
X146636252Y-94886632D02*
X147024252Y-94498632D01*
X151800000Y-94498632D02*
X151851368Y-94550000D01*
%TO.N,DDR3_CAS#*%
D70*
X169078632Y-102578632D02*
X168588632Y-102578632D01*
X169736252Y-102886632D02*
X169386632Y-102886632D01*
X169386632Y-102886632D02*
X169078632Y-102578632D01*
X168588632Y-102578632D02*
X168010000Y-102000000D01*
%TO.N,DDR3_ODT*%
X169586252Y-93201632D02*
X169021252Y-93201632D01*
X169021252Y-93201632D02*
X168936252Y-93286632D01*
X169992500Y-105800000D02*
X169449620Y-105800000D01*
X169449620Y-105800000D02*
X168936252Y-105286632D01*
%TO.N,DDR3_CS#*%
X170100000Y-104122884D02*
X169736252Y-104486632D01*
X170100000Y-104092500D02*
X170100000Y-104122884D01*
%TO.N,DDR3_WE#*%
X170543242Y-91660999D02*
X170543242Y-91635742D01*
X170543242Y-91635742D02*
X170100000Y-91192500D01*
%TO.N,DDR3_RAS#*%
D68*
X168938754Y-91686632D02*
X168943242Y-91691120D01*
%TO.N,PROGRAM_B*%
D74*
X143029252Y-91279632D02*
X143436252Y-91686632D01*
X143029252Y-88889252D02*
X143029252Y-91279632D01*
X142515000Y-88375000D02*
X143029252Y-88889252D01*
%TO.N,INIT_B*%
D66*
X122949885Y-92950000D02*
X122907202Y-92907317D01*
X123650000Y-92950000D02*
X122949885Y-92950000D01*
%TO.N,*%
D68*
X176300000Y-120000000D02*
X176825000Y-119475000D01*
X194375000Y-117775000D02*
X192125000Y-117775000D01*
X184750000Y-117775000D02*
X187000000Y-117775000D01*
X176150000Y-121275000D02*
X176225000Y-121350000D01*
X176150000Y-120000000D02*
X176300000Y-120000000D01*
X178100000Y-121350000D02*
X178125000Y-121375000D01*
X176825000Y-119475000D02*
X178100000Y-119475000D01*
X178100000Y-119475000D02*
X178100000Y-121350000D01*
X176150000Y-120000000D02*
X176150000Y-121275000D01*
%TO.N,SD0_CLK*%
D83*
X129850000Y-116850000D02*
X131140000Y-116850000D01*
%TO.N,*%
D80*
X163880000Y-122350000D02*
X165350000Y-122350000D01*
X166847997Y-122000000D02*
X167297997Y-122450000D01*
X165700000Y-122000000D02*
X166847997Y-122000000D01*
D69*
X165350000Y-122350000D02*
X165700000Y-122000000D01*
D80*
X169650000Y-122350000D02*
X171120000Y-122350000D01*
X169300000Y-122000000D02*
X168300000Y-122000000D01*
D69*
X169300000Y-122000000D02*
X169650000Y-122350000D01*
D80*
X168300000Y-122000000D02*
X167850000Y-122450000D01*
%TO.N,Net-(U2-ZQ)*%
D72*
X169800000Y-98822884D02*
X169736252Y-98886632D01*
X169800000Y-98010000D02*
X169800000Y-98822884D01*
%TO.N,1v8en*%
D70*
X160500000Y-79450001D02*
X160987501Y-78962500D01*
X174375000Y-83475000D02*
X178975000Y-88075000D01*
X164622500Y-78962500D02*
X168050000Y-75535000D01*
X170800000Y-83475000D02*
X174375000Y-83475000D01*
X178975000Y-88075000D02*
X178975000Y-90850000D01*
X168050000Y-75535000D02*
X168050000Y-80725000D01*
X168050000Y-80725000D02*
X170800000Y-83475000D01*
X160987501Y-78962500D02*
X164622500Y-78962500D01*
X160500000Y-80112500D02*
X160500000Y-79450001D01*
%TO.N,1v0en*%
D74*
X151437500Y-124800000D02*
X154000000Y-124800000D01*
X154700000Y-124100000D02*
X154700000Y-123310000D01*
X151237500Y-124600000D02*
X151437500Y-124800000D01*
X154000000Y-124800000D02*
X154700000Y-124100000D01*
%TO.N,*%
D69*
X176800000Y-116500000D02*
X174600000Y-118700000D01*
X174600000Y-118700000D02*
X174600000Y-119450000D01*
X171750000Y-120450000D02*
X173600000Y-120450000D01*
X173600000Y-120450000D02*
X174600000Y-119450000D01*
D78*
X172440000Y-119450000D02*
X172100000Y-119450000D01*
X172100000Y-119450000D02*
X171600000Y-118950000D01*
%TO.N,DDR3_VTT*%
D70*
X171007500Y-105600000D02*
X171007500Y-105322302D01*
X176853000Y-105232568D02*
X176853000Y-104445500D01*
D69*
X170100000Y-92724999D02*
X170100000Y-92007500D01*
X175798000Y-94609500D02*
X175798000Y-92217064D01*
X175964000Y-92051064D02*
X175964000Y-91256500D01*
D70*
X176500000Y-104092500D02*
X175907500Y-103500000D01*
X171644252Y-97394632D02*
X171336252Y-97086632D01*
X168517000Y-101527000D02*
X168990000Y-102000000D01*
X175907500Y-103500000D02*
X175600000Y-103500000D01*
X174510000Y-96000000D02*
X174037000Y-95527000D01*
X170807500Y-105800000D02*
X173207500Y-105800000D01*
X171742120Y-97492500D02*
X171336252Y-97086632D01*
X175500000Y-100000000D02*
X176500000Y-99000000D01*
D68*
X171336252Y-96173748D02*
X171500000Y-96010000D01*
D69*
X170592500Y-92900000D02*
X170275001Y-92900000D01*
D70*
X168990000Y-101500000D02*
X168990000Y-102000000D01*
X169490000Y-102500000D02*
X168990000Y-102000000D01*
D69*
X170500000Y-94907500D02*
X170000000Y-94907500D01*
D70*
X170807500Y-105800000D02*
X171007500Y-105600000D01*
X173300000Y-99907500D02*
X173300000Y-100660000D01*
X171007500Y-105322302D02*
X170592698Y-104907500D01*
D65*
X186138368Y-108011252D02*
X187688368Y-108011252D01*
X186138368Y-108011252D02*
X186138368Y-106586632D01*
D70*
X171644252Y-98214210D02*
X171644252Y-97394632D01*
X176853000Y-104445500D02*
X176500000Y-104092500D01*
X175415000Y-100800000D02*
X175415000Y-99992500D01*
X175415000Y-100800000D02*
X175062000Y-101153000D01*
X173207500Y-105800000D02*
X173300000Y-105707500D01*
D69*
X170592500Y-94315000D02*
X170592500Y-92900000D01*
D70*
X175700000Y-87400000D02*
X175929000Y-87629000D01*
X167463000Y-101527000D02*
X168517000Y-101527000D01*
X174340000Y-102900000D02*
X175000000Y-102900000D01*
D65*
X186138368Y-106586632D02*
X186150000Y-106575000D01*
D70*
X175929000Y-87629000D02*
X175929000Y-91100000D01*
D69*
X175798000Y-92217064D02*
X175964000Y-92051064D01*
D70*
X173793000Y-101153000D02*
X173540000Y-100900000D01*
D69*
X170000000Y-94907500D02*
X170592500Y-94315000D01*
D70*
X168990000Y-102000000D02*
X168990000Y-100613306D01*
X171983000Y-95527000D02*
X171500000Y-96010000D01*
X170490000Y-100000000D02*
X168990000Y-101500000D01*
X175500000Y-100010000D02*
X175500000Y-100000000D01*
X175000000Y-102900000D02*
X175600000Y-103500000D01*
D69*
X171500000Y-95907500D02*
X170500000Y-94907500D01*
D78*
X184700000Y-108000000D02*
X186127116Y-108000000D01*
X185725000Y-107000000D02*
X186150000Y-106575000D01*
D70*
X175062000Y-101153000D02*
X173793000Y-101153000D01*
D69*
X174407500Y-96000000D02*
X175798000Y-94609500D01*
D70*
X175415000Y-99992500D02*
X175500000Y-99907500D01*
X176378068Y-105707500D02*
X176853000Y-105232568D01*
D68*
X171336252Y-97086632D02*
X171336252Y-96173748D01*
D70*
X172000000Y-97492500D02*
X171742120Y-97492500D01*
X173300000Y-105707500D02*
X176378068Y-105707500D01*
D78*
X184700000Y-107000000D02*
X185725000Y-107000000D01*
D70*
X170585198Y-102500000D02*
X169490000Y-102500000D01*
D69*
X170275001Y-92900000D02*
X170100000Y-92724999D01*
D70*
X171208674Y-98394632D02*
X171463830Y-98394632D01*
D78*
X186127116Y-108000000D02*
X186138368Y-108011252D01*
D70*
X170592698Y-104907500D02*
X170100000Y-104907500D01*
X170990000Y-102904802D02*
X170585198Y-102500000D01*
X168990000Y-100613306D02*
X171208674Y-98394632D01*
X166990000Y-102000000D02*
X167463000Y-101527000D01*
X170990000Y-103500000D02*
X170990000Y-102904802D01*
X173300000Y-100660000D02*
X173540000Y-100900000D01*
D69*
X175964000Y-91256500D02*
X175807500Y-91100000D01*
D70*
X171463830Y-98394632D02*
X171644252Y-98214210D01*
X174037000Y-95527000D02*
X171983000Y-95527000D01*
%TO.N,/Power/1V8_CS*%
D68*
X162400000Y-80112500D02*
X163087500Y-80800000D01*
X162400000Y-80112500D02*
X162400000Y-82137500D01*
X163087500Y-80800000D02*
X165500000Y-80800000D01*
%TO.N,/Power/1V8TOLX*%
X162400000Y-74387500D02*
X162250000Y-74237500D01*
X162400000Y-77837500D02*
X162400000Y-74387500D01*
%TO.N,*%
D67*
X179052500Y-113452500D02*
X179325000Y-113725000D01*
X178110000Y-113452500D02*
X179052500Y-113452500D01*
%TO.N,Net-(R95-Pad2)*%
X187275000Y-96925000D02*
X187085000Y-97115000D01*
X187275000Y-96075000D02*
X187275000Y-96925000D01*
%TO.N,/Power/1V35_CS*%
D78*
X182517500Y-93085000D02*
X182967500Y-93085000D01*
X182967500Y-93085000D02*
X183975000Y-92077500D01*
D81*
X184087500Y-94487500D02*
X184087500Y-91727500D01*
D78*
X184087500Y-91727500D02*
X183975000Y-91615000D01*
X183975000Y-92077500D02*
X183975000Y-91615000D01*
X184100000Y-94500000D02*
X184087500Y-94487500D01*
%TO.N,/Power/3V3_CS*%
D67*
X112570000Y-121650000D02*
X112495000Y-121725000D01*
X112570000Y-119100000D02*
X112570000Y-119700000D01*
X113445000Y-120575000D02*
X114895000Y-120575000D01*
X115520000Y-119950000D02*
X115520000Y-119075000D01*
X112570000Y-119100000D02*
X112570000Y-121650000D01*
X112570000Y-119700000D02*
X113445000Y-120575000D01*
X114895000Y-120575000D02*
X115520000Y-119950000D01*
%TO.N,Net-(U3-REFOUT)*%
D66*
X181820000Y-108070000D02*
X181750000Y-108000000D01*
X181820000Y-109750000D02*
X181820000Y-108070000D01*
%TO.N,Net-(U23-FB)*%
D78*
X186065000Y-97115000D02*
X186065000Y-96065000D01*
X186065000Y-96065000D02*
X186000000Y-96000000D01*
D67*
X186065000Y-97115000D02*
X185095000Y-97115000D01*
%TO.N,Net-(U23-SW)*%
D78*
X181387500Y-94965000D02*
X184065000Y-94965000D01*
X184065000Y-94965000D02*
X184100000Y-95000000D01*
%TO.N,/Power/3V3TOLX*%
D67*
X115325000Y-116825000D02*
X115500000Y-117000000D01*
X112570000Y-116825000D02*
X115325000Y-116825000D01*
%TO.N,/Power/1V0TOLX*%
D68*
X145850000Y-120150000D02*
X148400000Y-122700000D01*
X148400000Y-122700000D02*
X148962500Y-122700000D01*
%TD*%
%TA.AperFunction,Conductor*%
%TO.N,GND*%
G36*
X146592720Y-116479170D02*
G01*
X146630314Y-116489173D01*
X146644566Y-116492966D01*
X146699909Y-116524665D01*
X146726112Y-116550600D01*
X146759912Y-116611750D01*
X146759021Y-116625165D01*
X146763134Y-116633042D01*
X146777207Y-116689154D01*
X146797790Y-118685641D01*
X146795628Y-118710012D01*
X146787914Y-118750709D01*
X146769626Y-118795842D01*
X146753737Y-118819956D01*
X146719480Y-118854567D01*
X146695529Y-118870704D01*
X146650594Y-118889452D01*
X146609986Y-118897585D01*
X146585635Y-118900000D01*
X143539166Y-118900000D01*
X143507279Y-118895830D01*
X143455431Y-118882033D01*
X143400090Y-118850334D01*
X143373887Y-118824399D01*
X143341621Y-118769390D01*
X143327289Y-118717684D01*
X143322791Y-118685840D01*
X143322789Y-118685641D01*
X143302209Y-116689349D01*
X143304370Y-116664994D01*
X143312086Y-116624286D01*
X143330372Y-116579159D01*
X143346263Y-116555041D01*
X143380517Y-116520433D01*
X143404470Y-116504294D01*
X143449407Y-116485546D01*
X143490017Y-116477413D01*
X143514365Y-116475000D01*
X146560834Y-116475000D01*
X146592720Y-116479170D01*
G37*
%TD.AperFunction*%
%TD*%
%TA.AperFunction,Conductor*%
%TO.N,GND*%
G36*
X120455701Y-97951134D02*
G01*
X120515027Y-97962934D01*
X120536295Y-97971744D01*
X120581663Y-98002059D01*
X120597940Y-98018336D01*
X120628255Y-98063704D01*
X120637065Y-98084972D01*
X120648866Y-98144297D01*
X120650000Y-98155808D01*
X120650000Y-102094191D01*
X120648866Y-102105702D01*
X120637065Y-102165027D01*
X120628255Y-102186295D01*
X120597940Y-102231663D01*
X120581663Y-102247940D01*
X120536295Y-102278255D01*
X120515027Y-102287065D01*
X120472884Y-102295447D01*
X120455700Y-102298866D01*
X120444191Y-102300000D01*
X116455809Y-102300000D01*
X116444299Y-102298866D01*
X116419446Y-102293922D01*
X116384972Y-102287065D01*
X116363704Y-102278255D01*
X116318336Y-102247940D01*
X116302059Y-102231663D01*
X116271744Y-102186295D01*
X116262934Y-102165027D01*
X116251134Y-102105701D01*
X116250000Y-102094191D01*
X116250000Y-98155808D01*
X116251134Y-98144298D01*
X116251134Y-98144297D01*
X116262935Y-98084970D01*
X116271742Y-98063707D01*
X116302060Y-98018334D01*
X116318334Y-98002060D01*
X116363707Y-97971742D01*
X116384970Y-97962935D01*
X116444299Y-97951134D01*
X116455809Y-97950000D01*
X120444191Y-97950000D01*
X120455701Y-97951134D01*
G37*
%TD.AperFunction*%
%TD*%
%TA.AperFunction,Conductor*%
%TO.N,P3V3*%
G36*
X117111971Y-110627381D02*
G01*
X117152346Y-110635412D01*
X117197043Y-110653927D01*
X117220913Y-110669877D01*
X117255122Y-110704086D01*
X117271072Y-110727956D01*
X117289588Y-110772655D01*
X117297617Y-110813020D01*
X117300000Y-110837210D01*
X117300000Y-113387789D01*
X117297617Y-113411982D01*
X117289588Y-113452344D01*
X117271072Y-113497043D01*
X117255122Y-113520913D01*
X117220913Y-113555122D01*
X117197043Y-113571072D01*
X117152344Y-113589588D01*
X117135841Y-113592870D01*
X117111978Y-113597617D01*
X117087789Y-113600000D01*
X114037211Y-113600000D01*
X114013020Y-113597617D01*
X113997744Y-113594578D01*
X113972656Y-113589588D01*
X113927956Y-113571072D01*
X113904086Y-113555122D01*
X113869877Y-113520913D01*
X113853927Y-113497043D01*
X113835412Y-113452346D01*
X113827381Y-113411971D01*
X113825000Y-113387789D01*
X113825000Y-110837210D01*
X113827381Y-110813029D01*
X113835412Y-110772651D01*
X113853927Y-110727956D01*
X113869877Y-110704086D01*
X113904086Y-110669877D01*
X113927956Y-110653927D01*
X113972653Y-110635412D01*
X114013027Y-110627381D01*
X114037211Y-110625000D01*
X117087789Y-110625000D01*
X117111971Y-110627381D01*
G37*
%TD.AperFunction*%
%TD*%
%TA.AperFunction,Conductor*%
%TO.N,P1.8V*%
G36*
X159509705Y-72152942D02*
G01*
X159554148Y-72162799D01*
X159602812Y-72185502D01*
X159627885Y-72204752D01*
X159669073Y-72261191D01*
X159669288Y-72264825D01*
X159671501Y-72267690D01*
X159693165Y-72311473D01*
X160992169Y-77170707D01*
X160994000Y-77178578D01*
X160995936Y-77188333D01*
X160996718Y-77192270D01*
X160998824Y-77208306D01*
X160999735Y-77222225D01*
X161000000Y-77230323D01*
X161000000Y-78285925D01*
X160997590Y-78310251D01*
X160989472Y-78350827D01*
X160970752Y-78395737D01*
X160954640Y-78419676D01*
X160920085Y-78453925D01*
X160896004Y-78469822D01*
X160850928Y-78488140D01*
X160810277Y-78495896D01*
X160785931Y-78498088D01*
X157710714Y-78470631D01*
X155614443Y-78451913D01*
X155582569Y-78447451D01*
X155530811Y-78433170D01*
X155475721Y-78400926D01*
X155449745Y-78374717D01*
X155417997Y-78319347D01*
X155404176Y-78267459D01*
X155400000Y-78235548D01*
X155400000Y-72362210D01*
X155402381Y-72338029D01*
X155410412Y-72297651D01*
X155428927Y-72252956D01*
X155444877Y-72229086D01*
X155479086Y-72194877D01*
X155502956Y-72178927D01*
X155547653Y-72160412D01*
X155588027Y-72152381D01*
X155612211Y-72150000D01*
X159482856Y-72150000D01*
X159509705Y-72152942D01*
G37*
%TD.AperFunction*%
%TD*%
%TA.AperFunction,Conductor*%
%TO.N,P3V3*%
G36*
X130286971Y-112277381D02*
G01*
X130327346Y-112285412D01*
X130372043Y-112303927D01*
X130395913Y-112319877D01*
X130430122Y-112354086D01*
X130446072Y-112377956D01*
X130464588Y-112422655D01*
X130472617Y-112463020D01*
X130475000Y-112487210D01*
X130475000Y-114650000D01*
X130512836Y-114699186D01*
X130512859Y-114699218D01*
X130842032Y-115127142D01*
X131177314Y-115563008D01*
X131188332Y-115580057D01*
X131204663Y-115610545D01*
X131217695Y-115648859D01*
X131223338Y-115682974D01*
X131225000Y-115703210D01*
X131225000Y-115771090D01*
X131220732Y-115803344D01*
X131211875Y-115836222D01*
X131179471Y-115892001D01*
X131167363Y-115904012D01*
X131111330Y-115935965D01*
X131078384Y-115944558D01*
X131046097Y-115948568D01*
X128314639Y-115926716D01*
X128282741Y-115922279D01*
X128272172Y-115919371D01*
X128230942Y-115908029D01*
X128175804Y-115875802D01*
X128149800Y-115849589D01*
X128118018Y-115794199D01*
X128104181Y-115742282D01*
X128100000Y-115710354D01*
X128100000Y-112487210D01*
X128102381Y-112463029D01*
X128110412Y-112422651D01*
X128128927Y-112377956D01*
X128144877Y-112354086D01*
X128179086Y-112319877D01*
X128202956Y-112303927D01*
X128247653Y-112285412D01*
X128288027Y-112277381D01*
X128312211Y-112275000D01*
X130262789Y-112275000D01*
X130286971Y-112277381D01*
G37*
%TD.AperFunction*%
%TD*%
%TA.AperFunction,NonConductor*%
G36*
X176446995Y-119144685D02*
G01*
X176492750Y-119197489D01*
X176502694Y-119266647D01*
X176473669Y-119330203D01*
X176467637Y-119336681D01*
X176191137Y-119613181D01*
X176129814Y-119646666D01*
X176105647Y-119649264D01*
X176103856Y-119649500D01*
X176014712Y-119673386D01*
X176014711Y-119673386D01*
X176014709Y-119673387D01*
X176014708Y-119673387D01*
X175961000Y-119704396D01*
X175899000Y-119597009D01*
X175858062Y-119479962D01*
X175903749Y-119463982D01*
X175799297Y-119322725D01*
X175775266Y-119257118D01*
X175790520Y-119188933D01*
X175840215Y-119139820D01*
X175899000Y-119125000D01*
X176379956Y-119125000D01*
X176446995Y-119144685D01*
G37*
%TD.AperFunction*%
%TA.AperFunction,Conductor*%
%TO.N,P4V5*%
G36*
X249074046Y-98810687D02*
G01*
X250384430Y-99393080D01*
X250413128Y-99410864D01*
X251850000Y-100600000D01*
X251850000Y-100599999D01*
X251850001Y-100600000D01*
X251900224Y-100599202D01*
X254963843Y-100550573D01*
X255030794Y-100568950D01*
X255590989Y-100913686D01*
X255637766Y-100965584D01*
X255650000Y-101019290D01*
X255650000Y-105276000D01*
X255630315Y-105343039D01*
X255577511Y-105388794D01*
X255526000Y-105400000D01*
X251009911Y-105400000D01*
X250990220Y-105398427D01*
X244044737Y-104281321D01*
X243981674Y-104251240D01*
X243944885Y-104191840D01*
X243946050Y-104121980D01*
X243976746Y-104071214D01*
X244007488Y-104040473D01*
X244065481Y-103940027D01*
X244095500Y-103827993D01*
X244095500Y-103712007D01*
X244065481Y-103599973D01*
X244007488Y-103499527D01*
X243925473Y-103417512D01*
X243875250Y-103388515D01*
X243825028Y-103359519D01*
X243769010Y-103344509D01*
X243712993Y-103329500D01*
X243597007Y-103329500D01*
X243484971Y-103359519D01*
X243384527Y-103417512D01*
X243384524Y-103417514D01*
X243302514Y-103499524D01*
X243302512Y-103499527D01*
X243244519Y-103599971D01*
X243214500Y-103712007D01*
X243214500Y-103827992D01*
X243216335Y-103834840D01*
X243214672Y-103904690D01*
X243175509Y-103962552D01*
X243111281Y-103990056D01*
X243057186Y-103984516D01*
X238180398Y-102351463D01*
X237853529Y-102242007D01*
X240859500Y-102242007D01*
X240859500Y-102357992D01*
X240889519Y-102470028D01*
X240901339Y-102490500D01*
X240947512Y-102570473D01*
X241029527Y-102652488D01*
X241129973Y-102710481D01*
X241242007Y-102740500D01*
X241242009Y-102740500D01*
X241357991Y-102740500D01*
X241357993Y-102740500D01*
X241470027Y-102710481D01*
X241570473Y-102652488D01*
X241652488Y-102570473D01*
X241692613Y-102500974D01*
X241743180Y-102452759D01*
X241811787Y-102439537D01*
X241876652Y-102465505D01*
X241907386Y-102500974D01*
X241947512Y-102570473D01*
X242029527Y-102652488D01*
X242129973Y-102710481D01*
X242242007Y-102740500D01*
X242242009Y-102740500D01*
X242357991Y-102740500D01*
X242357993Y-102740500D01*
X242470027Y-102710481D01*
X242570473Y-102652488D01*
X242652488Y-102570473D01*
X242710481Y-102470027D01*
X242740500Y-102357993D01*
X242740500Y-102242007D01*
X242727103Y-102192007D01*
X245909500Y-102192007D01*
X245909500Y-102307992D01*
X245939519Y-102420028D01*
X245950783Y-102439537D01*
X245997512Y-102520473D01*
X246079527Y-102602488D01*
X246179973Y-102660481D01*
X246292007Y-102690500D01*
X246292009Y-102690500D01*
X246407991Y-102690500D01*
X246407993Y-102690500D01*
X246520027Y-102660481D01*
X246620473Y-102602488D01*
X246702488Y-102520473D01*
X246760481Y-102420027D01*
X246790500Y-102307993D01*
X246790500Y-102192007D01*
X246760481Y-102079973D01*
X246702488Y-101979527D01*
X246620473Y-101897512D01*
X246554635Y-101859500D01*
X246520028Y-101839519D01*
X246464010Y-101824509D01*
X246407993Y-101809500D01*
X246292007Y-101809500D01*
X246179971Y-101839519D01*
X246079527Y-101897512D01*
X246079524Y-101897514D01*
X245997514Y-101979524D01*
X245997512Y-101979527D01*
X245939519Y-102079971D01*
X245909500Y-102192007D01*
X242727103Y-102192007D01*
X242710481Y-102129973D01*
X242652488Y-102029527D01*
X242570473Y-101947512D01*
X242483875Y-101897514D01*
X242470028Y-101889519D01*
X242390197Y-101868129D01*
X242357993Y-101859500D01*
X242242007Y-101859500D01*
X242129971Y-101889519D01*
X242029527Y-101947512D01*
X242029524Y-101947514D01*
X241947514Y-102029524D01*
X241947512Y-102029527D01*
X241907387Y-102099025D01*
X241856819Y-102147240D01*
X241788212Y-102160462D01*
X241723347Y-102134494D01*
X241692613Y-102099025D01*
X241681612Y-102079971D01*
X241652488Y-102029527D01*
X241570473Y-101947512D01*
X241483875Y-101897514D01*
X241470028Y-101889519D01*
X241390197Y-101868129D01*
X241357993Y-101859500D01*
X241242007Y-101859500D01*
X241129971Y-101889519D01*
X241029527Y-101947512D01*
X241029524Y-101947514D01*
X240947514Y-102029524D01*
X240947512Y-102029527D01*
X240889519Y-102129971D01*
X240859500Y-102242007D01*
X237853529Y-102242007D01*
X236737017Y-101868129D01*
X236679697Y-101828176D01*
X236653077Y-101763576D01*
X236665609Y-101694839D01*
X236713312Y-101643789D01*
X236744292Y-101630773D01*
X236820027Y-101610481D01*
X236920473Y-101552488D01*
X237002488Y-101470473D01*
X237057047Y-101375975D01*
X237107614Y-101327759D01*
X237176221Y-101314537D01*
X237241086Y-101340505D01*
X237271820Y-101375974D01*
X237297512Y-101420473D01*
X237379527Y-101502488D01*
X237479973Y-101560481D01*
X237592007Y-101590500D01*
X237592009Y-101590500D01*
X237707991Y-101590500D01*
X237707993Y-101590500D01*
X237820027Y-101560481D01*
X237920473Y-101502488D01*
X238002488Y-101420473D01*
X238060481Y-101320027D01*
X238090500Y-101207993D01*
X238090500Y-101092007D01*
X243209500Y-101092007D01*
X243209500Y-101207992D01*
X243239519Y-101320028D01*
X243243983Y-101327759D01*
X243297512Y-101420473D01*
X243379527Y-101502488D01*
X243479973Y-101560481D01*
X243592007Y-101590500D01*
X243592009Y-101590500D01*
X243707991Y-101590500D01*
X243707993Y-101590500D01*
X243820027Y-101560481D01*
X243920473Y-101502488D01*
X244002488Y-101420473D01*
X244060481Y-101320027D01*
X244090500Y-101207993D01*
X244090500Y-101092007D01*
X244060481Y-100979973D01*
X244057047Y-100974026D01*
X244031359Y-100929533D01*
X244002488Y-100879527D01*
X243920473Y-100797512D01*
X243854635Y-100759500D01*
X243820028Y-100739519D01*
X243754894Y-100722067D01*
X243707993Y-100709500D01*
X243592007Y-100709500D01*
X243479971Y-100739519D01*
X243379527Y-100797512D01*
X243379524Y-100797514D01*
X243297514Y-100879524D01*
X243297512Y-100879527D01*
X243239519Y-100979971D01*
X243209500Y-101092007D01*
X238090500Y-101092007D01*
X238060481Y-100979973D01*
X238057047Y-100974026D01*
X238031359Y-100929533D01*
X238002488Y-100879527D01*
X237920473Y-100797512D01*
X237854635Y-100759500D01*
X237820028Y-100739519D01*
X237754894Y-100722067D01*
X237707993Y-100709500D01*
X237592007Y-100709500D01*
X237479971Y-100739519D01*
X237379527Y-100797512D01*
X237379524Y-100797514D01*
X237297514Y-100879524D01*
X237297510Y-100879530D01*
X237242951Y-100974026D01*
X237192383Y-101022241D01*
X237123776Y-101035462D01*
X237058912Y-101009493D01*
X237028178Y-100974023D01*
X237002492Y-100929533D01*
X237002489Y-100929530D01*
X237002488Y-100929527D01*
X236920473Y-100847512D01*
X236833875Y-100797514D01*
X236820028Y-100789519D01*
X236764010Y-100774509D01*
X236707993Y-100759500D01*
X236592007Y-100759500D01*
X236479971Y-100789519D01*
X236379527Y-100847512D01*
X236379524Y-100847514D01*
X236297514Y-100929524D01*
X236297512Y-100929527D01*
X236239519Y-101029971D01*
X236209500Y-101142007D01*
X236209500Y-101257992D01*
X236239519Y-101370028D01*
X236242953Y-101375975D01*
X236297512Y-101470473D01*
X236297514Y-101470475D01*
X236301530Y-101474491D01*
X236335015Y-101535814D01*
X236330031Y-101605506D01*
X236288159Y-101661439D01*
X236222695Y-101685856D01*
X236174475Y-101679755D01*
X233314530Y-100722067D01*
X233257210Y-100682114D01*
X233230590Y-100617514D01*
X233243122Y-100548777D01*
X233290825Y-100497727D01*
X233317146Y-100486057D01*
X236604766Y-99465762D01*
X238732047Y-98805572D01*
X238768800Y-98800000D01*
X249023685Y-98800000D01*
X249074046Y-98810687D01*
G37*
%TD.AperFunction*%
%TD*%
M02*
