M48
; DRILL file KiCad 10.0.0 date 2026-04-24T11:32:19
; FORMAT={-:-/ absolute / metric / decimal}
; #@! TF.CreationDate,2026-04-24T11:32:19-04:00
; #@! TF.GenerationSoftware,Kicad,Pcbnew,10.0.0
; #@! TF.FileFunction,Plated,1,12,PTH
FMAT,2
METRIC
; #@! TA.AperFunction,Plated,PTH,ViaDrill
T1C0.150
; #@! TA.AperFunction,Plated,PTH,ViaDrill
T2C0.200
; #@! TA.AperFunction,Plated,PTH,ViaDrill
T3C0.250
; #@! TA.AperFunction,Plated,PTH,ComponentDrill
T4C0.300
; #@! TA.AperFunction,Plated,PTH,ComponentDrill
T5C0.650
; #@! TA.AperFunction,Plated,PTH,ComponentDrill
T6C0.900
; #@! TA.AperFunction,Plated,PTH,ComponentDrill
T7C1.000
%
G90
G05
T1
X134.63Y-98.066
X134.636Y-92.487
X134.636Y-97.287
X134.636Y-102.087
X134.636Y-104.487
X134.639Y-96.484
X134.641Y-95.686
X134.643Y-98.88
X134.65Y-101.3
X135.42Y-103.67
X135.436Y-87.687
X135.436Y-89.287
X135.436Y-90.087
X135.436Y-91.687
X135.436Y-92.487
X135.436Y-94.887
X135.436Y-97.287
X135.436Y-98.087
X135.436Y-100.487
X135.439Y-98.886
X135.443Y-94.084
X135.447Y-95.69
X135.45Y-93.3
X136.232Y-90.875
X136.236Y-87.687
X136.236Y-88.487
X136.236Y-89.287
X136.236Y-91.687
X136.236Y-97.287
X136.236Y-98.087
X136.239Y-100.493
X136.24Y-93.276
X136.241Y-94.89
X136.243Y-95.698
X136.247Y-92.486
X136.25Y-90.1
X136.25Y-96.5
X136.25Y-98.9
X136.25Y-101.3
X136.25Y-102.9
X136.259Y-94.081
X137.036Y-94.081
X137.036Y-87.652
X137.036Y-88.487
X137.036Y-90.887
X137.036Y-94.887
X137.036Y-95.687
X137.039Y-96.484
X137.042Y-92.494
X137.047Y-97.295
X137.05Y-89.3
X137.05Y-90.1
X137.05Y-93.3
X137.05Y-102.1
X137.799Y-86.539
X137.832Y-98.087
X137.834Y-94.882
X137.836Y-88.487
X137.836Y-101.287
X137.841Y-93.28
X137.841Y-94.097
X137.841Y-97.296
X137.843Y-99.692
X137.845Y-92.498
X137.85Y-90.1
X137.85Y-96.5
X137.85Y-103.7
X137.851Y-95.681
X137.854Y-91.682
X137.86Y-90.884
X138.611Y-88.487
X138.633Y-94.89
X138.636Y-99.671
X138.636Y-90.087
X138.636Y-90.887
X138.636Y-91.687
X138.636Y-93.287
X138.636Y-94.087
X138.636Y-97.287
X138.636Y-98.887
X138.637Y-95.69
X138.64Y-98.084
X138.644Y-92.481
X138.644Y-96.486
X138.65Y-89.3
X138.65Y-101.3
X138.65Y-102.1
X138.65Y-103.697
X139.436Y-97.293
X139.436Y-98.095
X139.436Y-87.687
X139.436Y-89.287
X139.436Y-96.487
X139.436Y-102.087
X139.436Y-104.487
X139.439Y-94.887
X139.446Y-101.299
X139.448Y-92.49
X139.448Y-95.686
X139.45Y-90.9
X139.45Y-91.7
X139.45Y-99.7
X139.45Y-102.9
X139.45Y-105.3
X139.452Y-93.289
X139.452Y-94.092
X140.233Y-90.08
X140.236Y-87.687
X140.236Y-89.287
X140.236Y-90.887
X140.236Y-91.687
X140.236Y-92.487
X140.236Y-93.287
X140.236Y-94.087
X140.236Y-94.887
X140.236Y-96.487
X140.236Y-97.287
X140.236Y-98.087
X140.236Y-101.287
X140.236Y-102.087
X140.236Y-103.687
X140.25Y-98.9
X140.251Y-95.678
X141.011Y-89.287
X141.036Y-86.887
X141.036Y-87.687
X141.036Y-90.887
X141.036Y-91.687
X141.036Y-92.487
X141.036Y-93.287
X141.036Y-94.087
X141.036Y-94.887
X141.036Y-96.487
X141.036Y-97.287
X141.036Y-98.087
X141.036Y-98.887
X141.036Y-99.687
X141.036Y-100.487
X141.036Y-101.287
X141.036Y-102.887
X141.036Y-103.687
X141.036Y-104.487
X141.05Y-90.1
X141.811Y-96.487
X141.836Y-88.487
X141.836Y-89.287
X141.836Y-90.087
X141.836Y-92.487
X141.836Y-93.287
X141.836Y-94.087
X141.836Y-94.887
X141.836Y-95.687
X141.836Y-97.287
X141.836Y-98.087
X141.836Y-98.887
X141.836Y-99.687
X141.836Y-101.287
X141.836Y-102.087
X141.836Y-102.887
X141.836Y-104.487
X141.85Y-90.9
X141.85Y-91.7
X142.633Y-89.287
X142.636Y-90.087
X142.636Y-90.887
X142.636Y-96.487
X142.636Y-97.287
X142.636Y-98.087
X142.636Y-98.887
X142.636Y-99.687
X142.636Y-101.287
X142.636Y-102.087
X142.636Y-102.887
X142.636Y-103.687
X142.636Y-104.487
X142.637Y-100.483
X143.436Y-89.287
X143.436Y-90.087
X143.436Y-91.687
X143.436Y-92.487
X143.436Y-93.287
X143.436Y-94.087
X143.436Y-94.887
X143.436Y-96.487
X143.436Y-97.287
X143.436Y-98.087
X143.436Y-100.487
X143.436Y-101.287
X143.436Y-102.087
X143.436Y-102.887
X143.45Y-90.9
X143.811Y-104.962
X144.236Y-87.687
X144.236Y-88.487
X144.236Y-90.887
X144.236Y-91.687
X144.236Y-92.487
X144.236Y-93.287
X144.236Y-94.087
X144.236Y-94.887
X144.236Y-95.687
X144.236Y-96.487
X144.236Y-97.287
X144.236Y-98.087
X144.236Y-98.887
X144.236Y-99.687
X144.236Y-100.487
X144.236Y-101.287
X144.236Y-102.087
X144.26Y-86.461
X145.036Y-87.687
X145.036Y-88.487
X145.036Y-89.287
X145.036Y-90.887
X145.036Y-91.687
X145.036Y-92.487
X145.036Y-93.287
X145.036Y-94.087
X145.036Y-95.687
X145.036Y-96.487
X145.036Y-97.287
X145.036Y-98.087
X145.036Y-98.887
X145.036Y-99.687
X145.036Y-100.487
X145.036Y-101.287
X145.036Y-102.887
X145.036Y-103.687
X145.048Y-90.095
X145.436Y-86.487
X145.6Y-85.75
X145.836Y-87.687
X145.836Y-88.487
X145.836Y-90.887
X145.836Y-91.687
X145.836Y-92.487
X145.836Y-93.287
X145.836Y-94.087
X145.836Y-95.687
X145.836Y-96.487
X145.836Y-97.287
X145.836Y-98.087
X145.836Y-98.887
X145.836Y-99.687
X145.836Y-100.487
X145.836Y-101.287
X145.836Y-102.087
X145.836Y-102.887
X145.836Y-103.687
X145.836Y-104.487
X145.843Y-89.274
X145.85Y-90.1
X146.25Y-85.75
X146.63Y-93.283
X146.636Y-103.67
X146.636Y-87.687
X146.636Y-88.487
X146.636Y-90.087
X146.636Y-91.687
X146.636Y-92.487
X146.636Y-94.087
X146.636Y-94.887
X146.636Y-96.487
X146.636Y-97.287
X146.636Y-98.087
X146.636Y-98.887
X146.636Y-99.687
X146.636Y-100.487
X146.636Y-101.287
X146.636Y-102.087
X146.636Y-102.889
X146.636Y-104.487
X146.646Y-90.885
X146.65Y-89.3
X147.436Y-87.687
X147.436Y-88.487
X147.436Y-90.087
X147.436Y-91.687
X147.436Y-92.487
X147.436Y-93.287
X147.436Y-94.087
X147.436Y-95.687
X147.436Y-96.487
X147.436Y-97.287
X147.436Y-98.087
X147.436Y-98.887
X147.436Y-99.687
X147.436Y-100.487
X147.436Y-102.087
X147.436Y-102.887
X147.436Y-103.687
X147.443Y-101.287
X147.458Y-90.902
X148.236Y-86.887
X148.236Y-87.687
X148.236Y-88.487
X148.236Y-89.287
X148.236Y-90.087
X148.236Y-91.687
X148.236Y-92.487
X148.236Y-93.287
X148.236Y-94.087
X148.236Y-94.887
X148.236Y-95.687
X148.236Y-96.487
X148.236Y-97.287
X148.236Y-98.087
X148.236Y-98.887
X148.236Y-101.287
X148.236Y-102.087
X148.236Y-102.887
X148.236Y-105.187
X148.237Y-99.675
X148.249Y-90.907
X149.029Y-94.892
X149.036Y-86.887
X149.036Y-87.687
X149.036Y-88.487
X149.036Y-89.287
X149.036Y-90.087
X149.036Y-92.487
X149.036Y-93.287
X149.036Y-94.087
X149.036Y-96.487
X149.036Y-97.287
X149.036Y-98.087
X149.036Y-98.887
X149.036Y-99.682
X149.036Y-101.287
X149.036Y-102.887
X149.036Y-103.687
X149.036Y-104.487
X149.041Y-100.498
X149.836Y-86.887
X149.836Y-87.687
X149.836Y-88.487
X149.836Y-89.287
X149.836Y-90.087
X149.836Y-90.887
X149.836Y-91.687
X149.836Y-92.487
X149.836Y-93.287
X149.836Y-94.087
X149.836Y-94.887
X149.836Y-96.487
X149.836Y-97.287
X149.836Y-98.087
X149.836Y-98.887
X149.836Y-99.687
X149.836Y-100.487
X149.836Y-101.287
X149.836Y-102.087
X149.836Y-103.687
X149.836Y-104.487
X150.636Y-86.887
X150.636Y-87.687
X150.636Y-88.487
X150.636Y-89.287
X150.636Y-90.087
X150.636Y-90.887
X150.636Y-91.687
X150.636Y-92.487
X150.636Y-93.287
X150.636Y-94.087
X150.636Y-94.887
X150.636Y-96.487
X150.636Y-97.287
X150.636Y-98.087
X150.636Y-98.887
X150.636Y-99.687
X150.636Y-100.487
X150.636Y-102.087
X150.636Y-102.887
X150.636Y-103.687
X151.036Y-86.387
X151.436Y-87.687
X151.436Y-89.287
X151.436Y-90.087
X151.436Y-90.887
X151.436Y-91.687
X151.436Y-92.487
X151.436Y-93.287
X151.436Y-94.087
X151.436Y-94.887
X151.436Y-96.487
X151.436Y-97.287
X151.436Y-98.087
X151.436Y-99.687
X151.436Y-100.487
X151.436Y-101.287
X151.436Y-102.083
X151.438Y-102.869
X151.439Y-103.704
X152.036Y-90.487
X152.336Y-98.087
X161.714Y-86.172
X161.736Y-87.687
X161.736Y-90.887
X161.736Y-91.687
X161.736Y-93.287
X161.736Y-98.087
X161.736Y-98.887
X161.736Y-99.687
X161.736Y-102.887
X161.736Y-103.687
X161.736Y-105.287
X162.529Y-103.682
X162.536Y-86.087
X162.536Y-86.887
X162.536Y-87.687
X162.536Y-88.487
X162.536Y-90.887
X162.536Y-91.687
X162.536Y-93.287
X162.536Y-98.087
X162.536Y-98.887
X162.536Y-99.687
X162.536Y-102.887
X162.536Y-105.287
X163.268Y-91.68
X163.336Y-86.887
X163.336Y-88.487
X163.336Y-90.687
X163.336Y-98.087
X163.336Y-98.887
X163.336Y-99.687
X163.336Y-102.087
X163.336Y-102.887
X163.336Y-105.287
X163.343Y-86.094
X164.11Y-93.28
X164.124Y-104.48
X164.129Y-91.68
X164.136Y-86.887
X164.136Y-87.687
X164.136Y-90.887
X164.136Y-98.887
X164.136Y-99.687
X164.136Y-102.087
X164.136Y-105.287
X164.154Y-98.087
X164.183Y-86.089
X164.936Y-86.087
X164.936Y-86.887
X164.936Y-91.687
X164.936Y-93.287
X164.936Y-98.887
X164.936Y-104.487
X164.936Y-105.287
X164.94Y-98.087
X165.455Y-100.686
X165.736Y-86.087
X165.736Y-86.887
X165.736Y-87.687
X165.736Y-88.537
X165.736Y-98.887
X165.736Y-99.687
X165.736Y-102.887
X165.736Y-104.487
X165.736Y-105.287
X165.742Y-98.087
X165.811Y-93.612
X166.536Y-86.087
X166.536Y-86.887
X166.536Y-87.687
X166.536Y-90.887
X166.536Y-91.687
X166.536Y-93.487
X166.536Y-98.887
X166.536Y-99.687
X166.536Y-102.887
X166.536Y-103.687
X166.536Y-104.487
X166.536Y-105.287
X166.54Y-98.094
X166.586Y-92.487
X167.136Y-93.387
X167.329Y-90.923
X167.336Y-86.087
X167.336Y-87.687
X167.336Y-98.087
X167.336Y-98.887
X167.336Y-100.487
X167.336Y-104.487
X167.336Y-105.287
X167.343Y-88.494
X168.136Y-86.887
X168.136Y-87.687
X168.136Y-98.887
X168.136Y-99.687
X168.136Y-103.687
X168.136Y-104.487
X168.143Y-93.284
X168.936Y-86.887
X168.936Y-87.687
X168.936Y-93.287
X168.936Y-98.087
X168.936Y-98.887
X168.936Y-99.687
X168.936Y-102.887
X168.936Y-103.687
X168.936Y-105.287
X168.943Y-91.691
X168.943Y-92.486
X169.711Y-91.687
X169.736Y-87.687
X169.736Y-98.887
X169.736Y-102.887
X169.736Y-104.487
X169.743Y-92.487
X170.05Y-88.613
X170.536Y-86.887
X170.536Y-87.687
X170.536Y-102.887
X170.536Y-103.687
X170.536Y-104.487
X170.536Y-105.287
X170.543Y-91.661
X170.549Y-92.494
X171.336Y-86.887
X171.336Y-88.487
X171.336Y-90.887
X171.336Y-91.687
X171.336Y-98.087
X171.336Y-98.887
X171.336Y-100.687
X171.336Y-102.887
X171.336Y-104.487
X171.336Y-105.287
X171.343Y-92.487
X171.343Y-93.286
X172.136Y-86.087
X172.136Y-86.887
X172.136Y-98.887
X172.136Y-99.687
X172.136Y-100.487
X172.136Y-104.487
X172.136Y-105.287
X172.138Y-88.48
X172.143Y-92.487
X172.936Y-86.887
X172.936Y-88.487
X172.936Y-91.687
X172.936Y-98.094
X172.936Y-98.887
X172.936Y-102.887
X172.936Y-103.687
X172.936Y-104.487
X172.937Y-92.487
X172.937Y-93.287
X173.736Y-86.087
X173.736Y-86.887
X173.736Y-87.687
X173.736Y-91.687
X173.736Y-92.487
X173.736Y-98.087
X173.736Y-98.887
X173.736Y-99.687
X173.736Y-100.487
X173.736Y-103.687
X173.736Y-104.487
X173.736Y-105.287
X174.536Y-91.687
X174.536Y-92.487
X174.536Y-93.287
X174.536Y-105.287
X175.65Y-90.625
X175.65Y-91.625
X176.325Y-97.45
X176.55Y-97.675
X176.8Y-97.925
T2
X111.975Y-123.715
X113.45Y-104.262
X113.986Y-98.787
X113.986Y-101.287
X117.174Y-104.284
X117.356Y-95.507
X117.706Y-92.275
X118.156Y-104.557
X118.65Y-92.55
X119.656Y-95.637
X120.406Y-95.637
X120.675Y-104.5
X121.15Y-106.8
X121.881Y-95.125
X121.9Y-94.09
X122.826Y-98.287
X122.876Y-100.287
X122.981Y-99.275
X122.981Y-101.275
X122.986Y-102.337
X123.081Y-96.625
X123.781Y-99.775
X123.781Y-101.779
X123.781Y-102.775
X123.796Y-99.037
X124.5Y-97.775
X132.15Y-94.49
X132.75Y-93.69
X132.75Y-95.29
X133.512Y-96.263
X140.4Y-116.4
X140.4Y-117.75
X140.4Y-119.1
X148.006Y-109.194
X149.65Y-117.75
X149.7Y-119.05
X149.75Y-120.25
X153.386Y-112.937
X154.725Y-123.3
X170.1Y-112.55
X170.5Y-112.15
X177.125Y-97.35
X177.65Y-97.65
X178.325Y-90.825
X178.975Y-90.85
X181.025Y-109.45
X187.15Y-100.05
X187.925Y-99.8
X188.425Y-99.8
X214.825Y-89.7
X214.825Y-90.325
T3
X93.45Y-87.52
X95.875Y-87.52
X98.3Y-87.52
X99.134Y-115.2
X99.134Y-117.875
X100.034Y-116.5
X100.059Y-113.775
X100.762Y-115.2
X100.762Y-117.875
X101.662Y-116.5
X101.687Y-113.775
X102.391Y-115.2
X102.391Y-117.875
X103.291Y-116.5
X103.316Y-113.775
X104.019Y-115.2
X104.019Y-117.875
X104.919Y-116.5
X104.944Y-113.775
X105.647Y-115.2
X105.647Y-117.875
X106.547Y-116.5
X106.572Y-113.775
X107.275Y-115.2
X107.275Y-117.875
X108.175Y-116.5
X108.2Y-113.775
X109.125Y-89.2
X109.125Y-91.625
X109.125Y-94.05
X112.275Y-88.35
X113.1Y-95.65
X113.3Y-92.35
X114.0Y-97.045
X114.425Y-111.325
X114.45Y-111.875
X114.45Y-112.525
X114.475Y-113.075
X114.575Y-90.875
X114.675Y-103.475
X114.7Y-88.35
X114.85Y-94.0
X114.987Y-111.325
X115.012Y-111.875
X115.012Y-112.525
X115.037Y-113.075
X115.125Y-90.875
X115.55Y-111.325
X115.575Y-111.875
X115.575Y-112.525
X115.6Y-113.075
X116.112Y-111.325
X116.137Y-111.875
X116.137Y-112.525
X116.162Y-113.075
X116.5Y-98.2
X116.5Y-98.842
X116.5Y-99.483
X116.5Y-100.125
X116.5Y-100.767
X116.5Y-101.408
X116.5Y-102.05
X116.675Y-111.325
X116.7Y-111.875
X116.7Y-112.525
X116.725Y-113.075
X116.95Y-82.25
X117.125Y-88.35
X117.15Y-106.8
X117.2Y-98.2
X117.2Y-98.842
X117.2Y-99.483
X117.2Y-100.125
X117.28Y-100.767
X117.28Y-101.408
X117.28Y-102.05
X118.0Y-98.2
X118.0Y-98.842
X118.0Y-99.483
X118.0Y-100.125
X118.06Y-100.767
X118.06Y-101.408
X118.06Y-102.05
X118.656Y-105.625
X118.8Y-98.2
X118.8Y-98.842
X118.8Y-99.483
X118.8Y-100.125
X118.84Y-100.767
X118.84Y-101.408
X118.84Y-102.05
X119.2Y-106.35
X119.6Y-98.2
X119.6Y-98.842
X119.6Y-99.483
X119.6Y-100.125
X119.62Y-100.767
X119.62Y-101.408
X119.62Y-102.05
X119.65Y-105.05
X120.15Y-106.15
X120.4Y-98.2
X120.4Y-98.842
X120.4Y-99.483
X120.4Y-100.125
X120.4Y-100.767
X120.4Y-101.408
X120.4Y-102.05
X123.65Y-92.95
X123.725Y-104.025
X124.7Y-123.9
X124.75Y-110.0
X125.25Y-93.2
X125.25Y-93.95
X125.25Y-94.7
X125.7Y-110.0
X125.75Y-123.9
X129.55Y-117.95
X129.85Y-116.85
X130.6Y-81.4
X130.85Y-81.85
X131.0Y-115.75
X131.15Y-81.4
X131.45Y-81.85
X131.7Y-81.4
X131.9Y-108.3
X132.16Y-116.85
X132.2Y-112.45
X132.2Y-113.55
X132.2Y-114.65
X132.2Y-119.05
X132.2Y-120.15
X133.1Y-123.9
X134.05Y-123.9
X134.575Y-118.525
X135.6Y-112.25
X136.9Y-116.55
X136.9Y-117.7
X140.25Y-120.35
X143.837Y-117.606
X143.85Y-116.8
X143.9Y-118.45
X144.637Y-117.606
X144.65Y-116.8
X144.7Y-118.45
X145.437Y-117.606
X145.45Y-116.8
X145.5Y-118.45
X145.625Y-114.925
X146.237Y-117.606
X146.25Y-116.8
X146.3Y-118.45
X147.325Y-126.2
X149.536Y-110.487
X151.05Y-108.7
X151.325Y-110.425
X151.625Y-120.975
X153.3Y-123.9
X153.436Y-88.587
X155.436Y-108.687
X155.729Y-120.206
X156.15Y-72.9
X156.175Y-73.6
X156.325Y-117.575
X156.91Y-94.028
X156.967Y-72.9
X156.992Y-73.6
X157.369Y-86.196
X157.675Y-76.55
X157.713Y-120.275
X157.783Y-72.9
X157.808Y-73.6
X157.942Y-93.886
X158.492Y-76.55
X158.6Y-72.9
X158.625Y-73.6
X158.786Y-94.002
X159.308Y-76.55
X160.125Y-76.55
X161.4Y-111.494
X170.136Y-101.287
X171.336Y-97.087
X174.529Y-89.028
X175.0Y-88.0
X175.3Y-72.475
X175.6Y-103.5
X176.504Y-98.945
X176.6Y-92.35
X176.928Y-72.475
X177.0Y-91.5
X177.015Y-88.527
X178.35Y-89.45
X178.35Y-91.95
X178.35Y-92.6
X178.475Y-105.79
X178.556Y-72.475
X178.6Y-107.89
X178.64Y-108.94
X178.8Y-100.95
X178.8Y-101.55
X179.6Y-107.51
X180.0Y-99.4
X180.184Y-72.475
X180.618Y-107.5
X180.662Y-99.4
X181.325Y-99.4
X181.75Y-106.5
X181.8Y-102.4
X181.8Y-102.95
X181.813Y-72.475
X181.987Y-99.4
X182.65Y-99.4
X182.81Y-104.2
X183.441Y-72.475
X184.125Y-104.3
X184.7Y-106.5
X185.069Y-72.475
X186.127Y-108.0
X186.15Y-106.575
X186.325Y-109.25
X186.55Y-100.7
X186.55Y-101.362
X186.55Y-102.025
X186.55Y-102.688
X186.55Y-103.35
X186.697Y-72.475
X186.987Y-109.25
X187.484Y-106.7
X187.65Y-109.25
X188.325Y-72.475
X189.112Y-106.7
X189.122Y-104.425
X189.172Y-108.825
X189.953Y-72.475
X190.741Y-106.7
X190.75Y-104.425
X190.8Y-108.825
X191.581Y-72.475
X191.725Y-88.1
X192.369Y-106.7
X192.378Y-104.425
X192.428Y-108.825
X193.21Y-72.475
X193.925Y-90.225
X193.997Y-106.7
X194.838Y-72.475
X196.466Y-72.475
X196.95Y-85.475
X198.094Y-72.475
X199.225Y-87.475
X200.375Y-85.475
X201.85Y-90.225
X203.925Y-78.55
X206.55Y-91.15
X206.8Y-78.6
X212.875Y-83.0
X213.5Y-85.25
X213.8Y-91.15
X214.875Y-84.85
X215.375Y-86.875
X216.469Y-73.55
X216.508Y-71.7
X217.219Y-72.55
X218.097Y-73.55
X218.136Y-71.7
X218.847Y-72.55
X219.725Y-73.55
X219.764Y-71.7
X220.119Y-126.75
X220.475Y-72.55
X221.353Y-73.55
X221.392Y-71.7
X221.747Y-126.75
X222.103Y-72.55
X222.375Y-76.175
X222.375Y-77.803
X222.375Y-79.431
X222.375Y-81.059
X222.375Y-82.688
X222.375Y-84.316
X222.981Y-73.55
X223.02Y-71.7
X223.375Y-126.75
X223.55Y-77.0
X223.55Y-78.628
X223.55Y-80.256
X223.55Y-81.884
X223.55Y-83.513
X223.55Y-85.141
X223.731Y-72.55
X224.609Y-73.55
X224.649Y-71.7
X224.85Y-76.225
X224.85Y-77.853
X224.85Y-79.481
X224.85Y-81.109
X224.85Y-82.738
X224.85Y-84.366
X225.003Y-126.75
X225.359Y-72.55
X225.559Y-122.625
X226.238Y-73.55
X226.277Y-71.7
X226.309Y-121.775
X226.309Y-123.45
X226.631Y-126.75
X226.85Y-113.5
X226.95Y-111.87
X226.988Y-72.55
X227.15Y-102.947
X227.15Y-104.575
X227.15Y-106.203
X227.187Y-122.625
X227.325Y-93.122
X227.325Y-94.75
X227.325Y-96.378
X227.35Y-88.622
X227.35Y-90.25
X227.35Y-91.878
X227.45Y-82.45
X227.475Y-87.24
X227.7Y-114.8
X227.7Y-115.85
X227.866Y-73.55
X227.905Y-71.7
X227.937Y-121.775
X227.937Y-123.45
X228.259Y-126.75
X228.609Y-119.15
X228.616Y-72.55
X228.706Y-75.7
X228.816Y-122.625
X228.95Y-80.75
X229.494Y-73.55
X229.525Y-113.47
X229.533Y-71.7
X229.566Y-121.775
X229.566Y-123.45
X229.584Y-76.7
X229.623Y-74.85
X229.888Y-126.75
X230.237Y-119.15
X230.244Y-72.55
X230.334Y-75.7
X230.444Y-122.625
X230.55Y-83.43
X230.55Y-114.61
X230.55Y-115.25
X231.122Y-73.55
X231.161Y-71.7
X231.194Y-121.775
X231.194Y-123.45
X231.212Y-76.7
X231.252Y-74.85
X231.5Y-108.95
X231.516Y-126.75
X231.525Y-111.75
X231.866Y-119.15
X231.872Y-72.55
X231.9Y-116.05
X231.962Y-75.7
X232.072Y-122.625
X232.25Y-89.9
X232.25Y-90.7
X232.25Y-91.5
X232.25Y-92.3
X232.3Y-108.95
X232.325Y-111.75
X232.6Y-82.1
X232.7Y-116.05
X232.75Y-73.55
X232.789Y-71.7
X232.8Y-78.9
X232.822Y-121.775
X232.822Y-123.45
X232.841Y-76.7
X232.85Y-86.2
X232.88Y-74.85
X233.1Y-108.95
X233.125Y-111.75
X233.144Y-126.75
X233.4Y-82.1
X233.494Y-119.15
X233.5Y-116.05
X233.5Y-72.55
X233.591Y-75.7
X233.6Y-78.9
X233.65Y-86.2
X233.7Y-122.625
X233.9Y-108.95
X233.925Y-111.75
X234.2Y-82.1
X234.3Y-116.05
X234.378Y-73.55
X234.4Y-78.9
X234.417Y-71.7
X234.45Y-86.2
X234.45Y-102.05
X234.45Y-121.775
X234.45Y-123.45
X234.469Y-76.7
X234.508Y-74.85
X234.772Y-126.75
X234.95Y-96.8
X235.0Y-82.1
X235.122Y-119.15
X235.128Y-72.55
X235.2Y-78.9
X235.219Y-75.7
X235.25Y-86.2
X235.375Y-104.85
X235.4Y-89.675
X235.4Y-90.475
X235.4Y-91.275
X235.4Y-92.075
X235.45Y-102.05
X236.006Y-73.55
X236.015Y-104.85
X236.046Y-71.7
X236.097Y-76.7
X236.136Y-74.85
X236.4Y-126.75
X236.65Y-101.2
X236.675Y-94.25
X236.75Y-119.15
X236.756Y-72.55
X236.819Y-103.801
X236.847Y-75.7
X237.635Y-73.55
X237.65Y-101.15
X237.674Y-71.7
X237.725Y-76.7
X237.764Y-74.85
X237.935Y-93.6
X238.028Y-126.75
X238.15Y-96.4
X238.385Y-72.55
X238.475Y-75.7
X238.575Y-93.6
X238.8Y-106.05
X238.8Y-106.85
X238.8Y-107.65
X238.8Y-108.45
X238.85Y-96.4
X239.263Y-73.55
X239.302Y-71.7
X239.353Y-76.7
X239.392Y-74.85
X239.656Y-126.75
X239.85Y-89.8
X239.85Y-90.6
X239.85Y-91.4
X239.85Y-92.2
X240.013Y-72.55
X240.097Y-121.725
X240.103Y-75.7
X240.222Y-123.975
X240.65Y-106.1
X240.65Y-106.9
X240.65Y-107.7
X240.65Y-108.5
X240.7Y-95.75
X240.891Y-73.55
X240.93Y-71.7
X240.981Y-76.7
X241.02Y-74.85
X241.285Y-126.75
X241.3Y-102.3
X241.641Y-72.55
X241.725Y-121.725
X241.731Y-75.7
X241.75Y-89.7
X241.75Y-90.5
X241.75Y-91.3
X241.75Y-92.1
X241.85Y-123.975
X242.055Y-104.85
X242.3Y-102.3
X242.519Y-73.55
X242.558Y-71.7
X242.609Y-76.7
X242.649Y-74.85
X242.695Y-104.85
X242.913Y-126.75
X243.1Y-94.0
X243.25Y-96.85
X243.269Y-72.55
X243.353Y-121.725
X243.359Y-75.7
X243.478Y-123.975
X243.65Y-101.15
X243.655Y-103.77
X244.147Y-73.55
X244.186Y-71.7
X244.238Y-76.7
X244.25Y-112.65
X244.277Y-74.85
X244.325Y-93.65
X244.525Y-96.85
X244.541Y-126.75
X244.897Y-72.55
X244.965Y-93.67
X244.988Y-75.7
X245.05Y-112.65
X245.25Y-106.55
X245.25Y-107.35
X245.25Y-108.15
X245.25Y-108.95
X245.25Y-119.7
X245.4Y-116.75
X245.45Y-82.4
X245.5Y-88.15
X245.75Y-86.2
X245.775Y-73.55
X245.8Y-96.85
X245.814Y-71.7
X245.85Y-112.65
X245.866Y-76.7
X245.905Y-74.85
X246.047Y-77.55
X246.05Y-119.7
X246.169Y-126.75
X246.2Y-116.75
X246.25Y-82.4
X246.3Y-88.15
X246.35Y-102.25
X246.525Y-72.55
X246.55Y-86.2
X246.616Y-75.7
X246.65Y-112.65
X246.85Y-119.7
X247.0Y-116.75
X247.05Y-82.4
X247.1Y-88.15
X247.2Y-106.7
X247.2Y-107.5
X247.2Y-108.3
X247.2Y-109.1
X247.272Y-79.625
X247.35Y-86.2
X247.403Y-73.55
X247.443Y-71.7
X247.494Y-76.7
X247.533Y-74.85
X247.65Y-119.7
X247.675Y-77.55
X247.797Y-126.75
X247.8Y-116.75
X247.85Y-82.4
X247.9Y-88.15
X248.15Y-86.2
X248.153Y-72.55
X248.244Y-75.7
X248.5Y-110.75
X248.7Y-113.38
X248.7Y-114.02
X248.9Y-79.625
X249.303Y-77.55
X249.375Y-83.03
X249.375Y-83.67
X249.425Y-126.75
X249.45Y-110.75
X249.785Y-115.23
X250.528Y-79.625
X250.575Y-84.8
X251.847Y-79.625
X252.35Y-82.5
X252.35Y-83.55
X252.35Y-116.75
X252.45Y-115.2
X253.0Y-86.35
X253.25Y-84.85
X253.475Y-79.625
X255.103Y-79.625
T4
X182.745Y-106.14
X182.745Y-107.86
X183.225Y-107.0
X183.705Y-106.14
X183.705Y-107.86
T5
X209.425Y-77.175
X209.425Y-78.445
X209.425Y-79.715
X209.425Y-80.985
X209.425Y-82.255
X209.425Y-83.525
X209.425Y-84.795
X209.425Y-86.065
X209.425Y-87.335
X209.425Y-88.605
X209.425Y-89.875
X209.425Y-91.145
X209.425Y-92.415
X209.425Y-93.685
X209.425Y-94.955
X209.425Y-96.225
X209.425Y-104.45
X209.425Y-105.72
X209.425Y-106.99
X209.425Y-108.26
X209.425Y-109.53
X209.425Y-110.8
X209.425Y-112.07
X209.425Y-113.34
X209.425Y-114.61
X209.425Y-115.88
X209.425Y-117.15
X209.425Y-118.42
X209.425Y-119.69
X209.425Y-120.96
X209.425Y-122.23
X209.425Y-123.5
X210.695Y-77.175
X210.695Y-78.445
X210.695Y-79.715
X210.695Y-80.985
X210.695Y-82.255
X210.695Y-83.525
X210.695Y-84.795
X210.695Y-86.065
X210.695Y-87.335
X210.695Y-88.605
X210.695Y-89.875
X210.695Y-91.145
X210.695Y-92.415
X210.695Y-93.685
X210.695Y-94.955
X210.695Y-96.225
X210.695Y-104.45
X210.695Y-105.72
X210.695Y-106.99
X210.695Y-108.26
X210.695Y-109.53
X210.695Y-110.8
X210.695Y-112.07
X210.695Y-113.34
X210.695Y-114.61
X210.695Y-115.88
X210.695Y-117.15
X210.695Y-118.42
X210.695Y-119.69
X210.695Y-120.96
X210.695Y-122.23
X210.695Y-123.5
X218.105Y-77.32
X218.105Y-78.59
X218.105Y-79.86
X218.105Y-81.13
X218.105Y-82.4
X218.105Y-83.67
X218.105Y-84.94
X218.105Y-86.21
X218.105Y-87.48
X218.105Y-88.75
X218.105Y-90.02
X218.105Y-91.29
X218.105Y-92.56
X218.105Y-93.83
X218.105Y-95.1
X218.105Y-96.37
X218.105Y-104.595
X218.105Y-105.865
X218.105Y-107.135
X218.105Y-108.405
X218.105Y-109.675
X218.105Y-110.945
X218.105Y-112.215
X218.105Y-113.485
X218.105Y-114.755
X218.105Y-116.025
X218.105Y-117.295
X218.105Y-118.565
X218.105Y-119.835
X218.105Y-121.105
X218.105Y-122.375
X218.105Y-123.645
X219.375Y-77.32
X219.375Y-78.59
X219.375Y-79.86
X219.375Y-81.13
X219.375Y-82.4
X219.375Y-83.67
X219.375Y-84.94
X219.375Y-86.21
X219.375Y-87.48
X219.375Y-88.75
X219.375Y-90.02
X219.375Y-91.29
X219.375Y-92.56
X219.375Y-93.83
X219.375Y-95.1
X219.375Y-96.37
X219.375Y-104.595
X219.375Y-105.865
X219.375Y-107.135
X219.375Y-108.405
X219.375Y-109.675
X219.375Y-110.945
X219.375Y-112.215
X219.375Y-113.485
X219.375Y-114.755
X219.375Y-116.025
X219.375Y-117.295
X219.375Y-118.565
X219.375Y-119.835
X219.375Y-121.105
X219.375Y-122.375
X219.375Y-123.645
T6
X98.731Y-94.541
X98.731Y-97.081
X98.731Y-105.021
X98.731Y-107.561
X99.751Y-95.811
X99.751Y-106.291
X106.481Y-96.479
X106.481Y-98.511
X106.481Y-100.543
X106.481Y-102.575
X106.481Y-104.607
X107.751Y-97.495
X107.751Y-99.527
X107.751Y-101.559
X107.751Y-103.591
X107.751Y-105.623
T7
X93.22Y-81.3
X93.22Y-83.84
X95.76Y-81.3
X95.76Y-83.84
X98.3Y-81.3
X98.3Y-83.84
X100.84Y-81.3
X100.84Y-83.84
X103.13Y-73.235
X103.13Y-75.775
X103.38Y-81.3
X103.38Y-83.84
X105.67Y-73.235
X105.67Y-75.775
X108.21Y-73.235
X108.21Y-75.775
X110.75Y-73.235
X110.75Y-75.775
X113.29Y-73.235
X113.29Y-75.775
X115.83Y-73.235
X115.83Y-75.775
X118.37Y-73.235
X118.37Y-75.775
X120.91Y-73.235
X120.91Y-75.775
X123.45Y-73.235
X123.45Y-75.775
X125.99Y-73.235
X125.99Y-75.775
X128.53Y-73.235
X128.53Y-75.775
X131.07Y-73.235
X131.07Y-75.775
X236.985Y-111.52
X236.985Y-114.06
X237.735Y-84.47
X237.735Y-87.01
X239.525Y-111.52
X239.525Y-114.06
X240.275Y-84.47
X240.275Y-87.01
X242.065Y-111.52
X242.065Y-114.06
X242.815Y-84.47
X242.815Y-87.01
X252.0Y-89.01
X252.0Y-91.55
X252.0Y-94.09
X252.0Y-96.63
X252.0Y-99.17
X252.0Y-101.71
X252.0Y-104.25
X252.0Y-106.79
X252.0Y-109.33
X252.0Y-111.87
X254.54Y-89.01
X254.54Y-91.55
X254.54Y-94.09
X254.54Y-96.63
X254.54Y-99.17
X254.54Y-101.71
X254.54Y-104.25
X254.54Y-106.79
X254.54Y-109.33
X254.54Y-111.87
T7
G00X91.221Y-90.966
M15
G01X90.621Y-90.966
M16
G05
G00X91.221Y-111.136
M15
G01X90.621Y-111.136
M16
G05
M30
