%TF.GenerationSoftware,KiCad,Pcbnew,10.0.0*%
%TF.CreationDate,2026-04-24T12:09:46-04:00*%
%TF.ProjectId,Flight_Computer_REV01,466c6967-6874-45f4-936f-6d7075746572,rev?*%
%TF.SameCoordinates,Original*%
%TF.FileFunction,Copper,L11,Inr*%
%TF.FilePolarity,Positive*%
%FSLAX46Y46*%
G04 Gerber Fmt 4.6, Leading zero omitted, Abs format (unit mm)*
G04 Created by KiCad (PCBNEW 10.0.0) date 2026-04-24 12:09:46*
%MOMM*%
%LPD*%
G01*
G04 APERTURE LIST*
G04 Aperture macros list*
%AMRoundRect*
0 Rectangle with rounded corners*
0 $1 Rounding radius*
0 $2 $3 $4 $5 $6 $7 $8 $9 X,Y pos of 4 corners*
0 Add a 4 corners polygon primitive as box body*
4,1,4,$2,$3,$4,$5,$6,$7,$8,$9,$2,$3,0*
0 Add four circle primitives for the rounded corners*
1,1,$1+$1,$2,$3*
1,1,$1+$1,$4,$5*
1,1,$1+$1,$6,$7*
1,1,$1+$1,$8,$9*
0 Add four rect primitives between the rounded corners*
20,1,$1+$1,$2,$3,$4,$5,0*
20,1,$1+$1,$4,$5,$6,$7,0*
20,1,$1+$1,$6,$7,$8,$9,0*
20,1,$1+$1,$8,$9,$2,$3,0*%
G04 Aperture macros list end*
%TA.AperFunction,ComponentPad*%
%ADD10R,1.000000X1.000000*%
%TD*%
%TA.AperFunction,ComponentPad*%
%ADD11C,1.000000*%
%TD*%
%TA.AperFunction,ComponentPad*%
%ADD12R,1.700000X1.700000*%
%TD*%
%TA.AperFunction,ComponentPad*%
%ADD13C,1.700000*%
%TD*%
%TA.AperFunction,ComponentPad*%
%ADD14RoundRect,0.250000X0.600000X-0.600000X0.600000X0.600000X-0.600000X0.600000X-0.600000X-0.600000X0*%
%TD*%
%TA.AperFunction,ComponentPad*%
%ADD15C,1.200000*%
%TD*%
%TA.AperFunction,ComponentPad*%
%ADD16O,1.800000X1.200000*%
%TD*%
%TA.AperFunction,ComponentPad*%
%ADD17C,0.600000*%
%TD*%
%TA.AperFunction,ViaPad*%
%ADD18C,0.310000*%
%TD*%
%TA.AperFunction,ViaPad*%
%ADD19C,0.480000*%
%TD*%
%TA.AperFunction,ViaPad*%
%ADD20C,0.450000*%
%TD*%
%TA.AperFunction,ViaPad*%
%ADD21C,0.080000*%
%TD*%
%TA.AperFunction,ViaPad*%
%ADD22C,0.400000*%
%TD*%
%TA.AperFunction,Conductor*%
%ADD23C,0.200000*%
%TD*%
%TA.AperFunction,Conductor*%
%ADD24C,0.172000*%
%TD*%
%TA.AperFunction,Conductor*%
%ADD25C,0.250000*%
%TD*%
%TA.AperFunction,Conductor*%
%ADD26C,1.000000*%
%TD*%
%TA.AperFunction,Conductor*%
%ADD27C,0.300000*%
%TD*%
%TA.AperFunction,Conductor*%
%ADD28C,0.180000*%
%TD*%
%TA.AperFunction,Conductor*%
%ADD29C,0.150000*%
%TD*%
%TA.AperFunction,Conductor*%
%ADD30C,0.100000*%
%TD*%
%TA.AperFunction,Conductor*%
%ADD31C,0.090000*%
%TD*%
%TA.AperFunction,Conductor*%
%ADD32C,0.400000*%
%TD*%
%TA.AperFunction,Conductor*%
%ADD33C,0.600000*%
%TD*%
%TA.AperFunction,Conductor*%
%ADD34C,0.110000*%
%TD*%
%TA.AperFunction,Conductor*%
%ADD35C,0.102000*%
%TD*%
%TA.AperFunction,Conductor*%
%ADD36C,0.120000*%
%TD*%
%TA.AperFunction,Conductor*%
%ADD37C,0.700000*%
%TD*%
G04 APERTURE END LIST*
D10*
%TO.N,RTR_WHB_UPP_LATCH*%
%TO.C,J9*%
X218105000Y-104595000D03*
D11*
%TO.N,RTR_WHB_UPP_CSEL*%
X219375000Y-104595000D03*
%TO.N,RTR_WHB_UPP_UPDN*%
X218105000Y-105865000D03*
%TO.N,RTR_WHB_UPP_AD0*%
X219375000Y-105865000D03*
%TO.N,RTR_WHB_UPP_INC*%
X218105000Y-107135000D03*
%TO.N,RTR_WHB_UPP_AD1*%
X219375000Y-107135000D03*
%TO.N,RTR_WHB_UPP_AD2*%
X218105000Y-108405000D03*
%TO.N,RTR_WHB_UPP_OFF*%
X219375000Y-108405000D03*
%TO.N,RTR_WHB_LOW_ADC0_OUT_C*%
X218105000Y-109675000D03*
%TO.N,RTR_WHB_LOW_ADC1_OUT_B*%
X219375000Y-109675000D03*
%TO.N,RTR_WHB_LOW_ADC1_OUT_A*%
X218105000Y-110945000D03*
%TO.N,RTR_WHB_LOW_ADC1_OUT_C*%
X219375000Y-110945000D03*
%TO.N,RTR_WHB_LOW_ADC1_OUT_D*%
X218105000Y-112215000D03*
%TO.N,RTR_WHB_LOW_ADC0_OUT_D*%
X219375000Y-112215000D03*
%TO.N,RTR_WHB_LOW_ADC0_OUT_A*%
X218105000Y-113485000D03*
%TO.N,RTR_WHB_LOW_ADC0_OUT_B*%
X219375000Y-113485000D03*
%TO.N,P5V*%
X218105000Y-114755000D03*
%TO.N,N5V*%
X219375000Y-114755000D03*
%TO.N,GND*%
X218105000Y-116025000D03*
%TO.N,RTR_WHB_LOW_ADC0_CS*%
X219375000Y-116025000D03*
%TO.N,RTR_WHB_LOW_INC*%
X218105000Y-117295000D03*
%TO.N,RTR_WHB_LOW_OFF*%
X219375000Y-117295000D03*
%TO.N,RTR_WHB_LOW_AD2*%
X218105000Y-118565000D03*
%TO.N,RTR_WHB_LOW_UPDN*%
X219375000Y-118565000D03*
%TO.N,RTR_WHB_LOW_AD1*%
X218105000Y-119835000D03*
%TO.N,RTR_WHB_LOW_AD0*%
X219375000Y-119835000D03*
%TO.N,RTR_WHB_LOW_CSEL*%
X218105000Y-121105000D03*
%TO.N,RTR_WHB_LOW_ADC_FRSTDATA*%
X219375000Y-121105000D03*
%TO.N,RTR_WHB_LOW_LATCH*%
X218105000Y-122375000D03*
%TO.N,RTR_WHB_LOW_ADC_BUSY*%
X219375000Y-122375000D03*
%TO.N,RTR_WHB_LOW_ADC1_CS*%
X218105000Y-123645000D03*
%TO.N,RTR_WHB_LOW_ADC_CONVST*%
X219375000Y-123645000D03*
%TD*%
D12*
%TO.N,VAMB*%
%TO.C,J7*%
X254540000Y-89010000D03*
D13*
X252000000Y-89010000D03*
X254540000Y-91550000D03*
X252000000Y-91550000D03*
%TO.N,GND*%
X254540000Y-94090000D03*
%TO.N,P12V*%
X252000000Y-94090000D03*
%TO.N,GND*%
X254540000Y-96630000D03*
X252000000Y-96630000D03*
X254540000Y-99170000D03*
X252000000Y-99170000D03*
%TO.N,P4V5*%
X254540000Y-101710000D03*
X252000000Y-101710000D03*
X254540000Y-104250000D03*
X252000000Y-104250000D03*
%TO.N,GND*%
X254540000Y-106790000D03*
X252000000Y-106790000D03*
X254540000Y-109330000D03*
X252000000Y-109330000D03*
%TO.N,P5V*%
X254540000Y-111870000D03*
%TO.N,N5V*%
X252000000Y-111870000D03*
%TD*%
D14*
%TO.N,AX_TCLK*%
%TO.C,CON1*%
X93220000Y-83840000D03*
D13*
%TO.N,GND*%
X93220000Y-81300000D03*
%TO.N,AX_TDO*%
X95760000Y-83840000D03*
%TO.N,P1.8V*%
X95760000Y-81300000D03*
%TO.N,AX_TMS*%
X98300000Y-83840000D03*
%TO.N,unconnected-(CON1-Pad6)*%
X98300000Y-81300000D03*
%TO.N,unconnected-(CON1-Pad7)*%
X100840000Y-83840000D03*
%TO.N,unconnected-(CON1-Pad8)*%
X100840000Y-81300000D03*
%TO.N,AX_TDI*%
X103380000Y-83840000D03*
%TO.N,GND*%
X103380000Y-81300000D03*
%TD*%
D10*
%TO.N,SNS_AUX6_P*%
%TO.C,J5*%
X210695000Y-123500000D03*
D11*
%TO.N,SNS_AUX6_N*%
X209425000Y-123500000D03*
%TO.N,SNS_AUX5_N*%
X210695000Y-122230000D03*
%TO.N,SNS_AUX5_P*%
X209425000Y-122230000D03*
%TO.N,SNS_AUX4_N*%
X210695000Y-120960000D03*
%TO.N,SNS_AUX4_P*%
X209425000Y-120960000D03*
%TO.N,SNS_AUX0_N*%
X210695000Y-119690000D03*
%TO.N,SNS_AUX0_P*%
X209425000Y-119690000D03*
%TO.N,SNS_AUX3_P*%
X210695000Y-118420000D03*
%TO.N,SNS_AUX3_N*%
X209425000Y-118420000D03*
%TO.N,SNS_AUX2_P*%
X210695000Y-117150000D03*
%TO.N,SNS_AUX2_N*%
X209425000Y-117150000D03*
%TO.N,SNS_AUX1_P*%
X210695000Y-115880000D03*
%TO.N,SNS_AUX1_N*%
X209425000Y-115880000D03*
%TO.N,GND*%
X210695000Y-114610000D03*
%TO.N,RTR_WHA_LOW_ADC_FRSTDATA*%
X209425000Y-114610000D03*
%TO.N,RTR_WHA_LOW_ADC1_CS*%
X210695000Y-113340000D03*
%TO.N,RTR_WHA_LOW_ADC1_OUT_D*%
X209425000Y-113340000D03*
%TO.N,RTR_WHA_LOW_ADC0_CS*%
X210695000Y-112070000D03*
%TO.N,RTR_WHA_LOW_ADC1_OUT_C*%
X209425000Y-112070000D03*
%TO.N,RTR_WHA_LOW_ADC0_OUT_B*%
X210695000Y-110800000D03*
%TO.N,RTR_WHA_LOW_ADC0_OUT_A*%
X209425000Y-110800000D03*
%TO.N,RTR_WHA_LOW_ADC1_OUT_A*%
X210695000Y-109530000D03*
%TO.N,RTR_WHA_LOW_ADC1_OUT_B*%
X209425000Y-109530000D03*
%TO.N,RTR_WHA_LOW_ADC0_OUT_C*%
X210695000Y-108260000D03*
%TO.N,RTR_WHA_LOW_ADC0_OUT_D*%
X209425000Y-108260000D03*
%TO.N,RTR_WHA_LOW_ADC_CONVST*%
X210695000Y-106990000D03*
%TO.N,RTR_WHA_LOW_ADC_BUSY*%
X209425000Y-106990000D03*
%TO.N,RTR_WHA_SCK*%
X210695000Y-105720000D03*
%TO.N,RTR_WHA_SDI*%
X209425000Y-105720000D03*
%TO.N,RTR_WHA_SDO*%
X210695000Y-104450000D03*
%TO.N,RTR_WHA_ADC_RST*%
X209425000Y-104450000D03*
%TD*%
D12*
%TO.N,AMB_WHA_LOW_N*%
%TO.C,J3*%
X242065000Y-111520000D03*
D13*
%TO.N,AMB_WHA_LOW_P*%
X242065000Y-114060000D03*
%TO.N,GND*%
X239525000Y-111520000D03*
X239525000Y-114060000D03*
%TO.N,AMB_WHB_LOW_P*%
X236985000Y-111520000D03*
%TO.N,AMB_WHB_LOW_N*%
X236985000Y-114060000D03*
%TD*%
D12*
%TO.N,MTR_WHA_SCS*%
%TO.C,J10*%
X103130000Y-75775000D03*
D13*
%TO.N,MTR_WHB_WAKE*%
X103130000Y-73235000D03*
%TO.N,MTR_SDO*%
X105670000Y-75775000D03*
%TO.N,_MTR_WHB_nFAULT*%
X105670000Y-73235000D03*
%TO.N,MTR_WHA_EN*%
X108210000Y-75775000D03*
%TO.N,MTR_WHA_INA_L*%
X108210000Y-73235000D03*
%TO.N,MTR_WHB_INC_L*%
X110750000Y-75775000D03*
%TO.N,MTR_WHB_INA_H*%
X110750000Y-73235000D03*
%TO.N,MTR_WHB_INB_H*%
X113290000Y-75775000D03*
%TO.N,MTR_WHB_INA_L*%
X113290000Y-73235000D03*
%TO.N,MTR_WHB_INB_L*%
X115830000Y-75775000D03*
%TO.N,MTR_WHB_SCS*%
X115830000Y-73235000D03*
%TO.N,MTR_WHB_EN*%
X118370000Y-75775000D03*
%TO.N,MTR_SDI*%
X118370000Y-73235000D03*
%TO.N,MTR_WHA_INB_H*%
X120910000Y-75775000D03*
%TO.N,_MTR_WHA_nFAULT*%
X120910000Y-73235000D03*
%TO.N,MTR_WHA_INB_L*%
X123450000Y-75775000D03*
%TO.N,MTR_WHA_INC_L*%
X123450000Y-73235000D03*
%TO.N,MTR_WHA_INA_H*%
X125990000Y-75775000D03*
%TO.N,MTR_WHA_INC_H*%
X125990000Y-73235000D03*
%TO.N,MTR_WHB_INC_H*%
X128530000Y-75775000D03*
%TO.N,MTR_SCLK*%
X128530000Y-73235000D03*
%TO.N,P3V3*%
X131070000Y-75775000D03*
%TO.N,GND*%
X131070000Y-73235000D03*
%TD*%
D12*
%TO.N,AMB_WHA_UPP_N*%
%TO.C,J2*%
X237735000Y-87010000D03*
D13*
%TO.N,AMB_WHA_UPP_P*%
X237735000Y-84470000D03*
%TO.N,GND*%
X240275000Y-87010000D03*
X240275000Y-84470000D03*
%TO.N,AMB_WHB_UPP_P*%
X242815000Y-87010000D03*
%TO.N,AMB_WHB_UPP_N*%
X242815000Y-84470000D03*
%TD*%
D15*
%TO.N,/COMM_ETH/MDI1_P*%
%TO.C,J11*%
X106481250Y-96479000D03*
%TO.N,/COMM_ETH/MDI1_N*%
X107751250Y-97495000D03*
%TO.N,/COMM_ETH/MDI2_P*%
X106481250Y-98511000D03*
%TO.N,/COMM_ETH/MDI2_N*%
X107751250Y-99527000D03*
%TO.N,/COMM_ETH/MDI3_P*%
X106481250Y-100543000D03*
%TO.N,/COMM_ETH/MDI3_N*%
X107751250Y-101559000D03*
%TO.N,/COMM_ETH/MDI4_P*%
X106481250Y-102575000D03*
%TO.N,/COMM_ETH/MDI4_N*%
X107751250Y-103591000D03*
%TO.N,unconnected-(J11-VCC-Pad9)*%
X106481250Y-104607000D03*
%TO.N,GND*%
X107751250Y-105623000D03*
%TO.N,unconnected-(J11-LEDG_K-Pad11)*%
X98731250Y-94541000D03*
%TO.N,P3V3*%
X99751250Y-95811000D03*
%TO.N,unconnected-(J11-LEDO_K-Pad13)*%
X98731250Y-97081000D03*
%TO.N,unconnected-(J11-LEDY_A-Pad14)*%
X98731250Y-105021000D03*
%TO.N,unconnected-(J11-LEDY_K-Pad15)*%
X98731250Y-107561000D03*
%TO.N,N/C*%
X99751250Y-106291000D03*
D16*
%TO.N,GND*%
X90921250Y-90966000D03*
X90921250Y-111136000D03*
%TD*%
D10*
%TO.N,RTR_WHA_LOW_OFF*%
%TO.C,J6*%
X210695000Y-96225000D03*
D11*
%TO.N,RTR_WHA_LOW_LATCH*%
X209425000Y-96225000D03*
%TO.N,RTR_WHA_LOW_AD2*%
X210695000Y-94955000D03*
%TO.N,RTR_WHA_LOW_AD1*%
X209425000Y-94955000D03*
%TO.N,RTR_WHA_LOW_UPDN*%
X210695000Y-93685000D03*
%TO.N,RTR_WHA_LOW_CSEL*%
X209425000Y-93685000D03*
%TO.N,RTR_WHA_LOW_INC*%
X210695000Y-92415000D03*
%TO.N,RTR_WHA_LOW_AD0*%
X209425000Y-92415000D03*
%TO.N,N5V*%
X210695000Y-91145000D03*
%TO.N,P5V*%
X209425000Y-91145000D03*
%TO.N,RTR_WHA_UPP_AD2*%
X210695000Y-89875000D03*
%TO.N,RTR_WHA_UPP_OFF*%
X209425000Y-89875000D03*
%TO.N,RTR_WHA_UPP_LATCH*%
X210695000Y-88605000D03*
%TO.N,RTR_WHA_UPP_INC*%
X209425000Y-88605000D03*
%TO.N,RTR_WHA_UPP_CSEL*%
X210695000Y-87335000D03*
%TO.N,RTR_WHA_UPP_UPDN*%
X209425000Y-87335000D03*
%TO.N,RTR_WHA_UPP_AD0*%
X210695000Y-86065000D03*
%TO.N,RTR_WHA_UPP_AD1*%
X209425000Y-86065000D03*
%TO.N,GND*%
X210695000Y-84795000D03*
%TO.N,RTR_WHA_UPP_ADC1_OUT_B*%
X209425000Y-84795000D03*
%TO.N,RTR_WHA_UPP_ADC1_OUT_A*%
X210695000Y-83525000D03*
%TO.N,RTR_WHA_UPP_ADC1_OUT_D*%
X209425000Y-83525000D03*
%TO.N,RTR_WHA_UPP_ADC0_OUT_C*%
X210695000Y-82255000D03*
%TO.N,RTR_WHA_UPP_ADC1_OUT_C*%
X209425000Y-82255000D03*
%TO.N,RTR_WHA_UPP_ADC_BUSY*%
X210695000Y-80985000D03*
%TO.N,RTR_WHA_UPP_ADC0_OUT_D*%
X209425000Y-80985000D03*
%TO.N,RTR_WHA_UPP_ADC_CONVST*%
X210695000Y-79715000D03*
%TO.N,RTR_WHA_UPP_ADC0_OUT_A*%
X209425000Y-79715000D03*
%TO.N,RTR_WHA_UPP_ADC0_OUT_B*%
X210695000Y-78445000D03*
%TO.N,RTR_WHA_UPP_ADC1_CS*%
X209425000Y-78445000D03*
%TO.N,RTR_WHA_UPP_ADC_FRSTDATA*%
X210695000Y-77175000D03*
%TO.N,RTR_WHA_UPP_ADC0_CS*%
X209425000Y-77175000D03*
%TD*%
D10*
%TO.N,RTR_WHB_UPP_ADC0_OUT_B*%
%TO.C,J8*%
X218105000Y-77320000D03*
D11*
%TO.N,RTR_WHB_UPP_ADC0_OUT_C*%
X219375000Y-77320000D03*
%TO.N,RTR_WHB_UPP_ADC0_OUT_D*%
X218105000Y-78590000D03*
%TO.N,RTR_WHB_UPP_ADC1_OUT_A*%
X219375000Y-78590000D03*
%TO.N,RTR_WHB_UPP_ADC_BUSY*%
X218105000Y-79860000D03*
%TO.N,RTR_WHB_UPP_ADC0_OUT_A*%
X219375000Y-79860000D03*
%TO.N,RTR_WHB_UPP_ADC_CONVST*%
X218105000Y-81130000D03*
%TO.N,RTR_WHB_UPP_ADC1_OUT_B*%
X219375000Y-81130000D03*
%TO.N,RTR_WHB_UPP_ADC1_OUT_C*%
X218105000Y-82400000D03*
%TO.N,RTR_WHB_UPP_ADC1_OUT_D*%
X219375000Y-82400000D03*
%TO.N,RTR_WHB_UPP_ADC0_CS*%
X218105000Y-83670000D03*
%TO.N,RTR_WHB_UPP_ADC1_CS*%
X219375000Y-83670000D03*
%TO.N,RTR_WHB_UPP_ADC_FRSTDATA*%
X218105000Y-84940000D03*
%TO.N,GND*%
X219375000Y-84940000D03*
X218105000Y-86210000D03*
X219375000Y-86210000D03*
%TO.N,unconnected-(J8-Pin_17-Pad17)*%
X218105000Y-87480000D03*
%TO.N,unconnected-(J8-Pin_18-Pad18)*%
X219375000Y-87480000D03*
%TO.N,unconnected-(J8-Pin_19-Pad19)*%
X218105000Y-88750000D03*
%TO.N,unconnected-(J8-Pin_20-Pad20)*%
X219375000Y-88750000D03*
%TO.N,P3V3*%
X218105000Y-90020000D03*
X219375000Y-90020000D03*
X218105000Y-91290000D03*
X219375000Y-91290000D03*
%TO.N,GND*%
X218105000Y-92560000D03*
%TO.N,P5V*%
X219375000Y-92560000D03*
%TO.N,GND*%
X218105000Y-93830000D03*
%TO.N,N5V*%
X219375000Y-93830000D03*
%TO.N,RTR_WHA_SDI*%
X218105000Y-95100000D03*
%TO.N,RTR_WHA_SCK*%
X219375000Y-95100000D03*
%TO.N,RTR_WHA_SDO*%
X218105000Y-96370000D03*
%TO.N,RTR_WHB_ADC_RST*%
X219375000Y-96370000D03*
%TD*%
D17*
%TO.N,GND*%
%TO.C,U3*%
X183705000Y-107860000D03*
X183705000Y-106140000D03*
X183225000Y-107000000D03*
X182745000Y-107860000D03*
X182745000Y-106140000D03*
%TD*%
D18*
%TO.N,RTR_WHB_UPP_LATCH*%
X146636252Y-87686632D03*
%TO.N,RTR_WHB_UPP_CSEL*%
X147436252Y-87686632D03*
%TO.N,RTR_WHB_UPP_UPDN*%
X147436252Y-88486632D03*
%TO.N,RTR_WHB_UPP_AD0*%
X148236252Y-86886632D03*
%TO.N,RTR_WHB_UPP_INC*%
X148236252Y-88486632D03*
%TO.N,RTR_WHB_UPP_AD1*%
X149036252Y-86886632D03*
%TO.N,RTR_WHB_UPP_AD2*%
X150636252Y-86886632D03*
%TO.N,RTR_WHB_UPP_OFF*%
X151036252Y-86386632D03*
%TO.N,RTR_WHB_LOW_ADC0_OUT_C*%
X141850000Y-90900000D03*
%TO.N,RTR_WHB_LOW_ADC1_OUT_B*%
X141836252Y-90086632D03*
%TO.N,RTR_WHB_LOW_ADC1_OUT_A*%
X142636252Y-90086632D03*
%TO.N,RTR_WHB_LOW_ADC1_OUT_C*%
X142633325Y-89286791D03*
%TO.N,RTR_WHB_LOW_ADC1_OUT_D*%
X143436252Y-90086632D03*
%TO.N,RTR_WHB_LOW_ADC0_OUT_D*%
X142636252Y-90886632D03*
%TO.N,RTR_WHB_LOW_ADC0_OUT_A*%
X144236252Y-90886632D03*
%TO.N,RTR_WHB_LOW_ADC0_OUT_B*%
X145036252Y-90886632D03*
D19*
%TO.N,GND*%
X243353147Y-121725000D03*
X228615734Y-72550000D03*
X191725000Y-88100000D03*
D18*
X148236252Y-96486632D03*
X164936252Y-93286632D03*
D19*
X247493880Y-76700000D03*
D18*
X141836252Y-95686632D03*
X149836252Y-90886632D03*
D19*
X143850000Y-116800000D03*
X109125000Y-89200000D03*
X232840559Y-76700000D03*
X236846853Y-75700000D03*
X185068880Y-72475000D03*
X229565559Y-123450000D03*
X213500000Y-85250000D03*
X178350000Y-89450000D03*
X243650000Y-101150000D03*
X237673725Y-71700000D03*
D18*
X162536252Y-90886632D03*
D19*
X239301871Y-71700000D03*
X124750000Y-110000000D03*
X192368706Y-106700000D03*
X232250000Y-91500000D03*
X116500000Y-98841667D03*
X238384615Y-72550000D03*
X118000000Y-100125000D03*
X100034266Y-116500000D03*
X255103147Y-79625000D03*
D18*
X162536252Y-98086632D03*
D19*
X178800000Y-100950000D03*
X100762413Y-117875000D03*
X242300000Y-102300000D03*
X220475000Y-72550000D03*
X244186312Y-71700000D03*
D18*
X164936252Y-105286632D03*
D19*
X221353147Y-73550000D03*
X246850000Y-119700000D03*
X231193706Y-123450000D03*
X247850000Y-82400000D03*
X196465908Y-72475000D03*
D18*
X172936252Y-98093631D03*
D19*
X192428147Y-108825000D03*
X188325174Y-72475000D03*
X246650000Y-112650000D03*
D18*
X164136252Y-98886632D03*
X136236252Y-98086632D03*
D19*
X227475000Y-87240000D03*
D18*
X161736252Y-98086632D03*
D19*
X244250000Y-112650000D03*
X243250000Y-96850000D03*
X116500000Y-100125000D03*
X189121854Y-104425000D03*
X236006468Y-73550000D03*
X231161138Y-71700000D03*
X246615733Y-75700000D03*
X146250000Y-116800000D03*
X120400000Y-98200000D03*
D18*
X140236252Y-98086632D03*
D19*
X241020403Y-74850000D03*
X224648551Y-71700000D03*
X223550000Y-80256294D03*
X239850000Y-91400000D03*
X144700000Y-118450000D03*
D18*
X138636252Y-90086632D03*
D19*
X231872028Y-72550000D03*
D20*
X214825000Y-90325000D03*
D19*
X246046854Y-77550000D03*
D18*
X174536252Y-105286632D03*
D19*
X223731294Y-72550000D03*
X247271854Y-79625000D03*
X234450000Y-121775000D03*
X224850000Y-76225000D03*
X227700000Y-115850000D03*
X252350000Y-83550000D03*
D18*
X144236252Y-99686632D03*
D19*
X240103146Y-75700000D03*
X247200000Y-109100000D03*
X227937413Y-121775000D03*
X118000000Y-98200000D03*
X232250000Y-90700000D03*
X116500000Y-100766667D03*
X227450000Y-82450000D03*
X242648550Y-74850000D03*
D18*
X164136252Y-86886632D03*
D19*
X193925000Y-90225000D03*
X117200000Y-98841667D03*
X224850000Y-79481294D03*
X229584266Y-76700000D03*
X156325000Y-117575000D03*
D18*
X166536252Y-105286632D03*
D19*
X235450000Y-102050000D03*
D18*
X140236252Y-93286632D03*
D19*
X117280000Y-102050000D03*
X224850000Y-82737587D03*
X234450000Y-102050000D03*
X118800000Y-98841667D03*
X240981293Y-76700000D03*
X113300000Y-92350000D03*
X118840000Y-101408333D03*
X105646853Y-117875000D03*
X231251523Y-74850000D03*
X228815559Y-122625000D03*
X118060000Y-100766667D03*
D18*
X141836252Y-94086632D03*
D19*
X238475000Y-75700000D03*
D18*
X173736252Y-98086632D03*
D19*
X118800000Y-99483333D03*
X131900000Y-108300000D03*
D18*
X145036252Y-98086632D03*
D19*
X240650000Y-108500000D03*
X116500000Y-102050000D03*
X239850000Y-90600000D03*
X104018706Y-115200000D03*
X98300000Y-87520000D03*
X232850000Y-86200000D03*
X242912761Y-126750000D03*
X244147202Y-73550000D03*
D18*
X164136252Y-105286632D03*
X145036252Y-95686632D03*
X170536252Y-105286632D03*
D19*
X227350000Y-88621853D03*
X238150000Y-96400000D03*
D18*
X145836252Y-97286632D03*
X142636252Y-102086632D03*
X139436252Y-96486632D03*
D19*
X99134266Y-115200000D03*
D18*
X141811252Y-96486632D03*
D19*
X222981294Y-73550000D03*
X119600000Y-98200000D03*
X245865733Y-76700000D03*
X248500000Y-110750000D03*
X117200000Y-98200000D03*
X247532990Y-74850000D03*
X116500000Y-101408333D03*
D18*
X144236252Y-97286632D03*
D19*
X178350000Y-91950000D03*
X219725000Y-73550000D03*
X116500000Y-99483333D03*
D18*
X172136252Y-86086632D03*
D19*
X118060000Y-101408333D03*
D18*
X168136252Y-98886632D03*
D19*
X241725000Y-121725000D03*
D18*
X171336252Y-98086632D03*
D19*
X233100000Y-108950000D03*
X136900000Y-116550000D03*
D18*
X142636252Y-97286632D03*
D19*
X243478147Y-123975000D03*
X218846854Y-72550000D03*
X120400000Y-100125000D03*
D18*
X147436252Y-90086632D03*
D19*
X242558165Y-71700000D03*
D20*
X214825000Y-89700000D03*
D19*
X186697027Y-72475000D03*
X233900000Y-108950000D03*
X157368638Y-86196298D03*
X236096853Y-76700000D03*
X232821853Y-121775000D03*
X231193706Y-121775000D03*
X233700000Y-122625000D03*
X190800000Y-108825000D03*
X247650000Y-119700000D03*
D18*
X145036252Y-92486632D03*
D19*
X232750174Y-73550000D03*
X231515734Y-126750000D03*
X178556293Y-72475000D03*
X248153495Y-72550000D03*
X117200000Y-99483333D03*
X223550000Y-77000000D03*
D18*
X165736252Y-86086632D03*
X141036252Y-96486632D03*
D19*
X206550000Y-91150000D03*
D18*
X142636252Y-98886632D03*
X147436252Y-103686632D03*
D19*
X227150000Y-102946853D03*
D18*
X141036252Y-92486632D03*
D19*
X117125000Y-88350000D03*
X235121853Y-119150000D03*
D18*
X145436252Y-86486632D03*
D19*
X249425348Y-126750000D03*
X235250000Y-86200000D03*
X134050000Y-123900000D03*
X231900000Y-116050000D03*
D18*
X141836252Y-93286632D03*
D19*
X227350000Y-91878146D03*
D18*
X142636252Y-96486632D03*
D19*
X234468706Y-76700000D03*
X216468707Y-73550000D03*
X245450000Y-82400000D03*
X232700000Y-116050000D03*
D18*
X145036252Y-96486632D03*
D19*
X247797202Y-126750000D03*
X232821853Y-123450000D03*
X125700000Y-110000000D03*
X228259441Y-126750000D03*
D18*
X173736252Y-86086632D03*
D19*
X234450000Y-86200000D03*
X183440734Y-72475000D03*
X106546853Y-116500000D03*
D18*
X147436252Y-98886632D03*
D19*
X125750000Y-123900000D03*
X236045578Y-71700000D03*
D18*
X139436252Y-104486632D03*
D19*
X125250000Y-94700000D03*
X249303147Y-77550000D03*
X253475000Y-79625000D03*
X157941645Y-93886240D03*
X186550000Y-101362500D03*
X241284615Y-126750000D03*
X120400000Y-100766667D03*
X233600000Y-78900000D03*
X109125000Y-94050000D03*
X244276697Y-74850000D03*
D18*
X137836252Y-101286632D03*
X150636252Y-97286632D03*
D19*
X247200000Y-106700000D03*
D18*
X138636252Y-98886632D03*
D19*
X222375000Y-82687587D03*
X118000000Y-98841667D03*
X234417431Y-71700000D03*
X213800000Y-91150000D03*
X245850000Y-112650000D03*
X236135963Y-74850000D03*
D18*
X145036252Y-103686632D03*
D19*
X226631294Y-126750000D03*
X217218707Y-72550000D03*
X246300000Y-88150000D03*
X93450000Y-87520000D03*
D18*
X144236252Y-94886632D03*
D19*
X227904844Y-71700000D03*
X135600000Y-112250000D03*
X133100000Y-123900000D03*
D18*
X151436252Y-94086632D03*
X137799149Y-86538894D03*
D19*
X223550000Y-81884441D03*
D18*
X141036252Y-94086632D03*
D19*
X146300000Y-118450000D03*
D18*
X172937295Y-93286632D03*
D19*
X105646853Y-115200000D03*
D18*
X146636252Y-92486632D03*
D19*
X189112413Y-106700000D03*
X100762413Y-115200000D03*
X244525000Y-96850000D03*
X221392257Y-71700000D03*
X243269055Y-72550000D03*
X227325000Y-94750000D03*
X214875000Y-84850000D03*
X238850000Y-96400000D03*
X226237587Y-73550000D03*
X101687413Y-113775000D03*
X155729040Y-120205659D03*
X153300000Y-123900000D03*
X240890908Y-73550000D03*
X239353146Y-76700000D03*
X230443706Y-122625000D03*
X103315559Y-113775000D03*
X117280000Y-100766667D03*
D18*
X162536252Y-93286632D03*
D19*
X178800000Y-101550000D03*
X227150000Y-106203146D03*
X230237413Y-119150000D03*
D18*
X165741762Y-98086632D03*
D19*
X247100000Y-88150000D03*
X240012761Y-72550000D03*
D18*
X174536252Y-93286632D03*
D19*
X118800000Y-100125000D03*
X240650000Y-106900000D03*
X233493706Y-119150000D03*
D18*
X140236252Y-97286632D03*
D19*
X247050000Y-82400000D03*
X227865734Y-73550000D03*
X143836914Y-117606253D03*
X226309266Y-121775000D03*
X175300000Y-72475000D03*
X189171854Y-108825000D03*
X236750000Y-119150000D03*
X239656468Y-126750000D03*
X253250000Y-84850000D03*
X236756468Y-72550000D03*
D18*
X141036252Y-90886632D03*
D19*
X147325000Y-126200000D03*
X247900000Y-88150000D03*
X112275000Y-88350000D03*
X118800000Y-98200000D03*
X114700000Y-88350000D03*
X237725000Y-76700000D03*
X231212413Y-76700000D03*
X245814458Y-71700000D03*
X118000000Y-99483333D03*
X222375000Y-81059441D03*
X239262761Y-73550000D03*
X231962413Y-75700000D03*
X222375000Y-77803147D03*
X187650000Y-109250000D03*
X223375000Y-126750000D03*
X237634615Y-73550000D03*
X233650000Y-86200000D03*
X245050000Y-112650000D03*
X245800000Y-96850000D03*
X244540908Y-126750000D03*
X245775348Y-73550000D03*
X189953321Y-72475000D03*
X227150000Y-104575000D03*
X234450000Y-123450000D03*
X187484266Y-106700000D03*
D18*
X166540265Y-98093622D03*
D19*
X247675000Y-77550000D03*
D18*
X149836252Y-99686632D03*
X144236252Y-100486632D03*
X146636252Y-99686632D03*
D19*
X229887587Y-126750000D03*
D18*
X164936252Y-86886632D03*
X138636252Y-97286632D03*
D19*
X246050000Y-119700000D03*
X218096854Y-73550000D03*
D18*
X151438327Y-102868622D03*
D19*
X113100000Y-95650000D03*
X146236914Y-117606253D03*
X227350000Y-90250000D03*
X119620000Y-100766667D03*
X176600000Y-92350000D03*
X230243881Y-72550000D03*
X234507816Y-74850000D03*
X223550000Y-83512587D03*
X232300000Y-108950000D03*
X145500000Y-118450000D03*
X221746854Y-126750000D03*
X119600000Y-98841667D03*
X99134266Y-117875000D03*
X244897202Y-72550000D03*
D18*
X136236252Y-89286632D03*
D19*
X224850000Y-81109441D03*
X227700000Y-114800000D03*
X222375000Y-84315734D03*
X200375000Y-85475000D03*
X226850000Y-113500000D03*
X224609441Y-73550000D03*
X240221854Y-123975000D03*
X103290559Y-116500000D03*
X186325000Y-109250000D03*
X225359441Y-72550000D03*
X245250000Y-119700000D03*
D18*
X171343242Y-93286370D03*
D19*
X234400000Y-78900000D03*
X136900000Y-117700000D03*
D18*
X141836252Y-89286632D03*
D19*
X186550000Y-103350000D03*
X119600000Y-99483333D03*
X227325000Y-93121853D03*
X240096854Y-121725000D03*
X230334266Y-75700000D03*
X158786252Y-94001632D03*
X124700000Y-123900000D03*
X232250000Y-92300000D03*
X186550000Y-102687500D03*
D18*
X143436252Y-96486632D03*
D19*
X118840000Y-100766667D03*
X118840000Y-102050000D03*
X193209614Y-72475000D03*
X235218706Y-75700000D03*
X118060000Y-102050000D03*
X248243880Y-75700000D03*
X236400174Y-126750000D03*
X227937413Y-123450000D03*
D18*
X172136252Y-105286632D03*
D19*
X232879669Y-74850000D03*
X225003147Y-126750000D03*
X245904843Y-74850000D03*
D18*
X150636252Y-88486632D03*
D19*
X247403495Y-73550000D03*
X233500000Y-116050000D03*
D18*
X162536252Y-86086632D03*
D19*
X120400000Y-102050000D03*
X120400000Y-101408333D03*
X101662413Y-116500000D03*
X186987500Y-109250000D03*
X241640908Y-72550000D03*
D18*
X167136252Y-93386632D03*
D19*
X231865559Y-119150000D03*
X251846854Y-79625000D03*
D18*
X141836252Y-94886632D03*
X166536252Y-98886632D03*
D19*
X153436252Y-88586632D03*
X232071853Y-122625000D03*
X244987587Y-75700000D03*
X229532991Y-71700000D03*
X107275000Y-115200000D03*
X226987587Y-72550000D03*
X244237587Y-76700000D03*
X95875000Y-87520000D03*
X106571853Y-113775000D03*
X250528147Y-79625000D03*
X176928147Y-72475000D03*
X102390559Y-117875000D03*
X104918706Y-116500000D03*
D18*
X138636252Y-93286632D03*
D19*
X119620000Y-101408333D03*
X108200000Y-113775000D03*
X247200000Y-108300000D03*
X191581467Y-72475000D03*
X246250000Y-82400000D03*
X246525348Y-72550000D03*
X178350000Y-92600000D03*
X144650000Y-116800000D03*
X239392256Y-74850000D03*
X116500000Y-98200000D03*
X193996853Y-106700000D03*
X240650000Y-107700000D03*
X157712868Y-120274661D03*
X237764110Y-74850000D03*
X216507817Y-71700000D03*
X240650000Y-106100000D03*
X222103147Y-72550000D03*
X203925000Y-78550000D03*
X223550000Y-78628147D03*
D18*
X168943242Y-92485578D03*
D19*
X198094054Y-72475000D03*
X120400000Y-98841667D03*
X249450000Y-110750000D03*
X104943706Y-113775000D03*
X145450000Y-116800000D03*
X225559266Y-122625000D03*
D18*
X168136252Y-104486632D03*
X145036252Y-94086632D03*
D19*
X222375000Y-76175000D03*
X239850000Y-89800000D03*
X246169055Y-126750000D03*
X232789284Y-71700000D03*
X182810000Y-104200000D03*
D18*
X145836252Y-98886632D03*
D19*
X229623376Y-74850000D03*
X242609440Y-76700000D03*
X219764110Y-71700000D03*
X241850000Y-123975000D03*
X119620000Y-102050000D03*
X229493881Y-73550000D03*
X247442605Y-71700000D03*
X235128321Y-72550000D03*
X252450000Y-115200000D03*
D18*
X135436252Y-100486632D03*
X168136252Y-86886632D03*
D19*
X144636914Y-117606253D03*
X231500000Y-108950000D03*
X239850000Y-92200000D03*
D18*
X162536252Y-102886632D03*
D19*
X234300000Y-116050000D03*
X223550000Y-85140734D03*
X120400000Y-99483333D03*
D18*
X135436252Y-92486632D03*
D19*
X186550000Y-102025000D03*
D18*
X134636252Y-104486632D03*
D19*
X232250000Y-89900000D03*
D18*
X145836252Y-93286632D03*
X166536252Y-86886632D03*
D19*
X228706119Y-75700000D03*
X145436914Y-117606253D03*
X241731293Y-75700000D03*
X125250000Y-93200000D03*
X227325000Y-96378146D03*
X226276697Y-71700000D03*
X181812587Y-72475000D03*
D18*
X170536252Y-86886632D03*
X139436252Y-87686632D03*
D19*
X228609266Y-119150000D03*
X107275000Y-117875000D03*
X117200000Y-100125000D03*
X241300000Y-102300000D03*
X206800000Y-78600000D03*
X117150000Y-106800000D03*
X240930018Y-71700000D03*
X129550000Y-117950000D03*
D18*
X149036252Y-93286632D03*
D19*
X245500000Y-88150000D03*
X125250000Y-93950000D03*
D18*
X143436252Y-94886632D03*
X143436252Y-94086632D03*
D19*
X109125000Y-91625000D03*
D18*
X162536252Y-105286632D03*
X146636252Y-101286632D03*
D19*
X232800000Y-78900000D03*
X242519055Y-73550000D03*
X231122028Y-73550000D03*
D18*
X140236252Y-94886632D03*
D19*
X238028321Y-126750000D03*
X194837761Y-72475000D03*
X224850000Y-84365734D03*
D18*
X134636252Y-102086632D03*
D19*
X235200000Y-78900000D03*
X220118707Y-126750000D03*
X190740559Y-106700000D03*
X234378321Y-73550000D03*
X223020404Y-71700000D03*
X114850000Y-94000000D03*
D18*
X166536252Y-86086632D03*
D19*
X236650000Y-101200000D03*
X224850000Y-77853147D03*
X100059266Y-113775000D03*
X104018706Y-117875000D03*
X180184440Y-72475000D03*
X243359440Y-75700000D03*
D18*
X141036252Y-91686632D03*
D19*
X226309266Y-123450000D03*
X229565559Y-121775000D03*
X102390559Y-115200000D03*
D18*
X144236252Y-93286632D03*
D19*
X186550000Y-100700000D03*
X201850000Y-90225000D03*
X119600000Y-100125000D03*
X222375000Y-79431294D03*
D18*
X164936252Y-104486632D03*
D19*
X199225000Y-87475000D03*
X215375000Y-86875000D03*
D18*
X141836252Y-97286632D03*
D19*
X227187413Y-122625000D03*
X143900000Y-118450000D03*
X247200000Y-107500000D03*
X233500174Y-72550000D03*
X108175000Y-116500000D03*
X196950000Y-85475000D03*
D18*
X145036252Y-99686632D03*
D19*
X212875000Y-83000000D03*
X117280000Y-101408333D03*
X156910065Y-94027926D03*
D18*
X164936252Y-98886632D03*
D19*
X248900000Y-79625000D03*
X233590559Y-75700000D03*
D18*
X161714470Y-86171780D03*
X148236252Y-87686632D03*
D19*
X234772028Y-126750000D03*
D18*
X164110385Y-93279874D03*
D19*
X233143881Y-126750000D03*
D18*
X143436252Y-92486632D03*
D19*
X252350000Y-82500000D03*
X218135964Y-71700000D03*
D18*
%TO.N,RTR_WHB_LOW_ADC0_CS*%
X146250000Y-85750000D03*
%TO.N,RTR_WHB_LOW_INC*%
X145600000Y-85750000D03*
%TO.N,RTR_WHB_LOW_OFF*%
X145836252Y-87686632D03*
%TO.N,RTR_WHB_LOW_AD2*%
X145036252Y-87686632D03*
%TO.N,RTR_WHB_LOW_UPDN*%
X144259792Y-86461200D03*
%TO.N,RTR_WHB_LOW_AD1*%
X145836252Y-88486632D03*
%TO.N,RTR_WHB_LOW_AD0*%
X145036252Y-88486632D03*
%TO.N,RTR_WHB_LOW_CSEL*%
X144236252Y-88486632D03*
%TO.N,RTR_WHB_LOW_ADC_FRSTDATA*%
X145850000Y-90100000D03*
%TO.N,RTR_WHB_LOW_LATCH*%
X143436252Y-89286632D03*
%TO.N,RTR_WHB_LOW_ADC_BUSY*%
X141836252Y-88486632D03*
%TO.N,RTR_WHB_LOW_ADC1_CS*%
X141036252Y-87686632D03*
%TO.N,RTR_WHB_LOW_ADC_CONVST*%
X140236252Y-87686632D03*
D19*
%TO.N,P12V*%
X236819265Y-103800735D03*
X243100000Y-94000000D03*
X229525000Y-113470000D03*
X243655000Y-103770000D03*
X236675000Y-94250000D03*
X230550000Y-83430000D03*
X249785000Y-115230000D03*
X250575000Y-84800000D03*
%TO.N,AMB_WHA_UPP_N_PWMH*%
X237935000Y-93600000D03*
D18*
X146650000Y-89300000D03*
D19*
%TO.N,AMB_WHA_UPP_N_PWML*%
X238575000Y-93600000D03*
D18*
X148236252Y-89286632D03*
D19*
%TO.N,VAMB*%
X235400000Y-92075000D03*
X246200000Y-116750000D03*
X241750000Y-92100000D03*
X238800000Y-106850000D03*
X246550000Y-86200000D03*
X245250000Y-107350000D03*
X231525000Y-111750000D03*
X238800000Y-108450000D03*
X235400000Y-90475000D03*
X245750000Y-86200000D03*
X235400000Y-89675000D03*
X241750000Y-90500000D03*
X235000000Y-82100000D03*
X247000000Y-116750000D03*
X247350000Y-86200000D03*
X233925000Y-111750000D03*
X248150000Y-86200000D03*
X247800000Y-116750000D03*
X233125000Y-111750000D03*
X233400000Y-82100000D03*
X245400000Y-116750000D03*
X245250000Y-108150000D03*
X232600000Y-82100000D03*
X235400000Y-91275000D03*
X238800000Y-107650000D03*
X241750000Y-91300000D03*
X232325000Y-111750000D03*
X241750000Y-89700000D03*
X234200000Y-82100000D03*
X245250000Y-108950000D03*
X245250000Y-106550000D03*
X238800000Y-106050000D03*
%TO.N,AMB_WHA_UPP_N*%
X234950000Y-96800000D03*
D20*
%TO.N,BOOTSPI_DQ1_BMODE1*%
X149700000Y-119050000D03*
D18*
X147436252Y-100486632D03*
%TO.N,AMB_WHB_LOW_N_PWML*%
X147458226Y-90902252D03*
D19*
X230550000Y-115250000D03*
D20*
%TO.N,P4V5*%
X188425000Y-99800000D03*
X187925000Y-99800000D03*
D19*
%TO.N,ZYNQ_POR*%
X149536252Y-110486632D03*
D20*
X177125000Y-97350000D03*
%TO.N,1v35en*%
X187150000Y-100050000D03*
%TO.N,3v3en*%
X177650000Y-97650000D03*
D19*
X134575000Y-118525000D03*
D20*
X111975000Y-123715000D03*
%TO.N,P1.8V*%
X121900000Y-94090000D03*
D18*
X141836252Y-92486632D03*
D19*
X156150000Y-72900000D03*
X157675000Y-76550000D03*
X157808333Y-73600000D03*
X156966667Y-72900000D03*
X160125000Y-76550000D03*
X158600000Y-72900000D03*
X157783333Y-72900000D03*
X156991667Y-73600000D03*
D20*
X117174021Y-104284500D03*
D19*
X159308333Y-76550000D03*
D18*
X145036252Y-91686632D03*
X146636252Y-91686632D03*
X145836252Y-91686632D03*
D19*
X156175000Y-73600000D03*
D18*
X143436252Y-97286632D03*
X145036252Y-93286632D03*
X144236252Y-91686632D03*
D19*
X158491667Y-76550000D03*
D20*
X119656250Y-95637500D03*
D18*
X145036252Y-97286632D03*
D20*
X122826250Y-98287500D03*
D18*
X144236252Y-95686632D03*
D19*
X158625000Y-73600000D03*
%TO.N,P1V35*%
X181325000Y-99400000D03*
D18*
X161736252Y-98886632D03*
X169736252Y-87686632D03*
D19*
X181800000Y-102400000D03*
X180662500Y-99400000D03*
D18*
X164940273Y-98086632D03*
X167336252Y-86086632D03*
D19*
X180000000Y-99400000D03*
D18*
X150636252Y-92486632D03*
X161736252Y-93286632D03*
X152036252Y-90486632D03*
X168936252Y-103686632D03*
X164182956Y-86088906D03*
X164936252Y-86086632D03*
X149836252Y-94886632D03*
X164154262Y-98086632D03*
X171336252Y-105286632D03*
X147436252Y-94086632D03*
X164123520Y-104479642D03*
X164129455Y-91679642D03*
X167336252Y-104486632D03*
X149036252Y-98086632D03*
X146636252Y-97286632D03*
X166536252Y-87686632D03*
X165736252Y-105286632D03*
D21*
X176325000Y-97450000D03*
D18*
X162536252Y-87686632D03*
D19*
X181987500Y-99400000D03*
D18*
X163336252Y-105286632D03*
X162536252Y-91686632D03*
X166536252Y-93486632D03*
D21*
X175650000Y-90625000D03*
D18*
X162529262Y-103681719D03*
D21*
X176550000Y-97675000D03*
D18*
X149836252Y-101286632D03*
X168936252Y-98886632D03*
X169743242Y-92486632D03*
X173736252Y-105286632D03*
X147436252Y-99686632D03*
D19*
X184700000Y-106500000D03*
X182650000Y-99400000D03*
X181800000Y-102950000D03*
D18*
X161736252Y-105286632D03*
X166536252Y-99686632D03*
D21*
X175650000Y-91625000D03*
X176800000Y-97925000D03*
D18*
X163342780Y-86093622D03*
X163336252Y-98086632D03*
X167336252Y-98086632D03*
X151436252Y-98086632D03*
%TO.N,/DDR/VREF*%
X146636252Y-94086632D03*
X170536252Y-87686632D03*
D19*
X184125000Y-104300000D03*
D18*
X171336252Y-100686632D03*
X168143242Y-93284489D03*
X146636252Y-98886632D03*
X167336252Y-105286632D03*
X148236252Y-95686632D03*
D19*
%TO.N,Net-(U1_A-PS_CLK_500)*%
X155436252Y-108686632D03*
D18*
X145836252Y-100486632D03*
%TO.N,P3V3*%
X137050000Y-102100000D03*
X138650000Y-102100000D03*
X135419706Y-103669685D03*
D19*
X114575000Y-90875000D03*
X114475000Y-113075000D03*
D18*
X134650000Y-101300000D03*
D19*
X116675000Y-111325000D03*
X131000000Y-115750000D03*
D18*
X137050000Y-93300000D03*
X149036252Y-89286632D03*
D19*
X116700000Y-111875000D03*
X178600000Y-107890000D03*
D18*
X139450000Y-99700000D03*
D19*
X114987500Y-111325000D03*
X116112500Y-111325000D03*
X140250000Y-120350000D03*
D18*
X138636252Y-94086632D03*
X147436252Y-102886632D03*
X139450000Y-91700000D03*
D19*
X151625000Y-120975000D03*
X116137500Y-112525000D03*
D18*
X136250000Y-96500000D03*
D19*
X115575000Y-111875000D03*
X115012500Y-112525000D03*
D18*
X141036252Y-86886632D03*
X137850000Y-96500000D03*
X141036252Y-103686632D03*
D19*
X115575000Y-112525000D03*
X115550000Y-111325000D03*
D18*
X141836252Y-101286632D03*
D19*
X115037500Y-113075000D03*
X114450000Y-111875000D03*
D18*
X149836252Y-103686632D03*
D19*
X115012500Y-111875000D03*
X116725000Y-113075000D03*
X115125000Y-90875000D03*
D18*
X144236252Y-87686632D03*
D19*
X115600000Y-113075000D03*
X114450000Y-112525000D03*
D18*
X135436252Y-87686632D03*
X137036252Y-90886632D03*
X143811252Y-104961632D03*
X144236252Y-102086632D03*
X135436252Y-98086632D03*
X140236252Y-89286632D03*
X149836252Y-86886632D03*
D19*
X116137500Y-111875000D03*
D18*
X146636252Y-88486632D03*
D19*
X151325000Y-110425000D03*
X116162500Y-113075000D03*
D18*
X145836252Y-90886632D03*
D19*
X114425000Y-111325000D03*
X179600000Y-107510000D03*
D18*
X137843252Y-99691874D03*
X137836252Y-88486632D03*
D19*
X116700000Y-112525000D03*
D18*
%TO.N,AMB_WHA_LOW_P_PWMH*%
X147436252Y-92486632D03*
D19*
X248700000Y-114020000D03*
%TO.N,AMB_WHB_LOW_N*%
X226950000Y-111870000D03*
D20*
%TO.N,BOOTSPI_DQ3_BMODE0*%
X140400000Y-119100000D03*
D18*
X149036252Y-104486632D03*
%TO.N,AMB_WHA_LOW_N_PWMH*%
X148236252Y-90086632D03*
D19*
X242695000Y-104850000D03*
%TO.N,/COMM_ETH/AVDDH*%
X114000000Y-97045000D03*
X114675000Y-103475000D03*
D20*
%TO.N,/COMM_ETH/AVDDL*%
X113986250Y-101287500D03*
X113986250Y-98787500D03*
%TO.N,P1.2V*%
X118156250Y-104557500D03*
X120406250Y-95637500D03*
X122876250Y-100287500D03*
X120675000Y-104500000D03*
X113450000Y-104262500D03*
X117706250Y-92275000D03*
X122986250Y-102337500D03*
D18*
%TO.N,ETH_TX0*%
X145036252Y-101286632D03*
D19*
X118656250Y-105625000D03*
D18*
%TO.N,ETH_TX1*%
X146636252Y-104486632D03*
D19*
X119200000Y-106350000D03*
%TO.N,ETH_TX2*%
X119650000Y-105050000D03*
D18*
X143436252Y-101286632D03*
%TO.N,ETH_TX3*%
X145836252Y-104486632D03*
D19*
X120150000Y-106150000D03*
D18*
%TO.N,ETH_TX_CLK*%
X146636252Y-102086632D03*
D20*
X121150000Y-106800000D03*
%TO.N,ETH_TX_CTL*%
X123781250Y-102775000D03*
D18*
X143436252Y-100486632D03*
D20*
%TO.N,ETH_RX3*%
X123781250Y-101779427D03*
D18*
X141036252Y-104486632D03*
%TO.N,ETH_RX2*%
X142637308Y-100483261D03*
D20*
X122981250Y-101275000D03*
%TO.N,ETH_RX1*%
X123781250Y-99775000D03*
D18*
X145836252Y-103686632D03*
D20*
%TO.N,ETH_RX0*%
X122981250Y-99275000D03*
D18*
X142636252Y-101286632D03*
%TO.N,ETH_RX_CTL*%
X145836252Y-102086632D03*
D20*
X123796250Y-99037500D03*
%TO.N,ETH_RX_CLK*%
X124500000Y-97775000D03*
D18*
X139450000Y-105300000D03*
%TO.N,ETH_MDC*%
X144236252Y-101286632D03*
D20*
X123081250Y-96625000D03*
%TO.N,ETH_MDIO*%
X121881250Y-95125000D03*
D18*
X141836252Y-102886632D03*
D20*
%TO.N,/COMM_ETH/AVDDL_PLL*%
X117356250Y-95507500D03*
D18*
%TO.N,BOOTSPI_DQ2_BMODE2*%
X148236252Y-101286632D03*
D20*
X149650000Y-117750000D03*
D18*
%TO.N,ETH_RST*%
X147443252Y-101286631D03*
D20*
X118650000Y-92550000D03*
D19*
%TO.N,AMB_WHA_LOW_N_PWML*%
X242055000Y-104850000D03*
D18*
X149036252Y-90086632D03*
D19*
%TO.N,AMB_WHA_LOW_N*%
X246350000Y-102250000D03*
%TO.N,BOOTSPI_CS*%
X151050000Y-108700000D03*
D20*
X149750000Y-120250000D03*
%TO.N,BOOTSPI_DQ0_BMODE3*%
X140400000Y-116400000D03*
D18*
X149836252Y-104486632D03*
D20*
%TO.N,BOOTSPI_SCK_BMODE4*%
X140400000Y-117750000D03*
D18*
X148236252Y-105186632D03*
D22*
%TO.N,SD0_D1*%
X148005639Y-109193632D03*
D19*
X132200000Y-120150000D03*
D18*
%TO.N,unconnected-(U1_A-PS_MIO30_501-PadA11)*%
X142636252Y-104486632D03*
%TO.N,unconnected-(U1_A-PS_MIO28_501-PadA12)*%
X141836252Y-104486632D03*
%TO.N,SNS_AUX3_P*%
X138650061Y-103697149D03*
%TO.N,SNS_AUX3_N*%
X137850000Y-103700000D03*
%TO.N,DDR3_DQ28*%
X151436252Y-87686632D03*
X161736252Y-87686632D03*
%TO.N,DDR3_DM3*%
X150636252Y-87686632D03*
X164136252Y-90886632D03*
%TO.N,DDR3_DQ24*%
X164136252Y-87686632D03*
X149836252Y-87686632D03*
%TO.N,AMB_WHB_UPP_P_PWML*%
X149036252Y-87686632D03*
D19*
X244965000Y-93670000D03*
D18*
%TO.N,unconnected-(U1_G-IO_L12N_T1_MRCC_33-PadAA18)*%
X137036252Y-87652372D03*
%TO.N,unconnected-(U1_G-IO_L11N_T1_SRCC_33-PadAA19)*%
X136236252Y-87686632D03*
%TO.N,DDR3_DM0*%
X165455164Y-100685600D03*
X151438795Y-103703676D03*
%TO.N,DDR3_DQ2*%
X150636252Y-103686632D03*
X165736252Y-104486632D03*
D19*
%TO.N,SD0_CMD*%
X132200000Y-114650000D03*
D18*
X149036252Y-103686632D03*
D19*
%TO.N,SD0_D2*%
X132200000Y-112450000D03*
D18*
X146636251Y-103669885D03*
%TO.N,RTR_WHA_SDI*%
X134636252Y-97286632D03*
D19*
X145625000Y-114925000D03*
%TO.N,MTR_SDO*%
X123725000Y-104025000D03*
X116950000Y-82250000D03*
D20*
%TO.N,USBH_FAULT*%
X181025000Y-109450000D03*
D18*
X142636252Y-102886632D03*
D20*
%TO.N,unconnected-(U1_A-PS_MIO34_501-PadB12)*%
X153386252Y-112936632D03*
D18*
X142636252Y-103686632D03*
%TO.N,unconnected-(U1_A-PS_MIO37_501-PadB14)*%
X140236252Y-103686632D03*
%TO.N,SNS_AUX2_N*%
X139450000Y-102900000D03*
%TO.N,DDR3_DQS0_P*%
X150636252Y-102886632D03*
X166536252Y-103686632D03*
%TO.N,DDR3_DQ0*%
X149036252Y-102886632D03*
X165736252Y-102886632D03*
%TO.N,PS_GPIO_MIO09*%
X148236252Y-102086632D03*
D19*
%TO.N,Net-(U1_A-PS_MIO12_500)*%
X132160000Y-116850000D03*
D18*
X148236252Y-102886632D03*
%TO.N,unconnected-(U1_A-PS_MIO32_501-PadC7)*%
X146636252Y-102888821D03*
D19*
X161400000Y-111493632D03*
D18*
%TO.N,RTR_WHA_SDO*%
X145836252Y-102886632D03*
X134639010Y-96484483D03*
D19*
X178475000Y-105790000D03*
D18*
%TO.N,ZYNQ_PS_RST*%
X145036252Y-102886632D03*
%TO.N,DDR3_VTT_EN*%
X143436252Y-102886632D03*
D19*
X180618368Y-107500000D03*
D18*
%TO.N,unconnected-(U1_A-PS_MIO39_501-PadC13)*%
X141036252Y-102886632D03*
%TO.N,SNS_AUX2_P*%
X139436252Y-102086632D03*
%TO.N,SNS_AUX4_N*%
X136250000Y-102900000D03*
%TO.N,DDR3_DQ7*%
X151436252Y-102082611D03*
X167336252Y-100486632D03*
%TO.N,DDR3_DQS0_N*%
X166536252Y-102886632D03*
X150636252Y-102086632D03*
%TO.N,DDR3_DQ6*%
X149836252Y-102086632D03*
X166536252Y-104486632D03*
%TO.N,unconnected-(U1_A-PS_MIO7_500-PadD5)*%
X147436252Y-102086632D03*
%TO.N,MTR_SCLK*%
X143436252Y-102086632D03*
X137050000Y-89300000D03*
%TO.N,MTR_SDI*%
X141836252Y-102086632D03*
X134636252Y-92486632D03*
%TO.N,SNS_AUX1_N*%
X140236252Y-102086632D03*
%TO.N,SNS_AUX4_P*%
X136250000Y-101300000D03*
%TO.N,DDR3_DQ5*%
X167336252Y-98886632D03*
X151436252Y-101286632D03*
%TO.N,DDR3_DQ4*%
X149036252Y-101286632D03*
X168136252Y-103686632D03*
D19*
%TO.N,SD0_D3*%
X132200000Y-113550000D03*
D18*
X146636252Y-100486632D03*
%TO.N,unconnected-(U1_A-PS_MIO29_501-PadE8)*%
X145836252Y-101286632D03*
%TO.N,ZYNQ_PL_DONE*%
X141036252Y-101286632D03*
X141850000Y-91700000D03*
%TO.N,RTR_WHA_SCK*%
X137036252Y-95686632D03*
X140236252Y-101286632D03*
X135436252Y-94886632D03*
%TO.N,SNS_AUX1_P*%
X139446078Y-101298887D03*
%TO.N,SNS_AUX0_N*%
X138650000Y-101300000D03*
%TO.N,DDR3_DQ3*%
X151436252Y-100486632D03*
X165736252Y-98886632D03*
%TO.N,DDR3_DQ1*%
X150636252Y-100486632D03*
X165736252Y-99686632D03*
%TO.N,DDR3_DRST#*%
X173736252Y-104486632D03*
X174536252Y-92486632D03*
X149836252Y-100486632D03*
%TO.N,DDR3_A13*%
X173736252Y-103686632D03*
X174536252Y-91686632D03*
X149041066Y-100497866D03*
%TO.N,unconnected-(U1_A-PS_MIO31_501-PadF9)*%
X145036252Y-100486632D03*
%TO.N,unconnected-(U1_A-PS_MIO38_501-PadF13)*%
X141036252Y-99686631D03*
%TO.N,unconnected-(U1_A-PS_MIO35_501-PadF14)*%
X141036252Y-100486633D03*
%TO.N,SNS_AUX0_P*%
X138636205Y-99670550D03*
%TO.N,SNS_AUX5_N*%
X136239322Y-100492964D03*
%TO.N,DDR3_DQ15*%
X161736252Y-102886632D03*
X151436252Y-99686632D03*
%TO.N,DDR3_DQ13*%
X161736252Y-103686632D03*
X150636252Y-99686632D03*
%TO.N,DDR3_A14*%
X149036252Y-99681729D03*
X173736252Y-87686632D03*
X173736252Y-99686632D03*
%TO.N,DDR3_A11*%
X172936252Y-88486632D03*
X173736252Y-100486632D03*
X148236777Y-99675264D03*
%TO.N,SD0_D0*%
X145836252Y-99686632D03*
D19*
X132200000Y-119050000D03*
D18*
%TO.N,P1.0V*%
X145836252Y-98086632D03*
X141836252Y-98086632D03*
X140236252Y-96486632D03*
X145836252Y-92486632D03*
X145036252Y-98886632D03*
X145836252Y-96486632D03*
X144236252Y-98886632D03*
X141036252Y-97286632D03*
X140236252Y-92486632D03*
X141036252Y-94886632D03*
X141036252Y-98086632D03*
X140236252Y-94086632D03*
X142636252Y-98086632D03*
X145836252Y-94086632D03*
X144236252Y-98086632D03*
X141036252Y-93286632D03*
%TO.N,AX_TCLK*%
X142636252Y-99686632D03*
%TO.N,AX_TMS*%
X141836252Y-99686632D03*
%TO.N,unconnected-(U1_A-PS_MIO33_501-PadG13)*%
X141036252Y-98886632D03*
%TO.N,AX_TDO*%
X140250000Y-98900000D03*
%TO.N,SNS_AUX5_P*%
X136250000Y-98900000D03*
%TO.N,SNS_AUX6_P*%
X135438987Y-98886234D03*
%TO.N,SNS_AUX6_N*%
X134643382Y-98880005D03*
%TO.N,DDR3_DQS1_P*%
X163336252Y-99686632D03*
X150636252Y-98886632D03*
%TO.N,DDR3_DM1*%
X163336252Y-102086632D03*
X149836252Y-98886632D03*
%TO.N,DDR3_A12*%
X149036252Y-98886632D03*
X172136252Y-100486632D03*
X171336252Y-88486632D03*
%TO.N,DDR3_A9*%
X148236252Y-98886632D03*
X173736252Y-91686632D03*
X172936252Y-103686632D03*
%TO.N,Net-(U1_H-VCCPLL)*%
X143436252Y-98086632D03*
%TO.N,AX_TDI*%
X141836252Y-98886632D03*
%TO.N,RTR_WHA_LOW_UPDN*%
X138644146Y-96485553D03*
%TO.N,RTR_WHB_UPP_ADC_BUSY*%
X134630417Y-98065572D03*
%TO.N,DDR3_DQ11*%
X163336252Y-102886632D03*
X152336252Y-98086632D03*
%TO.N,DDR3_DQS1_N*%
X150636252Y-98086632D03*
X162536252Y-99686632D03*
%TO.N,DDR3_A10*%
X170049740Y-88613378D03*
X149836252Y-98086632D03*
D19*
X170136252Y-101286632D03*
D18*
%TO.N,DDR3_A8*%
X148236252Y-98086632D03*
X173736252Y-86886632D03*
X173736252Y-98886632D03*
%TO.N,DDR3_A7*%
X173736252Y-92486632D03*
X172936252Y-104486632D03*
X147436252Y-98086632D03*
%TO.N,DDR3_A6*%
X146636252Y-98086632D03*
X172936252Y-98886632D03*
X172936252Y-86886632D03*
D19*
X192378147Y-104425000D03*
D18*
%TO.N,RTR_WHA_LOW_AD2*%
X139436123Y-98095216D03*
%TO.N,RTR_WHA_LOW_LATCH*%
X138639849Y-98083759D03*
%TO.N,RTR_WHA_LOW_OFF*%
X137832119Y-98086623D03*
%TO.N,RTR_WHA_UPP_UPDN*%
X137840712Y-97296078D03*
D20*
%TO.N,RTR_WHA_UPP_INC*%
X133511845Y-96262762D03*
D18*
%TO.N,DDR3_DQ12*%
X161736252Y-99686632D03*
X151436252Y-97286632D03*
%TO.N,DDR3_DQ14*%
X149836252Y-97286632D03*
X162536252Y-98886632D03*
%TO.N,DDR3_A2*%
X149036252Y-97286632D03*
X172936252Y-91686632D03*
X172936252Y-102886632D03*
%TO.N,DDR3_A5*%
X172136252Y-104486632D03*
X148236252Y-97286632D03*
X172937295Y-92486632D03*
%TO.N,DDR3_A4*%
X172136252Y-98886632D03*
X147436252Y-97286632D03*
X172136252Y-86886632D03*
%TO.N,RTR_WHA_LOW_AD1*%
X139436123Y-97293214D03*
%TO.N,RTR_WHA_UPP_CSEL*%
X137047237Y-97294975D03*
%TO.N,RTR_WHA_LOW_ADC_FRSTDATA*%
X136236252Y-97286632D03*
%TO.N,RTR_WHA_UPP_ADC_FRSTDATA*%
X135436252Y-97286632D03*
%TO.N,DDR3_DQ9*%
X164136252Y-102086632D03*
X151436252Y-96486632D03*
%TO.N,DDR3_DQ10*%
X150636252Y-96486632D03*
X163336252Y-98886632D03*
%TO.N,DDR3_DQ8*%
X164136252Y-99686632D03*
X149836252Y-96486632D03*
%TO.N,DDR3_A3*%
X149036252Y-96486632D03*
X172143242Y-92487251D03*
X171336252Y-104486632D03*
%TO.N,DDR3_BA1*%
X171336252Y-98886632D03*
X147436252Y-96486632D03*
X171336252Y-86886632D03*
%TO.N,DDR3_BA0*%
X146636252Y-96486632D03*
X170536252Y-104486632D03*
X171343242Y-92486632D03*
D19*
%TO.N,/Power/VCCAUX*%
X131150000Y-81400000D03*
X130600000Y-81400000D03*
D18*
X144236252Y-92486632D03*
D19*
X131450000Y-81850000D03*
X130850000Y-81850000D03*
D18*
X144236252Y-96486632D03*
D19*
X131700000Y-81400000D03*
D18*
X144236252Y-94086632D03*
X143436252Y-93286632D03*
%TO.N,RTR_WHA_LOW_CSEL*%
X139447580Y-95686415D03*
%TO.N,RTR_WHA_UPP_AD0*%
X138636943Y-95689530D03*
%TO.N,RTR_WHA_UPP_ADC0_CS*%
X137038667Y-96484371D03*
%TO.N,RTR_WHA_ADC_RST*%
X134641305Y-95686485D03*
%TO.N,DDR3_DQ18*%
X165811252Y-93611632D03*
X151436252Y-94886632D03*
%TO.N,DDR3_DQ20*%
X150636252Y-94886632D03*
X167329262Y-90923318D03*
%TO.N,DDR3_A0*%
X149029262Y-94891965D03*
X171336252Y-102886632D03*
X171336252Y-90886632D03*
%TO.N,DDR3_A1*%
X172137850Y-88479642D03*
X172136252Y-99686632D03*
X148236252Y-94886632D03*
%TO.N,DDR3_BA2*%
X171336252Y-91686632D03*
X170536252Y-103686632D03*
X147436252Y-95686632D03*
%TO.N,Net-(U1_B-PS_DDR_VRN_502)*%
X145836252Y-95686632D03*
%TO.N,RTR_WHA_UPP_LATCH*%
X140251014Y-95677822D03*
%TO.N,RTR_WHA_UPP_OFF*%
X138632646Y-94890392D03*
%TO.N,RTR_WHA_LOW_INC*%
X137850694Y-95680937D03*
%TO.N,RTR_WHA_UPP_ADC1_CS*%
X136243399Y-95697942D03*
%TO.N,RTR_WHA_UPP_ADC0_OUT_B*%
X135447125Y-95690304D03*
D20*
%TO.N,RTR_WHA_UPP_ADC0_OUT_A*%
X132750000Y-95290000D03*
D18*
%TO.N,DDR3_DQS2_P*%
X150636252Y-94086632D03*
X166536252Y-91686632D03*
%TO.N,DDR3_DQ22*%
X166586252Y-92486632D03*
X149836252Y-94086632D03*
D19*
%TO.N,DDR3_CK_P*%
X177000000Y-91500000D03*
D18*
X149036252Y-94086632D03*
X168136252Y-87686632D03*
X168136252Y-99686632D03*
D19*
X174529252Y-89027893D03*
D18*
%TO.N,DDR3_CK_N*%
X168936252Y-87686632D03*
X148236252Y-94086632D03*
D19*
X175000000Y-88000000D03*
X177014569Y-88526668D03*
D18*
X168936252Y-99686632D03*
%TO.N,Net-(U1_B-PS_DDR_VRP_502)*%
X146636252Y-94886632D03*
%TO.N,RTR_WHA_LOW_ADC1_CS*%
X139438987Y-94887278D03*
%TO.N,RTR_WHA_UPP_AD2*%
X137833509Y-94881799D03*
%TO.N,RTR_WHA_UPP_AD1*%
X137035853Y-94080571D03*
%TO.N,RTR_WHA_UPP_ADC_CONVST*%
X137036252Y-94886632D03*
%TO.N,RTR_WHA_UPP_ADC_BUSY*%
X136241489Y-94890211D03*
D20*
%TO.N,RTR_WHA_UPP_ADC0_OUT_D*%
X132150000Y-94490000D03*
D18*
%TO.N,DDR3_DM2*%
X151436252Y-93286632D03*
X165736252Y-88536632D03*
%TO.N,DDR3_DQS2_N*%
X166536252Y-90886632D03*
X150636252Y-93286632D03*
%TO.N,DDR3_CAS#*%
X169736252Y-102886632D03*
X149836252Y-93286632D03*
X169711252Y-91686632D03*
%TO.N,DDR3_ODT*%
X168936252Y-105286632D03*
X168936252Y-93286632D03*
X148236252Y-93286632D03*
%TO.N,DDR3_CS#*%
X147436252Y-93286632D03*
X169736252Y-104486632D03*
X170548569Y-92493625D03*
%TO.N,RTR_WHA_LOW_ADC0_CS*%
X139451876Y-93289003D03*
%TO.N,RTR_WHA_LOW_ADC1_OUT_D*%
X139451876Y-94092437D03*
%TO.N,RTR_WHA_LOW_ADC_CONVST*%
X137840712Y-93280410D03*
%TO.N,RTR_WHA_LOW_ADC_BUSY*%
X137840712Y-94096733D03*
%TO.N,RTR_WHA_UPP_ADC1_OUT_D*%
X136258675Y-94080571D03*
%TO.N,RTR_WHA_UPP_ADC1_OUT_C*%
X135443306Y-94084390D03*
D20*
%TO.N,RTR_WHA_UPP_ADC0_OUT_C*%
X132750000Y-93690000D03*
D18*
%TO.N,DDR3_DQ21*%
X151436252Y-92486632D03*
X167336252Y-87686632D03*
%TO.N,DDR3_DQ23*%
X149836252Y-92486632D03*
X167343242Y-88493622D03*
%TO.N,DDR3_WE#*%
X170536252Y-102886632D03*
X170543242Y-91660999D03*
X149036252Y-92486632D03*
%TO.N,DDR3_RAS#*%
X148236252Y-92486632D03*
X168936252Y-102886632D03*
X168943242Y-91691120D03*
%TO.N,RTR_WHB_UPP_ADC_FRSTDATA*%
X146629985Y-93283356D03*
%TO.N,RTR_WHA_LOW_AD0*%
X139447580Y-92489865D03*
%TO.N,RTR_WHA_LOW_ADC1_OUT_C*%
X138644146Y-92481272D03*
%TO.N,RTR_WHA_LOW_ADC1_OUT_B*%
X137041574Y-92494162D03*
%TO.N,RTR_WHA_LOW_ADC0_OUT_D*%
X136246733Y-92485569D03*
%TO.N,RTR_WHA_UPP_ADC1_OUT_B*%
X136239730Y-93275935D03*
%TO.N,RTR_WHA_UPP_ADC1_OUT_A*%
X135450000Y-93300000D03*
%TO.N,DDR3_DQ17*%
X151436252Y-91686632D03*
X165736252Y-87686632D03*
%TO.N,DDR3_DQ19*%
X150636252Y-91686632D03*
X165736252Y-86886632D03*
%TO.N,DDR3_DQ16*%
X164936252Y-91686632D03*
X149836252Y-91686632D03*
D19*
%TO.N,AMB_WHB_LOW_P_PWMH*%
X236015000Y-104850000D03*
D18*
X148236252Y-91686632D03*
D19*
%TO.N,AMB_WHA_LOW_P_PWML*%
X248700000Y-113380000D03*
D18*
X147436252Y-91686632D03*
%TO.N,PROGRAM_B*%
X143436252Y-91686632D03*
%TO.N,INIT_B*%
X140236252Y-91686632D03*
D19*
X123650000Y-92950000D03*
D18*
%TO.N,RTR_WHA_LOW_ADC0_OUT_B*%
X138636252Y-91686632D03*
%TO.N,RTR_WHA_LOW_ADC0_OUT_A*%
X137853601Y-91682135D03*
%TO.N,RTR_WHA_LOW_ADC1_OUT_A*%
X137845008Y-92498458D03*
%TO.N,RTR_WHA_LOW_ADC0_OUT_C*%
X136236252Y-91686632D03*
%TO.N,DDR3_DQ29*%
X161736252Y-91686632D03*
X151436252Y-90886632D03*
%TO.N,DDR3_DQ31*%
X161736252Y-90886632D03*
X150636252Y-90886632D03*
D19*
%TO.N,AMB_WHB_LOW_P_PWML*%
X235375000Y-104850000D03*
D18*
X148248770Y-90906548D03*
%TO.N,AMB_WHB_LOW_N_PWMH*%
X146646199Y-90885066D03*
D19*
X230550000Y-114610000D03*
D18*
%TO.N,_MTR_WHA_nFAULT*%
X140236252Y-90886632D03*
%TO.N,unconnected-(U1_G-IO_L15P_T2_DQS_33-PadU15)*%
X139450000Y-90900000D03*
%TO.N,unconnected-(U1_G-IO_L15N_T2_DQS_33-PadU16)*%
X138636252Y-90886632D03*
%TO.N,RTR_WHB_UPP_ADC0_OUT_A*%
X137860042Y-90883569D03*
%TO.N,MTR_WHA_INB_H*%
X135436252Y-91686632D03*
%TO.N,DDR3_DQS3_P*%
X150636252Y-90086632D03*
X163336252Y-88486632D03*
%TO.N,DDR3_CKE*%
X168936252Y-86886632D03*
X168936252Y-98086632D03*
X149836252Y-90086632D03*
%TO.N,AMB_WHB_UPP_N_PWMH*%
X146636252Y-90086632D03*
D19*
X249375000Y-83670000D03*
D18*
%TO.N,RTR_WHB_UPP_ADC1_CS*%
X145047924Y-90094521D03*
%TO.N,RTR_WHB_UPP_ADC0_CS*%
X143450000Y-90900000D03*
%TO.N,MTR_WHA_WAKE*%
X141050000Y-90100000D03*
%TO.N,RTR_WHB_UPP_ADC1_OUT_C*%
X140233286Y-90079985D03*
%TO.N,RTR_WHB_UPP_ADC1_OUT_B*%
X139436252Y-89286632D03*
%TO.N,RTR_WHB_UPP_ADC_CONVST*%
X137850000Y-90100000D03*
%TO.N,MTR_WHA_INC_H*%
X137050000Y-90100000D03*
%TO.N,MTR_WHA_INC_L*%
X136250000Y-90100000D03*
%TO.N,MTR_WHA_INB_L*%
X136232312Y-90874820D03*
%TO.N,DDR3_DQ27*%
X163268242Y-91679642D03*
X151436252Y-90086632D03*
%TO.N,DDR3_DQS3_N*%
X162536252Y-88486632D03*
X150636252Y-89286632D03*
%TO.N,DDR3_DQ30*%
X162536252Y-86886632D03*
X149836252Y-89286632D03*
D19*
%TO.N,AMB_WHB_UPP_N_PWML*%
X249375000Y-83030000D03*
D18*
X145842765Y-89273901D03*
%TO.N,RTR_WHB_ADC_RST*%
X145036252Y-89286632D03*
%TO.N,RTR_WHB_UPP_ADC1_OUT_D*%
X141011252Y-89286632D03*
%TO.N,unconnected-(U1_G-IO_L14P_T2_SRCC_33-PadW16)*%
X138650000Y-89300000D03*
%TO.N,MTR_WHA_INA_H*%
X135436252Y-90086632D03*
%TO.N,DDR3_DQ25*%
X163336252Y-90686632D03*
X151436252Y-89286632D03*
%TO.N,DDR3_DQ26*%
X149836252Y-88486632D03*
X163336252Y-86886632D03*
D19*
%TO.N,AMB_WHB_UPP_P_PWMH*%
X244325000Y-93650000D03*
D18*
X149036252Y-88486632D03*
%TO.N,unconnected-(U1_G-IO_L14N_T2_SRCC_33-PadY16)*%
X138611252Y-88486632D03*
%TO.N,unconnected-(U1_G-IO_L12P_T1_MRCC_33-PadY18)*%
X137036252Y-88486632D03*
%TO.N,unconnected-(U1_G-IO_L11P_T1_SRCC_33-PadY19)*%
X136236252Y-88486632D03*
%TO.N,MTR_WHB_INC_H*%
X135436252Y-89286632D03*
D19*
%TO.N,Net-(D1-K)*%
X181750000Y-106500000D03*
%TO.N,/DDR/PGOOD_LED*%
X178640000Y-108940000D03*
%TO.N,AMB_WHA_LOW_P*%
X252350000Y-116750000D03*
%TO.N,AMB_WHB_UPP_N*%
X253000000Y-86350000D03*
%TO.N,AMB_WHA_UPP_P*%
X228950000Y-80750000D03*
%TO.N,SD0_CLK*%
X129850000Y-116850000D03*
%TO.N,AMB_WHB_LOW_P*%
X237650000Y-101150000D03*
D18*
%TO.N,Net-(U2-ZQ)*%
X169736252Y-98886632D03*
D19*
%TO.N,AMB_WHB_UPP_P*%
X240700000Y-95750000D03*
D20*
%TO.N,1v8en*%
X178975000Y-90850000D03*
%TO.N,1v0en*%
X178325000Y-90825000D03*
X154725000Y-123300000D03*
D19*
%TO.N,DDR3_VTT*%
X176503926Y-98944590D03*
X171336252Y-97086632D03*
X190750000Y-104425000D03*
X186127116Y-108000000D03*
X175600000Y-103500000D03*
X186150000Y-106575000D03*
D20*
%TO.N,unconnected-(U1_A-PS_MIO31_501-PadF9)*%
X170500000Y-112150000D03*
%TO.N,unconnected-(U1_A-PS_MIO29_501-PadE8)*%
X170100000Y-112550000D03*
%TD*%
%TO.N,P1.8V*%
D23*
X122448250Y-98665500D02*
X122826250Y-98287500D01*
X122448250Y-101851750D02*
X122448250Y-98665500D01*
X120800000Y-103500000D02*
X122448250Y-101851750D01*
X117174021Y-104284500D02*
X117509250Y-104284500D01*
X118293750Y-103500000D02*
X120800000Y-103500000D01*
X117509250Y-104284500D02*
X118293750Y-103500000D01*
%TO.N,GND*%
D24*
X232250000Y-92300000D02*
X232250000Y-89900000D01*
D25*
X245500000Y-88150000D02*
X247900000Y-88150000D01*
D24*
X245450000Y-82400000D02*
X247850000Y-82400000D01*
D26*
X240275000Y-84470000D02*
X240275000Y-87010000D01*
X239525000Y-111520000D02*
X239525000Y-114060000D01*
D24*
X231900000Y-116050000D02*
X234300000Y-116050000D01*
D25*
X232850000Y-86200000D02*
X235250000Y-86200000D01*
D24*
X248500000Y-110750000D02*
X249450000Y-110750000D01*
X231500000Y-108950000D02*
X233900000Y-108950000D01*
X244250000Y-112650000D02*
X246650000Y-112650000D01*
X232800000Y-78900000D02*
X235200000Y-78900000D01*
D25*
X247200000Y-106700000D02*
X247200000Y-109100000D01*
X239850000Y-89800000D02*
X239850000Y-91400000D01*
X240650000Y-106100000D02*
X240650000Y-108500000D01*
D24*
X245250000Y-119700000D02*
X247650000Y-119700000D01*
D27*
X186325000Y-109250000D02*
X187650000Y-109250000D01*
D25*
X186550000Y-100700000D02*
X186550000Y-103350000D01*
%TO.N,AMB_WHA_UPP_N_PWMH*%
D23*
X148350000Y-84150000D02*
X148150000Y-84350000D01*
X190050000Y-84150000D02*
X148350000Y-84150000D01*
D28*
X204800000Y-98250000D02*
X204150000Y-98250000D01*
D29*
X147048252Y-88901748D02*
X147048252Y-85451748D01*
D28*
X237935000Y-94933000D02*
X237935000Y-93600000D01*
X234618000Y-98250000D02*
X237935000Y-94933000D01*
X147048252Y-85451748D02*
X148150000Y-84350000D01*
D29*
X146650000Y-89300000D02*
X147048252Y-88901748D01*
D28*
X204800000Y-98250000D02*
X234618000Y-98250000D01*
X204150000Y-98250000D02*
X190050000Y-84150000D01*
%TO.N,AMB_WHA_UPP_N_PWML*%
D29*
X148236252Y-89286632D02*
X147848252Y-88898632D01*
D28*
X203650000Y-98700000D02*
X234950000Y-98700000D01*
X238575000Y-95075000D02*
X238575000Y-93600000D01*
X189650000Y-84700000D02*
X203650000Y-98700000D01*
D29*
X147848252Y-88898632D02*
X147848252Y-85401748D01*
D28*
X234950000Y-98700000D02*
X238575000Y-95075000D01*
D23*
X148550000Y-84700000D02*
X189650000Y-84700000D01*
D28*
X147848252Y-85401748D02*
X148550000Y-84700000D01*
%TO.N,VAMB*%
D25*
X245750000Y-86200000D02*
X248150000Y-86200000D01*
X241750000Y-89700000D02*
X241750000Y-91300000D01*
X231525000Y-111750000D02*
X233925000Y-111750000D01*
D24*
X232600000Y-82100000D02*
X235000000Y-82100000D01*
D25*
X235400000Y-92075000D02*
X235400000Y-89675000D01*
X245250000Y-106550000D02*
X245250000Y-108950000D01*
X238800000Y-106050000D02*
X238800000Y-108450000D01*
%TO.N,AMB_WHB_LOW_N_PWML*%
D28*
X230850000Y-115250000D02*
X230550000Y-115250000D01*
D29*
X146480870Y-95279965D02*
X151875000Y-95279965D01*
D28*
X155929965Y-95279965D02*
X157018000Y-96368000D01*
D29*
X147048252Y-91823347D02*
X146772967Y-92098632D01*
D28*
X151979965Y-95279965D02*
X155929965Y-95279965D01*
D29*
X146241985Y-95041080D02*
X146480870Y-95279965D01*
D28*
X157018000Y-96368000D02*
X171018265Y-96368000D01*
D29*
X151875000Y-95279965D02*
X151979965Y-95279965D01*
X146241985Y-92332184D02*
X146241985Y-95041080D01*
X146772967Y-92098632D02*
X146475537Y-92098632D01*
D28*
X171032633Y-96353632D02*
X171639871Y-96353632D01*
X221210000Y-102650000D02*
X231200000Y-112640000D01*
D29*
X147048252Y-91312226D02*
X147048252Y-91823347D01*
X146475537Y-92098632D02*
X146241985Y-92332184D01*
D28*
X231200000Y-112640000D02*
X231200000Y-114900000D01*
X194650000Y-102650000D02*
X221210000Y-102650000D01*
X188198810Y-96500000D02*
X188500000Y-96500000D01*
X188066810Y-96368000D02*
X188198810Y-96500000D01*
X171639871Y-96353632D02*
X171654239Y-96368000D01*
X171018265Y-96368000D02*
X171032633Y-96353632D01*
D29*
X147458226Y-90902252D02*
X147048252Y-91312226D01*
D28*
X188500000Y-96500000D02*
X194650000Y-102650000D01*
X231200000Y-114900000D02*
X230850000Y-115250000D01*
X171654239Y-96368000D02*
X188066810Y-96368000D01*
%TO.N,3v3en*%
D23*
X127800000Y-118450000D02*
X134500000Y-118450000D01*
D30*
X134500000Y-118450000D02*
X134575000Y-118525000D01*
D23*
X122535000Y-123715000D02*
X127800000Y-118450000D01*
X111975000Y-123715000D02*
X122535000Y-123715000D01*
%TO.N,P1.8V*%
D31*
X144648252Y-92898632D02*
X145036252Y-93286632D01*
D32*
X156150000Y-72900000D02*
X156150000Y-73575000D01*
D31*
X145036252Y-93286632D02*
X144624252Y-93698632D01*
D25*
X168303000Y-121878000D02*
X168303000Y-123853000D01*
D33*
X122512500Y-80762500D02*
X124025000Y-79250000D01*
D25*
X166125000Y-115250000D02*
X166125000Y-121500000D01*
D30*
X144236252Y-91686632D02*
X143843252Y-91293632D01*
D33*
X156175000Y-73600000D02*
X150525000Y-79250000D01*
D31*
X144236252Y-95686632D02*
X144625000Y-96075380D01*
X144625000Y-96875380D02*
X145036252Y-97286632D01*
D33*
X143925000Y-79250000D02*
X131000000Y-79250000D01*
D25*
X167925000Y-121500000D02*
X168303000Y-121878000D01*
D32*
X158600000Y-72900000D02*
X158600000Y-73575000D01*
D25*
X166850000Y-114525000D02*
X166125000Y-115250000D01*
D33*
X97810000Y-79250000D02*
X95760000Y-81300000D01*
D25*
X122550000Y-98011250D02*
X122512500Y-97973750D01*
X122512500Y-94000000D02*
X122512500Y-80762500D01*
X166125000Y-121500000D02*
X167925000Y-121500000D01*
D23*
X122422500Y-94090000D02*
X122512500Y-94000000D01*
X121900000Y-94090000D02*
X122422500Y-94090000D01*
D25*
X143250000Y-79925000D02*
X143925000Y-79250000D01*
D32*
X156150000Y-73575000D02*
X156175000Y-73600000D01*
D31*
X144624252Y-95298632D02*
X144236252Y-95686632D01*
X144625000Y-96075380D02*
X144625000Y-96875380D01*
D33*
X119656250Y-95637500D02*
X119656250Y-83618750D01*
D32*
X158600000Y-73575000D02*
X158625000Y-73600000D01*
D24*
X156966667Y-73575000D02*
X156991667Y-73600000D01*
D33*
X119656250Y-83618750D02*
X122512500Y-80762500D01*
D25*
X168303000Y-123853000D02*
X168503000Y-123853000D01*
D32*
X156150000Y-72900000D02*
X158600000Y-72900000D01*
D31*
X144624252Y-93698632D02*
X144624252Y-95298632D01*
D25*
X157783333Y-73575000D02*
X157808333Y-73600000D01*
D31*
X145036252Y-91686632D02*
X144648252Y-92074632D01*
D33*
X150525000Y-79250000D02*
X143925000Y-79250000D01*
X124025000Y-79250000D02*
X97810000Y-79250000D01*
D25*
X157783333Y-72900000D02*
X157783333Y-73575000D01*
D32*
X156175000Y-73600000D02*
X158625000Y-73600000D01*
D33*
X131000000Y-79250000D02*
X124025000Y-79250000D01*
D25*
X166125000Y-121500000D02*
X164000000Y-123625000D01*
D30*
X143843252Y-88593252D02*
X143250000Y-88000000D01*
D25*
X122512500Y-97973750D02*
X122512500Y-94000000D01*
X143250000Y-88000000D02*
X143250000Y-79925000D01*
D23*
X122826250Y-98287500D02*
X122550000Y-98011250D01*
D30*
X143843252Y-91293632D02*
X143843252Y-88593252D01*
D31*
X144648252Y-92074632D02*
X144648252Y-92898632D01*
D25*
X168503000Y-123853000D02*
X168900000Y-124250000D01*
D24*
X157675000Y-76550000D02*
X160125000Y-76550000D01*
X156966667Y-72900000D02*
X156966667Y-73575000D01*
%TO.N,P1V35*%
D31*
X146636252Y-97286632D02*
X147048252Y-97698632D01*
D30*
X149036252Y-98086632D02*
X149429252Y-98479632D01*
X151043252Y-98479632D02*
X151436252Y-98086632D01*
D25*
X180000000Y-99400000D02*
X182650000Y-99400000D01*
D31*
X147835620Y-99287264D02*
X148408335Y-99287264D01*
X165736252Y-105286632D02*
X166148252Y-104874632D01*
D30*
X149836252Y-101286632D02*
X150392038Y-101286632D01*
D31*
X148648252Y-98474632D02*
X149036252Y-98086632D01*
X166948252Y-104874632D02*
X167336252Y-104486632D01*
X148648252Y-97698632D02*
X149036252Y-98086632D01*
X148408335Y-99287264D02*
X148648252Y-99047347D01*
X148648252Y-99047347D02*
X148648252Y-98474632D01*
X168524252Y-104098632D02*
X168936252Y-103686632D01*
D30*
X151043252Y-100635418D02*
X151043252Y-98479632D01*
D31*
X167336252Y-104486632D02*
X167724252Y-104098632D01*
X167724252Y-104098632D02*
X168524252Y-104098632D01*
D30*
X150392038Y-101286632D02*
X151043252Y-100635418D01*
X149429252Y-98479632D02*
X151043252Y-98479632D01*
D31*
X147436252Y-99686632D02*
X147835620Y-99287264D01*
X166148252Y-104874632D02*
X166948252Y-104874632D01*
X147048252Y-97698632D02*
X148648252Y-97698632D01*
%TO.N,AMB_WHA_LOW_P_PWMH*%
D28*
X155898632Y-94498632D02*
X157200000Y-95800000D01*
X195100000Y-102150000D02*
X229546660Y-102150000D01*
D29*
X147048252Y-92874632D02*
X147048252Y-94247347D01*
X147048252Y-94247347D02*
X147299537Y-94498632D01*
D28*
X157200000Y-95800000D02*
X188750000Y-95800000D01*
X237099778Y-109550000D02*
X237132778Y-109583000D01*
X244263000Y-109583000D02*
X248700000Y-114020000D01*
X155898632Y-94498632D02*
X151901368Y-94498632D01*
D29*
X147436252Y-92486632D02*
X147048252Y-92874632D01*
D28*
X188750000Y-95800000D02*
X195100000Y-102150000D01*
D29*
X147299537Y-94498632D02*
X151901368Y-94498632D01*
D28*
X229546660Y-102150000D02*
X236946660Y-109550000D01*
X236946660Y-109550000D02*
X237099778Y-109550000D01*
X237132778Y-109583000D02*
X244263000Y-109583000D01*
%TO.N,AMB_WHA_LOW_N_PWMH*%
X157198632Y-89698632D02*
X161550000Y-94050000D01*
X190200000Y-94050000D02*
X196050000Y-99900000D01*
D29*
X152050000Y-89700000D02*
X148622884Y-89700000D01*
X152051368Y-89698632D02*
X152050000Y-89700000D01*
D28*
X157198632Y-89698632D02*
X152051368Y-89698632D01*
X196050000Y-99900000D02*
X237745000Y-99900000D01*
X237745000Y-99900000D02*
X242695000Y-104850000D01*
D29*
X148236252Y-90086632D02*
X148622884Y-89700000D01*
D28*
X161550000Y-94050000D02*
X190200000Y-94050000D01*
%TO.N,P1.2V*%
D23*
X122986250Y-101969143D02*
X122986250Y-102337500D01*
X118156250Y-104557500D02*
X120617500Y-104557500D01*
X122837500Y-102337500D02*
X120675000Y-104500000D01*
D25*
X117706250Y-92275000D02*
X117706250Y-94631250D01*
X117213750Y-105500000D02*
X118156250Y-104557500D01*
X120400000Y-96075000D02*
X120400000Y-95643750D01*
X119450000Y-96375000D02*
X120100000Y-96375000D01*
D23*
X123437500Y-101517893D02*
X122986250Y-101969143D01*
X120617500Y-104557500D02*
X120675000Y-104500000D01*
D25*
X117706250Y-94631250D02*
X119450000Y-96375000D01*
X114687500Y-105500000D02*
X117213750Y-105500000D01*
D23*
X122876250Y-100287500D02*
X123437500Y-100287500D01*
X123437500Y-100287500D02*
X123437500Y-101517893D01*
D25*
X113450000Y-104262500D02*
X114687500Y-105500000D01*
X120400000Y-95643750D02*
X120406250Y-95637500D01*
X120100000Y-96375000D02*
X120400000Y-96075000D01*
D23*
X122986250Y-102337500D02*
X122837500Y-102337500D01*
%TO.N,AMB_WHA_LOW_N_PWML*%
D28*
X196000000Y-100350000D02*
X237646285Y-100350000D01*
D29*
X152100000Y-91250000D02*
X152075368Y-91274632D01*
D28*
X237646285Y-100350000D02*
X242055000Y-104758715D01*
X158174632Y-91274632D02*
X152124632Y-91274632D01*
D29*
X149036252Y-90086632D02*
X149036252Y-90635347D01*
X152075368Y-91274632D02*
X149675537Y-91274632D01*
D28*
X242055000Y-104758715D02*
X242055000Y-104850000D01*
D29*
X149036252Y-90635347D02*
X149675537Y-91274632D01*
D28*
X190050000Y-94400000D02*
X196000000Y-100350000D01*
X158174632Y-91274632D02*
X161300000Y-94400000D01*
X161300000Y-94400000D02*
X190050000Y-94400000D01*
%TO.N,AMB_WHB_UPP_P_PWML*%
X187750000Y-90250000D02*
X196968000Y-99468000D01*
D29*
X152898632Y-88898632D02*
X153350000Y-89350000D01*
X148648252Y-88074632D02*
X148648252Y-88647347D01*
D28*
X153350000Y-89350000D02*
X159850000Y-89350000D01*
X239167000Y-99468000D02*
X244965000Y-93670000D01*
X160750000Y-90250000D02*
X187750000Y-90250000D01*
X159850000Y-89350000D02*
X160750000Y-90250000D01*
X196968000Y-99468000D02*
X239167000Y-99468000D01*
D29*
X149036252Y-87686632D02*
X148648252Y-88074632D01*
X148648252Y-88647347D02*
X148899537Y-88898632D01*
X148899537Y-88898632D02*
X152898632Y-88898632D01*
%TO.N,RTR_WHA_SDI*%
D34*
X158850000Y-114925000D02*
X162850000Y-110925000D01*
X145625000Y-114925000D02*
X158850000Y-114925000D01*
X162850000Y-110925000D02*
X203775000Y-110925000D01*
X203775000Y-110925000D02*
X208980000Y-105720000D01*
D31*
X208980000Y-105720000D02*
X209425000Y-105720000D01*
%TO.N,RTR_WHA_SDO*%
D34*
X177425000Y-110025000D02*
X203000000Y-110025000D01*
X177425000Y-106840000D02*
X178475000Y-105790000D01*
X146248251Y-103830600D02*
X146516283Y-104098632D01*
X138479331Y-99282550D02*
X138796920Y-99282550D01*
X207900000Y-104425000D02*
X208675000Y-103650000D01*
X161625000Y-110025000D02*
X177425000Y-110025000D01*
X177425000Y-110025000D02*
X177425000Y-106840000D01*
X136659237Y-97462456D02*
X138479331Y-99282550D01*
X203000000Y-110025000D02*
X207900000Y-105125000D01*
X145448252Y-102498632D02*
X145836252Y-102886632D01*
X155698632Y-104098632D02*
X161625000Y-110025000D01*
X139024205Y-99827424D02*
X139848252Y-100651471D01*
D31*
X209895000Y-103650000D02*
X210695000Y-104450000D01*
D34*
X146516283Y-104098632D02*
X155698632Y-104098632D01*
X136659237Y-97160902D02*
X136659237Y-97462456D01*
X139024205Y-99509835D02*
X139024205Y-99827424D01*
D31*
X134639010Y-96484483D02*
X135053159Y-96898632D01*
X208675000Y-103650000D02*
X209895000Y-103650000D01*
D34*
X136396967Y-96898632D02*
X136659237Y-97160902D01*
X145836252Y-102886632D02*
X146248251Y-103298631D01*
X135053159Y-96898632D02*
X136396967Y-96898632D01*
X207900000Y-105125000D02*
X207900000Y-104425000D01*
X146248251Y-103298631D02*
X146248251Y-103830600D01*
X140099537Y-102498632D02*
X145448252Y-102498632D01*
X139848252Y-100651471D02*
X139848252Y-102247347D01*
X138796920Y-99282550D02*
X139024205Y-99509835D01*
X139848252Y-102247347D02*
X140099537Y-102498632D01*
%TO.N,MTR_SCLK*%
D35*
X143127252Y-101777632D02*
X143436252Y-102086632D01*
X136642252Y-89707748D02*
X137050000Y-89300000D01*
X136642252Y-92575000D02*
X136642252Y-89707748D01*
X136642252Y-92575000D02*
X137038662Y-92971410D01*
X140200000Y-96925000D02*
X142711612Y-96925000D01*
X137038662Y-92971410D02*
X139740022Y-92971410D01*
X139927252Y-96652252D02*
X140200000Y-96925000D01*
X139740022Y-92971410D02*
X139927252Y-93158640D01*
X143436252Y-102086632D02*
X143031308Y-101681688D01*
X139927252Y-93158640D02*
X139927252Y-96652252D01*
X143127252Y-97340640D02*
X143127252Y-101777632D01*
X142711612Y-96925000D02*
X143127252Y-97340640D01*
%TO.N,MTR_SDI*%
D36*
X141500000Y-101750380D02*
X141836252Y-102086632D01*
X138850000Y-94475000D02*
X139118123Y-94743123D01*
X134636252Y-92486632D02*
X134636252Y-94036252D01*
X135075000Y-94475000D02*
X138850000Y-94475000D01*
X139118123Y-97424934D02*
X139418189Y-97725000D01*
X139418189Y-97725000D02*
X141325000Y-97725000D01*
X139118123Y-94743123D02*
X139118123Y-97424934D01*
X134636252Y-94036252D02*
X135075000Y-94475000D01*
X141325000Y-97725000D02*
X141500000Y-97900000D01*
X141500000Y-97900000D02*
X141500000Y-101750380D01*
%TO.N,RTR_WHA_SCK*%
D34*
X145575000Y-115500000D02*
X159350000Y-115500000D01*
X139400000Y-109325000D02*
X145575000Y-115500000D01*
D31*
X137694542Y-97698623D02*
X137992834Y-97698623D01*
D34*
X163575000Y-111275000D02*
X204223589Y-111275000D01*
D31*
X138797347Y-98498632D02*
X140236252Y-99937537D01*
X137452712Y-96127712D02*
X137452712Y-97456793D01*
X140236252Y-99937537D02*
X140236252Y-101286632D01*
X138251849Y-97957638D02*
X138251849Y-98274944D01*
X210695000Y-105720000D02*
X210060000Y-106355000D01*
D34*
X136467005Y-98492005D02*
X136648252Y-98673252D01*
D31*
X133884845Y-97868715D02*
X134508135Y-98492005D01*
X137452712Y-97456793D02*
X137694542Y-97698623D01*
X138251849Y-98274944D02*
X138475537Y-98498632D01*
D34*
X139400000Y-105875000D02*
X139400000Y-109325000D01*
X136648252Y-98673252D02*
X136648252Y-103123252D01*
D31*
X134563368Y-94886632D02*
X133884845Y-95565155D01*
X138475537Y-98498632D02*
X138797347Y-98498632D01*
D34*
X136648252Y-103123252D02*
X139400000Y-105875000D01*
D31*
X133884845Y-95565155D02*
X133884845Y-97868715D01*
X135436252Y-94886632D02*
X134563368Y-94886632D01*
D34*
X204223589Y-111275000D02*
X209136794Y-106361795D01*
D31*
X210050907Y-106359093D02*
X210060000Y-106350000D01*
D34*
X134508135Y-98492005D02*
X136467005Y-98492005D01*
D31*
X137036252Y-95711252D02*
X137452712Y-96127712D01*
X137036252Y-95686632D02*
X137036252Y-95711252D01*
D34*
X159350000Y-115500000D02*
X163575000Y-111275000D01*
D31*
X137992834Y-97698623D02*
X138251849Y-97957638D01*
%TO.N,/Power/VCCAUX*%
D30*
X143043252Y-91849418D02*
X143273466Y-92079632D01*
D31*
X143048252Y-92898632D02*
X143436252Y-93286632D01*
D32*
X130850000Y-81850000D02*
X131250000Y-81850000D01*
D30*
X143273466Y-92079632D02*
X143829252Y-92079632D01*
D32*
X131250000Y-81850000D02*
X131700000Y-81400000D01*
D27*
X144236252Y-92486632D02*
X143436252Y-93286632D01*
D30*
X142225000Y-87419064D02*
X143043252Y-88237316D01*
D37*
X142225000Y-87125000D02*
X142225000Y-85800000D01*
D31*
X143436252Y-93286632D02*
X143824252Y-93674632D01*
X143824252Y-96074632D02*
X144236252Y-96486632D01*
D37*
X142225000Y-87125000D02*
X142225000Y-87526665D01*
D31*
X140899537Y-92898632D02*
X143048252Y-92898632D01*
X143824252Y-93674632D02*
X143824252Y-96074632D01*
D30*
X142225000Y-87125000D02*
X142225000Y-87419064D01*
D37*
X142225000Y-85800000D02*
X140975000Y-84550000D01*
D31*
X143436252Y-93286632D02*
X142245325Y-92095705D01*
X144236252Y-94086632D02*
X143436252Y-93286632D01*
D27*
X142245325Y-87546990D02*
X142225000Y-87526665D01*
D30*
X143829252Y-92079632D02*
X144236252Y-92486632D01*
D31*
X142245325Y-92095705D02*
X142245325Y-87546990D01*
D37*
X137825000Y-81400000D02*
X131700000Y-81400000D01*
D30*
X143043252Y-88237316D02*
X143043252Y-91849418D01*
D31*
X140623252Y-92622347D02*
X140899537Y-92898632D01*
D32*
X130600000Y-81400000D02*
X131700000Y-81400000D01*
D31*
X140975000Y-84550000D02*
X140623252Y-84901748D01*
D37*
X140975000Y-84550000D02*
X137825000Y-81400000D01*
D31*
X140623252Y-84901748D02*
X140623252Y-92622347D01*
%TO.N,RTR_WHA_ADC_RST*%
D34*
X156325000Y-105625000D02*
X161075000Y-110375000D01*
X161075000Y-110375000D02*
X203500000Y-110375000D01*
D31*
X134248252Y-97447347D02*
X134478477Y-97677572D01*
D34*
X134478477Y-97677572D02*
X136375907Y-97677572D01*
X137448252Y-101447347D02*
X141625905Y-105625000D01*
X203500000Y-110375000D02*
X209425000Y-104450000D01*
X137448252Y-98749917D02*
X137448252Y-101447347D01*
X136375907Y-97677572D02*
X137448252Y-98749917D01*
X141625905Y-105625000D02*
X156325000Y-105625000D01*
D31*
X134641305Y-95686485D02*
X134248252Y-96079538D01*
X134248252Y-96079538D02*
X134248252Y-97447347D01*
%TO.N,AMB_WHB_LOW_P_PWMH*%
D28*
X236015000Y-105035000D02*
X236015000Y-104850000D01*
D29*
X148875537Y-92874632D02*
X151975368Y-92874632D01*
D28*
X158400000Y-92850000D02*
X152000000Y-92850000D01*
X158424632Y-92874632D02*
X158400000Y-92850000D01*
X189400000Y-95100000D02*
X195550000Y-101250000D01*
X235250000Y-105450000D02*
X235600000Y-105450000D01*
D29*
X148624252Y-92074632D02*
X148624252Y-92623347D01*
D28*
X235600000Y-105450000D02*
X236015000Y-105035000D01*
X160650000Y-95100000D02*
X189400000Y-95100000D01*
D29*
X148236252Y-91686632D02*
X148624252Y-92074632D01*
X148624252Y-92623347D02*
X148875537Y-92874632D01*
D28*
X231050000Y-101250000D02*
X235250000Y-105450000D01*
X195550000Y-101250000D02*
X231050000Y-101250000D01*
X158424632Y-92874632D02*
X160650000Y-95100000D01*
D29*
X151975368Y-92874632D02*
X152000000Y-92850000D01*
%TO.N,AMB_WHA_LOW_P_PWML*%
D28*
X155750000Y-93700000D02*
X152000736Y-93700000D01*
D29*
X148075537Y-93674632D02*
X151975368Y-93674632D01*
X147824252Y-93423347D02*
X148075537Y-93674632D01*
D28*
X155750000Y-93700000D02*
X157500000Y-95450000D01*
X244620000Y-109300000D02*
X248700000Y-113380000D01*
X157500000Y-95450000D02*
X188950000Y-95450000D01*
X188950000Y-95450000D02*
X195200000Y-101700000D01*
X195200000Y-101700000D02*
X229650000Y-101700000D01*
D29*
X147824252Y-91824252D02*
X147824252Y-93423347D01*
X151975368Y-93674632D02*
X152000736Y-93700000D01*
X147686632Y-91686632D02*
X147824252Y-91824252D01*
X147436252Y-91686632D02*
X147686632Y-91686632D01*
D28*
X229650000Y-101700000D02*
X237250000Y-109300000D01*
X237250000Y-109300000D02*
X244620000Y-109300000D01*
%TO.N,INIT_B*%
D25*
X134975000Y-88775000D02*
X127825000Y-88775000D01*
D30*
X135079632Y-88879632D02*
X138785418Y-88879632D01*
X139843252Y-90737466D02*
X139843252Y-91293632D01*
X139043252Y-89137466D02*
X139043252Y-89937466D01*
X138785418Y-88879632D02*
X139043252Y-89137466D01*
X139043252Y-89937466D02*
X139843252Y-90737466D01*
D25*
X135079632Y-88879632D02*
X134975000Y-88775000D01*
D30*
X139843252Y-91293632D02*
X140236252Y-91686632D01*
D25*
X127825000Y-88775000D02*
X123650000Y-92950000D01*
%TO.N,AMB_WHB_LOW_P_PWML*%
D29*
X149442222Y-92100000D02*
X151950000Y-92100000D01*
D28*
X195600000Y-100800000D02*
X231325000Y-100800000D01*
X160900000Y-94750000D02*
X189550000Y-94750000D01*
D29*
X148248770Y-90906548D02*
X149442222Y-92100000D01*
D28*
X158250000Y-92100000D02*
X151950000Y-92100000D01*
X189550000Y-94750000D02*
X195600000Y-100800000D01*
X158250000Y-92100000D02*
X160900000Y-94750000D01*
X231325000Y-100800000D02*
X235375000Y-104850000D01*
%TO.N,AMB_WHB_LOW_N_PWMH*%
X230550000Y-114610000D02*
X230550000Y-113050000D01*
X187950002Y-96650000D02*
X171537431Y-96650000D01*
D29*
X146646199Y-90885066D02*
X146259765Y-90498632D01*
X145651536Y-96074632D02*
X145638452Y-96061548D01*
D28*
X155800000Y-96100000D02*
X151750736Y-96100000D01*
X220750000Y-103250000D02*
X194550002Y-103250000D01*
X171537431Y-96650000D02*
X171523063Y-96635632D01*
X194550002Y-103250000D02*
X187950002Y-96650000D01*
X156350000Y-96650000D02*
X155800000Y-96100000D01*
D29*
X145448252Y-95871347D02*
X145638452Y-96061548D01*
X151725368Y-96074632D02*
X145651536Y-96074632D01*
X145448252Y-90725917D02*
X145448252Y-95871347D01*
D28*
X171135073Y-96650000D02*
X156350000Y-96650000D01*
X171149441Y-96635632D02*
X171135073Y-96650000D01*
X171523063Y-96635632D02*
X171149441Y-96635632D01*
D29*
X146259765Y-90498632D02*
X145675537Y-90498632D01*
D28*
X230550000Y-113050000D02*
X220750000Y-103250000D01*
D29*
X145675537Y-90498632D02*
X145448252Y-90725917D01*
X151750736Y-96100000D02*
X151725368Y-96074632D01*
%TO.N,AMB_WHB_UPP_N_PWMH*%
X146230765Y-89681145D02*
X146230765Y-86317950D01*
D23*
X147950000Y-83550000D02*
X190850000Y-83550000D01*
D28*
X236750000Y-93000000D02*
X244900000Y-93000000D01*
X232000000Y-97750000D02*
X236750000Y-93000000D01*
D29*
X146599357Y-85949357D02*
X146750000Y-85798714D01*
D23*
X147750000Y-83750000D02*
X147950000Y-83550000D01*
D28*
X249375000Y-88525000D02*
X249375000Y-83670000D01*
X146750000Y-84750000D02*
X147750000Y-83750000D01*
X205050000Y-97750000D02*
X232000000Y-97750000D01*
X244900000Y-93000000D02*
X249375000Y-88525000D01*
X146750000Y-85798714D02*
X146750000Y-84750000D01*
D29*
X146636252Y-90086632D02*
X146230765Y-89681145D01*
X146230765Y-86317950D02*
X146599357Y-85949357D01*
D28*
X190850000Y-83550000D02*
X205050000Y-97750000D01*
D29*
X146599357Y-85949357D02*
X146650000Y-85898715D01*
%TO.N,AMB_WHB_UPP_N_PWML*%
D28*
X248950000Y-83482645D02*
X248950000Y-83250000D01*
X191250000Y-83000000D02*
X205600000Y-97350000D01*
X248942000Y-83849355D02*
X248942000Y-83490645D01*
D29*
X145424252Y-88855388D02*
X145424252Y-87023347D01*
D28*
X205600000Y-97350000D02*
X231750000Y-97350000D01*
D29*
X145424252Y-87023347D02*
X145048252Y-86647347D01*
D28*
X249170000Y-83030000D02*
X249375000Y-83030000D01*
X248942000Y-83490645D02*
X248950000Y-83482645D01*
D29*
X145048252Y-86647347D02*
X145048252Y-85751748D01*
D28*
X236450000Y-92650000D02*
X244400000Y-92650000D01*
X244400000Y-92650000D02*
X248950000Y-88100000D01*
X145048252Y-85751748D02*
X147350000Y-83450000D01*
X248950000Y-83857355D02*
X248942000Y-83849355D01*
D29*
X145842765Y-89273901D02*
X145424252Y-88855388D01*
D28*
X231750000Y-97350000D02*
X236450000Y-92650000D01*
D23*
X147800000Y-83000000D02*
X191250000Y-83000000D01*
D28*
X248950000Y-83250000D02*
X249170000Y-83030000D01*
D23*
X147350000Y-83450000D02*
X147800000Y-83000000D01*
D28*
X248950000Y-88100000D02*
X248950000Y-83857355D01*
%TO.N,RTR_WHB_ADC_RST*%
D35*
X206550000Y-96925000D02*
X206700000Y-97075000D01*
X145036252Y-89286632D02*
X144642252Y-88892632D01*
X218670000Y-97075000D02*
X219375000Y-96370000D01*
X144642252Y-88892632D02*
X144642252Y-87400861D01*
D23*
X206550000Y-96925000D02*
X192050000Y-82425000D01*
D35*
X144642252Y-87400861D02*
X143865792Y-86624401D01*
X206700000Y-97075000D02*
X218670000Y-97075000D01*
X143865792Y-86624401D02*
X143865792Y-85609208D01*
D23*
X147050000Y-82425000D02*
X143865792Y-85609208D01*
X192050000Y-82425000D02*
X147050000Y-82425000D01*
%TO.N,AMB_WHB_UPP_P_PWMH*%
D29*
X150796967Y-88098632D02*
X150798335Y-88100000D01*
X149036252Y-88486632D02*
X149036252Y-88463748D01*
X149675537Y-88098632D02*
X149996967Y-88098632D01*
X149996967Y-88098632D02*
X149998335Y-88100000D01*
D28*
X160850000Y-89900000D02*
X187950000Y-89900000D01*
D29*
X149998335Y-88100000D02*
X150474169Y-88100000D01*
D28*
X197118000Y-99068000D02*
X238907000Y-99068000D01*
X238907000Y-99068000D02*
X244325000Y-93650000D01*
D29*
X153650000Y-88100000D02*
X154550000Y-89000000D01*
X150474169Y-88100000D02*
X150475537Y-88098632D01*
D28*
X154550000Y-89000000D02*
X159950000Y-89000000D01*
X159950000Y-89000000D02*
X160850000Y-89900000D01*
X187950000Y-89900000D02*
X197118000Y-99068000D01*
D29*
X149674169Y-88100000D02*
X149675537Y-88098632D01*
X150475537Y-88098632D02*
X150796967Y-88098632D01*
X149400000Y-88100000D02*
X149674169Y-88100000D01*
X149036252Y-88463748D02*
X149400000Y-88100000D01*
X150798335Y-88100000D02*
X153650000Y-88100000D01*
%TO.N,*%
D27*
X184750000Y-117775000D02*
X187000000Y-117775000D01*
D25*
X173460000Y-119450000D02*
X173460000Y-117085000D01*
D27*
X192125000Y-117775000D02*
X194375000Y-117775000D01*
D25*
X173460000Y-117085000D02*
X171075000Y-114700000D01*
X175600000Y-119450000D02*
X176150000Y-120000000D01*
X176150000Y-120000000D02*
X176150000Y-121275000D01*
D27*
X176825000Y-119475000D02*
X178100000Y-119475000D01*
D25*
X173460000Y-119450000D02*
X175600000Y-119450000D01*
%TO.N,DDR3_VTT*%
D27*
X176002828Y-102100000D02*
X179127828Y-105225000D01*
D23*
X186150000Y-107977116D02*
X186127116Y-108000000D01*
D27*
X179127828Y-105225000D02*
X184800000Y-105225000D01*
X184800000Y-105225000D02*
X186150000Y-106575000D01*
X170650000Y-101025000D02*
X171725000Y-102100000D01*
D23*
X186150000Y-106575000D02*
X186150000Y-107977116D01*
D27*
X171336252Y-97086632D02*
X170650000Y-97772884D01*
X170650000Y-97772884D02*
X170650000Y-101025000D01*
X171725000Y-102100000D02*
X176002828Y-102100000D01*
%TD*%
%TA.AperFunction,Conductor*%
%TO.N,GND*%
G36*
X146592720Y-116479170D02*
G01*
X146630314Y-116489173D01*
X146644566Y-116492966D01*
X146699909Y-116524665D01*
X146726112Y-116550600D01*
X146759912Y-116611750D01*
X146759021Y-116625165D01*
X146763134Y-116633042D01*
X146777207Y-116689154D01*
X146797790Y-118685641D01*
X146795628Y-118710012D01*
X146787914Y-118750709D01*
X146769626Y-118795842D01*
X146753737Y-118819956D01*
X146719480Y-118854567D01*
X146695529Y-118870704D01*
X146650594Y-118889452D01*
X146609986Y-118897585D01*
X146585635Y-118900000D01*
X143539166Y-118900000D01*
X143507279Y-118895830D01*
X143455431Y-118882033D01*
X143400090Y-118850334D01*
X143373887Y-118824399D01*
X143341621Y-118769390D01*
X143327289Y-118717684D01*
X143322791Y-118685840D01*
X143322789Y-118685641D01*
X143302209Y-116689349D01*
X143304370Y-116664994D01*
X143312086Y-116624286D01*
X143330372Y-116579159D01*
X143346263Y-116555041D01*
X143380517Y-116520433D01*
X143404470Y-116504294D01*
X143449407Y-116485546D01*
X143490017Y-116477413D01*
X143514365Y-116475000D01*
X146560834Y-116475000D01*
X146592720Y-116479170D01*
G37*
%TD.AperFunction*%
%TD*%
%TA.AperFunction,Conductor*%
%TO.N,GND*%
G36*
X120455701Y-97951134D02*
G01*
X120515027Y-97962934D01*
X120536295Y-97971744D01*
X120581663Y-98002059D01*
X120597940Y-98018336D01*
X120628255Y-98063704D01*
X120637065Y-98084972D01*
X120648866Y-98144297D01*
X120650000Y-98155808D01*
X120650000Y-102094191D01*
X120648866Y-102105702D01*
X120637065Y-102165027D01*
X120628255Y-102186295D01*
X120597940Y-102231663D01*
X120581663Y-102247940D01*
X120536295Y-102278255D01*
X120515027Y-102287065D01*
X120472884Y-102295447D01*
X120455700Y-102298866D01*
X120444191Y-102300000D01*
X116455809Y-102300000D01*
X116444299Y-102298866D01*
X116419446Y-102293922D01*
X116384972Y-102287065D01*
X116363704Y-102278255D01*
X116318336Y-102247940D01*
X116302059Y-102231663D01*
X116271744Y-102186295D01*
X116262934Y-102165027D01*
X116251134Y-102105701D01*
X116250000Y-102094191D01*
X116250000Y-98155808D01*
X116251134Y-98144298D01*
X116251134Y-98144297D01*
X116262935Y-98084970D01*
X116271742Y-98063707D01*
X116302060Y-98018334D01*
X116318334Y-98002060D01*
X116363707Y-97971742D01*
X116384970Y-97962935D01*
X116444299Y-97951134D01*
X116455809Y-97950000D01*
X120444191Y-97950000D01*
X120455701Y-97951134D01*
G37*
%TD.AperFunction*%
%TD*%
%TA.AperFunction,Conductor*%
%TO.N,P3V3*%
G36*
X117111971Y-110627381D02*
G01*
X117152346Y-110635412D01*
X117197043Y-110653927D01*
X117220913Y-110669877D01*
X117255122Y-110704086D01*
X117271072Y-110727956D01*
X117289588Y-110772655D01*
X117297617Y-110813020D01*
X117300000Y-110837210D01*
X117300000Y-113387789D01*
X117297617Y-113411982D01*
X117289588Y-113452344D01*
X117271072Y-113497043D01*
X117255122Y-113520913D01*
X117220913Y-113555122D01*
X117197043Y-113571072D01*
X117152344Y-113589588D01*
X117135841Y-113592870D01*
X117111978Y-113597617D01*
X117087789Y-113600000D01*
X114037211Y-113600000D01*
X114013020Y-113597617D01*
X113997744Y-113594578D01*
X113972656Y-113589588D01*
X113927956Y-113571072D01*
X113904086Y-113555122D01*
X113869877Y-113520913D01*
X113853927Y-113497043D01*
X113835412Y-113452346D01*
X113827381Y-113411971D01*
X113825000Y-113387789D01*
X113825000Y-110837210D01*
X113827381Y-110813029D01*
X113835412Y-110772651D01*
X113853927Y-110727956D01*
X113869877Y-110704086D01*
X113904086Y-110669877D01*
X113927956Y-110653927D01*
X113972653Y-110635412D01*
X114013027Y-110627381D01*
X114037211Y-110625000D01*
X117087789Y-110625000D01*
X117111971Y-110627381D01*
G37*
%TD.AperFunction*%
%TD*%
M02*
