%TF.GenerationSoftware,KiCad,Pcbnew,10.0.0*%
%TF.CreationDate,2026-04-29T16:13:21-04:00*%
%TF.ProjectId,Flight_Computer_REV01,466c6967-6874-45f4-936f-6d7075746572,rev?*%
%TF.SameCoordinates,Original*%
%TF.FileFunction,Legend,Bot*%
%TF.FilePolarity,Positive*%
%FSLAX46Y46*%
G04 Gerber Fmt 4.6, Leading zero omitted, Abs format (unit mm)*
G04 Created by KiCad (PCBNEW 10.0.0) date 2026-04-29 16:13:21*
%MOMM*%
%LPD*%
G01*
G04 APERTURE LIST*
%ADD10C,0.150000*%
%ADD11C,0.120000*%
G04 APERTURE END LIST*
D10*
X176042857Y-92604819D02*
X176376190Y-92128628D01*
X176614285Y-92604819D02*
X176614285Y-91604819D01*
X176614285Y-91604819D02*
X176233333Y-91604819D01*
X176233333Y-91604819D02*
X176138095Y-91652438D01*
X176138095Y-91652438D02*
X176090476Y-91700057D01*
X176090476Y-91700057D02*
X176042857Y-91795295D01*
X176042857Y-91795295D02*
X176042857Y-91938152D01*
X176042857Y-91938152D02*
X176090476Y-92033390D01*
X176090476Y-92033390D02*
X176138095Y-92081009D01*
X176138095Y-92081009D02*
X176233333Y-92128628D01*
X176233333Y-92128628D02*
X176614285Y-92128628D01*
X175661904Y-91700057D02*
X175614285Y-91652438D01*
X175614285Y-91652438D02*
X175519047Y-91604819D01*
X175519047Y-91604819D02*
X175280952Y-91604819D01*
X175280952Y-91604819D02*
X175185714Y-91652438D01*
X175185714Y-91652438D02*
X175138095Y-91700057D01*
X175138095Y-91700057D02*
X175090476Y-91795295D01*
X175090476Y-91795295D02*
X175090476Y-91890533D01*
X175090476Y-91890533D02*
X175138095Y-92033390D01*
X175138095Y-92033390D02*
X175709523Y-92604819D01*
X175709523Y-92604819D02*
X175090476Y-92604819D01*
X174185714Y-91604819D02*
X174661904Y-91604819D01*
X174661904Y-91604819D02*
X174709523Y-92081009D01*
X174709523Y-92081009D02*
X174661904Y-92033390D01*
X174661904Y-92033390D02*
X174566666Y-91985771D01*
X174566666Y-91985771D02*
X174328571Y-91985771D01*
X174328571Y-91985771D02*
X174233333Y-92033390D01*
X174233333Y-92033390D02*
X174185714Y-92081009D01*
X174185714Y-92081009D02*
X174138095Y-92176247D01*
X174138095Y-92176247D02*
X174138095Y-92414342D01*
X174138095Y-92414342D02*
X174185714Y-92509580D01*
X174185714Y-92509580D02*
X174233333Y-92557200D01*
X174233333Y-92557200D02*
X174328571Y-92604819D01*
X174328571Y-92604819D02*
X174566666Y-92604819D01*
X174566666Y-92604819D02*
X174661904Y-92557200D01*
X174661904Y-92557200D02*
X174709523Y-92509580D01*
X169404819Y-93857142D02*
X168928628Y-93523809D01*
X169404819Y-93285714D02*
X168404819Y-93285714D01*
X168404819Y-93285714D02*
X168404819Y-93666666D01*
X168404819Y-93666666D02*
X168452438Y-93761904D01*
X168452438Y-93761904D02*
X168500057Y-93809523D01*
X168500057Y-93809523D02*
X168595295Y-93857142D01*
X168595295Y-93857142D02*
X168738152Y-93857142D01*
X168738152Y-93857142D02*
X168833390Y-93809523D01*
X168833390Y-93809523D02*
X168881009Y-93761904D01*
X168881009Y-93761904D02*
X168928628Y-93666666D01*
X168928628Y-93666666D02*
X168928628Y-93285714D01*
X168404819Y-94190476D02*
X168404819Y-94809523D01*
X168404819Y-94809523D02*
X168785771Y-94476190D01*
X168785771Y-94476190D02*
X168785771Y-94619047D01*
X168785771Y-94619047D02*
X168833390Y-94714285D01*
X168833390Y-94714285D02*
X168881009Y-94761904D01*
X168881009Y-94761904D02*
X168976247Y-94809523D01*
X168976247Y-94809523D02*
X169214342Y-94809523D01*
X169214342Y-94809523D02*
X169309580Y-94761904D01*
X169309580Y-94761904D02*
X169357200Y-94714285D01*
X169357200Y-94714285D02*
X169404819Y-94619047D01*
X169404819Y-94619047D02*
X169404819Y-94333333D01*
X169404819Y-94333333D02*
X169357200Y-94238095D01*
X169357200Y-94238095D02*
X169309580Y-94190476D01*
X168404819Y-95428571D02*
X168404819Y-95523809D01*
X168404819Y-95523809D02*
X168452438Y-95619047D01*
X168452438Y-95619047D02*
X168500057Y-95666666D01*
X168500057Y-95666666D02*
X168595295Y-95714285D01*
X168595295Y-95714285D02*
X168785771Y-95761904D01*
X168785771Y-95761904D02*
X169023866Y-95761904D01*
X169023866Y-95761904D02*
X169214342Y-95714285D01*
X169214342Y-95714285D02*
X169309580Y-95666666D01*
X169309580Y-95666666D02*
X169357200Y-95619047D01*
X169357200Y-95619047D02*
X169404819Y-95523809D01*
X169404819Y-95523809D02*
X169404819Y-95428571D01*
X169404819Y-95428571D02*
X169357200Y-95333333D01*
X169357200Y-95333333D02*
X169309580Y-95285714D01*
X169309580Y-95285714D02*
X169214342Y-95238095D01*
X169214342Y-95238095D02*
X169023866Y-95190476D01*
X169023866Y-95190476D02*
X168785771Y-95190476D01*
X168785771Y-95190476D02*
X168595295Y-95238095D01*
X168595295Y-95238095D02*
X168500057Y-95285714D01*
X168500057Y-95285714D02*
X168452438Y-95333333D01*
X168452438Y-95333333D02*
X168404819Y-95428571D01*
X169504819Y-103857142D02*
X169028628Y-103523809D01*
X169504819Y-103285714D02*
X168504819Y-103285714D01*
X168504819Y-103285714D02*
X168504819Y-103666666D01*
X168504819Y-103666666D02*
X168552438Y-103761904D01*
X168552438Y-103761904D02*
X168600057Y-103809523D01*
X168600057Y-103809523D02*
X168695295Y-103857142D01*
X168695295Y-103857142D02*
X168838152Y-103857142D01*
X168838152Y-103857142D02*
X168933390Y-103809523D01*
X168933390Y-103809523D02*
X168981009Y-103761904D01*
X168981009Y-103761904D02*
X169028628Y-103666666D01*
X169028628Y-103666666D02*
X169028628Y-103285714D01*
X168504819Y-104190476D02*
X168504819Y-104809523D01*
X168504819Y-104809523D02*
X168885771Y-104476190D01*
X168885771Y-104476190D02*
X168885771Y-104619047D01*
X168885771Y-104619047D02*
X168933390Y-104714285D01*
X168933390Y-104714285D02*
X168981009Y-104761904D01*
X168981009Y-104761904D02*
X169076247Y-104809523D01*
X169076247Y-104809523D02*
X169314342Y-104809523D01*
X169314342Y-104809523D02*
X169409580Y-104761904D01*
X169409580Y-104761904D02*
X169457200Y-104714285D01*
X169457200Y-104714285D02*
X169504819Y-104619047D01*
X169504819Y-104619047D02*
X169504819Y-104333333D01*
X169504819Y-104333333D02*
X169457200Y-104238095D01*
X169457200Y-104238095D02*
X169409580Y-104190476D01*
X168838152Y-105666666D02*
X169504819Y-105666666D01*
X168457200Y-105428571D02*
X169171485Y-105190476D01*
X169171485Y-105190476D02*
X169171485Y-105809523D01*
X174904819Y-98857142D02*
X174428628Y-98523809D01*
X174904819Y-98285714D02*
X173904819Y-98285714D01*
X173904819Y-98285714D02*
X173904819Y-98666666D01*
X173904819Y-98666666D02*
X173952438Y-98761904D01*
X173952438Y-98761904D02*
X174000057Y-98809523D01*
X174000057Y-98809523D02*
X174095295Y-98857142D01*
X174095295Y-98857142D02*
X174238152Y-98857142D01*
X174238152Y-98857142D02*
X174333390Y-98809523D01*
X174333390Y-98809523D02*
X174381009Y-98761904D01*
X174381009Y-98761904D02*
X174428628Y-98666666D01*
X174428628Y-98666666D02*
X174428628Y-98285714D01*
X174000057Y-99238095D02*
X173952438Y-99285714D01*
X173952438Y-99285714D02*
X173904819Y-99380952D01*
X173904819Y-99380952D02*
X173904819Y-99619047D01*
X173904819Y-99619047D02*
X173952438Y-99714285D01*
X173952438Y-99714285D02*
X174000057Y-99761904D01*
X174000057Y-99761904D02*
X174095295Y-99809523D01*
X174095295Y-99809523D02*
X174190533Y-99809523D01*
X174190533Y-99809523D02*
X174333390Y-99761904D01*
X174333390Y-99761904D02*
X174904819Y-99190476D01*
X174904819Y-99190476D02*
X174904819Y-99809523D01*
X173904819Y-100428571D02*
X173904819Y-100523809D01*
X173904819Y-100523809D02*
X173952438Y-100619047D01*
X173952438Y-100619047D02*
X174000057Y-100666666D01*
X174000057Y-100666666D02*
X174095295Y-100714285D01*
X174095295Y-100714285D02*
X174285771Y-100761904D01*
X174285771Y-100761904D02*
X174523866Y-100761904D01*
X174523866Y-100761904D02*
X174714342Y-100714285D01*
X174714342Y-100714285D02*
X174809580Y-100666666D01*
X174809580Y-100666666D02*
X174857200Y-100619047D01*
X174857200Y-100619047D02*
X174904819Y-100523809D01*
X174904819Y-100523809D02*
X174904819Y-100428571D01*
X174904819Y-100428571D02*
X174857200Y-100333333D01*
X174857200Y-100333333D02*
X174809580Y-100285714D01*
X174809580Y-100285714D02*
X174714342Y-100238095D01*
X174714342Y-100238095D02*
X174523866Y-100190476D01*
X174523866Y-100190476D02*
X174285771Y-100190476D01*
X174285771Y-100190476D02*
X174095295Y-100238095D01*
X174095295Y-100238095D02*
X174000057Y-100285714D01*
X174000057Y-100285714D02*
X173952438Y-100333333D01*
X173952438Y-100333333D02*
X173904819Y-100428571D01*
X172704819Y-98857142D02*
X172228628Y-98523809D01*
X172704819Y-98285714D02*
X171704819Y-98285714D01*
X171704819Y-98285714D02*
X171704819Y-98666666D01*
X171704819Y-98666666D02*
X171752438Y-98761904D01*
X171752438Y-98761904D02*
X171800057Y-98809523D01*
X171800057Y-98809523D02*
X171895295Y-98857142D01*
X171895295Y-98857142D02*
X172038152Y-98857142D01*
X172038152Y-98857142D02*
X172133390Y-98809523D01*
X172133390Y-98809523D02*
X172181009Y-98761904D01*
X172181009Y-98761904D02*
X172228628Y-98666666D01*
X172228628Y-98666666D02*
X172228628Y-98285714D01*
X172704819Y-99809523D02*
X172704819Y-99238095D01*
X172704819Y-99523809D02*
X171704819Y-99523809D01*
X171704819Y-99523809D02*
X171847676Y-99428571D01*
X171847676Y-99428571D02*
X171942914Y-99333333D01*
X171942914Y-99333333D02*
X171990533Y-99238095D01*
X172133390Y-100380952D02*
X172085771Y-100285714D01*
X172085771Y-100285714D02*
X172038152Y-100238095D01*
X172038152Y-100238095D02*
X171942914Y-100190476D01*
X171942914Y-100190476D02*
X171895295Y-100190476D01*
X171895295Y-100190476D02*
X171800057Y-100238095D01*
X171800057Y-100238095D02*
X171752438Y-100285714D01*
X171752438Y-100285714D02*
X171704819Y-100380952D01*
X171704819Y-100380952D02*
X171704819Y-100571428D01*
X171704819Y-100571428D02*
X171752438Y-100666666D01*
X171752438Y-100666666D02*
X171800057Y-100714285D01*
X171800057Y-100714285D02*
X171895295Y-100761904D01*
X171895295Y-100761904D02*
X171942914Y-100761904D01*
X171942914Y-100761904D02*
X172038152Y-100714285D01*
X172038152Y-100714285D02*
X172085771Y-100666666D01*
X172085771Y-100666666D02*
X172133390Y-100571428D01*
X172133390Y-100571428D02*
X172133390Y-100380952D01*
X172133390Y-100380952D02*
X172181009Y-100285714D01*
X172181009Y-100285714D02*
X172228628Y-100238095D01*
X172228628Y-100238095D02*
X172323866Y-100190476D01*
X172323866Y-100190476D02*
X172514342Y-100190476D01*
X172514342Y-100190476D02*
X172609580Y-100238095D01*
X172609580Y-100238095D02*
X172657200Y-100285714D01*
X172657200Y-100285714D02*
X172704819Y-100380952D01*
X172704819Y-100380952D02*
X172704819Y-100571428D01*
X172704819Y-100571428D02*
X172657200Y-100666666D01*
X172657200Y-100666666D02*
X172609580Y-100714285D01*
X172609580Y-100714285D02*
X172514342Y-100761904D01*
X172514342Y-100761904D02*
X172323866Y-100761904D01*
X172323866Y-100761904D02*
X172228628Y-100714285D01*
X172228628Y-100714285D02*
X172181009Y-100666666D01*
X172181009Y-100666666D02*
X172133390Y-100571428D01*
X173504819Y-97257142D02*
X173028628Y-96923809D01*
X173504819Y-96685714D02*
X172504819Y-96685714D01*
X172504819Y-96685714D02*
X172504819Y-97066666D01*
X172504819Y-97066666D02*
X172552438Y-97161904D01*
X172552438Y-97161904D02*
X172600057Y-97209523D01*
X172600057Y-97209523D02*
X172695295Y-97257142D01*
X172695295Y-97257142D02*
X172838152Y-97257142D01*
X172838152Y-97257142D02*
X172933390Y-97209523D01*
X172933390Y-97209523D02*
X172981009Y-97161904D01*
X172981009Y-97161904D02*
X173028628Y-97066666D01*
X173028628Y-97066666D02*
X173028628Y-96685714D01*
X172600057Y-97638095D02*
X172552438Y-97685714D01*
X172552438Y-97685714D02*
X172504819Y-97780952D01*
X172504819Y-97780952D02*
X172504819Y-98019047D01*
X172504819Y-98019047D02*
X172552438Y-98114285D01*
X172552438Y-98114285D02*
X172600057Y-98161904D01*
X172600057Y-98161904D02*
X172695295Y-98209523D01*
X172695295Y-98209523D02*
X172790533Y-98209523D01*
X172790533Y-98209523D02*
X172933390Y-98161904D01*
X172933390Y-98161904D02*
X173504819Y-97590476D01*
X173504819Y-97590476D02*
X173504819Y-98209523D01*
X172933390Y-98780952D02*
X172885771Y-98685714D01*
X172885771Y-98685714D02*
X172838152Y-98638095D01*
X172838152Y-98638095D02*
X172742914Y-98590476D01*
X172742914Y-98590476D02*
X172695295Y-98590476D01*
X172695295Y-98590476D02*
X172600057Y-98638095D01*
X172600057Y-98638095D02*
X172552438Y-98685714D01*
X172552438Y-98685714D02*
X172504819Y-98780952D01*
X172504819Y-98780952D02*
X172504819Y-98971428D01*
X172504819Y-98971428D02*
X172552438Y-99066666D01*
X172552438Y-99066666D02*
X172600057Y-99114285D01*
X172600057Y-99114285D02*
X172695295Y-99161904D01*
X172695295Y-99161904D02*
X172742914Y-99161904D01*
X172742914Y-99161904D02*
X172838152Y-99114285D01*
X172838152Y-99114285D02*
X172885771Y-99066666D01*
X172885771Y-99066666D02*
X172933390Y-98971428D01*
X172933390Y-98971428D02*
X172933390Y-98780952D01*
X172933390Y-98780952D02*
X172981009Y-98685714D01*
X172981009Y-98685714D02*
X173028628Y-98638095D01*
X173028628Y-98638095D02*
X173123866Y-98590476D01*
X173123866Y-98590476D02*
X173314342Y-98590476D01*
X173314342Y-98590476D02*
X173409580Y-98638095D01*
X173409580Y-98638095D02*
X173457200Y-98685714D01*
X173457200Y-98685714D02*
X173504819Y-98780952D01*
X173504819Y-98780952D02*
X173504819Y-98971428D01*
X173504819Y-98971428D02*
X173457200Y-99066666D01*
X173457200Y-99066666D02*
X173409580Y-99114285D01*
X173409580Y-99114285D02*
X173314342Y-99161904D01*
X173314342Y-99161904D02*
X173123866Y-99161904D01*
X173123866Y-99161904D02*
X173028628Y-99114285D01*
X173028628Y-99114285D02*
X172981009Y-99066666D01*
X172981009Y-99066666D02*
X172933390Y-98971428D01*
X171642857Y-99404819D02*
X171976190Y-98928628D01*
X172214285Y-99404819D02*
X172214285Y-98404819D01*
X172214285Y-98404819D02*
X171833333Y-98404819D01*
X171833333Y-98404819D02*
X171738095Y-98452438D01*
X171738095Y-98452438D02*
X171690476Y-98500057D01*
X171690476Y-98500057D02*
X171642857Y-98595295D01*
X171642857Y-98595295D02*
X171642857Y-98738152D01*
X171642857Y-98738152D02*
X171690476Y-98833390D01*
X171690476Y-98833390D02*
X171738095Y-98881009D01*
X171738095Y-98881009D02*
X171833333Y-98928628D01*
X171833333Y-98928628D02*
X172214285Y-98928628D01*
X170690476Y-99404819D02*
X171261904Y-99404819D01*
X170976190Y-99404819D02*
X170976190Y-98404819D01*
X170976190Y-98404819D02*
X171071428Y-98547676D01*
X171071428Y-98547676D02*
X171166666Y-98642914D01*
X171166666Y-98642914D02*
X171261904Y-98690533D01*
X169833333Y-98404819D02*
X170023809Y-98404819D01*
X170023809Y-98404819D02*
X170119047Y-98452438D01*
X170119047Y-98452438D02*
X170166666Y-98500057D01*
X170166666Y-98500057D02*
X170261904Y-98642914D01*
X170261904Y-98642914D02*
X170309523Y-98833390D01*
X170309523Y-98833390D02*
X170309523Y-99214342D01*
X170309523Y-99214342D02*
X170261904Y-99309580D01*
X170261904Y-99309580D02*
X170214285Y-99357200D01*
X170214285Y-99357200D02*
X170119047Y-99404819D01*
X170119047Y-99404819D02*
X169928571Y-99404819D01*
X169928571Y-99404819D02*
X169833333Y-99357200D01*
X169833333Y-99357200D02*
X169785714Y-99309580D01*
X169785714Y-99309580D02*
X169738095Y-99214342D01*
X169738095Y-99214342D02*
X169738095Y-98976247D01*
X169738095Y-98976247D02*
X169785714Y-98881009D01*
X169785714Y-98881009D02*
X169833333Y-98833390D01*
X169833333Y-98833390D02*
X169928571Y-98785771D01*
X169928571Y-98785771D02*
X170119047Y-98785771D01*
X170119047Y-98785771D02*
X170214285Y-98833390D01*
X170214285Y-98833390D02*
X170261904Y-98881009D01*
X170261904Y-98881009D02*
X170309523Y-98976247D01*
X175650357Y-102304819D02*
X175983690Y-101828628D01*
X176221785Y-102304819D02*
X176221785Y-101304819D01*
X176221785Y-101304819D02*
X175840833Y-101304819D01*
X175840833Y-101304819D02*
X175745595Y-101352438D01*
X175745595Y-101352438D02*
X175697976Y-101400057D01*
X175697976Y-101400057D02*
X175650357Y-101495295D01*
X175650357Y-101495295D02*
X175650357Y-101638152D01*
X175650357Y-101638152D02*
X175697976Y-101733390D01*
X175697976Y-101733390D02*
X175745595Y-101781009D01*
X175745595Y-101781009D02*
X175840833Y-101828628D01*
X175840833Y-101828628D02*
X176221785Y-101828628D01*
X175269404Y-101400057D02*
X175221785Y-101352438D01*
X175221785Y-101352438D02*
X175126547Y-101304819D01*
X175126547Y-101304819D02*
X174888452Y-101304819D01*
X174888452Y-101304819D02*
X174793214Y-101352438D01*
X174793214Y-101352438D02*
X174745595Y-101400057D01*
X174745595Y-101400057D02*
X174697976Y-101495295D01*
X174697976Y-101495295D02*
X174697976Y-101590533D01*
X174697976Y-101590533D02*
X174745595Y-101733390D01*
X174745595Y-101733390D02*
X175317023Y-102304819D01*
X175317023Y-102304819D02*
X174697976Y-102304819D01*
X174364642Y-101304819D02*
X173745595Y-101304819D01*
X173745595Y-101304819D02*
X174078928Y-101685771D01*
X174078928Y-101685771D02*
X173936071Y-101685771D01*
X173936071Y-101685771D02*
X173840833Y-101733390D01*
X173840833Y-101733390D02*
X173793214Y-101781009D01*
X173793214Y-101781009D02*
X173745595Y-101876247D01*
X173745595Y-101876247D02*
X173745595Y-102114342D01*
X173745595Y-102114342D02*
X173793214Y-102209580D01*
X173793214Y-102209580D02*
X173840833Y-102257200D01*
X173840833Y-102257200D02*
X173936071Y-102304819D01*
X173936071Y-102304819D02*
X174221785Y-102304819D01*
X174221785Y-102304819D02*
X174317023Y-102257200D01*
X174317023Y-102257200D02*
X174364642Y-102209580D01*
X178004819Y-103857142D02*
X177528628Y-103523809D01*
X178004819Y-103285714D02*
X177004819Y-103285714D01*
X177004819Y-103285714D02*
X177004819Y-103666666D01*
X177004819Y-103666666D02*
X177052438Y-103761904D01*
X177052438Y-103761904D02*
X177100057Y-103809523D01*
X177100057Y-103809523D02*
X177195295Y-103857142D01*
X177195295Y-103857142D02*
X177338152Y-103857142D01*
X177338152Y-103857142D02*
X177433390Y-103809523D01*
X177433390Y-103809523D02*
X177481009Y-103761904D01*
X177481009Y-103761904D02*
X177528628Y-103666666D01*
X177528628Y-103666666D02*
X177528628Y-103285714D01*
X177100057Y-104238095D02*
X177052438Y-104285714D01*
X177052438Y-104285714D02*
X177004819Y-104380952D01*
X177004819Y-104380952D02*
X177004819Y-104619047D01*
X177004819Y-104619047D02*
X177052438Y-104714285D01*
X177052438Y-104714285D02*
X177100057Y-104761904D01*
X177100057Y-104761904D02*
X177195295Y-104809523D01*
X177195295Y-104809523D02*
X177290533Y-104809523D01*
X177290533Y-104809523D02*
X177433390Y-104761904D01*
X177433390Y-104761904D02*
X178004819Y-104190476D01*
X178004819Y-104190476D02*
X178004819Y-104809523D01*
X178004819Y-105761904D02*
X178004819Y-105190476D01*
X178004819Y-105476190D02*
X177004819Y-105476190D01*
X177004819Y-105476190D02*
X177147676Y-105380952D01*
X177147676Y-105380952D02*
X177242914Y-105285714D01*
X177242914Y-105285714D02*
X177290533Y-105190476D01*
X174642857Y-97504819D02*
X174976190Y-97028628D01*
X175214285Y-97504819D02*
X175214285Y-96504819D01*
X175214285Y-96504819D02*
X174833333Y-96504819D01*
X174833333Y-96504819D02*
X174738095Y-96552438D01*
X174738095Y-96552438D02*
X174690476Y-96600057D01*
X174690476Y-96600057D02*
X174642857Y-96695295D01*
X174642857Y-96695295D02*
X174642857Y-96838152D01*
X174642857Y-96838152D02*
X174690476Y-96933390D01*
X174690476Y-96933390D02*
X174738095Y-96981009D01*
X174738095Y-96981009D02*
X174833333Y-97028628D01*
X174833333Y-97028628D02*
X175214285Y-97028628D01*
X173690476Y-97504819D02*
X174261904Y-97504819D01*
X173976190Y-97504819D02*
X173976190Y-96504819D01*
X173976190Y-96504819D02*
X174071428Y-96647676D01*
X174071428Y-96647676D02*
X174166666Y-96742914D01*
X174166666Y-96742914D02*
X174261904Y-96790533D01*
X173357142Y-96504819D02*
X172738095Y-96504819D01*
X172738095Y-96504819D02*
X173071428Y-96885771D01*
X173071428Y-96885771D02*
X172928571Y-96885771D01*
X172928571Y-96885771D02*
X172833333Y-96933390D01*
X172833333Y-96933390D02*
X172785714Y-96981009D01*
X172785714Y-96981009D02*
X172738095Y-97076247D01*
X172738095Y-97076247D02*
X172738095Y-97314342D01*
X172738095Y-97314342D02*
X172785714Y-97409580D01*
X172785714Y-97409580D02*
X172833333Y-97457200D01*
X172833333Y-97457200D02*
X172928571Y-97504819D01*
X172928571Y-97504819D02*
X173214285Y-97504819D01*
X173214285Y-97504819D02*
X173309523Y-97457200D01*
X173309523Y-97457200D02*
X173357142Y-97409580D01*
X168142857Y-101404819D02*
X168476190Y-100928628D01*
X168714285Y-101404819D02*
X168714285Y-100404819D01*
X168714285Y-100404819D02*
X168333333Y-100404819D01*
X168333333Y-100404819D02*
X168238095Y-100452438D01*
X168238095Y-100452438D02*
X168190476Y-100500057D01*
X168190476Y-100500057D02*
X168142857Y-100595295D01*
X168142857Y-100595295D02*
X168142857Y-100738152D01*
X168142857Y-100738152D02*
X168190476Y-100833390D01*
X168190476Y-100833390D02*
X168238095Y-100881009D01*
X168238095Y-100881009D02*
X168333333Y-100928628D01*
X168333333Y-100928628D02*
X168714285Y-100928628D01*
X167809523Y-100404819D02*
X167190476Y-100404819D01*
X167190476Y-100404819D02*
X167523809Y-100785771D01*
X167523809Y-100785771D02*
X167380952Y-100785771D01*
X167380952Y-100785771D02*
X167285714Y-100833390D01*
X167285714Y-100833390D02*
X167238095Y-100881009D01*
X167238095Y-100881009D02*
X167190476Y-100976247D01*
X167190476Y-100976247D02*
X167190476Y-101214342D01*
X167190476Y-101214342D02*
X167238095Y-101309580D01*
X167238095Y-101309580D02*
X167285714Y-101357200D01*
X167285714Y-101357200D02*
X167380952Y-101404819D01*
X167380952Y-101404819D02*
X167666666Y-101404819D01*
X167666666Y-101404819D02*
X167761904Y-101357200D01*
X167761904Y-101357200D02*
X167809523Y-101309580D01*
X166238095Y-101404819D02*
X166809523Y-101404819D01*
X166523809Y-101404819D02*
X166523809Y-100404819D01*
X166523809Y-100404819D02*
X166619047Y-100547676D01*
X166619047Y-100547676D02*
X166714285Y-100642914D01*
X166714285Y-100642914D02*
X166809523Y-100690533D01*
X171904819Y-104657142D02*
X171428628Y-104323809D01*
X171904819Y-104085714D02*
X170904819Y-104085714D01*
X170904819Y-104085714D02*
X170904819Y-104466666D01*
X170904819Y-104466666D02*
X170952438Y-104561904D01*
X170952438Y-104561904D02*
X171000057Y-104609523D01*
X171000057Y-104609523D02*
X171095295Y-104657142D01*
X171095295Y-104657142D02*
X171238152Y-104657142D01*
X171238152Y-104657142D02*
X171333390Y-104609523D01*
X171333390Y-104609523D02*
X171381009Y-104561904D01*
X171381009Y-104561904D02*
X171428628Y-104466666D01*
X171428628Y-104466666D02*
X171428628Y-104085714D01*
X171904819Y-105609523D02*
X171904819Y-105038095D01*
X171904819Y-105323809D02*
X170904819Y-105323809D01*
X170904819Y-105323809D02*
X171047676Y-105228571D01*
X171047676Y-105228571D02*
X171142914Y-105133333D01*
X171142914Y-105133333D02*
X171190533Y-105038095D01*
X171904819Y-106085714D02*
X171904819Y-106276190D01*
X171904819Y-106276190D02*
X171857200Y-106371428D01*
X171857200Y-106371428D02*
X171809580Y-106419047D01*
X171809580Y-106419047D02*
X171666723Y-106514285D01*
X171666723Y-106514285D02*
X171476247Y-106561904D01*
X171476247Y-106561904D02*
X171095295Y-106561904D01*
X171095295Y-106561904D02*
X171000057Y-106514285D01*
X171000057Y-106514285D02*
X170952438Y-106466666D01*
X170952438Y-106466666D02*
X170904819Y-106371428D01*
X170904819Y-106371428D02*
X170904819Y-106180952D01*
X170904819Y-106180952D02*
X170952438Y-106085714D01*
X170952438Y-106085714D02*
X171000057Y-106038095D01*
X171000057Y-106038095D02*
X171095295Y-105990476D01*
X171095295Y-105990476D02*
X171333390Y-105990476D01*
X171333390Y-105990476D02*
X171428628Y-106038095D01*
X171428628Y-106038095D02*
X171476247Y-106085714D01*
X171476247Y-106085714D02*
X171523866Y-106180952D01*
X171523866Y-106180952D02*
X171523866Y-106371428D01*
X171523866Y-106371428D02*
X171476247Y-106466666D01*
X171476247Y-106466666D02*
X171428628Y-106514285D01*
X171428628Y-106514285D02*
X171333390Y-106561904D01*
X175935357Y-88904819D02*
X176268690Y-88428628D01*
X176506785Y-88904819D02*
X176506785Y-87904819D01*
X176506785Y-87904819D02*
X176125833Y-87904819D01*
X176125833Y-87904819D02*
X176030595Y-87952438D01*
X176030595Y-87952438D02*
X175982976Y-88000057D01*
X175982976Y-88000057D02*
X175935357Y-88095295D01*
X175935357Y-88095295D02*
X175935357Y-88238152D01*
X175935357Y-88238152D02*
X175982976Y-88333390D01*
X175982976Y-88333390D02*
X176030595Y-88381009D01*
X176030595Y-88381009D02*
X176125833Y-88428628D01*
X176125833Y-88428628D02*
X176506785Y-88428628D01*
X175554404Y-88000057D02*
X175506785Y-87952438D01*
X175506785Y-87952438D02*
X175411547Y-87904819D01*
X175411547Y-87904819D02*
X175173452Y-87904819D01*
X175173452Y-87904819D02*
X175078214Y-87952438D01*
X175078214Y-87952438D02*
X175030595Y-88000057D01*
X175030595Y-88000057D02*
X174982976Y-88095295D01*
X174982976Y-88095295D02*
X174982976Y-88190533D01*
X174982976Y-88190533D02*
X175030595Y-88333390D01*
X175030595Y-88333390D02*
X175602023Y-88904819D01*
X175602023Y-88904819D02*
X174982976Y-88904819D01*
X174125833Y-87904819D02*
X174316309Y-87904819D01*
X174316309Y-87904819D02*
X174411547Y-87952438D01*
X174411547Y-87952438D02*
X174459166Y-88000057D01*
X174459166Y-88000057D02*
X174554404Y-88142914D01*
X174554404Y-88142914D02*
X174602023Y-88333390D01*
X174602023Y-88333390D02*
X174602023Y-88714342D01*
X174602023Y-88714342D02*
X174554404Y-88809580D01*
X174554404Y-88809580D02*
X174506785Y-88857200D01*
X174506785Y-88857200D02*
X174411547Y-88904819D01*
X174411547Y-88904819D02*
X174221071Y-88904819D01*
X174221071Y-88904819D02*
X174125833Y-88857200D01*
X174125833Y-88857200D02*
X174078214Y-88809580D01*
X174078214Y-88809580D02*
X174030595Y-88714342D01*
X174030595Y-88714342D02*
X174030595Y-88476247D01*
X174030595Y-88476247D02*
X174078214Y-88381009D01*
X174078214Y-88381009D02*
X174125833Y-88333390D01*
X174125833Y-88333390D02*
X174221071Y-88285771D01*
X174221071Y-88285771D02*
X174411547Y-88285771D01*
X174411547Y-88285771D02*
X174506785Y-88333390D01*
X174506785Y-88333390D02*
X174554404Y-88381009D01*
X174554404Y-88381009D02*
X174602023Y-88476247D01*
X171104819Y-104557142D02*
X170628628Y-104223809D01*
X171104819Y-103985714D02*
X170104819Y-103985714D01*
X170104819Y-103985714D02*
X170104819Y-104366666D01*
X170104819Y-104366666D02*
X170152438Y-104461904D01*
X170152438Y-104461904D02*
X170200057Y-104509523D01*
X170200057Y-104509523D02*
X170295295Y-104557142D01*
X170295295Y-104557142D02*
X170438152Y-104557142D01*
X170438152Y-104557142D02*
X170533390Y-104509523D01*
X170533390Y-104509523D02*
X170581009Y-104461904D01*
X170581009Y-104461904D02*
X170628628Y-104366666D01*
X170628628Y-104366666D02*
X170628628Y-103985714D01*
X171104819Y-105509523D02*
X171104819Y-104938095D01*
X171104819Y-105223809D02*
X170104819Y-105223809D01*
X170104819Y-105223809D02*
X170247676Y-105128571D01*
X170247676Y-105128571D02*
X170342914Y-105033333D01*
X170342914Y-105033333D02*
X170390533Y-104938095D01*
X170104819Y-106414285D02*
X170104819Y-105938095D01*
X170104819Y-105938095D02*
X170581009Y-105890476D01*
X170581009Y-105890476D02*
X170533390Y-105938095D01*
X170533390Y-105938095D02*
X170485771Y-106033333D01*
X170485771Y-106033333D02*
X170485771Y-106271428D01*
X170485771Y-106271428D02*
X170533390Y-106366666D01*
X170533390Y-106366666D02*
X170581009Y-106414285D01*
X170581009Y-106414285D02*
X170676247Y-106461904D01*
X170676247Y-106461904D02*
X170914342Y-106461904D01*
X170914342Y-106461904D02*
X171009580Y-106414285D01*
X171009580Y-106414285D02*
X171057200Y-106366666D01*
X171057200Y-106366666D02*
X171104819Y-106271428D01*
X171104819Y-106271428D02*
X171104819Y-106033333D01*
X171104819Y-106033333D02*
X171057200Y-105938095D01*
X171057200Y-105938095D02*
X171009580Y-105890476D01*
X170142857Y-101404819D02*
X170476190Y-100928628D01*
X170714285Y-101404819D02*
X170714285Y-100404819D01*
X170714285Y-100404819D02*
X170333333Y-100404819D01*
X170333333Y-100404819D02*
X170238095Y-100452438D01*
X170238095Y-100452438D02*
X170190476Y-100500057D01*
X170190476Y-100500057D02*
X170142857Y-100595295D01*
X170142857Y-100595295D02*
X170142857Y-100738152D01*
X170142857Y-100738152D02*
X170190476Y-100833390D01*
X170190476Y-100833390D02*
X170238095Y-100881009D01*
X170238095Y-100881009D02*
X170333333Y-100928628D01*
X170333333Y-100928628D02*
X170714285Y-100928628D01*
X169190476Y-101404819D02*
X169761904Y-101404819D01*
X169476190Y-101404819D02*
X169476190Y-100404819D01*
X169476190Y-100404819D02*
X169571428Y-100547676D01*
X169571428Y-100547676D02*
X169666666Y-100642914D01*
X169666666Y-100642914D02*
X169761904Y-100690533D01*
X168809523Y-100500057D02*
X168761904Y-100452438D01*
X168761904Y-100452438D02*
X168666666Y-100404819D01*
X168666666Y-100404819D02*
X168428571Y-100404819D01*
X168428571Y-100404819D02*
X168333333Y-100452438D01*
X168333333Y-100452438D02*
X168285714Y-100500057D01*
X168285714Y-100500057D02*
X168238095Y-100595295D01*
X168238095Y-100595295D02*
X168238095Y-100690533D01*
X168238095Y-100690533D02*
X168285714Y-100833390D01*
X168285714Y-100833390D02*
X168857142Y-101404819D01*
X168857142Y-101404819D02*
X168238095Y-101404819D01*
X174575357Y-104404819D02*
X174908690Y-103928628D01*
X175146785Y-104404819D02*
X175146785Y-103404819D01*
X175146785Y-103404819D02*
X174765833Y-103404819D01*
X174765833Y-103404819D02*
X174670595Y-103452438D01*
X174670595Y-103452438D02*
X174622976Y-103500057D01*
X174622976Y-103500057D02*
X174575357Y-103595295D01*
X174575357Y-103595295D02*
X174575357Y-103738152D01*
X174575357Y-103738152D02*
X174622976Y-103833390D01*
X174622976Y-103833390D02*
X174670595Y-103881009D01*
X174670595Y-103881009D02*
X174765833Y-103928628D01*
X174765833Y-103928628D02*
X175146785Y-103928628D01*
X173622976Y-104404819D02*
X174194404Y-104404819D01*
X173908690Y-104404819D02*
X173908690Y-103404819D01*
X173908690Y-103404819D02*
X174003928Y-103547676D01*
X174003928Y-103547676D02*
X174099166Y-103642914D01*
X174099166Y-103642914D02*
X174194404Y-103690533D01*
X172765833Y-103738152D02*
X172765833Y-104404819D01*
X173003928Y-103357200D02*
X173242023Y-104071485D01*
X173242023Y-104071485D02*
X172622976Y-104071485D01*
X94134819Y-73436666D02*
X94849104Y-73436666D01*
X94849104Y-73436666D02*
X94991961Y-73389047D01*
X94991961Y-73389047D02*
X95087200Y-73293809D01*
X95087200Y-73293809D02*
X95134819Y-73150952D01*
X95134819Y-73150952D02*
X95134819Y-73055714D01*
X94468152Y-74341428D02*
X95134819Y-74341428D01*
X94087200Y-74103333D02*
X94801485Y-73865238D01*
X94801485Y-73865238D02*
X94801485Y-74484285D01*
X169504819Y-90957142D02*
X169028628Y-90623809D01*
X169504819Y-90385714D02*
X168504819Y-90385714D01*
X168504819Y-90385714D02*
X168504819Y-90766666D01*
X168504819Y-90766666D02*
X168552438Y-90861904D01*
X168552438Y-90861904D02*
X168600057Y-90909523D01*
X168600057Y-90909523D02*
X168695295Y-90957142D01*
X168695295Y-90957142D02*
X168838152Y-90957142D01*
X168838152Y-90957142D02*
X168933390Y-90909523D01*
X168933390Y-90909523D02*
X168981009Y-90861904D01*
X168981009Y-90861904D02*
X169028628Y-90766666D01*
X169028628Y-90766666D02*
X169028628Y-90385714D01*
X168504819Y-91290476D02*
X168504819Y-91909523D01*
X168504819Y-91909523D02*
X168885771Y-91576190D01*
X168885771Y-91576190D02*
X168885771Y-91719047D01*
X168885771Y-91719047D02*
X168933390Y-91814285D01*
X168933390Y-91814285D02*
X168981009Y-91861904D01*
X168981009Y-91861904D02*
X169076247Y-91909523D01*
X169076247Y-91909523D02*
X169314342Y-91909523D01*
X169314342Y-91909523D02*
X169409580Y-91861904D01*
X169409580Y-91861904D02*
X169457200Y-91814285D01*
X169457200Y-91814285D02*
X169504819Y-91719047D01*
X169504819Y-91719047D02*
X169504819Y-91433333D01*
X169504819Y-91433333D02*
X169457200Y-91338095D01*
X169457200Y-91338095D02*
X169409580Y-91290476D01*
X168600057Y-92290476D02*
X168552438Y-92338095D01*
X168552438Y-92338095D02*
X168504819Y-92433333D01*
X168504819Y-92433333D02*
X168504819Y-92671428D01*
X168504819Y-92671428D02*
X168552438Y-92766666D01*
X168552438Y-92766666D02*
X168600057Y-92814285D01*
X168600057Y-92814285D02*
X168695295Y-92861904D01*
X168695295Y-92861904D02*
X168790533Y-92861904D01*
X168790533Y-92861904D02*
X168933390Y-92814285D01*
X168933390Y-92814285D02*
X169504819Y-92242857D01*
X169504819Y-92242857D02*
X169504819Y-92861904D01*
X171642857Y-92304819D02*
X171976190Y-91828628D01*
X172214285Y-92304819D02*
X172214285Y-91304819D01*
X172214285Y-91304819D02*
X171833333Y-91304819D01*
X171833333Y-91304819D02*
X171738095Y-91352438D01*
X171738095Y-91352438D02*
X171690476Y-91400057D01*
X171690476Y-91400057D02*
X171642857Y-91495295D01*
X171642857Y-91495295D02*
X171642857Y-91638152D01*
X171642857Y-91638152D02*
X171690476Y-91733390D01*
X171690476Y-91733390D02*
X171738095Y-91781009D01*
X171738095Y-91781009D02*
X171833333Y-91828628D01*
X171833333Y-91828628D02*
X172214285Y-91828628D01*
X171261904Y-91400057D02*
X171214285Y-91352438D01*
X171214285Y-91352438D02*
X171119047Y-91304819D01*
X171119047Y-91304819D02*
X170880952Y-91304819D01*
X170880952Y-91304819D02*
X170785714Y-91352438D01*
X170785714Y-91352438D02*
X170738095Y-91400057D01*
X170738095Y-91400057D02*
X170690476Y-91495295D01*
X170690476Y-91495295D02*
X170690476Y-91590533D01*
X170690476Y-91590533D02*
X170738095Y-91733390D01*
X170738095Y-91733390D02*
X171309523Y-92304819D01*
X171309523Y-92304819D02*
X170690476Y-92304819D01*
X170357142Y-91304819D02*
X169690476Y-91304819D01*
X169690476Y-91304819D02*
X170119047Y-92304819D01*
X223034819Y-124660476D02*
X223749104Y-124660476D01*
X223749104Y-124660476D02*
X223891961Y-124612857D01*
X223891961Y-124612857D02*
X223987200Y-124517619D01*
X223987200Y-124517619D02*
X224034819Y-124374762D01*
X224034819Y-124374762D02*
X224034819Y-124279524D01*
X224034819Y-125660476D02*
X224034819Y-125089048D01*
X224034819Y-125374762D02*
X223034819Y-125374762D01*
X223034819Y-125374762D02*
X223177676Y-125279524D01*
X223177676Y-125279524D02*
X223272914Y-125184286D01*
X223272914Y-125184286D02*
X223320533Y-125089048D01*
X223034819Y-126565238D02*
X223034819Y-126089048D01*
X223034819Y-126089048D02*
X223511009Y-126041429D01*
X223511009Y-126041429D02*
X223463390Y-126089048D01*
X223463390Y-126089048D02*
X223415771Y-126184286D01*
X223415771Y-126184286D02*
X223415771Y-126422381D01*
X223415771Y-126422381D02*
X223463390Y-126517619D01*
X223463390Y-126517619D02*
X223511009Y-126565238D01*
X223511009Y-126565238D02*
X223606247Y-126612857D01*
X223606247Y-126612857D02*
X223844342Y-126612857D01*
X223844342Y-126612857D02*
X223939580Y-126565238D01*
X223939580Y-126565238D02*
X223987200Y-126517619D01*
X223987200Y-126517619D02*
X224034819Y-126422381D01*
X224034819Y-126422381D02*
X224034819Y-126184286D01*
X224034819Y-126184286D02*
X223987200Y-126089048D01*
X223987200Y-126089048D02*
X223939580Y-126041429D01*
X172704819Y-104657142D02*
X172228628Y-104323809D01*
X172704819Y-104085714D02*
X171704819Y-104085714D01*
X171704819Y-104085714D02*
X171704819Y-104466666D01*
X171704819Y-104466666D02*
X171752438Y-104561904D01*
X171752438Y-104561904D02*
X171800057Y-104609523D01*
X171800057Y-104609523D02*
X171895295Y-104657142D01*
X171895295Y-104657142D02*
X172038152Y-104657142D01*
X172038152Y-104657142D02*
X172133390Y-104609523D01*
X172133390Y-104609523D02*
X172181009Y-104561904D01*
X172181009Y-104561904D02*
X172228628Y-104466666D01*
X172228628Y-104466666D02*
X172228628Y-104085714D01*
X172704819Y-105609523D02*
X172704819Y-105038095D01*
X172704819Y-105323809D02*
X171704819Y-105323809D01*
X171704819Y-105323809D02*
X171847676Y-105228571D01*
X171847676Y-105228571D02*
X171942914Y-105133333D01*
X171942914Y-105133333D02*
X171990533Y-105038095D01*
X171704819Y-105942857D02*
X171704819Y-106609523D01*
X171704819Y-106609523D02*
X172704819Y-106180952D01*
X170904819Y-94857142D02*
X170428628Y-94523809D01*
X170904819Y-94285714D02*
X169904819Y-94285714D01*
X169904819Y-94285714D02*
X169904819Y-94666666D01*
X169904819Y-94666666D02*
X169952438Y-94761904D01*
X169952438Y-94761904D02*
X170000057Y-94809523D01*
X170000057Y-94809523D02*
X170095295Y-94857142D01*
X170095295Y-94857142D02*
X170238152Y-94857142D01*
X170238152Y-94857142D02*
X170333390Y-94809523D01*
X170333390Y-94809523D02*
X170381009Y-94761904D01*
X170381009Y-94761904D02*
X170428628Y-94666666D01*
X170428628Y-94666666D02*
X170428628Y-94285714D01*
X170000057Y-95238095D02*
X169952438Y-95285714D01*
X169952438Y-95285714D02*
X169904819Y-95380952D01*
X169904819Y-95380952D02*
X169904819Y-95619047D01*
X169904819Y-95619047D02*
X169952438Y-95714285D01*
X169952438Y-95714285D02*
X170000057Y-95761904D01*
X170000057Y-95761904D02*
X170095295Y-95809523D01*
X170095295Y-95809523D02*
X170190533Y-95809523D01*
X170190533Y-95809523D02*
X170333390Y-95761904D01*
X170333390Y-95761904D02*
X170904819Y-95190476D01*
X170904819Y-95190476D02*
X170904819Y-95809523D01*
X170904819Y-96285714D02*
X170904819Y-96476190D01*
X170904819Y-96476190D02*
X170857200Y-96571428D01*
X170857200Y-96571428D02*
X170809580Y-96619047D01*
X170809580Y-96619047D02*
X170666723Y-96714285D01*
X170666723Y-96714285D02*
X170476247Y-96761904D01*
X170476247Y-96761904D02*
X170095295Y-96761904D01*
X170095295Y-96761904D02*
X170000057Y-96714285D01*
X170000057Y-96714285D02*
X169952438Y-96666666D01*
X169952438Y-96666666D02*
X169904819Y-96571428D01*
X169904819Y-96571428D02*
X169904819Y-96380952D01*
X169904819Y-96380952D02*
X169952438Y-96285714D01*
X169952438Y-96285714D02*
X170000057Y-96238095D01*
X170000057Y-96238095D02*
X170095295Y-96190476D01*
X170095295Y-96190476D02*
X170333390Y-96190476D01*
X170333390Y-96190476D02*
X170428628Y-96238095D01*
X170428628Y-96238095D02*
X170476247Y-96285714D01*
X170476247Y-96285714D02*
X170523866Y-96380952D01*
X170523866Y-96380952D02*
X170523866Y-96571428D01*
X170523866Y-96571428D02*
X170476247Y-96666666D01*
X170476247Y-96666666D02*
X170428628Y-96714285D01*
X170428628Y-96714285D02*
X170333390Y-96761904D01*
X172142857Y-102904819D02*
X172476190Y-102428628D01*
X172714285Y-102904819D02*
X172714285Y-101904819D01*
X172714285Y-101904819D02*
X172333333Y-101904819D01*
X172333333Y-101904819D02*
X172238095Y-101952438D01*
X172238095Y-101952438D02*
X172190476Y-102000057D01*
X172190476Y-102000057D02*
X172142857Y-102095295D01*
X172142857Y-102095295D02*
X172142857Y-102238152D01*
X172142857Y-102238152D02*
X172190476Y-102333390D01*
X172190476Y-102333390D02*
X172238095Y-102381009D01*
X172238095Y-102381009D02*
X172333333Y-102428628D01*
X172333333Y-102428628D02*
X172714285Y-102428628D01*
X171761904Y-102000057D02*
X171714285Y-101952438D01*
X171714285Y-101952438D02*
X171619047Y-101904819D01*
X171619047Y-101904819D02*
X171380952Y-101904819D01*
X171380952Y-101904819D02*
X171285714Y-101952438D01*
X171285714Y-101952438D02*
X171238095Y-102000057D01*
X171238095Y-102000057D02*
X171190476Y-102095295D01*
X171190476Y-102095295D02*
X171190476Y-102190533D01*
X171190476Y-102190533D02*
X171238095Y-102333390D01*
X171238095Y-102333390D02*
X171809523Y-102904819D01*
X171809523Y-102904819D02*
X171190476Y-102904819D01*
X170809523Y-102000057D02*
X170761904Y-101952438D01*
X170761904Y-101952438D02*
X170666666Y-101904819D01*
X170666666Y-101904819D02*
X170428571Y-101904819D01*
X170428571Y-101904819D02*
X170333333Y-101952438D01*
X170333333Y-101952438D02*
X170285714Y-102000057D01*
X170285714Y-102000057D02*
X170238095Y-102095295D01*
X170238095Y-102095295D02*
X170238095Y-102190533D01*
X170238095Y-102190533D02*
X170285714Y-102333390D01*
X170285714Y-102333390D02*
X170857142Y-102904819D01*
X170857142Y-102904819D02*
X170238095Y-102904819D01*
X171042857Y-107304819D02*
X171376190Y-106828628D01*
X171614285Y-107304819D02*
X171614285Y-106304819D01*
X171614285Y-106304819D02*
X171233333Y-106304819D01*
X171233333Y-106304819D02*
X171138095Y-106352438D01*
X171138095Y-106352438D02*
X171090476Y-106400057D01*
X171090476Y-106400057D02*
X171042857Y-106495295D01*
X171042857Y-106495295D02*
X171042857Y-106638152D01*
X171042857Y-106638152D02*
X171090476Y-106733390D01*
X171090476Y-106733390D02*
X171138095Y-106781009D01*
X171138095Y-106781009D02*
X171233333Y-106828628D01*
X171233333Y-106828628D02*
X171614285Y-106828628D01*
X170709523Y-106304819D02*
X170090476Y-106304819D01*
X170090476Y-106304819D02*
X170423809Y-106685771D01*
X170423809Y-106685771D02*
X170280952Y-106685771D01*
X170280952Y-106685771D02*
X170185714Y-106733390D01*
X170185714Y-106733390D02*
X170138095Y-106781009D01*
X170138095Y-106781009D02*
X170090476Y-106876247D01*
X170090476Y-106876247D02*
X170090476Y-107114342D01*
X170090476Y-107114342D02*
X170138095Y-107209580D01*
X170138095Y-107209580D02*
X170185714Y-107257200D01*
X170185714Y-107257200D02*
X170280952Y-107304819D01*
X170280952Y-107304819D02*
X170566666Y-107304819D01*
X170566666Y-107304819D02*
X170661904Y-107257200D01*
X170661904Y-107257200D02*
X170709523Y-107209580D01*
X169757142Y-106304819D02*
X169138095Y-106304819D01*
X169138095Y-106304819D02*
X169471428Y-106685771D01*
X169471428Y-106685771D02*
X169328571Y-106685771D01*
X169328571Y-106685771D02*
X169233333Y-106733390D01*
X169233333Y-106733390D02*
X169185714Y-106781009D01*
X169185714Y-106781009D02*
X169138095Y-106876247D01*
X169138095Y-106876247D02*
X169138095Y-107114342D01*
X169138095Y-107114342D02*
X169185714Y-107209580D01*
X169185714Y-107209580D02*
X169233333Y-107257200D01*
X169233333Y-107257200D02*
X169328571Y-107304819D01*
X169328571Y-107304819D02*
X169614285Y-107304819D01*
X169614285Y-107304819D02*
X169709523Y-107257200D01*
X169709523Y-107257200D02*
X169757142Y-107209580D01*
X196304819Y-124796666D02*
X197019104Y-124796666D01*
X197019104Y-124796666D02*
X197161961Y-124749047D01*
X197161961Y-124749047D02*
X197257200Y-124653809D01*
X197257200Y-124653809D02*
X197304819Y-124510952D01*
X197304819Y-124510952D02*
X197304819Y-124415714D01*
X196304819Y-125177619D02*
X196304819Y-125844285D01*
X196304819Y-125844285D02*
X197304819Y-125415714D01*
X173775357Y-102404819D02*
X174108690Y-101928628D01*
X174346785Y-102404819D02*
X174346785Y-101404819D01*
X174346785Y-101404819D02*
X173965833Y-101404819D01*
X173965833Y-101404819D02*
X173870595Y-101452438D01*
X173870595Y-101452438D02*
X173822976Y-101500057D01*
X173822976Y-101500057D02*
X173775357Y-101595295D01*
X173775357Y-101595295D02*
X173775357Y-101738152D01*
X173775357Y-101738152D02*
X173822976Y-101833390D01*
X173822976Y-101833390D02*
X173870595Y-101881009D01*
X173870595Y-101881009D02*
X173965833Y-101928628D01*
X173965833Y-101928628D02*
X174346785Y-101928628D01*
X173394404Y-101500057D02*
X173346785Y-101452438D01*
X173346785Y-101452438D02*
X173251547Y-101404819D01*
X173251547Y-101404819D02*
X173013452Y-101404819D01*
X173013452Y-101404819D02*
X172918214Y-101452438D01*
X172918214Y-101452438D02*
X172870595Y-101500057D01*
X172870595Y-101500057D02*
X172822976Y-101595295D01*
X172822976Y-101595295D02*
X172822976Y-101690533D01*
X172822976Y-101690533D02*
X172870595Y-101833390D01*
X172870595Y-101833390D02*
X173442023Y-102404819D01*
X173442023Y-102404819D02*
X172822976Y-102404819D01*
X171965833Y-101738152D02*
X171965833Y-102404819D01*
X172203928Y-101357200D02*
X172442023Y-102071485D01*
X172442023Y-102071485D02*
X171822976Y-102071485D01*
%TO.C,C28*%
D11*
X134257836Y-103340000D02*
X134042164Y-103340000D01*
X134257836Y-104060000D02*
X134042164Y-104060000D01*
%TO.C,C152*%
X145442164Y-125640000D02*
X145657836Y-125640000D01*
X145442164Y-126360000D02*
X145657836Y-126360000D01*
%TO.C,C84*%
X102292164Y-94945000D02*
X102507836Y-94945000D01*
X102292164Y-95665000D02*
X102507836Y-95665000D01*
%TO.C,C31*%
X177538748Y-109690000D02*
X178961252Y-109690000D01*
X177538748Y-112410000D02*
X178961252Y-112410000D01*
%TO.C,FB5*%
X130515000Y-79775580D02*
X130515000Y-79494420D01*
X131535000Y-79775580D02*
X131535000Y-79494420D01*
%TO.C,R57*%
X121520000Y-94446359D02*
X121520000Y-94753641D01*
X122280000Y-94446359D02*
X122280000Y-94753641D01*
%TO.C,U24*%
X159890000Y-78065000D02*
X159890000Y-79885000D01*
X159890000Y-79885000D02*
X159940000Y-79885000D01*
X159940000Y-78065000D02*
X159890000Y-78065000D01*
X161840000Y-78065000D02*
X161060000Y-78065000D01*
X162960000Y-79885000D02*
X163010000Y-79885000D01*
X163010000Y-78065000D02*
X162960000Y-78065000D01*
X163010000Y-79885000D02*
X163010000Y-78065000D01*
X163290000Y-80665000D02*
X162960000Y-80425000D01*
X163290000Y-80185000D01*
X163290000Y-80665000D01*
G36*
X163290000Y-80665000D02*
G01*
X162960000Y-80425000D01*
X163290000Y-80185000D01*
X163290000Y-80665000D01*
G37*
%TO.C,C133*%
X148240580Y-125690000D02*
X147959420Y-125690000D01*
X148240580Y-126710000D02*
X147959420Y-126710000D01*
%TO.C,C36*%
X136657836Y-101740000D02*
X136442164Y-101740000D01*
X136657836Y-102460000D02*
X136442164Y-102460000D01*
%TO.C,R50*%
X142270000Y-92196359D02*
X142270000Y-92503641D01*
X143030000Y-92196359D02*
X143030000Y-92503641D01*
%TO.C,C10*%
X153388748Y-85490000D02*
X154811252Y-85490000D01*
X153388748Y-88210000D02*
X154811252Y-88210000D01*
%TO.C,FB3*%
X117183750Y-92932776D02*
X117183750Y-93442224D01*
X118228750Y-92932776D02*
X118228750Y-93442224D01*
%TO.C,R65*%
X130903641Y-113220000D02*
X130596359Y-113220000D01*
X130903641Y-113980000D02*
X130596359Y-113980000D01*
%TO.C,C136*%
X128957836Y-95690000D02*
X128742164Y-95690000D01*
X128957836Y-96410000D02*
X128742164Y-96410000D01*
%TO.C,C13*%
X143890000Y-85007836D02*
X143890000Y-84792164D01*
X144610000Y-85007836D02*
X144610000Y-84792164D01*
%TO.C,C47*%
X187178368Y-108645672D02*
X187178368Y-108926832D01*
X188198368Y-108645672D02*
X188198368Y-108926832D01*
%TO.C,C48*%
X185628368Y-108645672D02*
X185628368Y-108926832D01*
X186648368Y-108645672D02*
X186648368Y-108926832D01*
%TO.C,C53*%
X167790000Y-94392164D02*
X167790000Y-94607836D01*
X168510000Y-94392164D02*
X168510000Y-94607836D01*
%TO.C,C19*%
X145640000Y-105792164D02*
X145640000Y-106007836D01*
X146360000Y-105792164D02*
X146360000Y-106007836D01*
%TO.C,C137*%
X149529000Y-84247836D02*
X149529000Y-84032164D01*
X150249000Y-84247836D02*
X150249000Y-84032164D01*
%TO.C,C7*%
X220992164Y-92290000D02*
X221207836Y-92290000D01*
X220992164Y-93010000D02*
X221207836Y-93010000D01*
%TO.C,C12*%
X152692164Y-89290000D02*
X152907836Y-89290000D01*
X152692164Y-90010000D02*
X152907836Y-90010000D01*
%TO.C,R64*%
X130903641Y-114320000D02*
X130596359Y-114320000D01*
X130903641Y-115080000D02*
X130596359Y-115080000D01*
%TO.C,C162*%
X128461252Y-87040000D02*
X127038748Y-87040000D01*
X128461252Y-89760000D02*
X127038748Y-89760000D01*
%TO.C,C132*%
X111629420Y-114165000D02*
X111910580Y-114165000D01*
X111629420Y-115185000D02*
X111910580Y-115185000D01*
%TO.C,R96*%
X186895000Y-95718641D02*
X186895000Y-95411359D01*
X187655000Y-95718641D02*
X187655000Y-95411359D01*
%TO.C,C156*%
X129247836Y-91300000D02*
X129032164Y-91300000D01*
X129247836Y-92020000D02*
X129032164Y-92020000D01*
%TO.C,R6*%
X169420000Y-97653641D02*
X169420000Y-97346359D01*
X170180000Y-97653641D02*
X170180000Y-97346359D01*
%TO.C,C62*%
X115513414Y-97157500D02*
X115729086Y-97157500D01*
X115513414Y-97877500D02*
X115729086Y-97877500D01*
%TO.C,C37*%
X141342164Y-103290000D02*
X141557836Y-103290000D01*
X141342164Y-104010000D02*
X141557836Y-104010000D01*
%TO.C,C127*%
X152790000Y-122984420D02*
X152790000Y-123265580D01*
X153810000Y-122984420D02*
X153810000Y-123265580D01*
%TO.C,R47*%
X142871359Y-87995000D02*
X143178641Y-87995000D01*
X142871359Y-88755000D02*
X143178641Y-88755000D01*
%TO.C,C161*%
X153388748Y-91115000D02*
X153911252Y-91115000D01*
X153388748Y-92585000D02*
X153911252Y-92585000D01*
%TO.C,C160*%
X139940000Y-107192164D02*
X139940000Y-107407836D01*
X140660000Y-107192164D02*
X140660000Y-107407836D01*
%TO.C,C26*%
X149490000Y-86507836D02*
X149490000Y-86292164D01*
X150210000Y-86507836D02*
X150210000Y-86292164D01*
%TO.C,C143*%
X152742164Y-92990000D02*
X152957836Y-92990000D01*
X152742164Y-93710000D02*
X152957836Y-93710000D01*
%TO.C,C83*%
X102292164Y-96000000D02*
X102507836Y-96000000D01*
X102292164Y-96720000D02*
X102507836Y-96720000D01*
%TO.C,L4*%
X161361252Y-72527500D02*
X159038748Y-72527500D01*
X161361252Y-75947500D02*
X159038748Y-75947500D01*
%TO.C,C151*%
X129247836Y-90240000D02*
X129032164Y-90240000D01*
X129247836Y-90960000D02*
X129032164Y-90960000D01*
%TO.C,C34*%
X133857836Y-89740000D02*
X133642164Y-89740000D01*
X133857836Y-90460000D02*
X133642164Y-90460000D01*
%TO.C,FB1*%
X111527500Y-95532776D02*
X111527500Y-96042224D01*
X112572500Y-95532776D02*
X112572500Y-96042224D01*
%TO.C,C32*%
X133357836Y-99740000D02*
X133142164Y-99740000D01*
X133357836Y-100460000D02*
X133142164Y-100460000D01*
%TO.C,C18*%
X142890000Y-85027836D02*
X142890000Y-84812164D01*
X143610000Y-85027836D02*
X143610000Y-84812164D01*
%TO.C,C68*%
X122614086Y-101977500D02*
X122398414Y-101977500D01*
X122614086Y-102697500D02*
X122398414Y-102697500D01*
%TO.C,R48*%
X122550843Y-92527317D02*
X122243561Y-92527317D01*
X122550843Y-93287317D02*
X122243561Y-93287317D01*
%TO.C,C130*%
X182145336Y-92725000D02*
X181929664Y-92725000D01*
X182145336Y-93445000D02*
X181929664Y-93445000D01*
%TO.C,C11*%
X141490000Y-100907836D02*
X141490000Y-100692164D01*
X142210000Y-100907836D02*
X142210000Y-100692164D01*
%TO.C,C3*%
X220962164Y-114390000D02*
X221177836Y-114390000D01*
X220962164Y-115110000D02*
X221177836Y-115110000D01*
%TO.C,R54*%
X125646359Y-101803333D02*
X125953641Y-101803333D01*
X125646359Y-102563333D02*
X125953641Y-102563333D01*
%TO.C,C128*%
X111860580Y-121215000D02*
X111579420Y-121215000D01*
X111860580Y-122235000D02*
X111579420Y-122235000D01*
%TO.C,C139*%
X128586252Y-92594757D02*
X127163748Y-92594757D01*
X128586252Y-95314757D02*
X127163748Y-95314757D01*
%TO.C,C22*%
X136540000Y-104092164D02*
X136540000Y-104307836D01*
X137260000Y-104092164D02*
X137260000Y-104307836D01*
%TO.C,R49*%
X144595000Y-104796359D02*
X144595000Y-105103641D01*
X145355000Y-104796359D02*
X145355000Y-105103641D01*
%TO.C,R91*%
X112215000Y-124378641D02*
X112215000Y-124071359D01*
X112975000Y-124378641D02*
X112975000Y-124071359D01*
%TO.C,C134*%
X161765580Y-81627500D02*
X161484420Y-81627500D01*
X161765580Y-82647500D02*
X161484420Y-82647500D01*
%TO.C,C21*%
X138440000Y-82257836D02*
X138440000Y-82042164D01*
X139160000Y-82257836D02*
X139160000Y-82042164D01*
%TO.C,C50*%
X182192164Y-109390000D02*
X182407836Y-109390000D01*
X182192164Y-110110000D02*
X182407836Y-110110000D01*
%TO.C,C80*%
X101070000Y-92697836D02*
X101070000Y-92482164D01*
X101790000Y-92697836D02*
X101790000Y-92482164D01*
%TO.C,U23*%
X186050000Y-96390000D02*
X184050000Y-96390000D01*
X186060000Y-94110000D02*
X184060000Y-94110000D01*
X186700000Y-94180000D02*
X186420000Y-94180000D01*
X186420000Y-93900000D01*
X186700000Y-94180000D01*
G36*
X186700000Y-94180000D02*
G01*
X186420000Y-94180000D01*
X186420000Y-93900000D01*
X186700000Y-94180000D01*
G37*
%TO.C,C146*%
X148496000Y-84247836D02*
X148496000Y-84032164D01*
X149216000Y-84247836D02*
X149216000Y-84032164D01*
%TO.C,C20*%
X135057836Y-87340000D02*
X134842164Y-87340000D01*
X135057836Y-88060000D02*
X134842164Y-88060000D01*
%TO.C,L2*%
X113790000Y-116111252D02*
X113790000Y-113788748D01*
X117210000Y-116111252D02*
X117210000Y-113788748D01*
%TO.C,C29*%
X139090000Y-100042164D02*
X139090000Y-100257836D01*
X139810000Y-100042164D02*
X139810000Y-100257836D01*
%TO.C,C45*%
X180790580Y-100690000D02*
X180509420Y-100690000D01*
X180790580Y-101710000D02*
X180509420Y-101710000D01*
%TO.C,U3*%
X181625000Y-105400000D02*
X181625000Y-105500000D01*
X181625000Y-108600000D02*
X181625000Y-108500000D01*
X182425000Y-105400000D02*
X181625000Y-105400000D01*
X182425000Y-108600000D02*
X181625000Y-108600000D01*
X184025000Y-105400000D02*
X184485000Y-105400000D01*
X184825000Y-108500000D02*
X184825000Y-108600000D01*
X184825000Y-108600000D02*
X184025000Y-108600000D01*
X185305000Y-105520000D02*
X184825000Y-105520000D01*
X184825000Y-105040000D01*
X185305000Y-105520000D01*
G36*
X185305000Y-105520000D02*
G01*
X184825000Y-105520000D01*
X184825000Y-105040000D01*
X185305000Y-105520000D01*
G37*
%TO.C,C85*%
X102292164Y-93890000D02*
X102507836Y-93890000D01*
X102292164Y-94610000D02*
X102507836Y-94610000D01*
%TO.C,R62*%
X130903641Y-119820000D02*
X130596359Y-119820000D01*
X130903641Y-120580000D02*
X130596359Y-120580000D01*
%TO.C,C82*%
X102292164Y-97055000D02*
X102507836Y-97055000D01*
X102292164Y-97775000D02*
X102507836Y-97775000D01*
%TO.C,C86*%
X98065000Y-92061252D02*
X98065000Y-91538748D01*
X99535000Y-92061252D02*
X99535000Y-91538748D01*
%TO.C,C149*%
X145190000Y-83461252D02*
X145190000Y-82038748D01*
X147010000Y-83461252D02*
X147010000Y-82038748D01*
%TO.C,C24*%
X134561252Y-84190000D02*
X133138748Y-84190000D01*
X134561252Y-86910000D02*
X133138748Y-86910000D01*
%TO.C,C144*%
X143090000Y-99192164D02*
X143090000Y-99407836D01*
X143810000Y-99192164D02*
X143810000Y-99407836D01*
%TO.C,R95*%
X186421359Y-96735000D02*
X186728641Y-96735000D01*
X186421359Y-97495000D02*
X186728641Y-97495000D01*
%TO.C,C23*%
X135590000Y-107192164D02*
X135590000Y-107407836D01*
X136310000Y-107192164D02*
X136310000Y-107407836D01*
%TO.C,C150*%
X158390000Y-78396920D02*
X158390000Y-78678080D01*
X159410000Y-78396920D02*
X159410000Y-78678080D01*
%TO.C,R58*%
X124120000Y-97096359D02*
X124120000Y-97403641D01*
X124880000Y-97096359D02*
X124880000Y-97403641D01*
%TO.C,J4*%
X95680000Y-71120000D02*
X95680000Y-72500000D01*
X95680000Y-73770000D02*
X95680000Y-76420000D01*
X95680000Y-76420000D02*
X103520000Y-76420000D01*
X97060000Y-71120000D02*
X95680000Y-71120000D01*
X98330000Y-71120000D02*
X98330000Y-73770000D01*
X98330000Y-71120000D02*
X103520000Y-71120000D01*
X98330000Y-73770000D02*
X95680000Y-73770000D01*
X103520000Y-71120000D02*
X103520000Y-76420000D01*
%TO.C,C59*%
X167057836Y-105940000D02*
X166842164Y-105940000D01*
X167057836Y-106660000D02*
X166842164Y-106660000D01*
%TO.C,C30*%
X137490000Y-100042164D02*
X137490000Y-100257836D01*
X138210000Y-100042164D02*
X138210000Y-100257836D01*
%TO.C,C157*%
X143607836Y-125640000D02*
X143392164Y-125640000D01*
X143607836Y-126360000D02*
X143392164Y-126360000D01*
%TO.C,C16*%
X133340000Y-97442164D02*
X133340000Y-97657836D01*
X134060000Y-97442164D02*
X134060000Y-97657836D01*
%TO.C,R89*%
X154320000Y-122646359D02*
X154320000Y-122953641D01*
X155080000Y-122646359D02*
X155080000Y-122953641D01*
%TO.C,C46*%
X179972164Y-105690000D02*
X180187836Y-105690000D01*
X179972164Y-106410000D02*
X180187836Y-106410000D01*
%TO.C,J15*%
X224580000Y-122820000D02*
X224580000Y-124200000D01*
X224580000Y-125470000D02*
X224580000Y-128120000D01*
X224580000Y-128120000D02*
X234960000Y-128120000D01*
X225960000Y-122820000D02*
X224580000Y-122820000D01*
X227230000Y-122820000D02*
X227230000Y-125470000D01*
X227230000Y-122820000D02*
X234960000Y-122820000D01*
X227230000Y-125470000D02*
X224580000Y-125470000D01*
X234960000Y-122820000D02*
X234960000Y-128120000D01*
%TO.C,R94*%
X184738641Y-96735000D02*
X184431359Y-96735000D01*
X184738641Y-97495000D02*
X184431359Y-97495000D01*
%TO.C,C4*%
X207857836Y-90790000D02*
X207642164Y-90790000D01*
X207857836Y-91510000D02*
X207642164Y-91510000D01*
%TO.C,FB2*%
X112927500Y-103604724D02*
X112927500Y-103095276D01*
X113972500Y-103604724D02*
X113972500Y-103095276D01*
%TO.C,C17*%
X139790000Y-83811252D02*
X139790000Y-82388748D01*
X142510000Y-83811252D02*
X142510000Y-82388748D01*
%TO.C,C153*%
X133184420Y-79890000D02*
X133465580Y-79890000D01*
X133184420Y-80910000D02*
X133465580Y-80910000D01*
%TO.C,L1*%
X179677500Y-95853748D02*
X179677500Y-98176252D01*
X183097500Y-95853748D02*
X183097500Y-98176252D01*
%TO.C,R63*%
X130903641Y-118720000D02*
X130596359Y-118720000D01*
X130903641Y-119480000D02*
X130596359Y-119480000D01*
%TO.C,R39*%
X106036359Y-77470000D02*
X106343641Y-77470000D01*
X106036359Y-78230000D02*
X106343641Y-78230000D01*
%TO.C,C148*%
X157190000Y-100913748D02*
X157190000Y-102336252D01*
X159910000Y-100913748D02*
X159910000Y-102336252D01*
%TO.C,U22*%
X110060000Y-117052500D02*
X110060000Y-118872500D01*
X110060000Y-118872500D02*
X110110000Y-118872500D01*
X110110000Y-117052500D02*
X110060000Y-117052500D01*
X112010000Y-117052500D02*
X111230000Y-117052500D01*
X113130000Y-118872500D02*
X113180000Y-118872500D01*
X113180000Y-117052500D02*
X113130000Y-117052500D01*
X113180000Y-118872500D02*
X113180000Y-117052500D01*
X113460000Y-119652500D02*
X113130000Y-119412500D01*
X113460000Y-119172500D01*
X113460000Y-119652500D01*
G36*
X113460000Y-119652500D02*
G01*
X113130000Y-119412500D01*
X113460000Y-119172500D01*
X113460000Y-119652500D01*
G37*
%TO.C,R9*%
X178220000Y-108553641D02*
X178220000Y-108246359D01*
X178980000Y-108553641D02*
X178980000Y-108246359D01*
%TO.C,C142*%
X154990000Y-100127164D02*
X154990000Y-100342836D01*
X155710000Y-100127164D02*
X155710000Y-100342836D01*
%TO.C,C5*%
X220992164Y-93490000D02*
X221207836Y-93490000D01*
X220992164Y-94210000D02*
X221207836Y-94210000D01*
%TO.C,C145*%
X155990000Y-100127164D02*
X155990000Y-100342836D01*
X156710000Y-100127164D02*
X156710000Y-100342836D01*
%TO.C,C138*%
X147463000Y-84247836D02*
X147463000Y-84032164D01*
X148183000Y-84247836D02*
X148183000Y-84032164D01*
%TO.C,R66*%
X130903641Y-112120000D02*
X130596359Y-112120000D01*
X130903641Y-112880000D02*
X130596359Y-112880000D01*
%TO.C,R55*%
X125646359Y-99770000D02*
X125953641Y-99770000D01*
X125646359Y-100530000D02*
X125953641Y-100530000D01*
%TO.C,C165*%
X136740000Y-107588748D02*
X136740000Y-109011252D01*
X139460000Y-107588748D02*
X139460000Y-109011252D01*
%TO.C,C49*%
X185640000Y-105940580D02*
X185640000Y-105659420D01*
X186660000Y-105940580D02*
X186660000Y-105659420D01*
%TO.C,C60*%
X171842164Y-89390000D02*
X172057836Y-89390000D01*
X171842164Y-90110000D02*
X172057836Y-90110000D01*
%TO.C,C35*%
X134257836Y-100940000D02*
X134042164Y-100940000D01*
X134257836Y-101660000D02*
X134042164Y-101660000D01*
%TO.C,R90*%
X167670000Y-74871359D02*
X167670000Y-75178641D01*
X168430000Y-74871359D02*
X168430000Y-75178641D01*
%TO.C,C33*%
X143840000Y-102492164D02*
X143840000Y-102707836D01*
X144560000Y-102492164D02*
X144560000Y-102707836D01*
%TO.C,C81*%
X100015000Y-92697836D02*
X100015000Y-92482164D01*
X100735000Y-92697836D02*
X100735000Y-92482164D01*
%TO.C,R35*%
X175696359Y-92820000D02*
X176003641Y-92820000D01*
X175696359Y-93580000D02*
X176003641Y-93580000D01*
%TO.C,L3*%
X144140000Y-121038748D02*
X144140000Y-123361252D01*
X147560000Y-121038748D02*
X147560000Y-123361252D01*
%TO.C,R36*%
X152871359Y-96545000D02*
X153178641Y-96545000D01*
X152871359Y-97305000D02*
X153178641Y-97305000D01*
%TO.C,C141*%
X128957836Y-97720000D02*
X128742164Y-97720000D01*
X128957836Y-98440000D02*
X128742164Y-98440000D01*
%TO.C,J7*%
X159730000Y-127730000D02*
X159730000Y-122530000D01*
X192810000Y-122530000D02*
X159730000Y-122530000D01*
X192810000Y-125130000D02*
X192810000Y-122530000D01*
X195410000Y-122530000D02*
X194080000Y-122530000D01*
X195410000Y-123860000D02*
X195410000Y-122530000D01*
X195410000Y-125130000D02*
X192810000Y-125130000D01*
X195410000Y-127730000D02*
X159730000Y-127730000D01*
X195410000Y-127730000D02*
X195410000Y-125130000D01*
%TO.C,R92*%
X189903641Y-93770000D02*
X189596359Y-93770000D01*
X189903641Y-94530000D02*
X189596359Y-94530000D01*
%TO.C,R7*%
X179954727Y-107120000D02*
X180262009Y-107120000D01*
X179954727Y-107880000D02*
X180262009Y-107880000D01*
%TO.C,C78*%
X116996250Y-95879664D02*
X116996250Y-96095336D01*
X117716250Y-95879664D02*
X117716250Y-96095336D01*
%TO.C,FB4*%
X155659420Y-98040000D02*
X155940580Y-98040000D01*
X155659420Y-99060000D02*
X155940580Y-99060000D01*
%TO.C,C147*%
X128957836Y-96705000D02*
X128742164Y-96705000D01*
X128957836Y-97425000D02*
X128742164Y-97425000D01*
%TO.C,C25*%
X143440000Y-105342164D02*
X143440000Y-105557836D01*
X144160000Y-105342164D02*
X144160000Y-105557836D01*
%TO.C,U21*%
X149190000Y-122090000D02*
X149190000Y-122140000D01*
X149190000Y-123260000D02*
X149190000Y-124040000D01*
X149190000Y-125160000D02*
X149190000Y-125210000D01*
X149190000Y-125210000D02*
X151010000Y-125210000D01*
X151010000Y-122090000D02*
X149190000Y-122090000D01*
X151010000Y-122140000D02*
X151010000Y-122090000D01*
X151010000Y-125210000D02*
X151010000Y-125160000D01*
X151550000Y-122140000D02*
X151310000Y-121810000D01*
X151790000Y-121810000D01*
X151550000Y-122140000D01*
G36*
X151550000Y-122140000D02*
G01*
X151310000Y-121810000D01*
X151790000Y-121810000D01*
X151550000Y-122140000D01*
G37*
%TO.C,C135*%
X145342164Y-94540000D02*
X145557836Y-94540000D01*
X145342164Y-95260000D02*
X145557836Y-95260000D01*
%TO.C,C6*%
X212442164Y-90790000D02*
X212657836Y-90790000D01*
X212442164Y-91510000D02*
X212657836Y-91510000D01*
%TO.C,R87*%
X113810000Y-124214564D02*
X113810000Y-119860436D01*
X117230000Y-124214564D02*
X117230000Y-119860436D01*
%TO.C,R56*%
X125646359Y-100786667D02*
X125953641Y-100786667D01*
X125646359Y-101546667D02*
X125953641Y-101546667D01*
%TO.C,C15*%
X133857836Y-90890000D02*
X133642164Y-90890000D01*
X133857836Y-91610000D02*
X133642164Y-91610000D01*
%TO.C,C44*%
X171892164Y-101365000D02*
X172107836Y-101365000D01*
X171892164Y-102085000D02*
X172107836Y-102085000D01*
%TO.C,C158*%
X132647164Y-78725000D02*
X132862836Y-78725000D01*
X132647164Y-79445000D02*
X132862836Y-79445000D01*
%TO.C,R88*%
X189114564Y-89905000D02*
X184760436Y-89905000D01*
X189114564Y-93325000D02*
X184760436Y-93325000D01*
%TO.C,C140*%
X142290000Y-94342164D02*
X142290000Y-94557836D01*
X143010000Y-94342164D02*
X143010000Y-94557836D01*
%TO.C,R37*%
X152796359Y-94170000D02*
X153103641Y-94170000D01*
X152796359Y-94930000D02*
X153103641Y-94930000D01*
%TO.C,C8*%
X216607836Y-114390000D02*
X216392164Y-114390000D01*
X216607836Y-115110000D02*
X216392164Y-115110000D01*
%TO.C,C163*%
X142136252Y-122140000D02*
X140713748Y-122140000D01*
X142136252Y-124860000D02*
X140713748Y-124860000D01*
%TO.C,R59*%
X124459891Y-98657500D02*
X124152609Y-98657500D01*
X124459891Y-99417500D02*
X124152609Y-99417500D01*
%TO.C,R97*%
X163790000Y-75660436D02*
X163790000Y-80014564D01*
X167210000Y-75660436D02*
X167210000Y-80014564D01*
%TO.C,R51*%
X131803641Y-116470000D02*
X131496359Y-116470000D01*
X131803641Y-117230000D02*
X131496359Y-117230000D01*
%TO.C,C63*%
X116796250Y-104265336D02*
X116796250Y-104049664D01*
X117516250Y-104265336D02*
X117516250Y-104049664D01*
%TO.C,C131*%
X185126248Y-97930000D02*
X185648752Y-97930000D01*
X185126248Y-99400000D02*
X185648752Y-99400000D01*
%TO.C,R53*%
X125646359Y-102820000D02*
X125953641Y-102820000D01*
X125646359Y-103580000D02*
X125953641Y-103580000D01*
%TD*%
M02*
